<?xml version="1.0" encoding="UTF-8"?>
<svg width="111px" height="111px" viewBox="0 0 111 111" version="1.1" xmlns="http://www.w3.org/2000/svg" xmlns:xlink="http://www.w3.org/1999/xlink">
    <!-- Generator: Sketch 46.2 (44496) - http://www.bohemiancoding.com/sketch -->
    <title>Page 1 Copy 5</title>
    <desc>Created with Sketch.</desc>
    <defs></defs>
    <g id="Page-1" stroke="none" stroke-width="1" fill="none" fill-rule="evenodd" stroke-linecap="round" stroke-linejoin="round">
        <g id="Page-1-Copy-5" transform="translate(1.000000, 1.000000)" stroke="#5D6E8A" stroke-width="2">
            <path d="M32.3228698,35.710452 L48.5995993,35.710452 L35.5388309,49.4572538 C36.3431679,49.3212024 37.179401,49.2496702 38.0378227,49.2496702 C44.2381514,49.2496702 49.2638707,52.9735513 49.2638707,57.571247 C49.2638707,62.1661376 44.3015038,67.7541848 33.5884318,65.1510347" id="Stroke-1"></path>
            <path d="M77.579306,50.8003756 C77.579306,59.1345758 72.9599156,65.8922628 67.2602173,65.8922628 C61.5591322,65.8922628 56.938355,59.1345758 56.938355,50.8003756 C56.938355,42.4675781 61.5591322,35.709891 67.2602173,35.709891 C72.9599156,35.709891 77.579306,42.4675781 77.579306,50.8003756 Z" id="Stroke-3"></path>
            <polyline id="Stroke-5" points="100.136243 83.9845743 100.136243 39.3078194 54.4374217 9.34144666 8.7372133 39.3078194 8.7372133 83.9845743"></polyline>
            <polyline id="Stroke-7" points="108.861913 35.7103118 86.1449402 20.8133848 86.1449402 0.63008957 71.6502331 0.63008957 71.6502331 11.3094231 54.4374217 0.0213647509 0.011543843 35.7103118"></polyline>
            <polygon id="Stroke-9" fill="#FFFFFF" points="2.28823353 108.114623 108.861497 108.114623 108.861497 89.4124641 2.28823353 89.4124641"></polygon>
            <path d="M2.28906561,96.8127355 L108.862329,96.8127355" id="Stroke-11"></path>
            <polyline id="Stroke-12" points="42.6644245 83.9845743 42.6644245 73.8340178 66.2106962 73.8340178 66.2106962 83.9845743"></polyline>
        </g>
    </g>
</svg>