<?xml version="1.0" encoding="utf-8"?>
<!-- Generator: Adobe Illustrator 21.0.2, SVG Export Plug-In . SVG Version: 6.00 Build 0)  -->
<svg version="1.1" id="Capa_1" xmlns="http://www.w3.org/2000/svg" xmlns:xlink="http://www.w3.org/1999/xlink" x="0px" y="0px"
	 viewBox="0 0 76 76" style="enable-background:new 0 0 76 76;" xml:space="preserve">
<style type="text/css">
	.st0{fill:none;}
	.st1{fill:#FFFFFF;stroke:#5B6D88;stroke-width:2;stroke-linecap:round;stroke-linejoin:round;stroke-miterlimit:10;}
	.st2{fill:#5B6D88;stroke:#5B6D88;stroke-width:2;stroke-linecap:round;stroke-linejoin:round;stroke-miterlimit:10;}
	.st3{fill:none;stroke:#FFFFFF;stroke-linecap:round;stroke-linejoin:round;stroke-miterlimit:10;}
	.st4{fill:#98BDE4;stroke:#5B6D88;stroke-width:2;stroke-linecap:round;stroke-linejoin:round;stroke-miterlimit:10;}
	.st5{fill:#ADC9E9;stroke:#5B6D88;stroke-width:2;stroke-linecap:round;stroke-linejoin:round;stroke-miterlimit:10;}
	.st6{fill:#BDDCFF;}
	.st7{fill:#FFFFFF;}
	.st8{fill:#5B6D88;}
</style>
<rect x="-774.2" y="-943.4" class="st0" width="1619.2" height="5953.5"/>
<g>
	<path class="st1" d="M49.7,38.7c0,7.9,5.6,10.5,12.5,10.5s12.5-2.6,12.5-10.5c0-2.1-5.6-3.8-12.5-3.8S49.7,36.6,49.7,38.7z"/>
	<ellipse class="st2" cx="62.2" cy="38.7" rx="12.5" ry="3.8"/>
	<polyline class="st3" points="74.5,38 62.2,13.3 49.9,38 	"/>
	<path class="st1" d="M26.3,38.7c0,7.9-5.6,10.5-12.5,10.5S1.2,46.6,1.2,38.7c0-2.1,5.6-3.8,12.5-3.8S26.3,36.6,26.3,38.7z"/>
	<ellipse class="st2" cx="13.8" cy="38.7" rx="12.5" ry="3.8"/>
	<polyline class="st3" points="1.5,38 13.8,13.3 26.1,38 	"/>
	<path class="st4" d="M52,63c0,3.7-6.3,6.7-14,6.7s-14-3-14-6.7c0-3.7,6.3-10.5,14-10.5S52,59.3,52,63z"/>
	<path class="st5" d="M35.1,52.7v-38c0-1.6,1.3-2.9,2.9-2.9h0c1.6,0,2.9,1.3,2.9,2.9v38C40.9,54.3,35.1,54.3,35.1,52.7z"/>
	<path class="st5" d="M11.6,13.3L11.6,13.3c0-1.3,1.1-2.4,2.4-2.4H62c1.3,0,2.4,1.1,2.4,2.4v0c0,1.3-1.1,2.4-2.4,2.4H14
		C12.7,15.7,11.6,14.6,11.6,13.3z"/>
	<path class="st5" d="M43.3,10.7c0-2.9-2.4-5.3-5.3-5.3s-5.3,2.4-5.3,5.3v3.8h10.7V10.7z"/>
	<circle class="st1" cx="38" cy="14.8" r="5.3"/>
	
		<ellipse transform="matrix(0.9975 -7.111700e-02 7.111700e-02 0.9975 -4.4344 3.1509)" class="st6" cx="42" cy="63.9" rx="4.2" ry="2.1"/>
	<g>
		<path class="st7" d="M57.4,40c-2.3,0-4.2-1.9-4.2-4.2c0-2,1.4-3.7,3.3-4.1c0.4-2.4,2.5-4.2,5.1-4.2c1.8,0,3.5,1,4.4,2.5
			c1.9,0,3.4,1.6,3.4,3.4c0,0.1,0,0.1,0,0.2c1.1,0.6,1.8,1.7,1.8,3c0,1.9-1.5,3.4-3.4,3.4H57.4z"/>
		<path class="st8" d="M61.6,28.4c1.7,0,3.2,1.1,3.8,2.6c0.2,0,0.4-0.1,0.5-0.1c1.3,0,2.4,1.1,2.4,2.4c0,0.3-0.1,0.6-0.2,0.9
			c1.1,0.2,1.9,1.2,1.9,2.4c0,1.3-1.1,2.4-2.4,2.4c-1.3,0-8.8,0-10.3,0c-1.8,0-3.2-1.4-3.2-3.2s1.4-3.2,3.2-3.2c0,0,0,0,0,0
			c0,0,0,0,0,0C57.5,30.3,59.3,28.4,61.6,28.4 M61.6,26.4c-2.8,0-5.2,1.9-5.9,4.4c-2,0.7-3.5,2.7-3.5,4.9c0,2.9,2.3,5.2,5.2,5.2
			h10.3c2.4,0,4.4-2,4.4-4.4c0-1.4-0.7-2.7-1.8-3.6c-0.2-2.1-1.8-3.8-3.8-4.1C65.5,27.4,63.6,26.4,61.6,26.4L61.6,26.4z"/>
	</g>
	<g>
		<rect x="6.1" y="32.9" class="st1" width="8.5" height="8.5"/>
		<polygon class="st4" points="14.5,41.4 19.5,36.5 19.5,28.1 14.5,32.9 		"/>
		<polygon class="st5" points="6.1,32.9 11.1,28.1 19.5,28.1 14.5,32.9 		"/>
	</g>
</g>
<path class="st5" d="M80,30.5"/>
</svg>
