<?xml version="1.0" encoding="utf-8"?>
<!-- Generator: Adobe Illustrator 21.0.2, SVG Export Plug-In . SVG Version: 6.00 Build 0)  -->
<svg version="1.1" id="Capa_1" xmlns="http://www.w3.org/2000/svg" xmlns:xlink="http://www.w3.org/1999/xlink" x="0px" y="0px"
	 viewBox="0 0 76 76" style="enable-background:new 0 0 76 76;" xml:space="preserve">
<style type="text/css">
	.st0{fill:none;}
	.st1{fill:#ADC9E9;stroke:#5B6D88;stroke-width:2;stroke-linecap:round;stroke-linejoin:round;stroke-miterlimit:10;}
	.st2{fill:#98BDE4;stroke:#5B6D88;stroke-width:2;stroke-linecap:round;stroke-linejoin:round;stroke-miterlimit:10;}
	.st3{fill:#FFFFFF;stroke:#5B6D88;stroke-width:2;stroke-linecap:round;stroke-linejoin:round;stroke-miterlimit:10;}
	.st4{fill:#98BDE4;}
</style>
<rect x="-774.2" y="-943.4" class="st0" width="1619.2" height="5953.5"/>
<path class="st1" d="M80,30.5"/>
<g>
	<g>
		<polygon class="st1" points="51.8,72 3.3,72 24.2,48.6 72.7,56.6 		"/>
		<polygon class="st1" points="51.8,53.3 3.3,53.3 24.2,37.9 72.7,37.9 		"/>
		<rect x="3.3" y="53.3" class="st1" width="48.4" height="18.7"/>
		<polygon class="st1" points="72.7,56.6 51.8,72 51.8,53.3 72.7,37.9 		"/>
	</g>
	<g>
		<polygon class="st1" points="51.8,48.6 3.3,48.6 24.2,33.2 72.7,33.2 		"/>
		<polygon class="st2" points="51.8,37.9 3.3,37.9 24.2,22.5 72.7,22.5 		"/>
		<rect x="3.3" y="37.9" class="st2" width="48.4" height="10.7"/>
		<polygon class="st2" points="72.7,33.2 51.8,48.6 51.8,37.9 72.7,22.5 		"/>
	</g>
	<g>
		<polygon class="st1" points="51.8,33.2 3.3,33.2 24.2,17.8 72.7,17.8 		"/>
		<polygon class="st3" points="51.8,22.5 3.3,22.5 24.2,7.1 72.7,7.1 		"/>
		<rect x="3.3" y="22.5" class="st3" width="48.4" height="10.7"/>
		<polygon class="st3" points="72.7,17.8 51.8,33.2 51.8,22.5 72.7,7.1 		"/>
	</g>
	<ellipse class="st4" cx="19.2" cy="18" rx="2.4" ry="0.9"/>
	<ellipse class="st4" cx="32.4" cy="18" rx="2.4" ry="0.9"/>
	<ellipse class="st4" cx="45.6" cy="18" rx="2.4" ry="0.9"/>
	<ellipse class="st4" cx="29.2" cy="11.6" rx="2.4" ry="0.9"/>
	<ellipse class="st4" cx="42.4" cy="11.6" rx="2.4" ry="0.9"/>
	<ellipse class="st4" cx="55.6" cy="11.6" rx="2.4" ry="0.9"/>
</g>
</svg>
