<svg xmlns="http://www.w3.org/2000/svg" width="656" height="209" viewBox="0 0 656 209">
    <path fill="#87A1CA" fill-rule="evenodd" d="M655.42 208.324c-4.406-11.998-15.933-20.558-29.458-20.558a31.41 31.41 0 0 0-3.33.182c.15-1.219.237-2.457.237-3.716 0-16.595-13.453-30.047-30.047-30.047-4.212 0-8.219.869-11.857 2.434-5.398-21.712-24.824-37.878-48.1-38.323-14.724-27.232-42.922-46.109-75.659-47.697C437.156 28.835 394.47 0 345.046 0c-44.28 0-83.147 23.148-105.178 57.999a91.841 91.841 0 0 0-19.17-2.017c-37.515 0-69.753 22.58-83.878 54.887a68.89 68.89 0 0 0-19.128-2.694c-32.988 0-60.554 23.197-67.289 54.166a42.404 42.404 0 0 0-8.218-.802C18.887 161.54 0 180.426 0 203.724c0 1.554.087 3.089.251 4.6H655.42z"/>
</svg>
