<svg xmlns="http://www.w3.org/2000/svg" xmlns:xlink="http://www.w3.org/1999/xlink" width="285" height="206" viewBox="0 0 285 206">
    <defs>
        <path id="a" d="M0 14.46V0h6.701v14.46z"/>
        <path id="c" d="M0 14.46V0h6.701v14.46z"/>
    </defs>
    <g fill="none" fill-rule="evenodd">
        <path stroke="#5D6E8A" stroke-linecap="round" stroke-linejoin="round" stroke-width="2.265" d="M281.494 186.31H1.31"/>
        <path fill="#FFF" d="M90.82 119.879c46.995 0 61.964 33.215 61.964 33.215s-14.97 33.216-61.965 33.216c-45.614 0-61.964-33.216-61.964-33.216s16.35-33.215 61.964-33.215"/>
        <path stroke="#5D6E8A" stroke-linecap="round" stroke-linejoin="round" stroke-width="2.265" d="M90.82 119.879c46.995 0 61.964 33.215 61.964 33.215s-14.97 33.216-61.965 33.216c-45.614 0-61.964-33.216-61.964-33.216s16.35-33.215 61.964-33.215z"/>
        <path fill="#5D6E8A" d="M154.05 152.12v1.509c0 .417-.344.759-.766.759H27.894a.764.764 0 0 1-.765-.76v-1.508c0-.417.344-.76.764-.76h125.391c.422 0 .766.343.766.76"/>
        <path fill="#C0D6ED" d="M45.993 144.842c-1.194.108-2.256-.734-2.548-1.939a3.631 3.631 0 0 0-.658 2.399c.15 1.91 1.712 3.327 3.49 3.167 1.778-.16 3.099-1.84 2.95-3.749a3.554 3.554 0 0 0-1.023-2.247c-.1 1.24-1.016 2.262-2.21 2.37M61.351 144.842c-1.195.108-2.256-.734-2.549-1.939a3.638 3.638 0 0 0-.657 2.399c.15 1.91 1.713 3.327 3.49 3.167 1.778-.16 3.098-1.84 2.95-3.749a3.554 3.554 0 0 0-1.023-2.247c-.1 1.24-1.016 2.262-2.21 2.37M76.71 144.842c-1.196.108-2.257-.734-2.55-1.939a3.631 3.631 0 0 0-.657 2.399c.15 1.91 1.712 3.327 3.49 3.167 1.778-.16 3.098-1.84 2.95-3.749a3.554 3.554 0 0 0-1.023-2.247c-.1 1.24-1.016 2.262-2.21 2.37M92.067 144.842c-1.195.108-2.257-.734-2.549-1.939a3.638 3.638 0 0 0-.657 2.399c.15 1.91 1.713 3.327 3.49 3.167 1.779-.16 3.098-1.84 2.949-3.749a3.554 3.554 0 0 0-1.022-2.247c-.1 1.24-1.016 2.262-2.211 2.37M56.888 132.11c-1.195.109-2.257-.732-2.55-1.938a3.633 3.633 0 0 0-.656 2.4c.149 1.908 1.711 3.326 3.49 3.165 1.777-.16 3.098-1.839 2.949-3.748a3.554 3.554 0 0 0-1.023-2.247c-.1 1.24-1.016 2.261-2.21 2.369M70.634 132.11c-1.195.109-2.256-.732-2.548-1.938a3.633 3.633 0 0 0-.658 2.4c.15 1.908 1.712 3.326 3.49 3.165 1.778-.16 3.098-1.839 2.95-3.748a3.554 3.554 0 0 0-1.023-2.247c-.1 1.24-1.016 2.261-2.21 2.369M84.38 132.11c-1.194.109-2.256-.732-2.548-1.938a3.633 3.633 0 0 0-.657 2.4c.149 1.908 1.711 3.326 3.49 3.165 1.777-.16 3.098-1.839 2.949-3.748a3.554 3.554 0 0 0-1.022-2.247c-.1 1.24-1.016 2.261-2.211 2.369M98.127 132.11c-1.195.109-2.256-.732-2.548-1.938a3.633 3.633 0 0 0-.658 2.4c.15 1.908 1.712 3.326 3.49 3.165 1.778-.16 3.099-1.839 2.95-3.748a3.554 3.554 0 0 0-1.023-2.247c-.1 1.24-1.016 2.261-2.21 2.369M111.874 132.11c-1.195.109-2.257-.732-2.549-1.938a3.64 3.64 0 0 0-.657 2.4c.149 1.908 1.712 3.326 3.49 3.165 1.779-.16 3.098-1.839 2.949-3.748a3.554 3.554 0 0 0-1.022-2.247c-.1 1.24-1.016 2.261-2.211 2.369M125.62 132.11c-1.195.109-2.256-.732-2.548-1.938a3.64 3.64 0 0 0-.658 2.4c.15 1.908 1.713 3.326 3.49 3.165 1.78-.16 3.098-1.839 2.95-3.748a3.554 3.554 0 0 0-1.023-2.247c-.1 1.24-1.016 2.261-2.21 2.369M107.425 144.842c-1.195.108-2.257-.734-2.549-1.939a3.631 3.631 0 0 0-.657 2.399c.15 1.91 1.712 3.327 3.49 3.167 1.778-.16 3.098-1.84 2.949-3.749a3.554 3.554 0 0 0-1.022-2.247c-.1 1.24-1.016 2.262-2.211 2.37M122.783 144.842c-1.195.108-2.257-.734-2.549-1.939a3.638 3.638 0 0 0-.657 2.399c.149 1.91 1.713 3.327 3.49 3.167 1.779-.16 3.098-1.84 2.949-3.749a3.554 3.554 0 0 0-1.022-2.247c-.1 1.24-1.016 2.262-2.211 2.37M138.14 144.842c-1.194.108-2.256-.734-2.548-1.939a3.638 3.638 0 0 0-.657 2.399c.15 1.91 1.711 3.327 3.49 3.167 1.778-.16 3.098-1.84 2.949-3.749a3.554 3.554 0 0 0-1.022-2.247c-.1 1.24-1.016 2.262-2.211 2.37M45.993 160.119c-1.194.107-2.256-.734-2.548-1.94a3.633 3.633 0 0 0-.658 2.4c.15 1.909 1.712 3.327 3.49 3.166 1.778-.16 3.099-1.839 2.95-3.749a3.554 3.554 0 0 0-1.023-2.246c-.1 1.24-1.016 2.26-2.21 2.369M61.351 160.119c-1.195.107-2.256-.734-2.549-1.94a3.64 3.64 0 0 0-.657 2.4c.15 1.909 1.713 3.327 3.49 3.166 1.778-.16 3.098-1.839 2.95-3.749a3.554 3.554 0 0 0-1.023-2.246c-.1 1.24-1.016 2.26-2.21 2.369M76.71 160.119c-1.196.107-2.257-.734-2.55-1.94a3.633 3.633 0 0 0-.657 2.4c.15 1.909 1.712 3.327 3.49 3.166 1.778-.16 3.098-1.839 2.95-3.749a3.554 3.554 0 0 0-1.023-2.246c-.1 1.24-1.016 2.26-2.21 2.369M92.067 160.119c-1.195.107-2.257-.734-2.549-1.94a3.64 3.64 0 0 0-.657 2.4c.15 1.909 1.713 3.327 3.49 3.166 1.779-.16 3.098-1.839 2.949-3.749a3.554 3.554 0 0 0-1.022-2.246c-.1 1.24-1.016 2.26-2.211 2.369M56.888 170.28c-1.195.108-2.257-.734-2.55-1.94a3.631 3.631 0 0 0-.656 2.399c.149 1.91 1.711 3.328 3.49 3.167 1.777-.16 3.098-1.839 2.949-3.749a3.554 3.554 0 0 0-1.023-2.246c-.1 1.24-1.016 2.261-2.21 2.369M70.634 173.284c-1.195.107-2.256-.734-2.548-1.94a3.633 3.633 0 0 0-.658 2.4c.15 1.909 1.712 3.327 3.49 3.166 1.778-.16 3.098-1.839 2.95-3.749a3.554 3.554 0 0 0-1.023-2.246c-.1 1.24-1.016 2.26-2.21 2.369M84.38 174.808c-1.194.108-2.256-.735-2.548-1.94a3.631 3.631 0 0 0-.657 2.4c.149 1.909 1.711 3.327 3.49 3.166 1.777-.16 3.098-1.839 2.949-3.748a3.554 3.554 0 0 0-1.022-2.247c-.1 1.24-1.016 2.261-2.211 2.369M98.127 174.808c-1.195.108-2.256-.735-2.548-1.94a3.631 3.631 0 0 0-.658 2.4c.15 1.909 1.712 3.327 3.49 3.166 1.778-.16 3.099-1.839 2.95-3.748a3.554 3.554 0 0 0-1.023-2.247c-.1 1.24-1.016 2.261-2.21 2.369M111.874 173.284c-1.195.107-2.257-.734-2.549-1.94a3.64 3.64 0 0 0-.657 2.4c.149 1.909 1.712 3.327 3.49 3.166 1.779-.16 3.098-1.839 2.949-3.749a3.554 3.554 0 0 0-1.022-2.246c-.1 1.24-1.016 2.26-2.211 2.369M125.62 170.28c-1.195.108-2.256-.734-2.548-1.94a3.638 3.638 0 0 0-.658 2.399c.15 1.91 1.713 3.328 3.49 3.167 1.78-.16 3.098-1.839 2.95-3.749a3.554 3.554 0 0 0-1.023-2.246c-.1 1.24-1.016 2.261-2.21 2.369M107.425 160.119c-1.195.107-2.257-.734-2.549-1.94a3.633 3.633 0 0 0-.657 2.4c.15 1.909 1.712 3.327 3.49 3.166 1.778-.16 3.098-1.839 2.949-3.749a3.554 3.554 0 0 0-1.022-2.246c-.1 1.24-1.016 2.26-2.211 2.369M122.783 160.119c-1.195.107-2.257-.734-2.549-1.94a3.64 3.64 0 0 0-.657 2.4c.149 1.909 1.713 3.327 3.49 3.166 1.779-.16 3.098-1.839 2.949-3.749a3.554 3.554 0 0 0-1.022-2.246c-.1 1.24-1.016 2.26-2.211 2.369M138.14 160.119c-1.194.107-2.256-.734-2.548-1.94a3.64 3.64 0 0 0-.657 2.4c.15 1.909 1.711 3.327 3.49 3.166 1.778-.16 3.098-1.839 2.949-3.749a3.554 3.554 0 0 0-1.022-2.246c-.1 1.24-1.016 2.26-2.211 2.369"/>
        <path fill="#FFF" d="M204.173 5.268c-24.78 0-46.648 12.22-60.574 30.569-15.295 20.15-45.89 18.652-45.89 18.652h-.849a1.02 1.02 0 0 1-1.016-.898c-.447-3.805-3.705-6.757-7.657-6.757-4.258 0-7.709 3.427-7.709 7.655H68.589c-19.882 0-36.365 16.151-36.294 35.891.072 19.689 16.168 35.627 36.014 35.627h12.909a7.032 7.032 0 0 0 7.02 6.48 7.03 7.03 0 0 0 7.018-6.48h2.453s30.595-1.498 45.89 18.652c13.926 18.35 35.794 40.343 60.574 40.343h77.322"/>
        <path stroke="#5D6E8A" stroke-linecap="round" stroke-linejoin="round" stroke-width="2.265" d="M204.173 5.268c-24.78 0-46.648 12.22-60.574 30.569-15.295 20.15-45.89 18.652-45.89 18.652h-.849a1.02 1.02 0 0 1-1.016-.898c-.447-3.805-3.705-6.757-7.657-6.757-4.258 0-7.709 3.427-7.709 7.655H68.589c-19.882 0-36.365 16.151-36.294 35.891.072 19.689 16.168 35.627 36.014 35.627h12.909a7.032 7.032 0 0 0 7.02 6.48 7.03 7.03 0 0 0 7.018-6.48h2.453s30.595-1.498 45.89 18.652c13.926 18.35 35.794 40.343 60.574 40.343h77.322"/>
        <path stroke="#5D6E8A" stroke-width="2.265" d="M212.6 1.305c7.702 0 13.945 8.213 13.945 18.345v86.273s-2.621 66.13 31.704 79.08H276.1"/>
        <path stroke="#5D6E8A" stroke-width="2.265" d="M226.604 1.305c7.702 0 13.945 8.213 13.945 18.345v86.273s-2.622 66.13 31.704 79.08"/>
        <path fill="#C0D6ED" d="M153.216 98.473c-1.942 0-3.517 1.564-3.517 3.492 0 1.929 1.575 3.492 3.517 3.492s3.517-1.563 3.517-3.492c0-1.928-1.575-3.492-3.517-3.492m0 43.162c-1.942 0-3.517 1.564-3.517 3.493 0 1.929 1.575 3.492 3.517 3.492s3.517-1.563 3.517-3.492c0-1.93-1.575-3.493-3.517-3.493m0-64.742c-1.942 0-3.517 1.564-3.517 3.492s1.575 3.492 3.517 3.492 3.517-1.564 3.517-3.492-1.575-3.492-3.517-3.492m0 43.162c-1.942 0-3.517 1.563-3.517 3.492 0 1.928 1.575 3.491 3.517 3.491s3.517-1.563 3.517-3.491c0-1.929-1.575-3.492-3.517-3.492m24.795 43.162c-1.942 0-3.518 1.563-3.518 3.491 0 1.929 1.576 3.492 3.518 3.492 1.942 0 3.517-1.563 3.517-3.492 0-1.928-1.575-3.491-3.517-3.491M153.216 33.73c-1.942 0-3.517 1.564-3.517 3.492 0 1.93 1.575 3.493 3.517 3.493s3.517-1.563 3.517-3.493c0-1.928-1.575-3.492-3.517-3.492m0 21.582c-1.942 0-3.517 1.563-3.517 3.491 0 1.929 1.575 3.492 3.517 3.492s3.517-1.563 3.517-3.492c0-1.928-1.575-3.491-3.517-3.491m24.795 86.323c-1.942 0-3.518 1.564-3.518 3.493 0 1.929 1.576 3.492 3.518 3.492 1.942 0 3.517-1.563 3.517-3.492 0-1.93-1.575-3.493-3.517-3.493m24.795 0c-1.943 0-3.517 1.564-3.517 3.493 0 1.929 1.574 3.492 3.517 3.492 1.943 0 3.516-1.563 3.516-3.492 0-1.93-1.573-3.493-3.516-3.493m-24.795-21.58c-1.942 0-3.518 1.563-3.518 3.492 0 1.928 1.576 3.491 3.518 3.491 1.942 0 3.517-1.563 3.517-3.491 0-1.929-1.575-3.492-3.517-3.492m24.795-107.906c-1.943 0-3.517 1.563-3.517 3.493 0 1.928 1.574 3.491 3.517 3.491 1.943 0 3.516-1.563 3.516-3.491 0-1.93-1.573-3.493-3.516-3.493m0 21.581c-1.943 0-3.517 1.564-3.517 3.492 0 1.93 1.574 3.493 3.517 3.493 1.943 0 3.516-1.563 3.516-3.493 0-1.928-1.573-3.492-3.516-3.492m0 21.582c-1.943 0-3.517 1.563-3.517 3.491 0 1.929 1.574 3.492 3.517 3.492 1.943 0 3.516-1.563 3.516-3.492 0-1.928-1.573-3.491-3.516-3.491M178.01 33.73c-1.942 0-3.518 1.564-3.518 3.492 0 1.93 1.576 3.493 3.518 3.493 1.942 0 3.517-1.563 3.517-3.493 0-1.928-1.575-3.492-3.517-3.492m0 21.582c-1.942 0-3.518 1.563-3.518 3.491 0 1.929 1.576 3.492 3.518 3.492 1.942 0 3.517-1.563 3.517-3.492 0-1.928-1.575-3.491-3.517-3.491m0-43.163c-1.942 0-3.518 1.563-3.518 3.493 0 1.928 1.576 3.491 3.518 3.491 1.942 0 3.517-1.563 3.517-3.491 0-1.93-1.575-3.493-3.517-3.493m0 86.324c-1.942 0-3.518 1.564-3.518 3.492 0 1.929 1.576 3.492 3.518 3.492 1.942 0 3.517-1.563 3.517-3.492 0-1.928-1.575-3.492-3.517-3.492m0-21.58c-1.942 0-3.518 1.564-3.518 3.492s1.576 3.492 3.518 3.492c1.942 0 3.517-1.564 3.517-3.492s-1.575-3.492-3.517-3.492m24.795 0c-1.943 0-3.517 1.564-3.517 3.492s1.574 3.492 3.517 3.492c1.943 0 3.516-1.564 3.516-3.492s-1.573-3.492-3.516-3.492m0 21.58c-1.943 0-3.517 1.564-3.517 3.492 0 1.929 1.574 3.492 3.517 3.492 1.943 0 3.516-1.563 3.516-3.492 0-1.928-1.573-3.492-3.516-3.492m0 21.582c-1.943 0-3.517 1.563-3.517 3.492 0 1.928 1.574 3.491 3.517 3.491 1.943 0 3.516-1.563 3.516-3.491 0-1.929-1.573-3.492-3.516-3.492m0 43.162c-1.943 0-3.517 1.563-3.517 3.491 0 1.929 1.574 3.492 3.517 3.492 1.943 0 3.516-1.563 3.516-3.492 0-1.928-1.573-3.491-3.516-3.491"/>
        <path fill="#5D6E8A" d="M204.173 5.267c-1.602 0-3.19.056-4.767.157 3.147 3.361 5.163 8.478 5.163 14.225v86.274s-2.194 59.465 24.168 79.08h12.878c-34.326-12.95-31.703-79.08-31.703-79.08V19.65c0-6.096-2.27-11.481-5.749-14.817l.01.435z"/>
        <path fill="#FFF7B7" d="M159.604 90.248l-25.06-45.79a48.29 48.29 0 0 1-7.515 4.254l22.733 41.536-22.733 41.536a48.29 48.29 0 0 1 7.514 4.254l25.06-45.79z"/>
        <path stroke="#5D6E8A" stroke-linecap="round" stroke-linejoin="round" stroke-width="2.265" d="M159.604 90.248l-25.06-45.79a48.29 48.29 0 0 1-7.515 4.254l22.733 41.536-22.733 41.536a48.29 48.29 0 0 1 7.514 4.254l25.06-45.79zM259.466 1.305h-63.5M185.406 7.669c2.558-3.897 6.34-6.363 10.56-6.363 7.702 0 13.945 8.213 13.945 18.343v86.273s-2.622 66.132 31.704 79.08h42.235"/>
        <path fill="#5D6E8A" d="M80.556 54.488H68.31c-19.89 0-36.013 16.011-36.013 35.76 0 19.75 16.123 35.759 36.013 35.759h12.91c.072-.38-.2-11.007-9.04-11.007-.878 0-1.739.043-2.577.127.666-4.979-.548-9.229-3.7-11.26-1.591-1.025-3.501-1.371-5.556-1.125.322-.446.63-.89.917-1.33 7.376-11.287 7.853-23.983 1.066-28.355a8.482 8.482 0 0 0-.526-.313s15.162-4.156 18.675-18.256"/>
        <path stroke="#5D6E8A" stroke-linecap="round" stroke-linejoin="round" stroke-width="2.265" d="M80.556 54.488H68.31c-19.89 0-36.013 16.011-36.013 35.76 0 19.75 16.123 35.759 36.013 35.759h12.91c.072-.38-.2-11.007-9.04-11.007-.878 0-1.739.043-2.577.127.666-4.979-.548-9.229-3.7-11.26-1.591-1.025-3.501-1.371-5.556-1.125.322-.446.63-.89.917-1.33 7.376-11.287 7.853-23.983 1.066-28.355a8.482 8.482 0 0 0-.526-.313s15.162-4.156 18.675-18.256"/>
        <path fill="#5D6E8A" d="M30.678 67.866c4.3.628 8.769 2.18 8.608 3.264-.16 1.085-4.89 1.292-9.19.663-4.3-.628-6.542-1.854-6.382-2.939.16-1.085 2.664-1.616 6.964-.988"/>
        <path stroke="#5D6E8A" stroke-linecap="round" stroke-linejoin="round" stroke-width="2.265" d="M30.678 67.866c4.3.628 8.769 2.18 8.608 3.264-.16 1.085-4.89 1.292-9.19.663-4.3-.628-6.542-1.854-6.382-2.939.16-1.085 2.664-1.616 6.964-.988z"/>
        <path fill="#5D6E8A" d="M36.873 62.474c2.055 3.803 3.386 8.138 2.414 8.656-.973.518-3.96-3.128-6.016-6.93-2.055-3.803-2.4-6.322-1.428-6.84.972-.519 2.974 1.311 5.03 5.114"/>
        <path stroke="#5D6E8A" stroke-linecap="round" stroke-linejoin="round" stroke-width="2.265" d="M36.873 62.474c2.055 3.803 3.386 8.138 2.414 8.656-.973.518-3.96-3.128-6.016-6.93-2.055-3.803-2.4-6.322-1.428-6.84.972-.519 2.974 1.311 5.03 5.114zM85.077 53.756a2.804 2.804 0 0 1 2.814-2.794c.631 0 1.213.206 1.683.553M85.077 125.309a2.804 2.804 0 0 0 2.814 2.794c.631 0 1.213-.206 1.683-.554M78.06 85.486c-2.07 0-4.944-1.667-4.944-3.722 0-2.055 2.874-3.721 4.945-3.721M84.44 78.043c2.07 0 3.748 1.666 3.748 3.722 0 2.054-1.678 3.72-3.749 3.72M78.06 95.01c-2.07 0-4.944 1.666-4.944 3.722 0 2.054 2.874 3.72 4.945 3.72M84.44 102.453c2.07 0 3.748-1.666 3.748-3.722 0-2.054-1.678-3.72-3.749-3.72M83.898 92.116h18.013c.985 0 1.483-1.18.79-1.875-2.127-2.139-6.054-5.462-10.663-6.393"/>
        <path fill="#5D6E8A" d="M111.274 82.337c0-1.45-1.194-2.637-2.656-2.637 1.462 0 2.656-1.186 2.656-2.637 0-1.45-1.194-2.637-2.656-2.637h-1.229c-.233 0-.457.034-.673.089-4.627.63-8.222 4.594-8.222 9.354v2.86a29.41 29.41 0 0 1 4.208 3.511c.692.696.194 1.875-.791 1.875h-3.417v4.512c0 4.76 3.595 8.724 8.222 9.354.216.056.44.089.673.089h1.229c1.462 0 2.656-1.186 2.656-2.637 0-1.45-1.194-2.638-2.656-2.638 1.462 0 2.656-1.186 2.656-2.637 0-1.45-1.194-2.636-2.656-2.636 1.462 0 2.656-1.186 2.656-2.637 0-1.45-1.194-2.637-2.656-2.637 1.462 0 2.656-1.187 2.656-2.638 0-1.45-1.194-2.636-2.656-2.636 1.462 0 2.656-1.186 2.656-2.637"/>
        <path fill="#FFD0DB" d="M106.952 110.491c3.002 0 5.434 2.416 5.434 5.396s-2.432 5.395-5.434 5.395c-3 0-5.434-2.415-5.434-5.395 0-2.98 2.433-5.396 5.434-5.396M106.952 70.005c3.002 0 5.434-2.416 5.434-5.396s-2.432-5.396-5.434-5.396c-3 0-5.434 2.416-5.434 5.396s2.433 5.396 5.434 5.396" opacity=".353"/>
        <path stroke="#5D6E8A" stroke-linecap="round" stroke-linejoin="round" stroke-width="2.265" d="M151.031 153.264s31.53-5.441 63.51-3.91M145.688 33.203s36.967 5.904 63.7 4.664"/>
        <path stroke="#8BA7D4" stroke-linecap="round" stroke-linejoin="round" stroke-width="2.265" d="M55.028 75.08s8.427 10.91 0 23.651M50.15 80.079c1.28 3.636 2.071 8.951-.508 14.91"/>
        <path fill="#5D6E8A" d="M204.607 6.082s-4.762-2.44-18.444 1.395c0 0 4.06-6.171 9.804-6.171 5.743 0 7.928 3.049 8.64 4.776"/>
        <path stroke="#5D6E8A" stroke-linecap="round" stroke-linejoin="round" stroke-width="2.265" d="M204.607 6.082s-4.762-2.44-18.444 1.395c0 0 4.06-6.171 9.804-6.171 5.743 0 7.928 3.049 8.64 4.776z"/>
        <g>
            <path fill="#FFF" d="M81.218 126.007s-13.56.817-17.964 4.924"/>
            <path stroke="#5D6E8A" stroke-linecap="round" stroke-linejoin="round" stroke-width="2.265" d="M81.218 126.007s-13.56.817-17.964 4.924"/>
        </g>
        <path stroke="#AFC4E6" stroke-width=".95" d="M29.444 184.828H14.858v-58.46H28.84"/>
        <g transform="translate(16.316 105.231)">
            <mask id="b" fill="#fff">
                <use xlink:href="#a"/>
            </mask>
            <path fill="#5D6E8A" d="M6.533 11.193a.656.656 0 0 0-.86-.02l-1.692 1.459V.549C3.981.245 3.71 0 3.373 0c-.335 0-.607.244-.607.548v12.15L1.01 11.303a.653.653 0 0 0-.858.05.51.51 0 0 0 .054.772l2.765 2.198c.03.024.067.036.1.054.026.014.05.033.079.042a.654.654 0 0 0 .453 0c.037-.014.066-.038.099-.057.031-.018.065-.03.092-.053l2.72-2.342a.51.51 0 0 0 .019-.774" mask="url(#b)"/>
        </g>
        <g transform="rotate(-180 12.17 102.909)">
            <mask id="d" fill="#fff">
                <use xlink:href="#c"/>
            </mask>
            <path fill="#5D6E8A" d="M6.533 11.193a.656.656 0 0 0-.86-.02l-1.692 1.459V.549C3.981.245 3.71 0 3.373 0c-.335 0-.607.244-.607.548v12.15L1.01 11.303a.653.653 0 0 0-.858.05.51.51 0 0 0 .054.772l2.765 2.198c.03.024.067.036.1.054.026.014.05.033.079.042a.654.654 0 0 0 .453 0c.037-.014.066-.038.099-.057.031-.018.065-.03.092-.053l2.72-2.342a.51.51 0 0 0 .019-.774" mask="url(#d)"/>
        </g>
    </g>
</svg>
