<svg xmlns="http://www.w3.org/2000/svg" xmlns:xlink="http://www.w3.org/1999/xlink" width="295" height="123" viewBox="0 0 295 123">
    <defs>
        <path id="a" d="M0 14.314V.001h6.245v14.313z"/>
    </defs>
    <g fill="none" fill-rule="evenodd">
        <path stroke="#5D6E8A" stroke-linecap="round" stroke-linejoin="round" stroke-width="2.265" d="M292.563 104.193H1.18"/>
        <path fill="#FFF" d="M94.268 60.702c48.873 0 64.44 22.37 64.44 22.37s-15.567 22.37-64.44 22.37c-47.437 0-64.44-22.37-64.44-22.37s17.003-22.37 64.44-22.37"/>
        <path stroke="#84A2D5" stroke-linecap="round" stroke-linejoin="round" stroke-width="2.265" d="M94.268 60.702c48.873 0 64.44 22.37 64.44 22.37s-15.567 22.37-64.44 22.37c-47.437 0-64.44-22.37-64.44-22.37s17.003-22.37 64.44-22.37z"/>
        <path fill="#FFF" d="M94.268 60.702c48.873 0 64.44 22.37 64.44 22.37s-15.567 22.37-64.44 22.37c-47.437 0-64.44-22.37-64.44-22.37s17.003-22.37 64.44-22.37"/>
        <path stroke="#5D6E8A" stroke-linecap="round" stroke-linejoin="round" stroke-width="2.265" d="M94.268 60.702c48.873 0 64.44 22.37 64.44 22.37s-15.567 22.37-64.44 22.37c-47.437 0-64.44-22.37-64.44-22.37s17.003-22.37 64.44-22.37z"/>
        <path fill="#C0D6ED" d="M127.509 99.272c-1.243.096-2.347-.646-2.65-1.709-.49.583-.757 1.325-.684 2.115.08.877.565 1.63 1.27 2.136a93.393 93.393 0 0 0 5.291-1.52c.117-.357.171-.736.135-1.13-.073-.788-.472-1.48-1.062-1.98-.105 1.093-1.058 1.993-2.3 2.088"/>
        <path fill="#5D6E8A" d="M160.026 82.208v1.363a.57.57 0 0 1-.568.57H28.6a.57.57 0 0 1-.568-.57v-1.363a.57.57 0 0 1 .568-.57h130.858a.57.57 0 0 1 .568.57"/>
        <path fill="#C0D6ED" d="M47.65 75.796c-1.242.095-2.346-.647-2.65-1.71a2.853 2.853 0 0 0-.683 2.115c.155 1.684 1.78 2.934 3.629 2.792 1.849-.141 3.222-1.622 3.067-3.305-.073-.79-.472-1.48-1.063-1.98-.104 1.093-1.057 1.993-2.3 2.088M63.622 75.796c-1.242.095-2.346-.647-2.65-1.71-.49.583-.757 1.325-.684 2.115.155 1.684 1.781 2.934 3.63 2.792 1.848-.141 3.222-1.622 3.066-3.305-.073-.79-.471-1.48-1.063-1.98-.103 1.093-1.056 1.993-2.299 2.088M79.594 75.796c-1.242.095-2.347-.647-2.65-1.71a2.853 2.853 0 0 0-.684 2.115c.155 1.684 1.78 2.934 3.629 2.792 1.85-.141 3.222-1.622 3.067-3.305-.073-.79-.472-1.48-1.063-1.98-.104 1.093-1.056 1.993-2.299 2.088M95.566 75.796c-1.243.095-2.347-.647-2.651-1.71-.49.583-.757 1.325-.683 2.115.155 1.684 1.78 2.934 3.629 2.792 1.85-.141 3.222-1.622 3.067-3.305-.073-.79-.472-1.48-1.063-1.98-.104 1.093-1.057 1.993-2.3 2.088M111.537 75.796c-1.242.095-2.346-.647-2.65-1.71a2.853 2.853 0 0 0-.684 2.115c.155 1.684 1.78 2.934 3.63 2.792 1.848-.141 3.222-1.622 3.067-3.305-.074-.79-.472-1.48-1.063-1.98-.104 1.093-1.057 1.993-2.3 2.088M127.509 75.796c-1.243.095-2.347-.647-2.65-1.71-.49.583-.757 1.325-.684 2.115.155 1.684 1.78 2.934 3.629 2.792 1.85-.141 3.222-1.622 3.067-3.305-.073-.79-.472-1.48-1.063-1.98-.104 1.093-1.057 1.993-2.3 2.088M63.622 64.824c-1.242.095-2.346-.647-2.65-1.71-.49.583-.757 1.325-.684 2.115.155 1.684 1.781 2.934 3.63 2.792 1.848-.141 3.222-1.622 3.066-3.305-.073-.79-.471-1.48-1.063-1.98-.103 1.093-1.056 1.993-2.299 2.088M79.594 64.824c-1.242.095-2.347-.647-2.65-1.71a2.853 2.853 0 0 0-.684 2.115c.155 1.684 1.78 2.934 3.629 2.792 1.85-.141 3.222-1.622 3.067-3.305-.073-.79-.472-1.48-1.063-1.98-.104 1.093-1.056 1.993-2.299 2.088M95.566 64.824c-1.243.095-2.347-.647-2.651-1.71-.49.583-.757 1.325-.683 2.115.155 1.684 1.78 2.934 3.629 2.792 1.85-.141 3.222-1.622 3.067-3.305-.073-.79-.472-1.48-1.063-1.98-.104 1.093-1.057 1.993-2.3 2.088M111.537 64.824c-1.242.095-2.346-.647-2.65-1.71a2.853 2.853 0 0 0-.684 2.115c.155 1.684 1.78 2.934 3.63 2.792 1.848-.141 3.222-1.622 3.067-3.305-.074-.79-.472-1.48-1.063-1.98-.104 1.093-1.057 1.993-2.3 2.088M141.274 78.014c-1.243.095-2.347-.647-2.65-1.709-.49.583-.757 1.325-.684 2.114.155 1.684 1.78 2.934 3.629 2.792 1.85-.141 3.222-1.621 3.067-3.305-.073-.79-.472-1.48-1.063-1.98-.104 1.093-1.056 1.993-2.299 2.088M47.65 88.21c-1.242.096-2.346-.646-2.65-1.709a2.853 2.853 0 0 0-.683 2.115c.155 1.683 1.78 2.933 3.629 2.792 1.849-.142 3.222-1.622 3.067-3.305-.073-.789-.472-1.48-1.063-1.98-.104 1.092-1.057 1.992-2.3 2.088M63.622 89.264c-1.242.095-2.346-.647-2.65-1.709-.49.583-.757 1.325-.684 2.114.155 1.684 1.781 2.934 3.63 2.792 1.848-.141 3.222-1.621 3.066-3.305-.073-.788-.471-1.48-1.063-1.98-.103 1.093-1.056 1.993-2.299 2.088M79.594 89.264c-1.242.095-2.347-.647-2.65-1.709a2.853 2.853 0 0 0-.684 2.114c.155 1.684 1.78 2.934 3.629 2.792 1.85-.141 3.222-1.621 3.067-3.305-.073-.788-.472-1.48-1.063-1.98-.104 1.093-1.056 1.993-2.299 2.088M95.566 89.264c-1.243.095-2.347-.647-2.651-1.709-.49.583-.757 1.325-.683 2.114.155 1.684 1.78 2.934 3.629 2.792 1.85-.141 3.222-1.621 3.067-3.305-.073-.788-.472-1.48-1.063-1.98-.104 1.093-1.057 1.993-2.3 2.088M111.537 89.264c-1.242.095-2.346-.647-2.65-1.709a2.853 2.853 0 0 0-.684 2.114c.155 1.684 1.78 2.934 3.63 2.792 1.848-.141 3.222-1.621 3.067-3.305-.074-.788-.472-1.48-1.063-1.98-.104 1.093-1.057 1.993-2.3 2.088M127.509 89.264c-1.243.095-2.347-.647-2.65-1.709-.49.583-.757 1.325-.684 2.114.155 1.684 1.78 2.934 3.629 2.792 1.85-.141 3.222-1.621 3.067-3.305-.073-.788-.472-1.48-1.063-1.98-.104 1.093-1.057 1.993-2.3 2.088M63.622 99.272c-1.242.096-2.346-.646-2.65-1.709-.49.583-.757 1.325-.684 2.115.045.49.227.938.493 1.332 1.386.406 2.834.79 4.328 1.153 1.208-.537 1.995-1.705 1.876-2.999-.073-.788-.472-1.48-1.063-1.98-.104 1.093-1.057 1.993-2.3 2.088M79.594 99.272c-1.242.096-2.347-.646-2.65-1.709a2.853 2.853 0 0 0-.684 2.115c.155 1.683 1.78 2.933 3.629 2.792 1.85-.142 3.222-1.622 3.067-3.306-.073-.788-.472-1.48-1.063-1.98-.104 1.093-1.056 1.993-2.299 2.088M95.566 99.272c-1.243.096-2.347-.646-2.651-1.709-.49.583-.757 1.325-.683 2.115.155 1.683 1.78 2.933 3.629 2.792 1.85-.142 3.222-1.622 3.067-3.306-.073-.788-.472-1.48-1.063-1.98-.104 1.093-1.057 1.993-2.3 2.088M111.537 99.272c-1.242.096-2.346-.646-2.65-1.709a2.853 2.853 0 0 0-.684 2.115c.155 1.683 1.78 2.933 3.63 2.792 1.848-.142 3.222-1.622 3.067-3.306-.074-.788-.472-1.48-1.063-1.98-.104 1.093-1.057 1.993-2.3 2.088M140.12 87.529c-1.242.095-2.346-.647-2.65-1.71-.49.583-.757 1.325-.684 2.115.156 1.683 1.78 2.933 3.63 2.792 1.849-.142 3.222-1.622 3.067-3.305-.073-.789-.472-1.48-1.063-1.98-.104 1.092-1.057 1.992-2.3 2.088"/>
        <path stroke="#5D6E8A" stroke-linecap="round" stroke-linejoin="round" stroke-width="2.265" d="M144.816 94.256c-10 5.592-26.11 11.185-50.548 11.185-32.613 0-50.842-10.573-59.049-17.182"/>
        <path fill="#FFF" d="M159.117 47.739s-20.697-21.35-36.177-23.084c-15.48-1.735-35.032-1.999-35.032-1.999s-20.85-1.568-22.428 26.275c0 0-1.405 26.467 31.857 26.376 33.26-.092 44.573 4.659 48.795 6.888 0 0 12.759-17.718 12.985-34.456"/>
        <path stroke="#5D6E8A" stroke-linecap="round" stroke-linejoin="round" stroke-width="2.265" d="M159.117 47.739s-20.697-21.35-36.177-23.084c-15.48-1.735-35.032-1.999-35.032-1.999s-20.85-1.568-22.428 26.275c0 0-1.405 26.467 31.857 26.376 33.26-.092 44.573 4.659 48.795 6.888 0 0 12.759-17.718 12.985-34.456z"/>
        <path fill="#5D6E8A" d="M103.372 70.032l6.79-.345s-6.689-15.437-30.038-22.48c0 0 12.35-25.426-4.324-44.722 0 0 .22 9.366-1.03 19.709C69.99 10.45 56.777 1.4 56.777 1.4c7.993 11.185 1.44 38.5 1.44 38.5-1.358-6.48-20.063-11.354-20.063-11.354 6.976 7.838 11.58 30.08 21.31 44.133 5.427 7.839 15.165 12.223 24.574 11.976 9.734-.254 22.042-6.872 31.499-8.634l-12.164-5.99z"/>
        <path stroke="#5D6E8A" stroke-linecap="round" stroke-linejoin="round" stroke-width="2.265" d="M103.372 70.032l6.79-.345s-6.689-15.437-30.038-22.48c0 0 12.35-25.426-4.324-44.722 0 0 .22 9.366-1.03 19.709C69.99 10.45 56.777 1.4 56.777 1.4c7.993 11.185 1.44 38.5 1.44 38.5-1.358-6.48-20.063-11.354-20.063-11.354 6.976 7.838 11.58 30.08 21.31 44.133 5.427 7.839 15.165 12.223 24.574 11.976 9.734-.254 22.042-6.872 31.499-8.634l-12.164-5.99z"/>
        <path fill="#FFF" d="M117.26 26.962s-3.068-10.786-7.523-13.348c-4.455-2.56-1.457 13.528-.979 17.246"/>
        <path stroke="#5D6E8A" stroke-linecap="round" stroke-linejoin="round" stroke-width="2.265" d="M117.26 26.962s-3.068-10.786-7.523-13.348c-4.455-2.56-1.457 13.528-.979 17.246"/>
        <path fill="#5D6E8A" d="M145.208 82.195c14.007 20.14 88.513 20.183 88.513 20.183l3.981-68.7c-21.11-.897-79.51 14.061-79.51 14.061-.224 16.737-12.984 34.456-12.984 34.456"/>
        <path stroke="#5D6E8A" stroke-linecap="round" stroke-linejoin="round" stroke-width="2.265" d="M145.208 82.195c14.007 20.14 88.513 20.183 88.513 20.183l3.981-68.7c-21.11-.897-79.51 14.061-79.51 14.061-.224 16.737-12.984 34.456-12.984 34.456z"/>
        <path fill="#C0D6ED" d="M233.535 33.684v53.668h1.123l3.044-53.674a55.01 55.01 0 0 0-4.167.006"/>
        <path fill="#C5E8EE" d="M177.603 43.095a859.957 859.957 0 0 0-6.929 1.604v42.653h6.929V43.095zM219.51 35.042c-2.242.311-4.564.669-6.929 1.054v51.256h6.929v-52.31zM198.556 38.64c-2.332.457-4.647.926-6.928 1.401v47.311h6.928V38.639z"/>
        <path fill="#5D6E8A" d="M145.241 82.236c14.08 20.1 88.48 20.697 88.48 20.697l2.02-34.675h-62.47c-17.293 0-24.987 8.794-28.03 13.978"/>
        <path fill="#5D6E8A" d="M235.548 71.66l-48.916-.847c-21.96 0-31.131.812-33.338 11.843-1.697 8.48 2.207 21.233 28.964 21.233l61.874-.955-8.584-31.273z"/>
        <path stroke="#5D6E8A" stroke-linecap="round" stroke-linejoin="round" stroke-width="2.265" d="M235.548 71.66l-48.916-.847c-21.96 0-31.131.812-33.338 11.843-1.697 8.48 2.207 21.233 28.964 21.233l61.874-.955-8.584-31.273z"/>
        <path fill="#C5E8EE" d="M161.644 46.875c-2.2.544-3.451.864-3.451.864-.226 16.737-12.985 34.456-12.985 34.456a17.6 17.6 0 0 0 2.266 2.625c4.952-6.838 15.14-22.879 14.17-37.945"/>
        <path fill="#FFF" d="M113.734 66.455c.862 3.542-1.736 7.221-5.802 8.217-4.068.995-8.064-1.069-8.925-4.612-.863-3.542 1.735-7.221 5.802-8.216 4.068-.996 8.063 1.068 8.925 4.611"/>
        <path stroke="#5D6E8A" stroke-linecap="round" stroke-linejoin="round" stroke-width="2.265" d="M102.12 69.298c-.498-2.044 1.001-4.168 3.35-4.743"/>
        <path fill="#FFD0DB" d="M124.63 51.42c-.24 4.234-3.89 7.5-8.11 7.259-4.222-.241-7.48-3.901-7.24-8.135.242-4.232 3.891-7.499 8.113-7.258 4.22.24 7.477 3.9 7.237 8.134" opacity=".32"/>
        <path stroke="#5D6E8A" stroke-linecap="round" stroke-linejoin="round" stroke-width="2.265" d="M102.445 42.433c3.799.216 7-1.77 7.152-4.437.151-2.667-2.805-5.005-6.604-5.222M122.346 29.909a2.568 2.568 0 0 1 2.414 2.712 2.566 2.566 0 0 1-2.705 2.42 2.568 2.568 0 0 1-2.413-2.712 2.566 2.566 0 0 1 2.704-2.42zM95.566 82.018S87.08 86.94 68.742 86.77"/>
        <path stroke="#8BA7D4" stroke-linecap="round" stroke-linejoin="round" stroke-width="2.265" d="M79.608 16.285s3.335 10.378-1.534 23.199M63.636 12.35s7.919 5.606 9.305 16.507"/>
        <path fill="#C5E8EE" d="M182.502 70.828v33.057l6.928-.128V70.862l-2.798-.049c-1.432 0-2.805.006-4.13.015M161.548 99.748c1.905 1.05 4.2 1.943 6.928 2.63V71.477c-2.699.317-4.997.79-6.928 1.477v26.795zM210.384 71.225l-6.929-.12v32.39l6.929-.128zM231.337 71.588l-6.928-.12v31.64l6.928-.129z"/>
        <path fill="#C0D6ED" d="M182.258 103.89l61.875-.956"/>
        <path stroke="#84A2D5" stroke-width="2.265" d="M232.544 29.006c3.077 0 5.57 3.312 5.57 7.4v34.801s-1.047 26.678 12.661 31.9h7.13"/>
        <path stroke="#84A2D5" stroke-width="2.265" d="M238.137 29.006c3.076 0 5.57 3.312 5.57 7.4v34.801s-1.048 26.678 12.661 31.9"/>
        <path stroke="#84A2D5" stroke-linecap="round" stroke-linejoin="round" stroke-width="2.265" d="M251.262 29.006h-25.36"/>
        <path stroke="#5D6E8A" stroke-linecap="round" stroke-linejoin="round" stroke-width="2.265" d="M251.262 103.108h-7.13c-13.71-5.223-12.662-31.9-12.662-31.9V36.404c0-4.087-2.494-7.4-5.569-7.4-3.154 0-4.873 3.235-5.511 5.916"/>
        <path fill="#FFF" d="M281.69 29.006H225.9c3.077 0 5.57 3.312 5.57 7.4v34.801s-1.046 26.678 12.662 31.9h37.559"/>
        <path stroke="#5D6E8A" stroke-linecap="round" stroke-linejoin="round" stroke-width="2.265" d="M281.69 29.006H225.9c3.077 0 5.57 3.312 5.57 7.4v34.801s-1.046 26.678 12.662 31.9h37.559"/>
        <path fill="#FFF" d="M293.493 29.006h-55.79c3.076 0 5.569 3.312 5.569 7.4v34.801s-1.047 26.678 12.661 31.9h37.56"/>
        <path stroke="#5D6E8A" stroke-linecap="round" stroke-linejoin="round" stroke-width="2.265" d="M293.493 29.006h-55.79c3.076 0 5.569 3.312 5.569 7.4v34.801s-1.047 26.678 12.661 31.9h37.56"/>
        <g>
            <path fill="#5D6E8A" d="M220.882 33.96s1.348-4.955 5.018-4.955c0 0 5.044 1.281 4.978 4.819"/>
            <path stroke="#5D6E8A" stroke-linecap="round" stroke-linejoin="round" stroke-width="2.265" d="M220.882 33.96s1.348-4.955 5.018-4.955c0 0 5.044 1.281 4.978 4.819"/>
        </g>
        <path stroke="#5D6E8A" stroke-linecap="round" stroke-linejoin="round" stroke-width="2.265" d="M230.878 33.823l-9.57.976"/>
        <path stroke="#AFC4E6" stroke-width=".95" d="M27.283 102.572h-14.34V63.747h13.746"/>
        <g fill="#5D6E8A">
            <path d="M22.806 58.505a.585.585 0 0 0-.801-.018l-1.577 1.443V47.969c0-.3-.252-.543-.566-.543a.554.554 0 0 0-.567.543v12.027l-1.635-1.381a.582.582 0 0 0-.8.049.526.526 0 0 0 .05.765l2.577 2.175c.028.024.062.036.093.053.025.014.046.033.073.043a.578.578 0 0 0 .423-.002c.034-.013.061-.036.092-.055.03-.018.06-.03.086-.053l2.534-2.318a.526.526 0 0 0 .018-.767"/>
        </g>
        <g transform="rotate(-180 11.757 61.3)">
            <mask id="b" fill="#fff">
                <use xlink:href="#a"/>
            </mask>
            <path fill="#5D6E8A" d="M6.088 11.08a.585.585 0 0 0-.801-.019L3.71 12.504V.544C3.71.242 3.457 0 3.144 0a.554.554 0 0 0-.567.542V12.57L.941 11.19a.582.582 0 0 0-.8.048.526.526 0 0 0 .05.765l2.578 2.175c.028.024.062.036.093.054.024.014.046.032.073.042a.578.578 0 0 0 .423-.001c.034-.013.06-.037.091-.055.03-.019.062-.03.087-.054l2.534-2.317a.526.526 0 0 0 .018-.767" mask="url(#b)"/>
        </g>
    </g>
</svg>
