<svg xmlns="http://www.w3.org/2000/svg" xmlns:xlink="http://www.w3.org/1999/xlink" width="280" height="143" viewBox="0 0 280 143">
    <defs>
        <path id="a" d="M0 14.27V0h6.235v14.27z"/>
        <path id="c" d="M0 14.27V0h6.235v14.27z"/>
    </defs>
    <g fill="none" fill-rule="evenodd">
        <path stroke="#5D6E8A" stroke-linecap="round" stroke-linejoin="round" stroke-width="2.265" d="M278.518 123.813H1.34"/>
        <path fill="#FFF" d="M89.539 91.375c46.49 0 61.299 15.89 61.299 15.89s-14.809 15.89-61.3 15.89c-45.124 0-61.298-15.89-61.298-15.89s16.174-15.89 61.299-15.89"/>
        <path stroke="#5D6E8A" stroke-linecap="round" stroke-linejoin="round" stroke-width="2.265" d="M89.539 91.375c46.49 0 61.299 15.89 61.299 15.89s-14.809 15.89-61.3 15.89c-45.124 0-61.298-15.89-61.298-15.89s16.174-15.89 61.299-15.89z"/>
        <path fill="#5D6E8A" d="M152.09 106.714v.842c0 .257-.21.468-.467.468H26.998a.468.468 0 0 1-.466-.468v-.842a.47.47 0 0 1 .466-.468h124.625a.47.47 0 0 1 .467.468"/>
        <path fill="#C0D6ED" d="M45.194 102.01a2.4 2.4 0 0 1-2.521-1.791 3.194 3.194 0 0 0-.65 2.216 3.198 3.198 0 0 0 3.452 2.926 3.203 3.203 0 0 0 1.906-5.54 2.402 2.402 0 0 1-2.187 2.19M60.387 99.64a2.4 2.4 0 0 1-2.521-1.792 3.2 3.2 0 0 0-.65 2.216 3.199 3.199 0 0 0 3.451 2.926 3.203 3.203 0 0 0 1.907-5.54 2.402 2.402 0 0 1-2.187 2.19M75.58 99.64a2.4 2.4 0 0 1-2.521-1.792 3.194 3.194 0 0 0-.65 2.216 3.198 3.198 0 0 0 3.452 2.926 3.203 3.203 0 0 0 1.906-5.54 2.402 2.402 0 0 1-2.187 2.19M90.773 99.64a2.4 2.4 0 0 1-2.521-1.792 3.2 3.2 0 0 0-.65 2.216 3.199 3.199 0 0 0 3.451 2.926 3.202 3.202 0 0 0 1.907-5.54 2.402 2.402 0 0 1-2.187 2.19M105.966 99.64a2.4 2.4 0 0 1-2.521-1.792 3.194 3.194 0 0 0-.65 2.216 3.198 3.198 0 0 0 3.451 2.926 3.203 3.203 0 0 0 1.907-5.54 2.402 2.402 0 0 1-2.187 2.19M121.159 99.64a2.4 2.4 0 0 1-2.522-1.792 3.2 3.2 0 0 0-.65 2.216 3.199 3.199 0 0 0 3.452 2.926 3.202 3.202 0 0 0 1.907-5.54 2.402 2.402 0 0 1-2.187 2.19M134.253 101.964a2.4 2.4 0 0 1-2.521-1.791 3.2 3.2 0 0 0-.65 2.216 3.198 3.198 0 0 0 3.451 2.926 3.203 3.203 0 0 0 1.907-5.54 2.402 2.402 0 0 1-2.187 2.19M45.194 110.979a2.399 2.399 0 0 1-2.521-1.791 3.194 3.194 0 0 0-.65 2.216 3.197 3.197 0 0 0 3.452 2.925 3.203 3.203 0 0 0 1.906-5.54 2.401 2.401 0 0 1-2.187 2.19M60.387 113.755a2.399 2.399 0 0 1-2.521-1.792 3.2 3.2 0 0 0-.65 2.216 3.198 3.198 0 0 0 3.451 2.926 3.203 3.203 0 0 0 1.907-5.54 2.401 2.401 0 0 1-2.187 2.19M75.58 113.755a2.399 2.399 0 0 1-2.521-1.792 3.194 3.194 0 0 0-.65 2.216 3.197 3.197 0 0 0 3.452 2.926 3.203 3.203 0 0 0 1.906-5.54 2.401 2.401 0 0 1-2.187 2.19M90.773 113.755a2.399 2.399 0 0 1-2.521-1.792 3.2 3.2 0 0 0-.65 2.216 3.198 3.198 0 0 0 3.451 2.926 3.202 3.202 0 0 0 1.907-5.54 2.401 2.401 0 0 1-2.187 2.19M105.966 113.755a2.399 2.399 0 0 1-2.521-1.792 3.194 3.194 0 0 0-.65 2.216 3.197 3.197 0 0 0 3.451 2.926 3.203 3.203 0 0 0 1.907-5.54 2.401 2.401 0 0 1-2.187 2.19M121.159 113.755a2.399 2.399 0 0 1-2.522-1.792 3.2 3.2 0 0 0-.65 2.216 3.198 3.198 0 0 0 3.452 2.926 3.202 3.202 0 0 0 1.907-5.54 2.401 2.401 0 0 1-2.187 2.19M133.156 111.935a2.399 2.399 0 0 1-2.522-1.79 3.2 3.2 0 0 0-.65 2.215 3.197 3.197 0 0 0 3.452 2.926 3.203 3.203 0 0 0 1.907-5.54 2.401 2.401 0 0 1-2.187 2.19"/>
        <path stroke="#5D6E8A" stroke-linecap="round" stroke-linejoin="round" stroke-width="2.265" d="M84.908 99.728s-19.004-.95-27.693 4.748M90.158 98.95s19.005-.951 27.693 4.747"/>
        <path fill="#FFB9BB" d="M221.097 121.49h-37.88s-25.923 0-36.87-44.158V51.784h54.363"/>
        <path fill="#E49295" d="M206.08 67.4l-.084-.001L209.847.935c-5.464-.233-12.38.154-20.16.961.282 1.213.477 2.475.477 3.81v60.901s-1.801 46.176 21.786 55.66l9.146-.142L206.08 67.4z"/>
        <path stroke="#5D6E8A" stroke-linecap="round" stroke-linejoin="round" stroke-width="2.265" d="M221.097 121.49h-37.88s-25.923 0-36.87-44.158V51.784h54.363"/>
        <path stroke="#FFF" stroke-linecap="round" stroke-linejoin="round" stroke-width="2.265" d="M52.966 62.495s9.278 4.793 15.984 14.739M59.7 78.13c-5.377-5.426-10.488-8.067-10.488-8.067"/>
        <path fill="#FFF" d="M130.012 54.894h16.335v33.755h-16.381a13.416 13.416 0 0 0-9.024 3.492l-.74.673a36.972 36.972 0 0 1-24.871 9.623H77.407c-16.476 0-30.187-13.523-30.157-30.05.029-16.541 13.405-29.941 29.9-29.941h20.6c5.96 0 11.709 2.218 16.132 6.224a24.027 24.027 0 0 0 16.13 6.224"/>
        <path stroke="#5D6E8A" stroke-linecap="round" stroke-linejoin="round" stroke-width="2.265" d="M130.012 54.894h16.335v33.755h-16.381a13.416 13.416 0 0 0-9.024 3.492l-.74.673a36.972 36.972 0 0 1-24.871 9.623H77.407c-16.476 0-30.187-13.523-30.157-30.05.029-16.541 13.405-29.941 29.9-29.941h20.6c5.96 0 11.709 2.218 16.132 6.224a24.027 24.027 0 0 0 16.13 6.224z"/>
        <path fill="#FFF0F3" d="M107.583 100.342c.036-.252.055-.51.055-.772 0-3.003-2.426-5.438-5.42-5.438-2.993 0-5.42 2.435-5.42 5.438 0 1.023.283 1.979.772 2.796a36.89 36.89 0 0 0 10.013-2.024"/>
        <path fill="#7893C2" d="M58.559 82.71c-3.12-2.796-6.846-4.974-10.973-5.822 1.956 12.84 12.23 23.079 25.022 25.159l.054-.067c-4.466-2.922-5.323-7.954-8.043-12.146-1.702-2.624-3.733-5.038-6.06-7.124" opacity=".31"/>
        <path fill="#C0D6ED" d="M52.118 85.363c9.07.512 16.964-1.942 20.876-10.095 5.555-11.575 14.733-25.892 29.01-26.838 6.589-.437 12.424 2.928 16.778 7.66 3.18 3.457 5.324 7.55 7.631 11.595 2.426 4.252 5.09 8.38 8.145 12.206 6.659 8.342 15.306 14.6 25.027 18.897 6.552 2.895 13.907 3.649 21.178 3.649h39.192c6.74 0 12.204-5.481 12.204-12.243 0-3.457-1.335-6.085-3.69-8.497-5.797-5.943-11.618-12.914-13.114-21.342-3.665-20.647-10.453-45.861-32.988-53.242-8.893-2.913-18.522-2.124-27.24 1.014-5.394 1.942-10.256 4.82-14.92 8.129-4.517 3.206-8.784 5.927-14.09 7.589-5.725 1.793-11.94 1.893-17.923 1.893-24.645 0-53.732 16.707-53.732 16.707l-7.213 16.49-2.326 10.935s-.188 15.077 7.195 15.493"/>
        <path fill="#FFF0F3" d="M102.218 61.567c2.994 0 5.421 2.434 5.421 5.438 0 3.002-2.427 5.436-5.42 5.436-2.994 0-5.421-2.434-5.421-5.436 0-3.004 2.427-5.438 5.42-5.438"/>
        <path stroke="#5D6E8A" stroke-linecap="round" stroke-linejoin="round" stroke-width="2.265" d="M96.798 88.673v9.49c0 1.475-1.961 1.98-2.669.686l-4.033-7.375a1.423 1.423 0 0 0-1.247-.74h-6.625M98.427 79.483c4.188 0 7.583 3.406 7.583 7.608M87.242 84.23a4.461 4.461 0 0 0 2.976-4.21 4.458 4.458 0 0 0-2.976-4.209M84.038 74.889a5.439 5.439 0 0 0-3.63 5.132 5.439 5.439 0 0 0 3.63 5.132"/>
        <path stroke="#5D6E8A" stroke-linecap="round" stroke-linejoin="round" stroke-width="2.265" d="M87.242 101.233c1.733-.554 2.976-2.06 2.976-3.832 0-1.772-1.243-3.278-2.976-3.833M84.038 92.73c-2.113.676-3.63 2.511-3.63 4.67 0 2.16 1.517 3.996 3.63 4.673"/>
        <path fill="#5D6E8A" d="M54.456 78.688L60.4 67.736l12.263-14.71 32.836-14.418 35.973 8.4L183.11 78.13l9.684 3.082V25.738H79.954c-21.18 0-38.349 17.223-38.349 38.469 0 15.74 9.434 29.25 22.93 35.207l-10.08-20.726z"/>
        <path stroke="#5D6E8A" stroke-linecap="round" stroke-linejoin="round" stroke-width="2.265" d="M54.456 78.688L60.4 67.736l12.263-14.71 32.836-14.418 35.973 8.4L183.11 78.13l9.684 3.082V25.738H79.954c-21.18 0-38.349 17.223-38.349 38.469 0 15.74 9.434 29.25 22.93 35.207l-10.08-20.726zM120.941 92.141l-.739.673a36.975 36.975 0 0 1-24.872 9.623H77.408"/>
        <path fill="#5D6E8A" d="M72.994 75.268c5.555-11.575 14.733-25.892 29.01-26.838 6.589-.437 12.424 2.928 16.778 7.66 3.18 3.457 5.324 7.55 7.631 11.595 2.426 4.252 5.09 8.38 8.145 12.206 6.659 8.342 15.306 14.6 25.027 18.897 6.552 2.895 13.907 3.649 21.178 3.649h39.192c6.74 0 12.204-5.481 12.204-12.243 0-3.457-1.335-6.085-3.69-8.497-5.797-5.943-11.618-12.914-13.114-21.342-3.665-20.647-10.453-45.861-32.988-53.242-8.893-2.913-18.522-2.124-27.24 1.014-5.394 1.942-10.256 4.82-14.92 8.129-4.517 3.206-8.784 5.927-14.09 7.589-5.725 1.793-11.94 1.893-17.923 1.893-24.645 0-53.732 16.707-53.732 16.707l-7.213 16.49-2.326 10.935s-.188 15.077 7.195 15.493c9.07.512 16.964-1.942 20.876-10.095z"/>
        <path stroke="#5D6E8A" stroke-linecap="round" stroke-linejoin="round" stroke-width="2.265" d="M52.118 85.363c9.07.512 16.964-1.942 20.876-10.095 5.555-11.575 14.733-25.892 29.01-26.838 6.589-.437 12.424 2.928 16.778 7.66 3.18 3.457 5.324 7.55 7.631 11.595 2.426 4.252 5.09 8.38 8.145 12.206 6.659 8.342 15.306 14.6 25.027 18.897 6.552 2.895 13.907 3.649 21.178 3.649h39.192c6.74 0 12.204-5.481 12.204-12.243 0-3.457-1.335-6.085-3.69-8.497-5.797-5.943-11.618-12.914-13.114-21.342-3.665-20.647-10.453-45.861-32.988-53.242-8.893-2.913-18.522-2.124-27.24 1.014-5.394 1.942-10.256 4.82-14.92 8.129-4.517 3.206-8.784 5.927-14.09 7.589-5.725 1.793-11.94 1.893-17.923 1.893-16.43 0-23.67-.047-21.721-.141"/>
        <path stroke="#84A2D5" stroke-width="2.265" d="M202.983 1.65c4.973 0 9.005 5.358 9.005 11.967V69.9s-1.693 43.143 20.473 51.59h11.527"/>
        <path stroke="#84A2D5" stroke-width="2.265" d="M212.026 1.65c4.973 0 9.005 5.358 9.005 11.967V69.9s-1.693 43.143 20.473 51.59"/>
        <path stroke="#84A2D5" stroke-linecap="round" stroke-linejoin="round" stroke-width="2.265" d="M233.247 1.65h-41.005"/>
        <path stroke="#5D6E8A" stroke-linecap="round" stroke-linejoin="round" stroke-width="2.265" d="M233.247 121.49H221.72c-22.167-8.446-20.474-51.59-20.474-51.59V13.617c0-6.609-4.031-11.967-9.004-11.967-5.1 0-6.264 1.868-7.296 6.205"/>
        <path fill="#FFF" d="M260.32 1.65h-68.079c4.974 0 9.005 5.358 9.005 11.967V69.9s-1.693 43.143 20.473 51.59h47.296"/>
        <path stroke="#5D6E8A" stroke-linecap="round" stroke-linejoin="round" stroke-width="2.265" d="M260.32 1.65h-68.079c4.974 0 9.005 5.358 9.005 11.967V69.9s-1.693 43.143 20.473 51.59h47.296"/>
        <path fill="#FFF" d="M211.323 1.65c4.973 0 9.005 5.358 9.005 11.967V69.9s-1.694 43.143 20.473 51.59h34.48"/>
        <path stroke="#5D6E8A" stroke-linecap="round" stroke-linejoin="round" stroke-width="2.265" d="M211.323 1.65c4.973 0 9.005 5.358 9.005 11.967V69.9s-1.694 43.143 20.473 51.59h34.48M191.984 2.167s9.605 1.19 9.603 10.281"/>
        <path fill="#8BA7D4" d="M52.966 69.45c0 .82-.663 1.485-1.48 1.485-.818 0-1.48-.665-1.48-1.484 0-.82.662-1.485 1.48-1.485.817 0 1.48.665 1.48 1.485M67.076 69.45c0 .82-.662 1.485-1.48 1.485s-1.48-.665-1.48-1.484c0-.82.662-1.485 1.48-1.485s1.48.665 1.48 1.485M60.164 61.01c0 .82-.662 1.485-1.48 1.485s-1.48-.665-1.48-1.485c0-.82.662-1.484 1.48-1.484s1.48.664 1.48 1.484M161.61 85.152c0 .82-.663 1.485-1.48 1.485-.819 0-1.481-.665-1.481-1.485 0-.82.662-1.484 1.48-1.484s1.48.664 1.48 1.484M175.009 85.152c0 .82-.662 1.485-1.48 1.485s-1.48-.665-1.48-1.485c0-.82.662-1.484 1.48-1.484s1.48.664 1.48 1.484M188.409 85.152c0 .82-.663 1.485-1.48 1.485-.819 0-1.48-.665-1.48-1.485 0-.82.661-1.484 1.48-1.484.817 0 1.48.664 1.48 1.484"/>
        <path fill="#FFF" d="M90.357 42.446c4.491 0 8.133 3.652 8.133 8.16 0 4.505-3.642 8.157-8.133 8.157-4.492 0-8.134-3.652-8.134-8.158 0-4.507 3.642-8.16 8.134-8.16"/>
        <path fill="#FFF" stroke="#5D6E8A" stroke-linecap="round" stroke-linejoin="round" stroke-width="2.206" d="M84.914 56.649c-3.348-3.015-3.626-8.166-.62-11.504a8.078 8.078 0 0 1 3.954-2.415 8.157 8.157 0 0 1 7.55 1.83c3.35 3.015 3.627 8.166.622 11.504"/>
        <path stroke="#5D6E8A" stroke-linecap="round" stroke-linejoin="round" stroke-width="2.265" d="M90.357 53.88a3.27 3.27 0 0 1-3.265-3.275"/>
        <path stroke="#AFC4E6" stroke-width=".95" d="M34.511 122.24h-14.32V93.42h13.727"/>
        <g transform="translate(23.962 75.248)">
            <mask id="b" fill="#fff">
                <use xlink:href="#a"/>
            </mask>
            <path fill="#5D6E8A" d="M6.078 10.093a.584.584 0 0 0-.8-.019l-1.574 1.44V-.413c0-.3-.252-.54-.565-.54a.553.553 0 0 0-.566.54V11.58L.94 10.202a.582.582 0 0 0-.799.049.523.523 0 0 0 .05.762l2.573 2.17c.029.023.063.035.093.052.025.014.047.033.074.042a.578.578 0 0 0 .422 0c.033-.014.06-.037.091-.056.03-.018.061-.029.086-.053l2.53-2.31a.524.524 0 0 0 .018-.765" mask="url(#b)"/>
        </g>
        <g transform="rotate(-180 15.374 71.222)">
            <mask id="d" fill="#fff">
                <use xlink:href="#c"/>
            </mask>
            <path fill="#5D6E8A" d="M6.078 10.093a.584.584 0 0 0-.8-.019l-1.574 1.44V-.413c0-.3-.252-.54-.565-.54a.553.553 0 0 0-.566.54V11.58L.94 10.202a.582.582 0 0 0-.799.049.523.523 0 0 0 .05.762l2.573 2.17c.029.023.063.035.093.052.025.014.047.033.074.042a.578.578 0 0 0 .422 0c.033-.014.06-.037.091-.056.03-.018.061-.029.086-.053l2.53-2.31a.524.524 0 0 0 .018-.765" mask="url(#d)"/>
        </g>
    </g>
</svg>
