<svg xmlns="http://www.w3.org/2000/svg" width="85" height="85" viewBox="0 0 85 85">
    <g fill="none" fill-rule="evenodd">
        <path fill="#FFF" fill-opacity=".28" d="M83.545 42.273c0 22.794-18.48 41.272-41.273 41.272C19.479 83.545 1 65.067 1 42.273 1 19.478 19.479 1 42.272 1c22.794 0 41.273 18.477 41.273 41.272z"/>
        <path stroke="#5D6E8A" stroke-width="2" d="M83.545 42.273c0 22.794-18.48 41.272-41.273 41.272C19.479 83.545 1 65.067 1 42.273 1 19.478 19.479 1 42.272 1c22.794 0 41.273 18.477 41.273 41.272"/>
        <path fill="#FFF" d="M21.738 69.366h25.793v-6.263H21.738z"/>
        <path stroke="#5D6E8A" stroke-linecap="round" stroke-linejoin="round" stroke-width="2" d="M21.738 69.366h25.793v-6.263H21.738z"/>
        <path fill="#FFF" d="M45.832 24.767a33.149 33.149 0 0 1-26.326 0l2.129-4.918a27.791 27.791 0 0 0 22.069 0l2.128 4.918"/>
        <path stroke="#5D6E8A" stroke-linecap="round" stroke-linejoin="round" stroke-width="2" d="M45.832 24.767a33.149 33.149 0 0 1-26.326 0l2.129-4.918a27.791 27.791 0 0 0 22.069 0l2.128 4.918z"/>
        <path fill="#FFF" d="M13.483 59.963a33.167 33.167 0 0 1 24.455-9.8l-.146 5.36a27.804 27.804 0 0 0-20.5 8.216l-3.809-3.776"/>
        <path stroke="#5D6E8A" stroke-linecap="round" stroke-linejoin="round" stroke-width="2" d="M13.483 59.963a33.167 33.167 0 0 1 24.455-9.8l-.146 5.36a27.804 27.804 0 0 0-20.5 8.216l-3.809-3.776z"/>
        <path fill="#FFF" d="M12.886 21.98a34.67 34.67 0 0 1 9.739 25.759l-5.6-.263a29.065 29.065 0 0 0-8.163-21.593l4.024-3.902"/>
        <path stroke="#5D6E8A" stroke-linecap="round" stroke-linejoin="round" stroke-width="2" d="M12.886 21.98a34.67 34.67 0 0 1 9.739 25.759l-5.6-.263a29.065 29.065 0 0 0-8.163-21.593l4.024-3.902z"/>
        <path fill="#FFF" d="M29.83 81.632a41.224 41.224 0 0 0 6.416 1.471 38.716 38.716 0 0 0 4.72-14.367l-6.218-.751a32.458 32.458 0 0 1-4.919 13.647"/>
        <path stroke="#5D6E8A" stroke-linecap="round" stroke-linejoin="round" stroke-width="2" d="M29.83 81.632a41.224 41.224 0 0 0 6.416 1.471 38.716 38.716 0 0 0 4.72-14.367l-6.218-.751a32.458 32.458 0 0 1-4.919 13.647z"/>
        <path fill="#FFF" d="M60.761 5.375a40.98 40.98 0 0 0-13.997-4.128A38.735 38.735 0 0 0 32.67 9.881l4.34 4.517A32.467 32.467 0 0 1 60.76 5.375"/>
        <path stroke="#5D6E8A" stroke-linecap="round" stroke-linejoin="round" stroke-width="2" d="M60.761 5.375a40.98 40.98 0 0 0-13.997-4.128A38.735 38.735 0 0 0 32.67 9.881l4.34 4.517A32.467 32.467 0 0 1 60.76 5.375z"/>
        <path fill="#FFF" d="M71.022 42.5l-2.612 5.692A32.465 32.465 0 0 1 80.513 57.8a40.816 40.816 0 0 0 2.157-7.055A38.692 38.692 0 0 0 71.023 42.5"/>
        <path stroke="#5D6E8A" stroke-linecap="round" stroke-linejoin="round" stroke-width="2" d="M71.022 42.5l-2.612 5.692A32.465 32.465 0 0 1 80.513 57.8a40.816 40.816 0 0 0 2.157-7.055A38.692 38.692 0 0 0 71.023 42.5z"/>
        <path fill="#FFF" d="M69.184 24.698L55.1 17.983l2.694-5.654 14.086 6.716z"/>
        <path stroke="#5D6E8A" stroke-linecap="round" stroke-linejoin="round" stroke-width="2" d="M69.184 24.698L55.1 17.983l2.694-5.654 14.086 6.716z"/>
        <path fill="#FFF" d="M27.433 16.698l2.695-5.652-8.93-4.258A41.238 41.238 0 0 0 15.4 10.96l12.034 5.737z"/>
        <path stroke="#5D6E8A" stroke-linecap="round" stroke-linejoin="round" stroke-width="2" d="M27.433 16.698l2.695-5.652-8.93-4.258A41.238 41.238 0 0 0 15.4 10.96l12.034 5.737z"/>
        <path fill="#FFF" d="M1.003 42.154l16.127-7.619-2.675-5.662-12.787 6.04a41.398 41.398 0 0 0-.665 7.24"/>
        <path stroke="#5D6E8A" stroke-linecap="round" stroke-linejoin="round" stroke-width="2" d="M1.003 42.154l16.127-7.619-2.675-5.662-12.787 6.04a41.398 41.398 0 0 0-.665 7.24z"/>
        <path fill="#FFF" d="M59.719 55.915l-3.04 21.516-6.201-.876 3.039-21.516z"/>
        <path stroke="#5D6E8A" stroke-linecap="round" stroke-linejoin="round" stroke-width="2" d="M59.719 55.915l-3.04 21.516-6.201-.876 3.039-21.516z"/>
        <path fill="#FFF" d="M51.768 25.858l16.005 14.697-4.236 4.614L47.532 30.47z"/>
        <path stroke="#5D6E8A" stroke-linecap="round" stroke-linejoin="round" stroke-width="2" d="M51.768 25.858l16.005 14.697-4.236 4.614L47.532 30.47z"/>
        <path fill="#FFF" d="M52.998 48.469l-17.601-6.865 1.979-5.073 17.601 6.866z"/>
        <path stroke="#5D6E8A" stroke-linecap="round" stroke-linejoin="round" stroke-width="2" d="M52.998 48.469l-17.601-6.865 1.979-5.073 17.601 6.866z"/>
    </g>
</svg>
