<svg xmlns="http://www.w3.org/2000/svg" width="51" height="97" viewBox="0 0 51 97">
    <g fill="none" fill-rule="evenodd" stroke-width="2">
        <path fill="#5D6E8A" stroke="#FFF" d="M43.253 41.868c0-2.94 1.463-7.257 3.253-9.589l.1-.129c1.79-2.332 3.252-6.65 3.252-9.589V7c0-2.94-2.406-5.346-5.345-5.346H6.806C3.864 1.654 1.458 4.06 1.458 7V22.56c0 2.94 1.463 7.254 3.256 9.589l.099.13c1.787 2.331 3.253 6.648 3.253 9.588v14.69c0 2.942 2.406 5.348 5.346 5.348h24.495c2.94 0 5.346-2.406 5.346-5.348v-14.69z"/>
        <path fill="#BBD4FE" stroke="#5D6E8A" d="M18.638 81.723a7.024 7.024 0 0 1 7.02-7.022 7.023 7.023 0 1 1-7.02 7.023m.958-29.921v-5.998a6.078 6.078 0 1 1 12.154 0v5.998a6.076 6.076 0 0 1-6.078 6.075 6.076 6.076 0 0 1-6.076-6.075m18.24 31.224V44.355c0-6.718-5.446-12.166-12.164-12.166-6.716 0-12.163 5.448-12.163 12.166v38.672c0 6.715 5.447 12.163 12.163 12.163 6.718 0 12.163-5.448 12.163-12.163"/>
        <path fill="#FEFEFE" stroke="#5D6E8A" d="M25.658 47.917a4.324 4.324 0 0 1-4.323-4.323V17.465a4.324 4.324 0 0 1 8.647 0v26.129a4.324 4.324 0 0 1-4.324 4.323"/>
    </g>
</svg>
