<svg xmlns="http://www.w3.org/2000/svg" xmlns:xlink="http://www.w3.org/1999/xlink" width="200" height="235" viewBox="0 0 200 235">
    <defs>
        <path id="a" d="M11.268.059H.306v13.746h10.962V.059z"/>
    </defs>
    <g fill="none" fill-rule="evenodd">
        <path fill="#FFF" stroke="#5D6E8A" stroke-linecap="round" stroke-linejoin="round" stroke-width="2" d="M180.94 105.722c0 44.065-35.84 79.786-80.052 79.786-44.211 0-80.052-35.72-80.052-79.786 0-44.063 35.841-79.785 80.052-79.785 44.211 0 80.051 35.722 80.051 79.785z"/>
        <path fill="#5D6E8A" d="M8.182 72.15c.665-1.852.184-3.517-1.41-4.085l-.035-.012c-1.523-.544-2.861.293-3.577 2.287l-1.368 3.812 5.028 1.792 1.362-3.794zM0 75.084l1.906-5.311c.545-1.517 1.442-2.571 2.5-3.07.817-.384 1.811-.428 2.784-.08l.036.012c2.054.732 2.75 2.572 2.408 4.64l6.425-1.989-.614 1.712-6.1 1.865-1.268 3.53 4.816 1.715-.5 1.395L0 75.084zM5.394 61.189l4.384-8.413 1.2.622-3.699 7.099 3.987 2.064 3.31-6.35 1.2.62-3.31 6.352 4.087 2.116 3.743-7.183 1.202.621-4.428 8.496zM11.46 49.863l.96-1.343 11.949 2.755-6.507-10.37.927-1.298L26.3 51.864l-.764 1.069zM21.351 36.838l.982-1.111L32.21 44.4l-.982 1.112zM25.544 32.181l6.937-6.485.926.984-5.853 5.473 3.072 3.265 5.238-4.895.925.983-5.237 4.896 3.151 3.347 5.923-5.536.925.983-7.005 6.55zM35.283 23l1.354-.88 9.136 7.109-2.98-11.15 1.024-.666 9.03 7.222-2.834-11.201 1.307-.849 3.3 13.627-1.057.686-8.856-6.955 2.791 10.894-1.04.676zM58.755 21.712l.41-1.363c1.754.59 3.208.634 4.882-.09 1.62-.701 2.316-2.024 1.798-3.21l-.014-.034c-.487-1.117-1.368-1.491-4.135-.928-3.039.6-4.704.26-5.566-1.717l-.015-.035c-.824-1.89.242-4.007 2.537-5 1.758-.761 3.234-.808 4.886-.358l-.336 1.392c-1.518-.426-2.812-.336-4.054.201-1.569.68-2.195 1.972-1.723 3.055l.015.034c.494 1.135 1.392 1.502 4.295.92 2.945-.581 4.614-.138 5.416 1.701l.015.035c.899 2.062-.242 4.15-2.64 5.187-1.914.828-3.76.872-5.77.21M74.27 10.803l-.008-.037c-.798-3.624 1.258-7.22 5.041-8.047 2.332-.51 3.909.008 5.46.935l-.758 1.278c-1.308-.788-2.682-1.255-4.427-.873-2.846.622-4.468 3.395-3.819 6.341l.008.037c.654 2.965 3.314 4.819 6.141 4.2 1.763-.385 2.771-1.315 3.743-2.756l1.16.724c-1.041 1.648-2.313 2.867-4.645 3.376-3.71.812-7.087-1.5-7.896-5.178M88.42 1.364l9.484-.732.104 1.345-8.003.618.347 4.465 7.16-.552.103 1.344-7.16.552.356 4.578 8.097-.625.105 1.345-9.578.739z"/>
        <g transform="translate(101.277 .546)">
            <mask id="b" fill="#fff">
                <use xlink:href="#a"/>
            </mask>
            <path fill="#5D6E8A" d="M6.212 7.068c1.97.119 3.44-.806 3.541-2.49l.003-.037c.097-1.608-1.082-2.655-3.202-2.783L2.5 1.514l-.323 5.31 4.034.244zM1.102.058L6.749.4c1.614.098 2.879.662 3.654 1.535.6.674.92 1.613.857 2.642l-.002.037c-.132 2.17-1.71 3.35-3.797 3.6l3.71 5.592-1.82-.11-3.5-5.316-3.753-.227-.31 5.087-1.482-.09L1.102.06z" mask="url(#b)"/>
        </g>
        <path fill="#5D6E8A" d="M120.281 3.897l-4.333-.856.266-1.341 10.142 2.004-.267 1.34-4.333-.855-2.292 11.522-1.475-.292zM130.032 4.813l1.424.421-3.746 12.576-1.423-.421zM136.043 6.653l8.776 3.51-.511 1.269-7.398-2.958-1.75 4.347 6.613 2.644-.504 1.253-6.613-2.645-2.135 5.304-1.378-.55zM148.303 11.965l1.322.675-5.996 11.676-1.323-.676zM149.876 20.104l.02-.031c2.023-3.114 6.035-4.187 9.286-2.09 2.003 1.294 2.744 2.775 3.174 4.526l-1.445.363c-.359-1.482-.991-2.783-2.491-3.75-2.446-1.578-5.564-.777-7.209 1.755l-.02.031c-1.656 2.549-1.107 5.738 1.324 7.306 1.516.978 2.887 1.037 4.599.712l.3 1.332c-1.909.42-3.672.377-5.676-.917-3.189-2.056-3.916-6.075-1.862-9.237M167.523 35.384l2.22-6.98-6.704 3.013 4.484 3.967zm2.862-8.716l1.04.92-4.313 13.845-1.194-1.057 1.155-3.612-5.357-4.738-3.474 1.559-1.14-1.007 13.282-5.91zM172.483 45.666c2.115 2.56 5.206 2.765 7.456.92l.029-.025c2.25-1.845 2.67-4.933.555-7.492l-1.96-2.373-8.04 6.598 1.96 2.372zm6.195-10.981l2.904 3.514c2.63 3.182 2.254 7.179-.605 9.525l-.03.024c-2.858 2.346-6.895 1.97-9.524-1.213l-2.903-3.515 10.158-8.335zM188.738 60.532l.033-.02c2.582-1.5 3.595-4.605 2.08-7.195-1.515-2.59-4.674-3.227-7.257-1.727l-.032.018c-2.583 1.502-3.596 4.606-2.08 7.197 1.514 2.59 4.673 3.227 7.256 1.727M182.753 50.3l.032-.02c3.135-1.821 7.254-1.068 9.27 2.381 2.018 3.448.66 7.339-2.475 9.16l-.033.02c-3.135 1.821-7.253 1.069-9.27-2.38-2.017-3.448-.659-7.34 2.476-9.161M186.299 66.044l1.355.445c-.638 1.732-.721 3.179-.04 4.866.66 1.633 1.968 2.36 3.17 1.878l.036-.014c1.133-.456 1.533-1.322 1.04-4.095-.52-3.043-.133-4.694 1.873-5.498l.034-.014c1.92-.77 4.013.348 4.947 2.66.716 1.773.724 3.245.228 4.878l-1.386-.373c.467-1.5.412-2.791-.094-4.043-.64-1.582-1.918-2.24-3.017-1.799l-.035.014c-1.15.463-1.543 1.347-1.037 4.256.502 2.949.014 4.599-1.852 5.348l-.034.014c-2.093.84-4.156-.352-5.132-2.768-.78-1.93-.774-3.77-.056-5.755"/>
        <path stroke="#5D6E8A" stroke-linecap="round" stroke-linejoin="round" stroke-width="2" d="M147.585 184.302v48.952l-46.697-29.006-46.697 29.006v-48.952"/>
        <path fill="#5D6E8A" d="M52.644 79.269l-4.8 1.486-.69-2.32 6.217-2.137h2.109v25.547h-2.836zM60.897 99.634l9.235-8.117c3.89-3.479 5.307-5.435 5.307-7.972 0-2.971-2.363-4.856-5.126-4.856-2.909 0-4.799 1.522-6.835 4.349l-2.109-1.522c2.29-3.406 4.69-5.4 9.162-5.4 4.581 0 7.89 3.044 7.89 7.176v.072c0 3.696-1.964 5.98-6.435 9.857l-6.8 6.015h13.49v2.609h-17.78v-2.21zM101.689 89.234v-.072c0-5.545-3.054-10.509-7.781-10.509-4.763 0-7.745 4.856-7.745 10.436v.073c0 5.544 3.055 10.509 7.818 10.509s7.708-4.892 7.708-10.437m-18.507 0v-.072c0-7.103 4.254-13.118 10.799-13.118 6.544 0 10.689 5.943 10.689 13.045v.073c0 7.103-4.217 13.117-10.762 13.117-6.58 0-10.726-5.942-10.726-13.045M127.683 89.234v-.072c0-5.545-3.054-10.509-7.78-10.509-4.764 0-7.745 4.856-7.745 10.436v.073c0 5.544 3.055 10.509 7.817 10.509 4.763 0 7.708-4.892 7.708-10.437m-18.506 0v-.072c0-7.103 4.254-13.118 10.798-13.118 6.545 0 10.69 5.943 10.69 13.045v.073c0 7.103-4.218 13.117-10.763 13.117-6.58 0-10.725-5.942-10.725-13.045M142.915 90.394h-7.525v-2.609h7.525V80.32h2.728v7.465h7.526v2.609h-7.526v7.465h-2.728zM82.11 149.112v-5.843l-4.774 5.843h4.775zm0 1.069h-5.992l-.325-.923 6.431-7.802h1.12v7.656h1.771v1.069h-1.77v2.686H82.11v-2.686zM87.243 152.867h1.495v-1.7h-1.495zM97.005 142.702h-6.253v-1.165h7.714v.955l-5.163 10.375h-1.43zM99.865 151.88l4.125-3.626c1.738-1.554 2.371-2.428 2.371-3.56 0-1.328-1.055-2.17-2.29-2.17-1.299 0-2.144.68-3.053 1.942l-.941-.68c1.022-1.52 2.094-2.411 4.092-2.411 2.046 0 3.524 1.36 3.524 3.205v.033c0 1.65-.877 2.67-2.875 4.402l-3.037 2.687h6.026v1.165h-7.942v-.987zM116.01 139.95h1.152l-7.535 14.99h-1.154zM117.602 151.265l.845-.923c.99.955 2.078 1.554 3.231 1.554 1.624 0 2.745-1.068 2.745-2.509v-.032c0-1.408-1.17-2.38-2.826-2.38-.958 0-1.722.292-2.388.648l-.86-.566.325-5.52h6.545v1.181h-5.425l-.243 3.626c.666-.291 1.299-.502 2.24-.502 2.21 0 3.931 1.311 3.931 3.464v.032c0 2.218-1.69 3.724-4.06 3.724-1.623 0-3.037-.778-4.06-1.797M65.45 125.888a.826.826 0 0 1-.486-.157l-3.675-2.662-3.675 2.662a.826.826 0 0 1-1.273-.921l1.404-4.306-3.675-2.662a.823.823 0 0 1 .486-1.49h4.543l1.404-4.307a.827.827 0 0 1 1.573 0l1.403 4.306h4.543a.823.823 0 1 1 .486 1.49l-3.675 2.663 1.404 4.306a.822.822 0 0 1-.787 1.078M85.25 125.888a.826.826 0 0 1-.486-.157l-3.675-2.662-3.676 2.662a.826.826 0 0 1-1.272-.921l1.404-4.306-3.675-2.662a.823.823 0 0 1 .485-1.49h4.543l1.404-4.307a.827.827 0 0 1 1.573 0l1.404 4.306h4.543a.823.823 0 1 1 .486 1.49l-3.676 2.663 1.404 4.306a.822.822 0 0 1-.786 1.078M105.049 125.888a.826.826 0 0 1-.486-.157l-3.675-2.662-3.676 2.662a.826.826 0 0 1-1.272-.921l1.403-4.306-3.674-2.662a.821.821 0 0 1-.3-.922c.11-.339.427-.569.786-.569h4.543l1.403-4.306a.828.828 0 0 1 1.574 0l1.403 4.306h4.542a.824.824 0 1 1 .487 1.49l-3.675 2.663 1.404 4.306a.822.822 0 0 1-.787 1.078M124.849 125.888a.826.826 0 0 1-.486-.157l-3.675-2.662-3.676 2.662a.823.823 0 0 1-.97 0 .821.821 0 0 1-.302-.921l1.404-4.306-3.676-2.662a.823.823 0 0 1 .487-1.49h4.542l1.404-4.307a.828.828 0 0 1 1.573 0l1.404 4.306h4.542a.824.824 0 1 1 .487 1.49l-3.676 2.663 1.404 4.306a.822.822 0 0 1-.786 1.078M141.713 123.957l1.818-7.606h-.853l-1.404-4.306a.827.827 0 1 0-1.573 0l-1.404 4.306h-4.542a.823.823 0 1 0-.487 1.491l3.676 2.661-1.404 4.306a.823.823 0 0 0 .786 1.08c.17 0 .342-.053.486-.158l3.675-2.662 1.226.888z"/>
        <path stroke="#5D6E8A" stroke-linecap="round" stroke-linejoin="round" stroke-width="2" d="M160.695 181.881c22.662-17.703 37.225-45.236 37.225-76.159 0-7.052-.765-13.926-2.203-20.55M6.059 85.172a96.743 96.743 0 0 0-2.203 20.55c0 30.923 14.563 58.456 37.225 76.16"/>
    </g>
</svg>
