<svg xmlns="http://www.w3.org/2000/svg" width="173" height="115" viewBox="0 0 173 115">
    <g fill="none" fill-rule="evenodd" transform="translate(1 1)">
        <circle cx="56.324" cy="56.324" r="56.324" stroke="#5D6E8A" stroke-width="2"/>
        <path fill="#F7F9FF" fill-opacity=".192" d="M169.823 50.023c0 23.846-19.33 43.176-43.176 43.176-23.844 0-43.174-19.33-43.174-43.176 0-23.845 19.33-43.176 43.174-43.176 23.846 0 43.176 19.33 43.176 43.176" opacity=".868"/>
        <g stroke="#5D6E8A" stroke-width="2">
            <path fill="#FEFEFE" d="M137.32 48.917c0-1.586.788-3.914 1.754-5.171l.053-.07c.965-1.257 1.754-3.585 1.754-5.17v-8.391A2.891 2.891 0 0 0 138 27.232h-20.333a2.892 2.892 0 0 0-2.884 2.883v8.39c0 1.586.79 3.912 1.756 5.171l.053.07c.964 1.257 1.755 3.585 1.755 5.17v7.922a2.892 2.892 0 0 0 2.882 2.884h13.209a2.892 2.892 0 0 0 2.882-2.884v-7.921z"/>
            <path fill="#FFF" d="M124.046 70.407a3.787 3.787 0 1 1 7.575.002 3.787 3.787 0 0 1-7.575-.002m.517-16.133v-3.235a3.277 3.277 0 1 1 6.554 0v3.235a3.277 3.277 0 0 1-6.554 0m9.835 16.836V50.258a6.56 6.56 0 1 0-13.117 0V71.11a6.56 6.56 0 0 0 13.117 0"/>
            <path fill="#FEFEFE" d="M127.832 52.178a2.332 2.332 0 0 1-2.331-2.33v-14.09a2.332 2.332 0 0 1 4.662 0v14.09a2.332 2.332 0 0 1-2.331 2.33"/>
        </g>
        <path stroke="#5D6E8A" stroke-width="2" d="M170.831 50.416c0 23.978-19.438 43.415-43.416 43.415C103.438 93.831 84 74.394 84 50.416 84 26.438 103.438 7 127.415 7c23.978 0 43.416 19.438 43.416 43.416"/>
    </g>
</svg>
