<?xml version="1.0" encoding="UTF-8"?>
<svg width="242px" height="250px" viewBox="0 0 242 250" version="1.1" xmlns="http://www.w3.org/2000/svg" xmlns:xlink="http://www.w3.org/1999/xlink">
    <!-- Generator: Sketch 46.2 (44496) - http://www.bohemiancoding.com/sketch -->
    <title>garantía</title>
    <desc>Created with Sketch.</desc>
    <defs>
        <polygon id="path-1" points="17.3592491 21.9686516 0.720363398 21.9686516 0.720363398 0.76167807 17.3592491 0.76167807 17.3592491 21.9686516"></polygon>
    </defs>
    <g id="Page-1" stroke="none" stroke-width="1" fill="none" fill-rule="evenodd">
        <g id="producto_almohada_1.5-ajuste-garantía-copy" transform="translate(-719.000000, -208.000000)">
            <g id="garantía" transform="translate(720.000000, 209.000000)">
                <g id="Group-3" transform="translate(113.000000, 227.000000)">
                    <mask id="mask-2" fill="white">
                        <use xlink:href="#path-1"></use>
                    </mask>
                    <g id="Clip-2"></g>
                    <path d="M13.1761585,11.3654623 C13.1761585,7.89037255 14.8236886,4.81694125 17.3592491,2.88302997 C15.6211633,1.55606932 13.4711949,0.76167807 11.1313516,0.76167807 C5.38252309,0.76167807 0.720363398,5.50719881 0.720363398,11.3654623 C0.720363398,17.2207506 5.38252309,21.9692466 11.1313516,21.9692466 C13.4711949,21.9692466 15.6211633,21.1718801 17.3592491,19.8478947 C14.8236886,17.9139834 13.1761585,14.8375769 13.1761585,11.3654623" id="Fill-1" fill="#5D6E8A" mask="url(#mask-2)"></path>
                </g>
                <polygon id="Fill-4" fill="#5D6E8A" points="89.2 83 93 83 93 150 88.1549251 150 88.1549251 88.1291291 75.3325453 92.5045045 74 88.6066066"></polygon>
                <path d="M137.404337,86.4811453 C123.652843,86.4811453 115.117948,100.77383 115.117948,116.403631 C115.117948,132.033432 123.844168,146.521866 137.595663,146.521866 C151.344168,146.521866 159.882052,132.22617 159.882052,116.596369 C159.882052,100.966568 151.152843,86.4811453 137.404337,86.4811453 M137.404337,151 C120.525872,151 110,135.084104 110,116.596369 C110,98.108633 120.714208,82 137.595663,82 C154.474128,82 165,97.9158956 165,116.403631 C165,134.894378 154.282802,151 137.404337,151" id="Fill-6" fill="#5D6E8A"></path>
                <path d="M118.998503,24.6133067 C93.7839653,24.6133067 70.0787066,34.4312156 52.2488543,52.2601301 C34.4219967,70.086043 24.6027012,93.7858929 24.6027012,118.998499 C24.6027012,144.208104 34.4219967,167.910955 52.2488543,185.73987 C70.0787066,203.568784 93.7839653,213.386693 118.998503,213.386693 C144.21304,213.386693 167.918299,203.568784 185.751146,185.73987 C203.578003,167.910955 213.397299,144.208104 213.397299,118.998499 C213.397299,93.7858929 203.578003,70.086043 185.751146,52.2601301 C167.918299,34.4312156 144.21304,24.6133067 118.998503,24.6133067 M118.998503,218 C92.5531844,218 67.6950045,207.701851 48.996718,189.005503 C30.2984316,170.306153 20,145.441721 20,118.998499 C20,92.5522761 30.2984316,67.6908454 48.996718,48.9944972 C67.6950045,30.2951476 92.5531844,20 118.998503,20 C145.440826,20 170.302001,30.2951476 189.000287,48.9944972 C207.701568,67.6908454 218,92.5522761 218,118.998499 C218,145.441721 207.701568,170.306153 189.000287,189.005503 C170.302001,207.701851 145.440826,218 118.998503,218" id="Fill-8" fill="#5D6E8A"></path>
                <path d="M144.108555,237.055294 C166.968126,232.427733 187.977459,221.235213 204.8485,204.404446 C227.513151,181.788478 240,151.716828 240,119.734772 C240,87.7497165 227.513151,57.6810656 204.8485,35.0650974 C182.183849,12.4551274 152.04928,0 119.998501,0 C87.9447228,0 57.8131521,12.4551274 35.1485012,35.0650974 C12.4838504,57.6810656 0,87.7497165 0,119.734772 C0,151.716828 12.4838504,181.788478 35.1485012,204.404446 C53.3210051,222.533809 76.2945285,234.113208 101.208252,238" id="Stroke-10" stroke="#5D6E8A" stroke-width="2"></path>
                <path d="M69.9178104,80.4683087 C66.6252866,84.8236254 61.5009861,84.9422181 57.6650644,81.9655415 L57.627085,81.9388582 C53.9518455,79.083739 52.6284087,73.7737511 55.7427214,69.6556198 C57.4401094,67.4082882 59.1754768,66.504019 61.3490684,66 L61.6032384,67.2600474 C59.850342,67.6187903 58.1909333,68.3333113 56.6133266,70.4235075 C54.0745483,73.7737511 55.1029142,78.289168 58.3866734,80.8418757 L58.4304959,80.8744887 C61.9508962,83.6080503 66.2630213,83.4212668 69.0530481,79.7359988 C70.3823279,77.9837918 70.8965109,75.7868621 70.820552,74.132494 L66.9145145,71.0994859 L63.4204077,75.7097769 L62.4884511,74.9833966 L66.7246174,69.3887862 L71.9745422,73.4654101 C72.1264599,75.5496767 71.6181199,78.2269068 69.9178104,80.4683087" id="Fill-12" fill="#5D6E8A"></path>
                <path d="M73.3313343,54.5507618 L75.4602699,65.5871172 L83.0104948,60.168502 L73.3313343,54.5507618 Z M88.8335832,63.5355257 L84.149925,60.8111329 L75.6971514,66.8723789 L76.7436282,72.2095339 L75.6401799,73 L72,53.7331423 L73.0224888,53 L90,62.6998039 L88.8335832,63.5355257 Z" id="Fill-14" fill="#5D6E8A"></path>
                <path d="M100.097772,45.7103598 C99.3276609,43.4310373 97.1202042,42.6334278 94.1602723,43.7132683 L88.6019493,45.753308 L91.1827042,53.3888851 L96.6763614,51.376455 C99.3982054,50.3763754 100.938428,48.2044234 100.115408,45.7563758 L100.097772,45.7103598 Z M104.465656,57.7021119 L96.8968131,52.575937 L91.5677599,54.5270125 L93.9398205,61.5551793 L92.7346844,62 L87,45.0323918 L93.8428218,42.5260573 C97.3582921,41.2376112 100.329981,42.3849418 101.291151,45.2133878 L101.305848,45.2655391 C102.267017,48.1001206 100.788521,50.4684073 98.1724938,51.8642239 L106,57.134582 L104.465656,57.7021119 Z" id="Fill-16" fill="#5D6E8A"></path>
                <path d="M115.04353,40.4505603 L110.884033,50.7498352 L120.344669,50.2366513 L115.04353,40.4505603 Z M123.540044,56.1071193 L120.975174,51.3698088 L110.385139,51.9452868 L108.380377,56.9288069 L107,57 L114.34569,39.0711931 L115.634246,39 L125,56.027027 L123.540044,56.1071193 Z" id="Fill-18" fill="#5D6E8A"></path>
                <polygon id="Fill-20" fill="#5D6E8A" points="139.963397 59.7641138 131.84041 41.2516411 128.194729 56.7496718 127 56.443326 131.105417 39 132.273792 39.3032823 140.232796 57.4297593 143.805271 42.2595186 145 42.5597374 140.894583 60"></polygon>
                <polygon id="Fill-22" fill="#5D6E8A" points="159.096505 50.6898734 151.134829 65 150 64.3596519 157.961676 50.0495253 152.644956 47.0552215 153.231732 46 165 52.6349684 164.413225 53.6901899"></polygon>
                <path d="M171.414334,55.2082143 L175.28169,54 L176,55.5664286 L172.235693,55.8821429 L171.414334,55.2082143 Z M159,70.1651786 L170.232305,56.3769643 L171.259761,57.20875 L160.027456,71 L159,70.1651786 Z" id="Fill-24" fill="#5D6E8A"></path>
                <path d="M181.452182,69.4076351 L170.462369,72.3489162 L176.44686,79.6882886 L181.452182,69.4076351 Z M173.451574,85.8689744 L175.878212,80.8930767 L169.18215,72.6777742 L163.875779,74.1099968 L163,73.04044 L182.18808,68 L183,68.9957942 L174.379048,87 L173.451574,85.8689744 Z" id="Fill-26" fill="#5D6E8A"></path>
                <path d="M92.6514079,167.695102 L83.0482463,175.08393 L91.8185411,179.911943 L92.6514079,167.695102 Z M91.3443109,187.255366 L91.7414787,181.340671 L81.9189857,175.934507 L77.2863494,179.521464 L76,178.813154 L92.8114606,166 L94,166.650798 L92.6988309,188 L91.3443109,187.255366 Z" id="Fill-28" fill="#5D6E8A"></path>
                <path d="M114.223706,171.07437 C113.215565,170.927915 111.885054,169.588456 110.985347,169.460307 C110.346467,169.365721 110.009443,169.655581 109.473136,170.644157 L108.605666,170.265813 C109.373494,168.355788 110.117877,167.873704 111.172908,168.026262 C112.181049,168.172718 113.51449,169.515228 114.414197,169.643377 C115.053077,169.734911 115.390101,169.451154 115.920547,168.459527 L116.793878,168.837871 C116.02605,170.744845 115.281667,171.226928 114.223706,171.07437 L114.223706,171.07437 Z M116.38945,192.850493 L105.613481,173.844823 L103.32465,190.964877 L102,190.778756 L104.576034,171.507635 L105.874308,171.696807 L116.433409,190.305826 L118.67535,173.539707 L120,173.734981 L117.421035,193 L116.38945,192.850493 Z" id="Fill-30" fill="#5D6E8A"></path>
                <path d="M141.316501,179.144283 C140.26289,174.493629 136.095666,171.463888 131.55658,172.542476 C127.014543,173.618034 124.618094,178.153558 125.671705,182.804211 L125.68351,182.855717 C126.737121,187.506371 130.904345,190.533083 135.443431,189.457524 C139.979566,188.378936 142.376014,183.840383 141.325355,179.198818 L141.316501,179.144283 Z M135.673632,190.730016 C130.11635,192.047954 125.444456,188.378936 124.281647,183.246554 L124.269842,183.192018 C123.104082,178.065695 125.763195,172.590952 131.323428,171.269984 C136.883661,169.952046 141.555555,173.621064 142.718364,178.753446 C142.75378,178.774655 142.75378,178.774655 142.730169,178.804952 C143.89593,183.940364 141.236816,189.409048 135.673632,190.730016 L135.673632,190.730016 Z" id="Fill-32" fill="#5D6E8A"></path>
                <path d="M159.588109,181.248788 C156.954829,182.910741 154.382435,183.309365 151.295561,182.781955 L151.520835,181.35611 C154.382435,181.892718 156.543855,181.622881 158.970126,180.095847 C161.44206,178.535083 162.264009,176.072818 161.082838,174.177823 L161.052396,174.131828 C159.959508,172.380952 158.406939,171.945533 154.190646,173.546159 C149.736902,175.232642 147.292366,174.892279 145.727619,172.384018 L145.700221,172.334957 C144.162873,169.878824 145.216185,166.573316 148.278705,164.647659 C150.677577,163.13289 152.671564,162.801726 155.183073,163.099161 L155.012595,164.555669 C152.613723,164.187709 150.738462,164.644593 148.924086,165.788335 C146.50086,167.315369 145.770239,169.719375 146.847905,171.44572 L146.878348,171.494782 C147.971235,173.245658 149.526849,173.748537 153.941018,172.092717 C158.239505,170.464494 160.696218,170.829387 162.203124,173.242592 L162.233566,173.288587 C163.901818,175.96243 162.769355,179.246473 159.588109,181.248788" id="Fill-34" fill="#5D6E8A"></path>
                <path d="M168.299668,170 L167,168.599485 C173.595372,162.235688 178.785221,154.753278 182.422526,146.359183 C186.198031,137.647199 188.112248,128.374409 188.112248,118.786728 C188.112248,109.82583 186.409742,101.059864 183.051777,92.7317467 L184.80133,92 C188.250447,100.562036 190,109.573917 190,118.786728 C190,128.641316 188.032856,138.181014 184.151496,147.135914 C180.411276,155.766927 175.077346,163.459264 168.299668,170" id="Fill-36" fill="#5D6E8A"></path>
                <path d="M70.7032728,170 C63.9255945,163.459264 58.5916645,155.766927 54.8514446,147.138913 C50.9700844,138.184013 49,128.644315 49,118.786728 C49,109.56492 50.7495525,100.553039 54.2016108,92 L55.948223,92.7347457 C52.5931987,101.050867 50.8906929,109.819832 50.8906929,118.786728 C50.8906929,128.374409 52.8049092,137.650198 56.5774738,146.359183 C60.2177193,154.753278 65.4075684,162.238687 72,168.599485 L70.7032728,170 Z" id="Fill-38" fill="#5D6E8A"></path>
            </g>
        </g>
    </g>
</svg>