<svg xmlns="http://www.w3.org/2000/svg" width="41" height="49" viewBox="0 0 41 49">
    <g fill="none" fill-rule="evenodd" stroke="#657591" stroke-linecap="round" stroke-linejoin="round" stroke-width="1.32">
        <path d="M39.728 20.47c0 10.636-8.621 19.258-19.257 19.258-10.636 0-19.258-8.622-19.258-19.257 0-10.636 8.622-19.258 19.258-19.258s19.257 8.622 19.257 19.258z"/>
        <path d="M21.417 20.47a7.303 7.303 0 0 1 4.259-6.635 8.396 8.396 0 0 0-5.205-1.804 8.44 8.44 0 0 0 0 16.88c1.966 0 3.77-.678 5.205-1.805a7.304 7.304 0 0 1-4.259-6.635zM29.713 39.728v8.529l-9.242-3.052-9.242 3.052v-8.529"/>
    </g>
</svg>
