<svg xmlns="http://www.w3.org/2000/svg" xmlns:xlink="http://www.w3.org/1999/xlink" width="85" height="85" viewBox="0 0 85 85">
    <defs>
        <path id="a" d="M82.545 41.273c0 22.794-18.478 41.272-41.273 41.272C18.479 82.545 0 64.067 0 41.273 0 18.478 18.479 0 41.272 0c22.795 0 41.273 18.478 41.273 41.273"/>
    </defs>
    <g fill="none" fill-rule="evenodd">
        <g transform="translate(1 1)">
            <mask id="b" fill="#fff">
                <use xlink:href="#a"/>
            </mask>
            <g mask="url(#b)">
                <path fill="#FFF" fill-opacity=".28" d="M81.896 41.21c0 22.667-18.376 41.043-41.044 41.043-22.667 0-41.043-18.376-41.043-41.044C-.191 18.541 18.185.165 40.852.165c22.668 0 41.044 18.376 41.044 41.044"/>
                <path fill="#94A8CA" d="M26.648 60.222c-3.734 0-7.47-.165-11.19-.458a164.954 164.954 0 0 1-9.235-.99 116.416 116.416 0 0 1-5.36-.853c-1.57-.286-3.038-.555-3.862-1.969-.36-.619-.169-1.154-.024-1.787l.828-3.64c.772-3.385 1.542-6.77 2.313-10.158l1.42-6.233.011-.048c.442-1.936 7.623-2.488 9.624-2.753 5.66-.749 11.418-.983 17.143-.983 4.945 0 9.947.143 14.83.835 2.436.346 5.463.82 7.572 1.937 1.394.74 1.481 3.493 1.779 4.766l1.507 6.431 2.57 10.973c.27 1.156-1.316 1.701-2.26 1.947-1.616.42-3.326.64-4.979.9-4.506.704-9.055 1.223-13.607 1.61-3.016.258-6.048.473-9.08.473"/>
                <path fill="#FFF" d="M26.647 55.23c-3.822 0-7.642-.185-11.448-.511-3.16-.272-6.31-.644-9.447-1.107a111.29 111.29 0 0 1-5.485-.955c-1.606-.32-3.108-.62-3.95-2.202-.37-.692-.174-1.29-.025-1.999l.848-4.068 2.366-11.36L.958 26.06a.771.771 0 0 0 .011-.056c.452-2.163 7.798-2.783 9.847-3.079 5.79-.836 11.679-1.1 17.537-1.1 5.059 0 10.176.161 15.172.936 2.492.385 5.59.917 7.746 2.166 1.427.827 1.516 3.906 1.82 5.328l1.542 7.192 2.63 12.27c.277 1.293-1.347 1.902-2.311 2.177-1.654.471-3.403.717-5.095 1.006-4.61.788-9.263 1.368-13.92 1.802-3.086.287-6.189.527-9.29.527"/>
                <path stroke="#5D6E8A" stroke-linecap="round" stroke-linejoin="round" stroke-width="2" d="M26.647 55.23c-3.822 0-7.642-.185-11.448-.511-3.16-.272-6.31-.644-9.447-1.107a111.29 111.29 0 0 1-5.485-.955c-1.606-.32-3.108-.62-3.95-2.202-.37-.692-.174-1.29-.025-1.999l.848-4.068 2.366-11.36L.958 26.06a.771.771 0 0 0 .011-.056c.452-2.163 7.798-2.783 9.847-3.079 5.79-.836 11.679-1.1 17.537-1.1 5.059 0 10.176.161 15.172.936 2.492.385 5.59.917 7.746 2.166 1.427.827 1.516 3.906 1.82 5.328l1.542 7.192 2.63 12.27c.277 1.293-1.347 1.902-2.311 2.177-1.654.471-3.403.717-5.095 1.006-4.61.788-9.263 1.368-13.92 1.802-3.086.287-6.189.527-9.29.527z"/>
                <path fill="#FFF" d="M24.555 50.095s20.988 1.308 30.861-1.067"/>
                <path stroke="#5D6E8A" stroke-linecap="round" stroke-linejoin="round" stroke-width="2" d="M24.555 50.095s20.988 1.308 30.861-1.067"/>
                <path d="M-3.69 48.37c-.203.92.382 2.07 1.485 2.07 0 0 13.45-.347 28.853-.347 0 0 21.027 1.04 22.302-9.803 0 0 6.9 2.841 5.682-2.844"/>
                <path stroke="#5D6E8A" stroke-linecap="round" stroke-linejoin="round" stroke-width="2" d="M-3.69 48.37c-.203.92.382 2.07 1.485 2.07 0 0 13.45-.347 28.853-.347 0 0 21.027 1.04 22.302-9.803 0 0 6.9 2.841 5.682-2.844"/>
                <path fill="#D9E7FF" d="M-.295 46.903a.715.715 0 0 1-.276-1.374c2.285-.961 6.161-1.393 8.477-1.652.43-.047.795-.089 1.071-.124 6.206-.805 19.988-1.106 27.218-1.106a.715.715 0 0 1 0 1.43c-7.195 0-20.895.296-27.033 1.094-.283.036-.658.079-1.096.127-2.093.233-5.988.668-8.085 1.549a.72.72 0 0 1-.276.056"/>
                <path fill="#040201" d="M68.153 42.22c.024.943.05 1.885.077 2.826.081 2.935.204 5.902.576 8.827.937-.269 1.506-.642 1.404-1.04-1.457-5.674 0-10.613 0-10.613h-2.057z"/>
                <path fill="#040201" d="M68.003 31.446c-.02 3.935.069 7.874.178 11.806 1.298-.269 2.153-.712 2.028-1.194-1.455-5.674 0-10.612 0-10.612h-2.206z"/>
                <path fill="#040201" d="M68.433 20.95a103.48 103.48 0 0 0-.369 6.523 187.1 187.1 0 0 0-.064 4.57c1.4-.265 2.339-.725 2.21-1.23-1.457-5.673 0-9.863 0-9.863h-1.777z"/>
                <path fill="#FFF" d="M67.187 52.759c-.34-3.249-.472-6.526-.539-9.803-.053-2.512-.067-5.026-.103-7.527a260.72 260.72 0 0 1-.026-3.663c.002-3.61.098-7.222.42-10.815h-6.388c1.231 5.974 0 9.863 0 9.863 0 .226.176.44.482.632h-.482c1.47 8.277 0 10.612 0 10.612 0 .054.012.109.032.162h-.032c1.47 8.277 0 10.612 0 10.612 0 .806 2.162 1.46 4.829 1.46.69 0 1.361-.046 1.972-.126-.06-.47-.116-.938-.165-1.407"/>
                <path fill="#D3E3FD" d="M70.21 42.22s-1.456 4.939 0 10.612c.2.781-2.162 1.46-4.829 1.46-2.668 0-4.83-.653-4.83-1.46 0 0 1.47-2.335 0-10.612"/>
                <path stroke="#5D6E8A" stroke-linecap="round" stroke-linejoin="round" stroke-width="2" d="M70.21 42.22s-1.456 4.939 0 10.612c.2.781-2.162 1.46-4.829 1.46-2.668 0-4.83-.653-4.83-1.46 0 0 1.47-2.335 0-10.612"/>
                <path fill="#D3E3FD" d="M70.21 31.446s-1.456 4.938 0 10.612c.2.78-2.162 1.46-4.829 1.46-2.668 0-4.83-.654-4.83-1.46 0 0 1.47-2.335 0-10.612"/>
                <path stroke="#5D6E8A" stroke-linecap="round" stroke-linejoin="round" stroke-width="2" d="M70.21 31.446s-1.456 4.938 0 10.612c.2.78-2.162 1.46-4.829 1.46-2.668 0-4.83-.654-4.83-1.46 0 0 1.47-2.335 0-10.612"/>
                <path fill="#D3E3FD" d="M70.21 20.95s-1.456 4.19 0 9.863c.2.78-2.162 1.46-4.829 1.46-2.668 0-4.83-.653-4.83-1.46 0 0 1.231-3.888 0-9.863"/>
                <path stroke="#5D6E8A" stroke-linecap="round" stroke-linejoin="round" stroke-width="2" d="M70.21 20.95s-1.456 4.19 0 9.863c.2.78-2.162 1.46-4.829 1.46-2.668 0-4.83-.653-4.83-1.46 0 0 1.231-3.888 0-9.863"/>
                <path fill="#D9E1F2" d="M70.21 20.95c0 .807-2.162 1.46-4.829 1.46-2.668 0-4.83-.653-4.83-1.46 0-.806 2.162-1.46 4.83-1.46 2.667 0 4.829.654 4.829 1.46"/>
                <path fill="#D9E1F2" d="M70.21 20.95c0 .807-2.162 1.46-4.829 1.46-2.668 0-4.83-.653-4.83-1.46 0-.806 2.162-1.46 4.83-1.46 2.667 0 4.829.654 4.829 1.46"/>
                <path fill="#D3E3FD" d="M70.21 20.95c0 .807-2.162 1.46-4.829 1.46-2.668 0-4.83-.653-4.83-1.46 0-.806 2.162-1.46 4.83-1.46 2.667 0 4.829.654 4.829 1.46"/>
                <path stroke="#5D6E8A" stroke-linecap="round" stroke-linejoin="round" stroke-width="2" d="M70.21 20.95c0 .807-2.162 1.46-4.829 1.46-2.668 0-4.83-.653-4.83-1.46 0-.806 2.162-1.46 4.83-1.46 2.667 0 4.829.654 4.829 1.46z"/>
                <path fill="#FFF" d="M70.21 31.446s4.123-1.689 5.466-6.613c0 0-2.482 1.577-2.732 4.687"/>
                <path stroke="#5D6E8A" stroke-linecap="round" stroke-linejoin="round" stroke-width="2" d="M70.21 31.446s4.123-1.689 5.466-6.613c0 0-2.482 1.577-2.732 4.687M54.141 40.402s-3.823 6.396-18.194 9.105"/>
                <path fill="#D3E3FD" d="M6.582 27.305c.217-.025.422-.083.605-.166.155-.07.174-.234.042-.317-.307-.197-.517-.488-.557-.83-.042-.344.094-.676.349-.939.11-.113.05-.267-.119-.299a2.09 2.09 0 0 0-.676-.014c-.854.123-1.5.755-1.454 1.424.051.738.875 1.251 1.81 1.141M12.648 26.778c.218-.025.422-.083.605-.166.156-.07.175-.234.043-.317-.307-.197-.518-.487-.558-.83-.041-.344.095-.676.35-.939.108-.113.05-.267-.12-.298a2.09 2.09 0 0 0-.676-.015c-.853.123-1.5.755-1.454 1.424.052.738.875 1.251 1.81 1.141M19.422 26.251c.217-.025.422-.083.605-.166.156-.07.174-.234.043-.317-.308-.197-.518-.488-.558-.83-.041-.344.095-.676.35-.939.11-.113.05-.267-.12-.3a2.132 2.132 0 0 0-.676-.013c-.854.123-1.5.755-1.454 1.424.051.738.875 1.251 1.81 1.141M25.97 26.014c.219 0 .43-.033.62-.093.164-.052.2-.213.08-.312-.282-.231-.457-.545-.457-.89s.175-.658.458-.89c.121-.1.08-.26-.083-.312a2.085 2.085 0 0 0-.67-.091c-.863.02-1.578.572-1.61 1.242-.038.74.721 1.346 1.662 1.346M33.205 26.005c.218-.026.422-.083.605-.166.156-.07.175-.234.043-.317-.307-.198-.518-.488-.558-.831-.041-.343.095-.675.35-.938.11-.113.05-.267-.12-.3a2.132 2.132 0 0 0-.676-.013c-.853.123-1.5.755-1.454 1.424.052.738.875 1.251 1.81 1.141M39.966 26.414c.218-.026.422-.083.605-.166.156-.07.175-.235.043-.318-.307-.197-.517-.487-.557-.83-.042-.344.094-.675.348-.938.11-.113.05-.268-.118-.3a2.132 2.132 0 0 0-.677-.013c-.853.122-1.5.754-1.454 1.424.052.737.875 1.25 1.81 1.14M46.856 27.3c.217-.026.422-.084.605-.166.155-.07.174-.235.042-.318-.307-.197-.517-.487-.557-.83-.042-.344.094-.676.349-.939.11-.113.05-.267-.119-.3a2.132 2.132 0 0 0-.676-.013c-.854.123-1.5.755-1.454 1.424.051.738.875 1.251 1.81 1.141M4.883 33.038c.229-.025.443-.083.635-.166.163-.07.183-.234.046-.317-.325-.197-.545-.488-.586-.83-.043-.344.1-.676.366-.939.115-.113.052-.267-.125-.299a2.255 2.255 0 0 0-.709-.012c-.897.121-1.574.753-1.527 1.422.054.738.92 1.251 1.9 1.141M11.993 32.511c.23-.026.444-.083.635-.166.163-.07.183-.234.046-.317-.325-.197-.545-.488-.586-.83-.043-.344.1-.676.367-.939.115-.113.052-.267-.126-.299a2.254 2.254 0 0 0-.709-.012c-.896.121-1.574.753-1.527 1.422.054.738.92 1.251 1.9 1.141M19.104 31.984c.229-.026.443-.083.635-.166.163-.07.183-.234.045-.317-.324-.197-.544-.488-.586-.83-.043-.344.1-.676.366-.939.116-.113.053-.267-.124-.299a2.255 2.255 0 0 0-.71-.012c-.896.121-1.574.753-1.526 1.422.054.738.919 1.251 1.9 1.141M25.977 31.747c.23 0 .45-.033.65-.093.172-.052.212-.213.085-.312-.297-.231-.48-.545-.48-.89s.183-.658.48-.89c.127-.1.086-.26-.087-.312a2.279 2.279 0 0 0-.702-.091c-.907.02-1.657.572-1.692 1.242-.038.74.758 1.346 1.746 1.346M33.572 31.738c.229-.026.443-.083.635-.166.163-.07.183-.235.046-.317-.325-.198-.545-.488-.587-.831-.042-.343.1-.675.366-.938.116-.113.053-.268-.124-.299a2.255 2.255 0 0 0-.71-.013c-.896.122-1.573.754-1.526 1.423.054.738.92 1.25 1.9 1.14M40.67 32.146c.228-.025.442-.082.634-.165.163-.07.183-.235.046-.318-.325-.197-.545-.487-.587-.83-.042-.344.1-.675.368-.939.114-.112.051-.267-.126-.298a2.254 2.254 0 0 0-.71-.013c-.896.121-1.573.753-1.526 1.422.054.738.92 1.252 1.9 1.141M47.9 33.032c.23-.026.444-.083.635-.166.163-.07.183-.234.046-.317-.324-.197-.543-.488-.586-.83-.043-.344.1-.676.367-.939.115-.113.052-.267-.125-.299a2.254 2.254 0 0 0-.71-.012c-.896.121-1.574.753-1.527 1.422.055.738.92 1.251 1.9 1.141M3.468 39.756c.23-.025.444-.083.635-.166.163-.07.183-.234.046-.317-.324-.197-.545-.488-.586-.83-.043-.344.1-.676.366-.939.116-.113.053-.267-.125-.299a2.255 2.255 0 0 0-.709-.012c-.896.121-1.574.753-1.527 1.422.055.738.92 1.251 1.9 1.141M11.286 39.23c.229-.027.443-.084.635-.167.163-.07.183-.234.046-.317-.325-.197-.545-.488-.586-.83-.043-.344.1-.676.366-.939.115-.113.052-.267-.125-.299a2.255 2.255 0 0 0-.709-.012c-.897.121-1.574.753-1.527 1.422.054.738.92 1.251 1.9 1.141M19.104 38.702c.229-.026.443-.083.635-.166.163-.07.183-.234.045-.317-.324-.197-.544-.488-.586-.83-.043-.344.1-.676.366-.939.116-.113.053-.267-.124-.299a2.255 2.255 0 0 0-.71-.012c-.896.121-1.574.753-1.526 1.422.054.738.919 1.251 1.9 1.141M25.977 38.465c.23 0 .45-.033.65-.093.172-.052.212-.213.085-.312-.297-.231-.48-.545-.48-.89s.183-.658.48-.89c.127-.1.086-.26-.087-.312a2.279 2.279 0 0 0-.702-.091c-.907.02-1.657.572-1.692 1.242-.038.74.758 1.346 1.746 1.346M33.572 38.456c.229-.026.443-.083.635-.166.163-.07.183-.235.046-.317-.325-.198-.545-.488-.587-.831-.042-.343.1-.675.366-.938.116-.113.053-.268-.124-.299a2.255 2.255 0 0 0-.71-.013c-.896.122-1.573.754-1.526 1.423.054.738.92 1.25 1.9 1.14M40.67 38.864c.228-.025.442-.082.634-.165.163-.07.183-.235.046-.318-.325-.197-.545-.487-.587-.83-.042-.344.1-.675.368-.938.114-.113.051-.268-.126-.3a2.254 2.254 0 0 0-.71-.012c-.896.121-1.573.753-1.526 1.422.054.738.92 1.252 1.9 1.141M48.608 39.043c.229-.026.443-.083.635-.166.163-.07.183-.234.046-.317-.325-.198-.545-.488-.587-.831-.043-.343.1-.675.366-.938.116-.113.053-.267-.124-.3a2.344 2.344 0 0 0-.71-.013c-.896.123-1.573.755-1.526 1.424.054.738.92 1.251 1.9 1.141"/>
            </g>
        </g>
        <path stroke="#5D6E8A" stroke-width="2" d="M83.545 42.273c0 22.794-18.478 41.272-41.273 41.272C19.479 83.545 1 65.067 1 42.273 1 19.478 19.479 1 42.272 1c22.795 0 41.273 18.478 41.273 41.273"/>
    </g>
</svg>
