<svg xmlns="http://www.w3.org/2000/svg" xmlns:xlink="http://www.w3.org/1999/xlink" width="127" height="127" viewBox="0 0 127 127">
    <defs>
        <path id="a" d="M.184 62.435c0 34.474 27.967 62.42 62.462 62.42 34.499 0 62.464-27.946 62.464-62.42C125.11 27.959 97.145.013 62.646.013 28.15.013.184 27.96.184 62.435zm17.957 0c0-24.564 19.926-44.476 44.505-44.476 24.58 0 44.507 19.912 44.507 44.476 0 24.563-19.926 44.474-44.507 44.474-24.579 0-44.505-19.911-44.505-44.474z"/>
        <path id="c" d="M3.029.858c.5.246.857.51 1.063 1.056.326.85-.151 1.737-1.027 2.07-.877.335-1.81-.014-2.134-.865-.194-.507-.118-.975.076-1.454L.24 1.383c-.245.58-.343 1.184-.03 2.003.512 1.343 1.91 1.897 3.18 1.413 1.283-.49 1.924-1.839 1.43-3.133C4.505.834 4.006.443 3.346.164L3.03.858z"/>
        <path id="e" d="M2.036.172C.74.522-.064 1.79.314 3.2c.381 1.408 1.73 2.11 3.028 1.761 1.298-.348 2.1-1.619 1.722-3.025C4.75.768 3.77.083 2.701.083c-.219 0-.443.03-.665.09zm-.976 2.84c-.247-.91.319-1.757 1.216-2 .9-.24 1.798.2 2.044 1.11.245.91-.32 1.757-1.22 2a1.888 1.888 0 0 1-.484.064c-.717 0-1.356-.429-1.556-1.174z"/>
        <path id="g" d="M2.036.172C.74.522-.064 1.79.314 3.2c.381 1.408 1.73 2.11 3.028 1.761 1.298-.348 2.1-1.619 1.722-3.025C4.75.767 3.768.084 2.701.084c-.219 0-.443.028-.665.088zm-.976 2.84c-.247-.91.319-1.757 1.216-2 .9-.24 1.798.2 2.044 1.11.245.91-.32 1.757-1.22 2a1.885 1.885 0 0 1-.484.064c-.718 0-1.357-.428-1.556-1.174z"/>
        <path id="i" d="M.026.814l.127.813 3.249-.508L.549 4.142l.117.764 4.7-.736-.128-.811-3.343.523L4.833.77 4.725.078z"/>
        <path id="k" d="M.196.067l.231 3.85.775-.046-.09-1.505 3.974-.239-.05-.841-3.976.24L.97.02z"/>
        <path id="m" d="M.2 2.162l-.017.774 4.74 2.2.02-.854-1.137-.516.051-2.246 1.159-.456.02-.883L.2 2.162zm2.909-.354l-.036 1.636-1.884-.858 1.92-.778z"/>
        <path id="o" d="M.2 2.162l-.017.774 4.74 2.2.02-.854-1.137-.516.051-2.246 1.159-.456.02-.883L.2 2.162zm.99.424l1.919-.778-.036 1.636-1.884-.858z"/>
        <path id="q" d="M.15.985l4.738.453.08-.833L.23.153z"/>
        <path id="s" d="M.615.816l3.242.544L.192 3.325l-.127.763 4.685.787.138-.81-3.333-.559 3.767-2.023.117-.69L.752.007z"/>
        <path id="u" d="M.28 1.603c-.244.912.12 1.71.92 1.92.853.228 1.288-.246 1.785-1.162.421-.8.648-.935.982-.846.355.092.5.47.368.967-.152.57-.484.952-.981 1.29l.449.638a2.918 2.918 0 0 0 1.242-1.72C5.3 1.728 4.969.916 4.102.686 3.334.484 2.854.897 2.36 1.805c-.443.82-.656.989-1.016.895-.31-.082-.478-.423-.352-.895.11-.42.384-.79.802-1.12L1.298.09A2.634 2.634 0 0 0 .28 1.603z"/>
        <path id="w" d="M.175 1.607c-.495 1.35.198 2.68 1.475 3.146 1.289.47 2.657-.13 3.132-1.43.305-.834.185-1.457-.129-2.1l-.694.317c.218.514.312.947.113 1.495-.314.853-1.253 1.212-2.134.89C1.057 3.604.58 2.73.893 1.876c.186-.51.55-.812 1.012-1.047L1.507.113C.945.39.475.783.175 1.607z"/>
        <path id="y" d="M.244 3.33l4.298 2.03 1.523-3.212-.677-.321-1.165 2.46-1.155-.546 1.02-2.153-.673-.319-1.02 2.153-1.117-.529L2.428.465l-.676-.32z"/>
        <path id="A" d="M1.157 1.155L.08 2.98l4.098 2.415.424-.718-1.428-.843.53-.9 2.024-.164.5-.848-2.204.19c.18-.666.01-1.31-.669-1.712a1.511 1.511 0 0 0-.768-.223c-.54 0-1.051.336-1.43.98zm.003 1.49L1.78 1.6c.315-.532.733-.71 1.184-.444.422.248.498.734.195 1.25l-.622 1.052-1.376-.812z"/>
        <path id="C" d="M1.157 1.155L.08 2.98l4.098 2.415.424-.718-1.428-.843.53-.9 2.024-.164.5-.848-2.204.19c.18-.666.01-1.31-.669-1.712a1.511 1.511 0 0 0-.768-.223c-.54 0-1.051.336-1.43.98zm.003 1.49L1.78 1.6c.315-.532.733-.71 1.184-.444.422.248.498.734.195 1.25l-.622 1.052-1.376-.812z"/>
        <path id="E" d="M.044 3.137l.629.453.88-1.222 3.228 2.326.492-.683-3.226-2.326.88-1.22L2.3.012z"/>
        <path id="G" d="M.156.85L3.83 3.867l.533-.645L.687.206z"/>
        <path id="I" d="M.202 2.754l3.475 3.24.57-.612-1.416-1.318 1.635-1.751-.556-.518-1.634 1.75-.948-.883L3.17.687 2.615.17z"/>
        <path id="K" d="M.022.825l3.265 3.458.609-.573L.629.252z"/>
        <path id="M" d="M.018 2.355l3.035 3.661 2.744-2.27-.477-.576-2.1 1.738-.815-.982 1.838-1.52-.477-.577-1.838 1.52-.79-.95L3.213.682 2.735.107z"/>
        <path id="O" d="M1.565.59l-1.467.996 2.675 3.93 1.466-.995c1.236-.841 1.506-2.28.75-3.393C4.533.458 3.833.096 3.08.096c-.5 0-1.022.158-1.514.493zm-.348 1.155l.776-.526c.825-.562 1.75-.361 2.277.414.529.774.367 1.697-.459 2.258l-.776.526-1.818-2.672z"/>
        <path id="Q" d="M1.565.59l-1.467.996 2.675 3.93 1.466-.995c1.236-.841 1.506-2.28.75-3.393C4.533.458 3.832.096 3.08.096c-.5 0-1.022.159-1.514.493zm-.348 1.155l.776-.526c.825-.562 1.75-.361 2.277.414.529.774.367 1.697-.459 2.258l-.776.526-1.818-2.672z"/>
        <path id="S" d="M.1 1.746l2.13 4.25.748-.376-.867-1.73 2.146-1.073-.343-.68L1.771 3.21l-.582-1.158L3.607.84 3.265.16z"/>
        <path id="U" d="M.102.511l1.771 4.413 3.098-1.24-.283-.706-2.321.93L.879.202z"/>
        <path id="W" d="M.026 1.191L1.41 5.74l3.407-1.035L4.6 3.99 1.99 4.78l-.37-1.222 2.282-.691-.218-.716-2.28.693-.36-1.183L3.62.88l-.22-.714z"/>
        <path id="Y" d="M3.375.356l-.818 1.91L1.053.836l-.964.2 2.103 1.95L.987 5.704l.938-.195.866-2.016L4.38 5l.963-.2-2.181-2.03L4.312.162z"/>
        <path id="aa" d="M.05.323l.641 4.709.827-.113L.878.21z"/>
        <path id="ac" d="M2.201.129L.072.273l.321 4.743 2.197-.149c1.058-.07 1.725-.572 1.667-1.425-.045-.651-.451-.944-1.02-1.097.339-.205.645-.526.606-1.108C3.795.54 3.239.123 2.388.123c-.061 0-.123.002-.187.006zM.942.957l1.2-.082c.535-.036.85.167.876.554.03.44-.315.675-.851.711l-1.139.076L.942.956zm.134 1.964l1.322-.088c.657-.047.992.169 1.02.577.029.433-.301.68-.872.72l-1.381.093-.089-1.302z"/>
        <path id="ae" d="M2.201.129L.072.273l.321 4.743 2.197-.149c1.058-.07 1.725-.572 1.667-1.425-.045-.651-.451-.944-1.02-1.097.339-.205.645-.526.606-1.108C3.795.54 3.24.123 2.388.123c-.06 0-.124.002-.187.006zM.942.957l1.2-.082c.535-.036.85.167.876.554.03.44-.315.675-.851.711l-1.139.076L.942.956zm.134 1.964l1.322-.088c.657-.047.992.169 1.02.577.029.433-.301.68-.872.72l-1.381.093-.089-1.302z"/>
        <path id="ag" d="M.018 4.76l3.334.077.018-.758-2.5-.059L.962.029.126.01z"/>
        <path id="ai" d="M.094 4.891l3.537.38.081-.743-2.708-.289.136-1.268 2.37.255.079-.743L1.22 2.23 1.354 1l2.672.286.078-.74L.604.17z"/>
        <path id="ak" d="M.147 4.66l.814.195.352-1.487.92.217c1.017.242 1.981-.101 2.228-1.147.225-.944-.312-1.713-1.39-1.97L1.249.035.148 4.66zm2.287-1.803l-.945-.224.395-1.666.946.227c.606.144.93.52.802 1.069-.096.399-.415.636-.857.636a1.46 1.46 0 0 1-.34-.042z"/>
        <path id="am" d="M.147 4.66l.814.195.352-1.487.92.217c1.017.242 1.981-.101 2.228-1.147.225-.944-.312-1.713-1.39-1.97L1.249.035.148 4.66zm2.287-1.803l-.945-.224.395-1.666.946.227c.606.144.93.52.802 1.069-.097.399-.414.637-.857.637-.106 0-.22-.015-.34-.043z"/>
        <path id="ao" d="M.168 1.673c-.437 1.27.167 2.647 1.548 3.121 1.381.474 2.722-.248 3.157-1.522.438-1.27-.165-2.647-1.547-3.121-.29-.1-.577-.146-.855-.146C1.424.005.514.668.168 1.673zm1.81 2.4C1.083 3.766.697 2.823 1 1.943 1.302 1.064 2.17.566 3.065.873c.891.306 1.278 1.25.976 2.13-.241.703-.844 1.162-1.532 1.161-.173 0-.352-.028-.532-.09z"/>
        <path id="aq" d="M.168 1.673c-.437 1.27.167 2.647 1.548 3.121 1.381.474 2.722-.248 3.157-1.522.438-1.27-.165-2.647-1.547-3.121a2.642 2.642 0 0 0-.855-.146C1.424.005.514.668.168 1.673zm1.81 2.4C1.083 3.766.697 2.823 1 1.943 1.302 1.064 2.17.566 3.065.873c.891.306 1.278 1.25.976 2.13-.242.703-.844 1.161-1.533 1.161a1.64 1.64 0 0 1-.53-.09z"/>
        <path id="as" d="M.021 4.448l3.039 1.38.316-.69L1.097 4.1 2.756.462 1.993.118z"/>
        <path id="au" d="M1.068 3.661L.173 5.306l.74.403.904-1.663L4.842 2.44l-.84-.456-2.188 1.204L1.653.704.787.232z"/>
        <path id="aw" d="M.458 2.367c-.775 1.14-.523 2.174.5 2.868 1.03.697 2.095.556 2.891-.618l1.515-2.23-.691-.469-1.538 2.264c-.492.725-1.12.842-1.733.425-.62-.42-.73-1.068-.232-1.8L2.686.573l-.69-.47L.458 2.367z"/>
        <path id="ay" d="M.048 3.75l.644.533 1.06-1.274.804.667-.16 2.02.758.63.164-2.205c.629.284 1.292.22 1.796-.388.594-.716.447-1.59-.396-2.288L3.088.092.048 3.75zm3.118-.53l-.942-.781 1.02-1.228.935.777c.477.394.585.838.25 1.24a.73.73 0 0 1-.572.28c-.22 0-.46-.096-.69-.288z"/>
        <path id="aA" d="M.048 3.75l.644.533 1.06-1.274.804.667-.16 2.02.758.63.164-2.205c.629.284 1.292.22 1.796-.388.594-.716.447-1.59-.396-2.288L3.088.092.048 3.75zm3.118-.53l-.942-.781 1.02-1.228.935.777c.477.394.585.838.25 1.24a.732.732 0 0 1-.573.28c-.22 0-.459-.096-.69-.288z"/>
        <path id="aC" d="M.264 3.414l2.524 2.51.526-.529-1.93-1.92.9-.905 1.692 1.68.526-.526L2.813 2.04l.872-.876 1.906 1.897.528-.528L3.62.047z"/>
        <path id="aE" d="M2.184.635l.972 1.153L.11 4.352l.544.643L3.698 2.43l.973 1.151.592-.499L2.777.137z"/>
        <path id="aG" d="M.074 2.741l.476.682L2.193 2.28 3.49 4.137 1.848 5.283l.477.682L6.222 3.25l-.478-.684-1.62 1.129-1.296-1.858L4.448.709 3.97.024z"/>
        <path id="aI" d="M.168.511l.415.748 1.241-.131L2.92 3.09l-.77.98.43.771L5.745.685 5.368.009.168.51zm4.51.31l-1.26 1.644-.798-1.43L4.678.82z"/>
        <path id="aK" d="M.168.511l.415.748 1.241-.131L2.92 3.09l-.77.98.43.771L5.745.685 5.368.009.168.51zm2.452.523L4.678.821l-1.26 1.644-.798-1.43z"/>
        <path id="aM" d="M.26 2.036l.325.755L3.692 1.46l-2.075 3.74.276.64 4.37-1.87-.324-.755-3.021 1.294L4.935.875 4.63.163z"/>
        <path id="aO" d="M.003 1.456l1.082 3.39.713-.229L.97 2.023l1.215-.389.725 2.27.712-.226-.724-2.268 1.178-.377.817 2.561.711-.226L4.534.011z"/>
        <path id="aQ" d="M0 .996l.152.821 1.906-.352.437 2.357.748-.138-.436-2.358 1.277-.237.492 2.66.75-.14L4.68.13z"/>
        <path id="aS" d="M2.266.223C.926.336-.091 1.445.032 2.9c.125 1.454 1.328 2.39 2.67 2.276 1.34-.115 2.356-1.223 2.234-2.68C4.818 1.122 3.739.214 2.489.214c-.073 0-.148.003-.223.01zM.797 2.85c-.08-.94.628-1.676 1.556-1.754.927-.08 1.736.513 1.815 1.454.082.941-.627 1.677-1.555 1.754a1.95 1.95 0 0 1-.163.007c-.857 0-1.577-.575-1.653-1.46z"/>
        <path id="aU" d="M2.266.223C.926.336-.091 1.445.032 2.9c.125 1.454 1.328 2.39 2.67 2.276 1.34-.115 2.356-1.223 2.234-2.68C4.818 1.122 3.738.215 2.489.215c-.073 0-.148.003-.223.008zM.797 2.85c-.08-.94.628-1.676 1.556-1.754.927-.08 1.736.513 1.815 1.454.082.941-.627 1.677-1.555 1.754a1.97 1.97 0 0 1-.164.008c-.856 0-1.575-.576-1.652-1.462z"/>
        <path id="aW" d="M.313 1.007l1.138.511-.04 2.25-1.159.461-.015.883L5.07 3.108l.015-.775L.328.153l-.015.854zm1.873.83l1.89.85-1.918.788.028-1.637z"/>
        <path id="aY" d="M.65.857l3.37.43-2.4 1.194-.001.025 2.035 1.772L.27 3.847l-.103.83 4.716.596.11-.881-2.047-1.717 2.412-1.152.112-.881-4.717-.6z"/>
        <path id="ba" d="M.02 4.263c0 2.368 1.784 4.235 4.177 4.235 1.538 0 2.478-.564 3.333-1.457l-.926-.938c-.705.657-1.35 1.068-2.36 1.068-1.573 0-2.71-1.314-2.71-2.932 0-1.62 1.137-2.909 2.71-2.909.939 0 1.644.411 2.302 1.02l.927-1.066C6.687.532 5.77.004 4.257.004 1.767.005.02 1.918.02 4.265z"/>
        <path id="bc" d="M.046 3.5c0 1.924 1.386 3.228 3.18 3.228 1.14 0 1.948-.46 2.536-1.162l-.834-.74c-.492.482-.986.74-1.677.74-.915 0-1.62-.563-1.785-1.572H6.02c.012-.14.023-.258.023-.388 0-1.793-.998-3.342-2.97-3.342C1.304.264.047 1.718.047 3.5zm3.017-2.076c.938 0 1.478.717 1.573 1.631H1.454c.13-.961.739-1.631 1.61-1.631z"/>
        <path id="be" d="M1.45 1.522V.126H.029V6.32h1.42V3.962c0-1.642.868-2.452 2.113-2.452h.081V.01a2.582 2.582 0 0 0-.115-.003c-1.027 0-1.705.621-2.078 1.515z"/>
        <path id="bg" d="M1.45 1.522V.126H.029V6.32h1.42V3.962c0-1.642.868-2.452 2.113-2.452h.081V.01C3.604.007 3.566.005 3.528.005 2.5.006 1.823.629 1.45 1.522z"/>
        <path id="bi" d="M.826.153v1.7H.038v1.22h.788v3.262c0 1.358.738 1.817 1.784 1.817.528 0 .927-.118 1.278-.316V6.674a1.9 1.9 0 0 1-.88.211c-.48 0-.763-.223-.763-.774V3.073h1.667v-1.22H2.245v-1.7H.825z"/>
        <path id="bk" d="M.182 1.478h1.525V.13H.182v1.348zM.241 8.62H1.66V2.428H.24v6.193z"/>
        <path id="bm" d="M.222.102v8.21h1.444V5.673h1.632c1.807 0 3.286-.961 3.286-2.815 0-1.677-1.209-2.756-3.122-2.756H.222zm1.444 1.314h1.679c1.08 0 1.772.504 1.772 1.477 0 .88-.68 1.478-1.772 1.478h-1.68V1.416z"/>
        <path id="bo" d="M5.72.102V4.83c0 1.513-.786 2.287-2.066 2.287-1.292 0-2.078-.822-2.078-2.345V.102H.132V4.83c0 2.38 1.362 3.612 3.498 3.612 2.147 0 3.532-1.233 3.532-3.682V.102H5.72z"/>
        <path id="bq" d="M.238.102v8.21H1.68V5.45h1.808l2.018 2.86h1.703L4.991 5.204c1.148-.316 1.96-1.136 1.96-2.498 0-1.607-1.163-2.603-3.052-2.603H.238zM1.68 1.416h2.102c1.067 0 1.701.468 1.701 1.372 0 .846-.657 1.383-1.689 1.383H1.68V1.416z"/>
        <path id="bs" d="M.257 1.427H3.73V.033H.257z"/>
        <path id="bu" d="M5.716.102V4.83c0 1.513-.787 2.287-2.067 2.287-1.29 0-2.076-.822-2.076-2.345V.102H.128V4.83c0 2.38 1.363 3.612 3.499 3.612 2.147 0 3.532-1.233 3.532-3.682V.102H5.716z"/>
        <path id="bw" d="M.543 2.42c0 1.525.985 2.04 2.733 2.464 1.528.352 1.855.669 1.855 1.267 0 .632-.563 1.043-1.454 1.043-1.022 0-1.808-.386-2.594-1.067L.213 7.16a5.066 5.066 0 0 0 3.428 1.312c1.726 0 2.935-.913 2.935-2.463 0-1.373-.904-1.993-2.64-2.416-1.575-.374-1.95-.657-1.95-1.302 0-.55.494-.984 1.338-.984.752 0 1.49.291 2.23.843l.774-1.09C5.496.391 4.546.03 3.348.03 1.715.029.542.99.542 2.42z"/>
    </defs>
    <g fill="none" fill-rule="evenodd">
        <path fill="#5175B8" d="M63.415 108.087c-24.58 0-44.505-19.912-44.505-44.475 0-24.563 19.925-44.475 44.505-44.475 24.58 0 44.506 19.912 44.506 44.475 0 24.563-19.926 44.475-44.506 44.475M.952 63.612c0 34.475 27.967 62.42 62.463 62.42 34.498 0 62.463-27.945 62.463-62.42 0-34.474-27.965-62.42-62.463-62.42C28.919 1.191.952 29.137.952 63.611"/>
        <g transform="translate(.768 1.178)">
            <mask id="b" fill="#fff">
                <use xlink:href="#a"/>
            </mask>
            <path fill="#5175B8" d="M-254.59 1482.18h1412.01v-5974.614H-254.59z" mask="url(#b)"/>
            <path fill="#FFF" d="M-5.7 130.735h136.694V-5.866H-5.7z" mask="url(#b)"/>
            <path stroke="#5175B8" stroke-width=".88" d="M-5.7 130.735h136.694V-5.866H-5.7z" mask="url(#b)"/>
        </g>
        <path fill="#657591" d="M63.414 1.927c-34.035 0-61.726 27.672-61.726 61.685 0 34.015 27.69 61.687 61.726 61.687 34.037 0 61.727-27.672 61.727-61.687 0-34.013-27.69-61.685-61.727-61.685m0 124.842C28.566 126.769.217 98.436.217 63.612.217 28.79 28.566.457 63.414.457c34.847 0 63.198 28.332 63.198 63.155 0 34.824-28.35 63.157-63.198 63.157"/>
        <path fill="#657591" d="M63.416 19.872c-24.137 0-43.773 19.623-43.773 43.74 0 24.119 19.636 43.741 43.773 43.741 24.134 0 43.77-19.622 43.77-43.74 0-24.118-19.636-43.74-43.77-43.74m0 88.95c-24.947 0-45.244-20.28-45.244-45.21s20.297-45.21 45.244-45.21 45.24 20.28 45.24 45.21-20.293 45.21-45.24 45.21"/>
        <path fill="#5175B8" d="M15.957 81.393c.493 1.294-.148 2.643-1.43 3.132-1.27.485-2.667-.068-3.18-1.413-.314-.819-.217-1.422.029-2.003l.768.282c-.195.48-.27.947-.077 1.454.325.85 1.258 1.2 2.134.866.876-.334 1.353-1.221 1.028-2.071-.207-.546-.563-.81-1.064-1.056l.316-.694c.66.28 1.159.67 1.476 1.503"/>
        <g transform="translate(11.136 79.726)">
            <mask id="d" fill="#fff">
                <use xlink:href="#c"/>
            </mask>
            <path fill="#5175B8" d="M-264.958 1403.631h1412.01v-5974.613h-1412.01z" mask="url(#d)"/>
            <path fill="#657591" d="M-5.87 10.851h16.74V-5.715H-5.87z" mask="url(#d)"/>
        </g>
        <path fill="#5175B8" d="M10.468 77.868c.245.91 1.145 1.349 2.04 1.109.9-.244 1.465-1.09 1.22-2-.245-.911-1.145-1.35-2.043-1.11-.897.242-1.463 1.09-1.217 2m4.004-1.077c.38 1.408-.424 2.678-1.722 3.027-1.298.35-2.647-.355-3.027-1.762-.379-1.41.425-2.679 1.722-3.028 1.299-.35 2.648.355 3.027 1.763"/>
        <g transform="translate(9.408 74.855)">
            <mask id="f" fill="#fff">
                <use xlink:href="#e"/>
            </mask>
            <path fill="#5175B8" d="M-263.23 1408.502h1412.01v-5974.613H-263.23z" mask="url(#f)"/>
        </g>
        <g transform="translate(9.408 74.855)">
            <mask id="h" fill="#fff">
                <use xlink:href="#g"/>
            </mask>
            <path fill="#657591" d="M-5.663 10.93H11.04V-5.797H-5.663z" mask="url(#h)"/>
        </g>
        <path fill="#5175B8" d="M8.366 70.992l-.127-.812 4.698-.736.108.69-2.937 3.113 3.344-.523.126.81-4.698.738-.119-.765 2.853-3.024z"/>
        <g transform="translate(8.213 69.365)">
            <mask id="j" fill="#fff">
                <use xlink:href="#i"/>
            </mask>
            <path fill="#5175B8" d="M-262.035 1413.992h1412.01v-5974.613h-1412.01z" mask="url(#j)"/>
            <path fill="#657591" d="M-5.858 10.786H11.25V-5.801H-5.858z" mask="url(#j)"/>
        </g>
        <path fill="#5175B8" d="M12.716 66.313l.05.841-3.975.238.09 1.506-.773.046-.232-3.85.774-.047.09 1.506z"/>
        <g transform="translate(7.68 65.027)">
            <mask id="l" fill="#fff">
                <use xlink:href="#k"/>
            </mask>
            <path fill="#5175B8" d="M-261.502 1418.33h1412.01v-5974.612h-1412.01z" mask="url(#l)"/>
            <path fill="#657591" d="M-5.687 9.797H10.97V-5.86H-5.687z" mask="url(#l)"/>
        </g>
        <path fill="#5175B8" d="M8.87 62.476l1.883.857.036-1.635-1.92.778zm3.847-2.406l-.02.883-1.16.456-.05 2.247 1.137.516-.02.854-4.741-2.2.017-.774 4.837-1.982z"/>
        <g transform="translate(7.68 59.89)">
            <mask id="n" fill="#fff">
                <use xlink:href="#m"/>
            </mask>
            <path fill="#5175B8" d="M-261.502 1423.468h1412.01v-5974.613h-1412.01z" mask="url(#n)"/>
        </g>
        <g transform="translate(7.68 59.89)">
            <mask id="p" fill="#fff">
                <use xlink:href="#o"/>
            </mask>
            <path fill="#657591" d="M-5.701 11.016h16.62V-5.698H-5.7z" mask="url(#p)"/>
        </g>
        <path fill="#5175B8" d="M8.177 58.006l4.737.452-.08.833-4.737-.453z"/>
        <g transform="translate(7.947 57.853)">
            <mask id="r" fill="#fff">
                <use xlink:href="#q"/>
            </mask>
            <path fill="#5175B8" d="M-261.768 1425.504h1412.01V-4549.11h-1412.01z" mask="url(#r)"/>
            <path fill="#657591" d="M-5.732 7.317h16.584V-5.727H-5.732z" mask="url(#r)"/>
        </g>
        <path fill="#5175B8" d="M8.871 53.222l.137-.809 4.687.787-.117.69-3.767 2.022 3.334.56-.138.81-4.686-.787.128-.764 3.664-1.964z"/>
        <g transform="translate(8.256 52.407)">
            <mask id="t" fill="#fff">
                <use xlink:href="#s"/>
            </mask>
            <path fill="#5175B8" d="M-262.078 1430.95h1412.01v-5974.612h-1412.01z" mask="url(#t)"/>
            <path fill="#657591" d="M-5.819 10.754h17.14V-5.873h-17.14z" mask="url(#t)"/>
        </g>
        <path fill="#5175B8" d="M11.768 49.605c.494-.907.975-1.32 1.742-1.117.866.23 1.198 1.042.943 2.004a2.92 2.92 0 0 1-1.242 1.72l-.45-.64c.498-.336.831-.718.982-1.288.133-.499-.014-.875-.368-.967-.334-.09-.56.047-.983.846-.495.915-.931 1.39-1.783 1.163-.8-.212-1.165-1.01-.922-1.921a2.635 2.635 0 0 1 1.02-1.513l.495.595c-.419.331-.692.7-.803 1.12-.126.471.043.812.352.894.361.095.574-.074 1.017-.896"/>
        <g transform="translate(9.408 47.802)">
            <mask id="v" fill="#fff">
                <use xlink:href="#u"/>
            </mask>
            <path fill="#5175B8" d="M-263.23 1435.555h1412.01v-5974.613H-263.23z" mask="url(#v)"/>
            <path fill="#657591" d="M-5.679 10.29h16.69V-5.789h-16.69z" mask="url(#v)"/>
        </g>
        <path fill="#5175B8" d="M15.919 45.944c-.476 1.3-1.844 1.9-3.133 1.43-1.276-.466-1.97-1.796-1.475-3.147.3-.822.77-1.215 1.333-1.493l.397.716c-.463.235-.825.536-1.011 1.047-.313.854.163 1.729 1.044 2.05.881.321 1.82-.037 2.134-.89.2-.55.104-.98-.112-1.495l.694-.316c.314.641.434 1.264.129 2.098"/>
        <g transform="translate(11.136 42.621)">
            <mask id="x" fill="#fff">
                <use xlink:href="#w"/>
            </mask>
            <path fill="#5175B8" d="M-264.958 1440.736h1412.01v-5974.613h-1412.01z" mask="url(#x)"/>
            <path fill="#657591" d="M-5.869 10.791h16.712V-5.766H-5.869z" mask="url(#x)"/>
        </g>
        <path fill="#5175B8" d="M14.716 38.481l-1.15 2.429 1.116.528 1.021-2.152.674.318-1.02 2.154 1.154.545 1.165-2.46.676.32-1.522 3.215-4.297-2.032 1.507-3.186z"/>
        <g transform="translate(12.288 38.017)">
            <mask id="z" fill="#fff">
                <use xlink:href="#y"/>
            </mask>
            <path fill="#5175B8" d="M-266.11 1445.34H1145.9v-5974.612H-266.11z" mask="url(#z)"/>
            <path fill="#657591" d="M-5.638 11.24h17.585V-5.735H-5.638z" mask="url(#z)"/>
        </g>
        <path fill="#5175B8" d="M16.371 35.587l-.618 1.046 1.375.812.622-1.053c.303-.516.228-1.002-.194-1.25-.45-.265-.87-.088-1.185.445zm3.948 1.168l-2.021.165-.533.9 1.429.843-.425.719-4.096-2.416 1.077-1.824c.555-.942 1.396-1.228 2.197-.755.68.401.85 1.045.67 1.712l2.204-.19-.502.846z"/>
        <g transform="translate(14.592 33.987)">
            <mask id="B" fill="#fff">
                <use xlink:href="#A"/>
            </mask>
            <path fill="#5175B8" d="M-268.414 1449.37h1412.01v-5974.613h-1412.01z" mask="url(#B)"/>
        </g>
        <g transform="translate(14.592 33.987)">
            <mask id="D" fill="#fff">
                <use xlink:href="#C"/>
            </mask>
            <path fill="#657591" d="M-5.803 11.274h17.916V-5.704H-5.803z" mask="url(#D)"/>
        </g>
        <path fill="#5175B8" d="M22.436 33.66l-.492.683-3.228-2.327-.882 1.222-.628-.452 2.257-3.126.628.453-.882 1.221z"/>
        <g transform="translate(17.163 29.649)">
            <mask id="F" fill="#fff">
                <use xlink:href="#E"/>
            </mask>
            <path fill="#5175B8" d="M-270.984 1453.708h1412.01v-5974.612h-1412.01z" mask="url(#F)"/>
            <path fill="#657591" d="M-5.84 10.574h16.997V-5.867H-5.84z" mask="url(#F)"/>
        </g>
        <path fill="#5175B8" d="M20.73 28.128l3.675 3.016-.533.646-3.673-3.018z"/>
        <g transform="translate(20.042 27.922)">
            <mask id="H" fill="#fff">
                <use xlink:href="#G"/>
            </mask>
            <path fill="#5175B8" d="M-273.864 1455.435h1412.01v-5974.613h-1412.01z" mask="url(#H)"/>
            <path fill="#657591" d="M-5.727 9.747h15.973v-15.42H-5.727z" mask="url(#H)"/>
        </g>
        <path fill="#5175B8" d="M24.674 24.889l-1.843 1.975.949.883 1.635-1.75.556.518-1.636 1.751 1.416 1.318-.57.612-3.475-3.24 2.413-2.584z"/>
        <g transform="translate(21.504 24.202)">
            <mask id="J" fill="#fff">
                <use xlink:href="#I"/>
            </mask>
            <path fill="#5175B8" d="M-275.326 1459.155h1412.01v-5974.613h-1412.01z" mask="url(#J)"/>
            <path fill="#657591" d="M-5.681 11.873h16.032V-5.709H-5.681z" mask="url(#J)"/>
        </g>
        <path fill="#5175B8" d="M25.59 22.993l3.265 3.46-.608.572-3.265-3.457z"/>
        <g transform="translate(24.96 22.741)">
            <mask id="L" fill="#fff">
                <use xlink:href="#K"/>
            </mask>
            <path fill="#5175B8" d="M-278.782 1460.616h1412.01v-5974.613h-1412.01z" mask="url(#L)"/>
            <path fill="#657591" d="M-5.861 10.163h15.64v-15.79h-15.64z" mask="url(#L)"/>
        </g>
        <path fill="#5175B8" d="M29.9 20.279l-2.073 1.716.79.951 1.837-1.52.477.576-1.838 1.52.815.984 2.1-1.738.478.576-2.744 2.27-3.036-3.661 2.717-2.25z"/>
        <g transform="translate(26.688 19.597)">
            <mask id="N" fill="#fff">
                <use xlink:href="#M"/>
            </mask>
            <path fill="#5175B8" d="M-280.51 1463.76H1131.5v-5974.613H-280.51z" mask="url(#N)"/>
            <path fill="#657591" d="M-5.865 11.896H11.68V-5.773H-5.865z" mask="url(#N)"/>
        </g>
        <path fill="#5175B8" d="M32.404 18.513l-.777.527 1.819 2.672.775-.527c.826-.56.987-1.483.46-2.257-.528-.775-1.453-.977-2.277-.415m2.246 3.302l-1.467.996-2.674-3.93 1.466-.997c1.236-.84 2.666-.573 3.424.538.756 1.113.486 2.552-.75 3.393"/>
        <g transform="translate(30.41 17.295)">
            <mask id="P" fill="#fff">
                <use xlink:href="#O"/>
            </mask>
            <path fill="#5175B8" d="M-284.232 1466.062h1412.01V-4508.55h-1412.01z" mask="url(#P)"/>
        </g>
        <g transform="translate(30.41 17.295)">
            <mask id="R" fill="#fff">
                <use xlink:href="#Q"/>
            </mask>
            <path fill="#657591" d="M-5.785 11.396h17.078v-17.18H-5.785z" mask="url(#R)"/>
        </g>
        <path fill="#5175B8" d="M40.663 13.797l-2.417 1.21.58 1.159 2.145-1.072.342.679-2.146 1.074.868 1.73-.747.375-2.131-4.25 3.164-1.585z"/>
        <g transform="translate(37.056 12.956)">
            <mask id="T" fill="#fff">
                <use xlink:href="#S"/>
            </mask>
            <path fill="#5175B8" d="M-290.878 1470.401h1412.01v-5974.613h-1412.01z" mask="url(#T)"/>
            <path fill="#657591" d="M-5.782 11.876H10.14V-5.718H-5.782z" mask="url(#T)"/>
        </g>
        <path fill="#5175B8" d="M41.457 12.626l.777-.31 1.486 3.706 2.322-.93.283.707-3.098 1.24z"/>
        <g transform="translate(41.354 12.114)">
            <mask id="V" fill="#fff">
                <use xlink:href="#U"/>
            </mask>
            <path fill="#5175B8" d="M-295.176 1471.243h1412.01V-4503.37h-1412.01z" mask="url(#V)"/>
            <path fill="#657591" d="M-5.78 10.804h16.634V-5.678H-5.78z" mask="url(#V)"/>
        </g>
        <path fill="#5175B8" d="M49.27 10.693l-2.574.782.36 1.181 2.28-.692.219.716-2.282.691.37 1.222 2.608-.792.217.715-3.407 1.034-1.382-4.547 3.373-1.024z"/>
        <g transform="translate(45.653 9.812)">
            <mask id="X" fill="#fff">
                <use xlink:href="#W"/>
            </mask>
            <path fill="#5175B8" d="M-299.474 1473.545h1412.01v-5974.613h-1412.01z" mask="url(#X)"/>
            <path fill="#657591" d="M-5.858 11.618H10.7v-17.33H-5.858z" mask="url(#X)"/>
        </g>
        <path fill="#5175B8" d="M54.374 13.661l-1.589-1.507-.865 2.016-.939.194 1.205-2.718-2.103-1.948.964-.2 1.503 1.428.818-1.91.94-.194-1.152 2.61 2.182 2.03z"/>
        <g transform="translate(49.994 8.66)">
            <mask id="Z" fill="#fff">
                <use xlink:href="#Y"/>
            </mask>
            <path fill="#5175B8" d="M-303.816 1474.696h1412.01v-5974.612h-1412.01z" mask="url(#Z)"/>
            <path fill="#657591" d="M-5.795 11.583h17.022V-5.718H-5.795z" mask="url(#Z)"/>
        </g>
        <path fill="#5175B8" d="M56.365 8.562l.642 4.708-.828.112-.64-4.708z"/>
        <g transform="translate(55.488 8.351)">
            <mask id="ab" fill="#fff">
                <use xlink:href="#aa"/>
            </mask>
            <path fill="#5175B8" d="M-309.31 1475.006H1102.7v-5974.613H-309.31z" mask="url(#ab)"/>
            <path fill="#657591" d="M-5.833 10.91H7.402V-5.669H-5.833z" mask="url(#ab)"/>
        </g>
        <path fill="#5175B8" d="M61.21 11.494c-.028-.407-.363-.623-1.02-.577l-1.322.09.088 1.3 1.383-.093c.57-.039.9-.286.87-.72m-.399-1.98c-.025-.386-.341-.59-.875-.553l-1.2.081.085 1.26 1.14-.078c.535-.035.88-.27.85-.71m.825-.193c.038.583-.266.903-.606 1.11.568.152.976.444 1.02 1.095.058.853-.61 1.355-1.668 1.426l-2.195.15-.322-4.744 2.13-.144c.955-.064 1.59.362 1.64 1.107"/>
        <g transform="translate(57.792 8.085)">
            <mask id="ad" fill="#fff">
                <use xlink:href="#ac"/>
            </mask>
            <path fill="#5175B8" d="M-311.614 1475.272h1412.01v-5974.613h-1412.01z" mask="url(#ad)"/>
        </g>
        <g transform="translate(57.792 8.085)">
            <mask id="af" fill="#fff">
                <use xlink:href="#ae"/>
            </mask>
            <path fill="#657591" d="M-5.811 10.896h15.955V-5.756H-5.811z" mask="url(#af)"/>
        </g>
        <path fill="#5175B8" d="M63.103 8.095l.836.019-.093 3.991 2.5.058-.018.758-3.335-.074z"/>
        <g transform="translate(62.976 8.085)">
            <mask id="ah" fill="#fff">
                <use xlink:href="#ag"/>
            </mask>
            <path fill="#5175B8" d="M-316.798 1475.272h1412.01v-5974.613h-1412.01z" mask="url(#ah)"/>
            <path fill="#657591" d="M-5.865 10.716H9.254V-5.869h-15.12z" mask="url(#ah)"/>
        </g>
        <path fill="#5175B8" d="M71.033 9.372l-2.672-.286-.133 1.228 2.37.254-.08.742-2.369-.254-.136 1.268 2.707.29-.08.742-3.537-.38.508-4.72 3.501.376z"/>
        <g transform="translate(67.008 8.085)">
            <mask id="aj" fill="#fff">
                <use xlink:href="#ai"/>
            </mask>
            <path fill="#5175B8" d="M-320.83 1475.272h1412.01v-5974.613H-320.83z" mask="url(#aj)"/>
            <path fill="#657591" d="M-5.789 11.15H9.988V-5.71H-5.79z" mask="url(#aj)"/>
        </g>
        <path fill="#5175B8" d="M76.174 10.386l-.947-.225-.395 1.665.946.224c.615.148 1.078-.1 1.197-.594.13-.549-.194-.926-.801-1.07m-.597 2.393l-.92-.217-.353 1.486-.813-.194 1.1-4.626 1.825.433c1.078.256 1.615 1.026 1.39 1.97-.248 1.046-1.211 1.389-2.229 1.148"/>
        <g transform="translate(73.344 9.193)">
            <mask id="al" fill="#fff">
                <use xlink:href="#ak"/>
            </mask>
            <path fill="#5175B8" d="M-327.166 1474.164h1412.01v-5974.613h-1412.01z" mask="url(#al)"/>
        </g>
        <g transform="translate(73.344 9.193)">
            <mask id="an" fill="#fff">
                <use xlink:href="#am"/>
            </mask>
            <path fill="#657591" d="M-5.736 10.734h16.132v-16.58H-5.736z" mask="url(#an)"/>
        </g>
        <path fill="#5175B8" d="M81.283 11.792c-.893-.307-1.762.192-2.065 1.072-.302.88.085 1.822.978 2.13.893.305 1.762-.192 2.063-1.072.303-.88-.085-1.824-.976-2.13m-1.35 3.922c-1.381-.474-1.984-1.851-1.547-3.122.438-1.27 1.778-1.995 3.16-1.521 1.38.474 1.984 1.85 1.546 3.122-.436 1.272-1.778 1.995-3.158 1.521"/>
        <g transform="translate(78.218 10.92)">
            <mask id="ap" fill="#fff">
                <use xlink:href="#ao"/>
            </mask>
            <path fill="#5175B8" d="M-332.04 1472.437h1412.01v-5974.613H-332.04z" mask="url(#ap)"/>
        </g>
        <g transform="translate(78.218 10.92)">
            <mask id="ar" fill="#fff">
                <use xlink:href="#aq"/>
            </mask>
            <path fill="#657591" d="M-5.856 10.82h16.754V-5.875H-5.856z" mask="url(#ar)"/>
        </g>
        <path fill="#5175B8" d="M85.129 12.498l.761.346-1.657 3.638 2.279 1.036-.316.691-3.04-1.38z"/>
        <g transform="translate(83.136 12.38)">
            <mask id="at" fill="#fff">
                <use xlink:href="#as"/>
            </mask>
            <path fill="#5175B8" d="M-336.958 1470.977h1412.01v-5974.613h-1412.01z" mask="url(#at)"/>
            <path fill="#657591" d="M-5.862 11.708H9.259v-17.47H-5.862z" mask="url(#at)"/>
        </g>
        <path fill="#5175B8" d="M88.08 19.241l-.74-.403.896-1.645-.28-3.429.864.472.162 2.482 2.188-1.204.84.457-3.024 1.607z"/>
        <g transform="translate(87.168 13.532)">
            <mask id="av" fill="#fff">
                <use xlink:href="#au"/>
            </mask>
            <path fill="#5175B8" d="M-340.99 1469.825h1412.01v-5974.613H-340.99z" mask="url(#av)"/>
            <path fill="#657591" d="M-5.711 11.588h16.437V-5.647H-5.711z" mask="url(#av)"/>
        </g>
        <path fill="#5175B8" d="M94.74 21.028c-.798 1.173-1.862 1.314-2.892.616-1.023-.694-1.275-1.727-.5-2.868l1.538-2.264.691.47-1.518 2.235c-.496.731-.386 1.38.232 1.8.613.416 1.242.299 1.734-.425l1.538-2.265.69.47-1.513 2.23z"/>
        <g transform="translate(90.89 16.41)">
            <mask id="ax" fill="#fff">
                <use xlink:href="#aw"/>
            </mask>
            <path fill="#5175B8" d="M-344.712 1466.947h1412.01v-5974.613h-1412.01z" mask="url(#ax)"/>
            <path fill="#657591" d="M-5.879 11.535h17.126V-5.778H-5.879z" mask="url(#ax)"/>
        </g>
        <path fill="#5175B8" d="M98.526 21.584l-.936-.776-1.02 1.228.942.78c.459.381.95.384 1.264.01.335-.403.225-.847-.25-1.242zm-1.783 3.71l.158-2.02-.804-.668-1.059 1.275-.643-.535 3.039-3.656 1.63 1.352c.842.698.99 1.573.396 2.288-.504.606-1.168.672-1.797.389l-.163 2.203-.757-.628z"/>
        <g transform="translate(94.346 19.597)">
            <mask id="az" fill="#fff">
                <use xlink:href="#ay"/>
            </mask>
            <path fill="#5175B8" d="M-348.168 1463.76h1412.01v-5974.613h-1412.01z" mask="url(#az)"/>
        </g>
        <g transform="translate(94.346 19.597)">
            <mask id="aB" fill="#fff">
                <use xlink:href="#aA"/>
            </mask>
            <path fill="#657591" d="M-5.834 12.205h17.191V-5.787H-5.834z" mask="url(#aB)"/>
        </g>
        <path fill="#5175B8" d="M103.393 26.113l-1.905-1.897-.873.875 1.69 1.683-.528.528-1.69-1.681-.9.904 1.93 1.921-.528.529-2.523-2.51 3.357-3.368 2.498 2.488z"/>
        <g transform="translate(97.802 23.05)">
            <mask id="aD" fill="#fff">
                <use xlink:href="#aC"/>
            </mask>
            <path fill="#5175B8" d="M-351.624 1460.306h1412.01v-5974.613h-1412.01z" mask="url(#aD)"/>
            <path fill="#657591" d="M-5.62 11.803h17.622V-5.833H-5.62z" mask="url(#aD)"/>
        </g>
        <path fill="#5175B8" d="M102.488 31.19l-.543-.643 3.045-2.565-.971-1.151.592-.5 2.486 2.948-.593.499-.972-1.153z"/>
        <g transform="translate(101.834 26.195)">
            <mask id="aF" fill="#fff">
                <use xlink:href="#aE"/>
            </mask>
            <path fill="#5175B8" d="M-355.656 1457.162h1412.01V-4517.45h-1412.01z" mask="url(#aF)"/>
            <path fill="#657591" d="M-5.772 10.874h16.918V-5.743H-5.772z" mask="url(#aF)"/>
        </g>
        <path fill="#5175B8" d="M106.065 32.503l-1.643 1.145-.476-.683 3.895-2.717.478.685-1.62 1.128 1.297 1.858 1.62-1.13.477.685-3.896 2.716-.477-.683 1.642-1.146z"/>
        <g transform="translate(103.872 30.224)">
            <mask id="aH" fill="#fff">
                <use xlink:href="#aG"/>
            </mask>
            <path fill="#5175B8" d="M-357.694 1453.133h1412.01V-4521.48h-1412.01z" mask="url(#aH)"/>
            <path fill="#657591" d="M-5.81 11.845h17.915v-17.7H-5.81z" mask="url(#aH)"/>
        </g>
        <path fill="#5175B8" d="M111.12 37.111l-2.059.214.798 1.43 1.261-1.644zm-2.097 4.02l-.431-.771.77-.98-1.096-1.963-1.24.132-.417-.748 5.2-.503.378.678-3.164 4.155z"/>
        <g transform="translate(106.442 36.29)">
            <mask id="aJ" fill="#fff">
                <use xlink:href="#aI"/>
            </mask>
            <path fill="#5175B8" d="M-360.264 1447.067h1412.01v-5974.612h-1412.01z" mask="url(#aJ)"/>
        </g>
        <g transform="translate(106.442 36.29)">
            <mask id="aL" fill="#fff">
                <use xlink:href="#aK"/>
            </mask>
            <path fill="#657591" d="M-5.716 10.72h17.344V-5.871H-5.716z" mask="url(#aL)"/>
        </g>
        <path fill="#5175B8" d="M114.994 42.957l.324.755-4.37 1.872-.275-.642 2.075-3.74-3.108 1.332-.324-.755 4.369-1.872.305.711-2.016 3.634z"/>
        <g transform="translate(109.056 39.743)">
            <mask id="aN" fill="#fff">
                <use xlink:href="#aM"/>
            </mask>
            <path fill="#5175B8" d="M-362.878 1443.614h1412.01V-4531h-1412.01z" mask="url(#aN)"/>
            <path fill="#657591" d="M-5.623 11.72h17.768V-5.716H-5.623z" mask="url(#aN)"/>
        </g>
        <path fill="#5175B8" d="M116.21 48.785l-.817-2.561-1.18.375.726 2.269-.713.227-.724-2.27-1.216.389.827 2.593-.712.227-1.08-3.388 4.528-1.446 1.072 3.357z"/>
        <g transform="translate(111.316 45.19)">
            <mask id="aP" fill="#fff">
                <use xlink:href="#aO"/>
            </mask>
            <path fill="#5175B8" d="M-365.138 1438.167h1412.01v-5974.613h-1412.01z" mask="url(#aP)"/>
            <path fill="#657591" d="M-5.88 10.724H11.49V-5.87H-5.88z" mask="url(#aP)"/>
        </g>
        <path fill="#5175B8" d="M117.664 55.58l-.493-2.66-1.277.236.437 2.36-.748.138-.437-2.358-1.906.353-.152-.822 4.68-.868.645 3.481z"/>
        <g transform="translate(113.088 51.831)">
            <mask id="aR" fill="#fff">
                <use xlink:href="#aQ"/>
            </mask>
            <path fill="#5175B8" d="M-366.91 1431.526H1045.1v-5974.613H-366.91z" mask="url(#aR)"/>
            <path fill="#657591" d="M-5.883 9.702h17.091V-5.751H-5.883z" mask="url(#aR)"/>
        </g>
        <path fill="#5175B8" d="M118.099 58.985c-.08-.942-.889-1.534-1.816-1.455-.928.078-1.635.814-1.556 1.754.082.942.889 1.533 1.816 1.455.929-.078 1.636-.813 1.556-1.754m-4.138.351c-.123-1.454.895-2.564 2.235-2.677 1.341-.115 2.544.818 2.67 2.273.123 1.456-.894 2.565-2.235 2.68-1.341.113-2.545-.821-2.67-2.276"/>
        <g transform="translate(113.93 56.436)">
            <mask id="aT" fill="#fff">
                <use xlink:href="#aS"/>
            </mask>
            <path fill="#5175B8" d="M-367.752 1426.921h1412.01v-5974.613h-1412.01z" mask="url(#aT)"/>
        </g>
        <g transform="translate(113.93 56.436)">
            <mask id="aV" fill="#fff">
                <use xlink:href="#aU"/>
            </mask>
            <path fill="#657591" d="M-5.862 11.064H10.83v-16.73H-5.862z" mask="url(#aV)"/>
        </g>
        <path fill="#5175B8" d="M118.007 64.571l-1.89-.851-.029 1.637 1.919-.786zm-3.84 2.424l.016-.884 1.158-.46.04-2.25-1.14-.511.016-.856 4.756 2.18-.014.776-4.832 2.005z"/>
        <g transform="translate(113.93 61.883)">
            <mask id="aX" fill="#fff">
                <use xlink:href="#aW"/>
            </mask>
            <path fill="#5175B8" d="M-367.752 1421.475h1412.01v-5974.613h-1412.01z" mask="url(#aX)"/>
            <path fill="#657591" d="M-5.646 10.992h16.613v-16.72H-5.646z" mask="url(#aX)"/>
        </g>
        <path fill="#5175B8" d="M114.973 70.145l.002-.026 2.398-1.195-3.37-.428.104-.814 4.717.597-.113.882-2.412 1.152 2.048 1.716-.11.883-4.717-.597.105-.829 3.382.43z"/>
        <g transform="translate(113.354 67.639)">
            <mask id="aZ" fill="#fff">
                <use xlink:href="#aY"/>
            </mask>
            <path fill="#5175B8" d="M-367.176 1415.719h1412.01v-5974.613h-1412.01z" mask="url(#aZ)"/>
            <path fill="#657591" d="M-5.717 11.153h17.07v-16.99h-17.07z" mask="url(#aZ)"/>
        </g>
        <path fill="#5175B8" d="M25.968 66.616c-2.394 0-4.178-1.866-4.178-4.234 0-2.347 1.75-4.258 4.237-4.258 1.515 0 2.43.529 3.216 1.28l-.927 1.066c-.657-.61-1.362-1.02-2.301-1.02-1.573 0-2.71 1.29-2.71 2.909 0 1.618 1.137 2.932 2.71 2.932 1.01 0 1.655-.412 2.359-1.069l.927.94c-.856.89-1.796 1.454-3.333 1.454"/>
        <g transform="translate(21.77 58.12)">
            <mask id="bb" fill="#fff">
                <use xlink:href="#ba"/>
            </mask>
            <path fill="#5175B8" d="M-275.592 1425.238h1412.01v-5974.613h-1412.01z" mask="url(#bb)"/>
            <path fill="#657591" d="M-5.864 14.376h19.278v-20.25H-5.864z" mask="url(#bb)"/>
        </g>
        <path fill="#5175B8" d="M34.78 62.944c-.095-.914-.634-1.63-1.573-1.63-.87 0-1.48.67-1.608 1.63h3.18zm-1.385 2.51c.692 0 1.185-.257 1.678-.738l.833.739c-.587.704-1.397 1.162-2.535 1.162-1.795 0-3.18-1.303-3.18-3.226 0-1.784 1.256-3.238 3.027-3.238 1.972 0 2.97 1.548 2.97 3.342 0 .13-.012.248-.024.388H31.61c.165 1.01.869 1.572 1.785 1.572z"/>
        <g transform="translate(30.144 59.89)">
            <mask id="bd" fill="#fff">
                <use xlink:href="#bc"/>
            </mask>
            <path fill="#5175B8" d="M-283.966 1423.468h1412.01v-5974.613h-1412.01z" mask="url(#bd)"/>
            <path fill="#657591" d="M-5.837 12.606h17.764V-5.616H-5.837z" mask="url(#bd)"/>
        </g>
        <path fill="#5175B8" d="M39.037 66.475h-1.42v-6.193h1.42v1.396c.388-.926 1.103-1.56 2.194-1.513v1.501h-.08c-1.245 0-2.114.81-2.114 2.452v2.357z"/>
        <g transform="translate(37.589 60.156)">
            <mask id="bf" fill="#fff">
                <use xlink:href="#be"/>
            </mask>
            <path fill="#5175B8" d="M-291.41 1423.201H1120.6V-4551.41H-291.41z" mask="url(#bf)"/>
        </g>
        <g transform="translate(37.589 60.156)">
            <mask id="bh" fill="#fff">
                <use xlink:href="#bg"/>
            </mask>
            <path fill="#657591" d="M-5.855 12.2H9.526V-5.874h-15.38z" mask="url(#bh)"/>
        </g>
        <path fill="#5175B8" d="M44.176 64.54c0 .55.282.773.763.773.318 0 .599-.07.88-.21v1.161c-.352.199-.75.316-1.279.316-1.045 0-1.784-.457-1.784-1.817v-3.261h-.787v-1.22h.787v-1.701h1.42v1.701h1.666v1.22h-1.666v3.038z"/>
        <g transform="translate(41.93 58.429)">
            <mask id="bj" fill="#fff">
                <use xlink:href="#bi"/>
            </mask>
            <path fill="#5175B8" d="M-295.752 1424.928h1412.01v-5974.613h-1412.01z" mask="url(#bj)"/>
            <path fill="#657591" d="M-5.845 14.03h15.64V-5.727h-15.64z" mask="url(#bj)"/>
        </g>
        <path fill="#5175B8" d="M47.356 66.475h1.42v-6.193h-1.42v6.193zm-.06-7.143h1.525v-1.348h-1.525v1.348z"/>
        <g transform="translate(47.114 57.853)">
            <mask id="bl" fill="#fff">
                <use xlink:href="#bk"/>
            </mask>
            <path fill="#5175B8" d="M-300.936 1425.504h1412.01V-4549.11h-1412.01z" mask="url(#bl)"/>
            <path fill="#657591" d="M-5.702 14.5H7.59V-5.75H-5.702z" mask="url(#bl)"/>
        </g>
        <path fill="#5175B8" d="M53.915 59.579h-1.679v2.955h1.679c1.092 0 1.772-.599 1.772-1.478 0-.973-.692-1.477-1.772-1.477m-.047 4.256h-1.632v2.64h-1.444v-8.21h3.24c1.913 0 3.122 1.079 3.122 2.756 0 1.853-1.479 2.814-3.286 2.814"/>
        <g transform="translate(50.57 58.163)">
            <mask id="bn" fill="#fff">
                <use xlink:href="#bm"/>
            </mask>
            <path fill="#5175B8" d="M-304.392 1425.195h1412.01v-5974.613h-1412.01z" mask="url(#bn)"/>
            <path fill="#657591" d="M-5.661 14.19h18.128V-5.776H-5.66z" mask="url(#bn)"/>
        </g>
        <path fill="#5175B8" d="M65.53 62.92c0 2.452-1.384 3.683-3.532 3.683-2.136 0-3.498-1.231-3.498-3.611v-4.726h1.444v4.667c0 1.524.786 2.345 2.077 2.345 1.28 0 2.066-.773 2.066-2.286v-4.726h1.444v4.655z"/>
        <g transform="translate(58.368 58.163)">
            <mask id="bp" fill="#fff">
                <use xlink:href="#bo"/>
            </mask>
            <path fill="#5175B8" d="M-312.19 1425.195h1412.01v-5974.613H-312.19z" mask="url(#bp)"/>
            <path fill="#657591" d="M-5.751 14.32h18.797V-5.777H-5.751z" mask="url(#bp)"/>
        </g>
        <path fill="#5175B8" d="M71.056 59.579h-2.101v2.755h2.113c1.032 0 1.689-.538 1.689-1.383 0-.904-.634-1.372-1.701-1.372zm1.725 6.895l-2.018-2.86h-1.808v2.86H67.51v-8.208h3.663c1.889 0 3.05.996 3.05 2.603 0 1.36-.81 2.18-1.959 2.498l2.218 3.107H72.78z"/>
        <g transform="translate(67.274 58.163)">
            <mask id="br" fill="#fff">
                <use xlink:href="#bq"/>
            </mask>
            <path fill="#5175B8" d="M-321.096 1425.195h1412.01v-5974.613h-1412.01z" mask="url(#br)"/>
            <path fill="#657591" d="M-5.646 14.19h18.738V-5.776H-5.646z" mask="url(#br)"/>
        </g>
        <path fill="#5175B8" d="M75.595 63.577h3.474v-1.395h-3.474z"/>
        <g transform="translate(75.338 62.149)">
            <mask id="bt" fill="#fff">
                <use xlink:href="#bs"/>
            </mask>
            <path fill="#5175B8" d="M-329.16 1421.208h1412.01v-5974.612H-329.16z" mask="url(#bt)"/>
            <path fill="#657591" d="M-5.626 7.308H9.615V-5.846H-5.626z" mask="url(#bt)"/>
        </g>
        <path fill="#5175B8" d="M87.681 62.92c0 2.452-1.384 3.683-3.532 3.683-2.137 0-3.498-1.231-3.498-3.611v-4.726h1.444v4.667c0 1.524.786 2.345 2.077 2.345 1.28 0 2.067-.773 2.067-2.286v-4.726h1.442v4.655z"/>
        <g transform="translate(80.522 58.163)">
            <mask id="bv" fill="#fff">
                <use xlink:href="#bu"/>
            </mask>
            <path fill="#5175B8" d="M-334.344 1425.195h1412.01v-5974.613h-1412.01z" mask="url(#bv)"/>
            <path fill="#657591" d="M-5.754 14.32h18.797V-5.777H-5.754z" mask="url(#bv)"/>
        </g>
        <path fill="#5175B8" d="M92.83 61.713c1.738.422 2.641 1.043 2.641 2.416 0 1.549-1.21 2.463-2.934 2.463a5.067 5.067 0 0 1-3.428-1.313l.87-1.033c.785.681 1.572 1.068 2.593 1.068.892 0 1.455-.41 1.455-1.044 0-.598-.328-.914-1.855-1.266-1.747-.423-2.734-.939-2.734-2.464 0-1.43 1.174-2.392 2.806-2.392 1.197 0 2.147.363 2.98 1.032l-.774 1.09c-.74-.551-1.479-.844-2.23-.844-.844 0-1.339.434-1.339.985 0 .645.376.928 1.95 1.302"/>
        <g transform="translate(88.896 58.12)">
            <mask id="bx" fill="#fff">
                <use xlink:href="#bw"/>
            </mask>
            <path fill="#5175B8" d="M-342.718 1425.238h1412.01v-5974.613h-1412.01z" mask="url(#bx)"/>
            <path fill="#657591" d="M-5.67 14.352h18.128V-5.85H-5.67z" mask="url(#bx)"/>
        </g>
        <g fill="#657591">
            <path d="M79.467 86.404c-10.103 0-19.112-6.767-21.913-16.456a.735.735 0 0 1 1.413-.41c2.619 9.065 11.049 15.396 20.5 15.396 11.765 0 21.335-9.564 21.335-21.321 0-11.758-9.57-21.321-21.335-21.321-.12-.01-6.52-.436-16.61 3.415a.74.74 0 0 1-.95-.425.735.735 0 0 1 .425-.948c10.438-3.984 16.914-3.536 17.192-3.51h.004c12.517 0 22.745 10.222 22.745 22.789 0 12.567-10.23 22.79-22.806 22.79"/>
            <path d="M77.275 93.146c-12.641 0-23.654-8.97-26.184-21.328a.733.733 0 0 1 .572-.866.724.724 0 0 1 .868.572C54.922 83.2 65.329 91.676 77.275 91.676c13.929 0 25.258-11.321 25.258-25.24 0-13.775-10.662-24.164-24.802-24.164a.737.737 0 0 1-.735-.735c0-.405.33-.735.735-.735 14.979 0 26.273 11.02 26.273 25.634 0 14.729-11.99 26.71-26.729 26.71"/>
            <path d="M78.872 99.891a.737.737 0 0 1-.736-.735c0-.405.331-.735.736-.735 4.338 0 8.48-1.059 12.307-3.145 8.974-4.891 14.547-14.545 14.547-25.194 0-15.074-12.82-27.81-27.995-27.81a.736.736 0 0 1 0-1.47c15.972 0 29.466 13.408 29.466 29.28 0 11.186-5.869 21.335-15.313 26.484a27.252 27.252 0 0 1-13.012 3.325"/>
        </g>
    </g>
</svg>
