<svg xmlns="http://www.w3.org/2000/svg" width="175" height="115" viewBox="0 0 175 115">
    <g fill="none" fill-rule="evenodd" transform="translate(1 1)">
        <circle cx="116.324" cy="56.324" r="56.324" stroke="#5D6E8A" stroke-width="2"/>
        <path fill="#F7F9FF" fill-opacity=".192" d="M86.35 50.176c0 23.845-19.33 43.175-43.176 43.175C19.33 93.351 0 74.021 0 50.176 0 26.33 19.33 7 43.174 7 67.02 7 86.35 26.33 86.35 50.176" opacity=".868"/>
        <g stroke="#5D6E8A" stroke-width="2">
            <path fill="#FEFEFE" d="M53.499 48.584c0-1.585.788-3.913 1.754-5.17l.053-.07c.965-1.258 1.754-3.586 1.754-5.171v-8.391a2.891 2.891 0 0 0-2.882-2.883H33.845a2.892 2.892 0 0 0-2.884 2.883v8.39c0 1.586.79 3.913 1.756 5.171l.053.07c.964 1.258 1.755 3.586 1.755 5.17v7.922a2.892 2.892 0 0 0 2.882 2.884h13.209a2.892 2.892 0 0 0 2.883-2.884v-7.921z"/>
            <path fill="#FFF" d="M40.225 70.075a3.787 3.787 0 1 1 7.575 0 3.787 3.787 0 0 1-7.575 0m.517-16.134v-3.234a3.277 3.277 0 1 1 6.554 0v3.234a3.277 3.277 0 0 1-6.554 0m9.835 16.836V49.925a6.56 6.56 0 1 0-13.117 0v20.852a6.56 6.56 0 0 0 13.117 0"/>
            <path fill="#FEFEFE" d="M44.01 51.846a2.332 2.332 0 0 1-2.33-2.332V35.425a2.332 2.332 0 0 1 4.662 0v14.09a2.332 2.332 0 0 1-2.331 2.33"/>
        </g>
        <path stroke="#5D6E8A" stroke-width="2" d="M87.506 50.09c0 23.978-19.438 43.416-43.417 43.416C20.112 93.506.674 74.068.674 50.09c0-23.978 19.438-43.416 43.415-43.416 23.979 0 43.417 19.438 43.417 43.416"/>
    </g>
</svg>
