<svg xmlns="http://www.w3.org/2000/svg" xmlns:xlink="http://www.w3.org/1999/xlink" width="243" height="252" viewBox="0 0 243 252">
    <defs>
        <path id="a" d="M14.992 19.213H.592V.015h14.4z"/>
    </defs>
    <g fill="none" fill-rule="evenodd">
        <path fill="#5D6E8A" d="M121.85 29.22c-51.04-.004-92.572 41.62-92.576 92.786 0 51.167 41.524 92.802 92.564 92.805 51.04 0 92.573-41.623 92.577-92.793.003-51.167-41.525-92.798-92.565-92.798m-.012 190.159c-53.56-.004-97.131-43.686-97.128-97.373.004-53.687 43.58-97.357 97.14-97.353 53.56 0 97.132 43.682 97.128 97.365-.004 53.686-43.579 97.36-97.14 97.36"/>
        <path fill="#5D6E8A" d="M168.858 173.638a1.886 1.886 0 0 1-1.383-.596 1.907 1.907 0 0 1 .07-2.696c13.406-12.739 20.792-29.9 20.792-48.329a66.263 66.263 0 0 0-4.984-25.276 1.915 1.915 0 0 1 1.047-2.493 1.92 1.92 0 0 1 2.49 1.046 70.166 70.166 0 0 1 5.265 26.723c0 19.483-7.809 37.63-21.98 51.094-.37.355-.844.527-1.317.527M79.442 91.02l1.31 3.842 12.64-4.308-.005 60.946h4.774l.004-66.002h-3.743l-14.98 5.522zm59.594-1.68c7.866 0 14.793 5.525 14.793 14.041 0 6.93-3.742 12.544-14.51 22.377l-24.44 22.091v3.651l44.75.004v-4.682h-37.07l20.036-18.165c11.517-10.482 16.386-16.474 16.386-25.555 0-10.299-8.336-18.066-19.475-18.066-11.518 0-17.6 5.331-23.31 14.034l3.651 2.44c5.426-7.867 10.856-12.17 19.189-12.17zM74.82 173.63c-.474 0-.948-.171-1.314-.527-14.171-13.472-21.977-31.614-21.977-51.093a70.276 70.276 0 0 1 5.27-26.727 1.917 1.917 0 0 1 2.49-1.043 1.912 1.912 0 0 1 1.046 2.49 66.372 66.372 0 0 0-4.987 25.28c0 18.42 7.382 35.586 20.789 48.329.764.725.794 1.936.069 2.696a1.907 1.907 0 0 1-1.387.595M87.879 166.849l1.703.935.966 11.14 9.917-5.16 1.707.936-8.202 14.935-1.692-.924 6.652-12.098-9.837 5.01-.084-.05-1.054-10.963-6.637 12.071-1.638-.897zM104.908 175.316l12.064 2.52-.36 1.715-10.18-2.123-1.188 5.697 9.108 1.898-.359 1.722-9.108-1.901-1.222 5.838 10.303 2.15-.359 1.719-12.181-2.544zM118.766 192.455l1.119-1.474c1.86 1.516 3.605 2.23 5.96 2.112 2.288-.114 3.74-1.409 3.651-3.09l-.003-.045c-.08-1.581-.978-2.44-4.594-3.01-3.956-.652-5.82-1.828-5.965-4.624l-.004-.05c-.137-2.676 2.127-4.769 5.362-4.933 2.482-.126 4.288.489 6.087 1.791l-1.043 1.539c-1.646-1.207-3.253-1.688-5.006-1.6-2.215.114-3.563 1.401-3.487 2.936l.004.046c.08 1.608 1.004 2.463 4.789 3.074 3.841.634 5.663 1.933 5.793 4.537l.003.046c.15 2.921-2.184 4.941-5.571 5.113-2.696.141-4.957-.65-7.095-2.368M132.819 176.855l11.735-3.7.527 1.672-9.902 3.12 1.749 5.544 8.86-2.795.526 1.669-8.863 2.795 1.791 5.686 10.024-3.162.523 1.673-11.85 3.735zM153.278 185.025l.263-1.83c2.36.425 4.227.203 6.232-1.045 1.944-1.211 2.582-3.044 1.688-4.464l-.02-.042c-.843-1.345-2.038-1.658-5.471-.405-3.777 1.348-5.973 1.23-7.458-1.146l-.023-.046c-1.417-2.268-.454-5.19 2.291-6.9 2.104-1.317 3.983-1.657 6.186-1.39l-.168 1.848c-2.024-.256-3.662.107-5.143 1.031-1.883 1.173-2.433 2.952-1.627 4.254l.03.042c.844 1.36 2.066 1.661 5.671.36 3.658-1.307 5.88-1.055 7.256 1.152l.026.046c1.547 2.479.485 5.373-2.382 7.164-2.296 1.428-4.652 1.837-7.351 1.371M61.081 87.824l-.042-.03c-3.773-2.754-5.094-7.959-2.085-12.09 1.692-2.318 3.406-3.265 5.568-3.8l.458 1.864c-1.703.39-3.215 1.092-4.628 3.043-2.223 3.047-1.238 7.107 1.825 9.344l.042.023c3.28 2.395 7.252 2.066 9.688-1.275 1.146-1.573 1.6-3.471 1.516-4.972l-3.422-2.494-3.05 4.186-1.39-1.016 4.143-5.682 5.48 3.998a10.283 10.283 0 0 1-1.921 7.057c-3.155 4.326-8.249 4.708-12.182 1.844M84.487 66.312l-8.317-4.605 2.123 9.283 6.194-4.678zm-10.364-5.861l1.44-1.085 16.523 9.02-1.65 1.245-4.307-2.39-7.4 5.578 1.096 4.812-1.566 1.188-4.136-18.368zM97.95 57.22c2.386-.908 3.631-2.783 2.848-4.837l-.015-.042c-.74-1.96-2.696-2.57-5.27-1.593l-4.918 1.868 2.459 6.46 4.896-1.855zm-9.78-5.586l6.85-2.604c1.963-.741 3.758-.749 5.137-.126 1.065.481 1.947 1.424 2.425 2.677l.015.046c1 2.642-.233 4.88-2.566 6.285l7.374 4.651-2.211.84-6.973-4.437-4.556 1.73 2.356 6.19-1.798.687-6.053-15.939zM120.393 55.015l-4.532-8.355-3.204 8.958 7.736-.603zm-5.582-10.517l1.794-.141 9.066 16.489-2.058.16-2.341-4.326-9.234.722-1.669 4.64-1.959.152 6.4-17.696zM131.704 44.601l1.757.394 7.534 15.649 2.948-13.335 1.833.405-3.681 16.641-1.497-.332-7.721-16.02-3.02 13.645-1.834-.409zM156.824 54.565l-5.052-2.696.836-1.565 11.819 6.308-.84 1.566-5.048-2.696-7.195 13.476-1.714-.92zM174.196 58.33l.97 1.879-3.6.05-1.227-.963 3.857-.966zm-4.941 2.032l1.516 1.191-10.543 13.404-1.516-1.192 10.543-13.403zM175.527 81.802l4.132-8.558-9.142 2.635 5.01 5.923zm5.274-10.67l1.165 1.371-8.08 16.997-1.333-1.577 2.142-4.433-5.98-7.069-4.735 1.363-1.272-1.504 18.093-5.148z"/>
        <path fill="#5D6E8A" d="M137.704 242.171l-.252-1.894c58.957-7.779 103.421-58.62 103.425-118.257.004-65.795-53.393-119.326-119.024-119.33C56.218 2.688 2.817 56.21 2.813 122.006c-.003 59.636 44.45 110.482 103.41 118.268l-.256 1.898C46.067 234.255.9 182.596.904 122.005.908 55.155 55.164.777 121.853.781c66.69.004 120.937 54.39 120.933 121.24-.003 60.59-45.178 112.245-105.082 120.15"/>
        <g transform="translate(111.645 232.677)">
            <mask id="b" fill="#fff">
                <use xlink:href="#a"/>
            </mask>
            <path fill="#5D6E8A" d="M10.192 9.615c0-3.544 1.943-6.602 4.8-8.267-1.417-.825-3.044-1.333-4.8-1.333-5.3 0-9.6 4.296-9.6 9.6 0 5.3 4.3 9.596 9.6 9.6 1.756 0 3.383-.508 4.8-1.332-2.857-1.665-4.8-4.724-4.8-8.268" mask="url(#b)"/>
        </g>
    </g>
</svg>
