<svg xmlns="http://www.w3.org/2000/svg" width="85" height="85" viewBox="0 0 85 85">
    <g fill="none" fill-rule="evenodd">
        <path fill="#FFF" fill-opacity=".28" d="M83.545 42.272c0 22.795-18.479 41.272-41.273 41.272C19.48 83.544 1 65.067 1 42.272 1 19.478 19.48 1 42.272 1c22.794 0 41.273 18.478 41.273 41.272"/>
        <path stroke="#5D6E8A" stroke-width="2" d="M83.545 42.272c0 22.795-18.479 41.272-41.273 41.272C19.48 83.544 1 65.067 1 42.272 1 19.478 19.48 1 42.272 1c22.794 0 41.273 18.478 41.273 41.272"/>
        <path fill="#94A8CA" d="M42.221 61.47c-3.734 0-7.47-.164-11.19-.457a165.013 165.013 0 0 1-9.235-.99c-1.794-.24-3.58-.53-5.36-.853-1.57-.286-3.039-.554-3.862-1.97-.36-.618-.169-1.153-.024-1.786l.827-3.64c.773-3.385 1.543-6.771 2.314-10.157l1.42-6.233.011-.05c.442-1.935 7.622-2.487 9.624-2.752 5.66-.75 11.417-.983 17.142-.983 4.946 0 9.948.143 14.831.835 2.436.346 5.463.82 7.572 1.937 1.394.74 1.481 3.494 1.78 4.766.5 2.144 1.004 4.286 1.505 6.432l2.57 10.97c.271 1.159-1.316 1.703-2.259 1.95-1.616.419-3.326.639-4.979.899-4.507.704-9.055 1.224-13.607 1.61-3.016.258-6.049.473-9.08.473"/>
        <path fill="#FFF" d="M42.22 56.478c-3.822 0-7.643-.185-11.449-.51a156.174 156.174 0 0 1-9.447-1.107 112.013 112.013 0 0 1-5.484-.955c-1.606-.32-3.109-.62-3.95-2.202-.37-.693-.174-1.29-.025-1.999l.848-4.068 2.366-11.36 1.452-6.969.011-.056c.451-2.163 7.798-2.782 9.847-3.078 5.79-.837 11.68-1.099 17.537-1.099 5.058 0 10.176.16 15.171.934 2.493.385 5.591.917 7.747 2.166 1.427.827 1.516 3.907 1.82 5.328l1.542 7.192 2.63 12.27c.277 1.293-1.348 1.903-2.31 2.177-1.656.472-3.405.718-5.096 1.007-4.61.787-9.264 1.368-13.92 1.801-3.086.288-6.189.528-9.29.528"/>
        <path stroke="#5D6E8A" stroke-linecap="round" stroke-linejoin="round" stroke-width="2" d="M42.22 56.478c-3.822 0-7.643-.185-11.449-.51a156.174 156.174 0 0 1-9.447-1.107 112.013 112.013 0 0 1-5.484-.955c-1.606-.32-3.109-.62-3.95-2.202-.37-.693-.174-1.29-.025-1.999l.848-4.068 2.366-11.36 1.452-6.969.011-.056c.451-2.163 7.798-2.782 9.847-3.078 5.79-.837 11.68-1.099 17.537-1.099 5.058 0 10.176.16 15.171.934 2.493.385 5.591.917 7.747 2.166 1.427.827 1.516 3.907 1.82 5.328l1.542 7.192 2.63 12.27c.277 1.293-1.348 1.903-2.31 2.177-1.656.472-3.405.718-5.096 1.007-4.61.787-9.264 1.368-13.92 1.801-3.086.288-6.189.528-9.29.528zM16.15 50.398s26.123 1.346 51.15-.113"/>
    </g>
</svg>
