<svg xmlns="http://www.w3.org/2000/svg" width="72" height="72" viewBox="0 0 72 72">
    <g fill="none" fill-rule="evenodd">
        <path fill="#FFF" d="M32.003 33.327c-2.603.049-9.59 2.152-13.001 2.745-.344.06-1.047.238-1.212.571-.798 1.64 1.223 5.645 2.672 5.43 1.451-.2 11.803-5.62 12.457-6.049.653-.415-.535-2.708-.916-2.697m1.486 3.791c-3.613 1.96-8.76 4.469-12.455 6.822-.512.322.404 1.665.986 1.866 1.224.415 5.065.214 6.454.13 1.414-.094 7.75-6.905 7.605-7.13-.521-.82-1.605-2.234-2.59-1.688m20.857-5.43c-2.53-.572-5.18-.94-7.783-1.023-2.247 1.629-4.589 4.385-6.798 6.548-.56.547.046.904.89.737 4.54-.939 12.658-2.15 13.573-2.21.914-.072.58.82 1.901.689.048-2.068.475-4.243-1.783-4.741m-10.827 6.916c-2.59-.036-7.581.393-7.939 3.304-.022.166.5 0 .666 0L46.729 38.7c0-.89-2.342-.071-3.21-.095m-25.528-4.136c4.434-.736 7.831-1.283 13.466-2.698.107-.024-.06-3.719-.25-3.732-4.564-.285-9.175-.344-13.667-.249-2.104.048-1.663 7.035.45 6.68m19.61-4.731c3.424-.285 8.618-.084 10.317-.428 1.688-.345-.666-3.209-2.032-3.22-4.172-.013-10.482.32-12.563-.072-.262-.047-1.08-2.364-1.414-1.236-1.271 4.35 2.175 5.241 5.692 4.956m-.236.677c-1.403-.048-2.579-.07-3.66 0-1.439 2.33 2.09 6.43 4.242 6.584.582-.368 1.734-1.235 2.46-2.519-1.712-1.021-2.71-1.902-3.042-4.065m4.634 2.532c1.487-.546 2.722-1.64 1.878-2.626-.856-.975-1.914 1.557-3.161.51-2.282-1.925-2.354.583-1.355 1.391 1.01.808 2.127.916 2.638.725"/>
        <path fill="#5175B9" d="M45.932 26.096c-.016-.002-.032-.006-.047-.006-2.393-.008-5.487.098-8.085.117 2.402.02 5.515-.085 8.132-.111"/>
        <path fill="#FFF" d="M55.555 35.74c-.133.008-.423.042-.83.095.355.214.415.692 1.404.594.004-.175.012-.35.019-.524-.132-.11-.298-.189-.593-.165"/>
        <path stroke="#FFF" stroke-width=".72" d="M70.848 36.09c0 19.196-15.561 34.758-34.757 34.758-19.197 0-34.758-15.562-34.758-34.757 0-19.196 15.561-34.757 34.758-34.757 19.196 0 34.757 15.561 34.757 34.757z"/>
        <path fill="#FFF" d="M13.089 27.848l-2.235-.64-.874 3.053 2.236.639-.102.354-4.77-1.365.101-.355 2.207.633.874-3.054-2.208-.63.102-.355 4.77 1.364zM13.702 26.284l-4.395-2.288 1.629-3.128.301.157-1.459 2.801 1.726.899 1.314-2.518.3.158-1.312 2.517 1.765.92 1.475-2.833.302.158zM17.389 20.573c-.89 1.1-2.422 1.208-3.528.312l-.01-.008c-1.091-.88-1.336-2.425-.436-3.536.555-.688 1.142-.896 1.825-.999l.045.373c-.596.074-1.148.264-1.616.84-.746.925-.558 2.233.41 3.017l.012.008c.972.788 2.307.691 3.05-.227.449-.555.542-1.11.473-1.812l.341-.04c.073.732-.014 1.39-.566 2.072M21.942 16.173l-1.464-1.804-2.463 2 1.465 1.803-.287.232-3.124-3.849.287-.231 1.445 1.782 2.463-2-1.444-1.781.284-.233 3.125 3.85zM26.119 11.062c-.541-1.1-1.786-1.609-2.885-1.068-1.1.541-1.45 1.82-.91 2.917l.007.014c.542 1.1 1.786 1.608 2.886 1.067 1.098-.54 1.45-1.817.907-2.918l-.005-.012zm-.769 3.234c-1.348.665-2.758.024-3.355-1.189l-.008-.013c-.595-1.213-.234-2.741 1.113-3.404 1.345-.663 2.758-.024 3.356 1.19.01.003.01.003.006.013.598 1.214.236 2.74-1.112 3.403zM30.647 12.261l-.778-4.894 3.479-.553.054.336-3.118.496.307 1.922 2.802-.446.054.336-2.804.445.312 1.966 3.154-.502.054.335zM39.023 11.816l-3.278-4.563-.208 4.397-.352-.017.233-4.949.348.016 3.21 4.469.205-4.306.353.017-.236 4.949zM46.64 14.02l1.538-4.019-2.853 1.964-.025-.011-.812-3.364-1.539 4.019-.33-.127 1.772-4.628.323.125.811 3.447L48.43 9.4l.323.125-1.771 4.629zM52.29 11.064l1.04-.446.243.414-1.036.196-.247-.164zM48.102 14.8l2.72-4.15 2.952 1.937-.186.284-2.645-1.733-1.066 1.63 2.376 1.558-.188.285-2.376-1.559-1.093 1.666 2.674 1.753-.187.284-2.981-1.955zM54.441 19.934l.345-2.865-2.853.398-.308-.302 3.18-.417.345-3.066.312.308-.322 2.741 2.729-.374.308.304-3.05.394-.375 3.187zM55.351 21.139l3.944-3.006.223.292-3.943 3.007zM57.478 24.543c-.693-1.233-.226-2.697 1.014-3.393l.012-.008c1.22-.686 2.745-.342 3.446.903.432.772.409 1.395.251 2.067l-.361-.097c.152-.58.18-1.164-.185-1.812-.582-1.037-1.866-1.344-2.952-.734l-.012.006c-1.091.614-1.496 1.887-.916 2.918.349.622.83.913 1.506 1.11l-.088.332c-.708-.203-1.286-.527-1.715-1.292M62.453 30.51c1.176-.346 1.888-1.488 1.542-2.664-.347-1.175-1.547-1.738-2.724-1.39l-.014.002c-1.174.348-1.887 1.488-1.54 2.666.347 1.175 1.547 1.737 2.724 1.389l.012-.003zm-3.06-1.305c-.426-1.442.445-2.726 1.743-3.108l.013-.005c1.3-.383 2.744.233 3.17 1.673.426 1.442-.445 2.724-1.744 3.108-.004.009-.004.009-.013.004-1.298.382-2.744-.232-3.169-1.672z"/>
        <path stroke="#FFF" stroke-width=".572" d="M63.426 36.09c0 15.098-12.238 27.336-27.335 27.336-15.097 0-27.335-12.238-27.335-27.335"/>
        <path fill="#FFF" d="M38.807 55.7a3.594 3.594 0 0 1-3.594-3.595c0-.598.16-1.153.418-1.65a3.592 3.592 0 0 0 .66 7.123 3.582 3.582 0 0 0 3.176-1.945c-.214.04-.434.066-.66.066"/>
    </g>
</svg>
