<svg xmlns="http://www.w3.org/2000/svg" width="258" height="97" viewBox="0 0 258 97">
    <path fill="#CCE0FF" fill-rule="evenodd" d="M257.888 96.846c-3.143-9.748-12.285-16.802-23.079-16.802a24.135 24.135 0 0 0-11.93 3.14 34.8 34.8 0 0 0 .649-6.668c0-19.141-15.517-34.657-34.658-34.657-2.465 0-4.871.263-7.192.752C172.788 17.774 149.053 0 121.159 0 91.41 0 66.39 20.219 59.068 47.661c-14.495 6.27-24.993 20.026-26.61 36.398a30.616 30.616 0 0 0-7.024-.82c-10.608 0-19.95 5.404-25.434 13.607h257.888z"/>
</svg>
