<svg xmlns="http://www.w3.org/2000/svg" width="389" height="124" viewBox="0 0 389 124">
    <path fill="#87A1CA" fill-rule="evenodd" d="M388.87 123.734c-2.615-7.119-9.454-12.197-17.479-12.197-.668 0-1.326.038-1.976.107.09-.723.141-1.458.141-2.205 0-9.846-7.981-17.827-17.827-17.827-2.499 0-4.876.516-7.035 1.444-3.203-12.882-14.728-22.473-28.538-22.737-8.736-16.157-25.466-27.357-44.89-28.3C259.37 17.242 234.044.133 204.72.133c-26.271 0-49.332 13.734-62.403 34.412a54.49 54.49 0 0 0-11.374-1.197c-22.258 0-41.385 13.397-49.766 32.566a40.873 40.873 0 0 0-11.349-1.599c-19.572 0-35.927 13.763-39.923 32.138a25.16 25.16 0 0 0-4.876-.476C11.206 95.976 0 107.18 0 121.004c0 .923.052 1.833.149 2.73h388.72z"/>
</svg>
