<svg xmlns="http://www.w3.org/2000/svg" width="448" height="280" viewBox="0 0 448 280">
    <g fill="none" fill-rule="evenodd">
        <path fill="#5D6E8A" d="M173.899 280.014c-2.376 0-4.302-1.206-4.302-3.258 0-1.602 1.368-2.7 2.862-3.15-1.386-.396-2.664-1.314-2.664-2.88 0-2.16 2.106-3.114 4.104-3.114 1.98 0 4.122.954 4.122 3.114 0 1.566-1.296 2.484-2.682 2.88 1.494.45 2.862 1.548 2.862 3.15 0 2.034-1.944 3.258-4.302 3.258zm0-7.02c.738-.126 2.61-.612 2.61-2.07 0-1.242-1.17-1.98-2.61-1.98-1.458 0-2.592.738-2.592 1.98 0 1.458 1.872 1.944 2.592 2.07zm0 5.688c1.476 0 2.79-.792 2.79-2.088 0-1.566-2.052-2.232-2.79-2.322-.738.09-2.79.756-2.79 2.322 0 1.296 1.296 2.088 2.79 2.088zm10.476 1.332c-2.376 0-4.302-1.206-4.302-3.258 0-1.602 1.368-2.7 2.862-3.15-1.386-.396-2.664-1.314-2.664-2.88 0-2.16 2.106-3.114 4.104-3.114 1.98 0 4.122.954 4.122 3.114 0 1.566-1.296 2.484-2.682 2.88 1.494.45 2.862 1.548 2.862 3.15 0 2.034-1.944 3.258-4.302 3.258zm0-7.02c.738-.126 2.61-.612 2.61-2.07 0-1.242-1.17-1.98-2.61-1.98-1.458 0-2.592.738-2.592 1.98 0 1.458 1.872 1.944 2.592 2.07zm0 5.688c1.476 0 2.79-.792 2.79-2.088 0-1.566-2.052-2.232-2.79-2.322-.738.09-2.79.756-2.79 2.322 0 1.296 1.296 2.088 2.79 2.088zm15.084 1.332c1.584 0 2.52-.648 3.186-1.512l-.9-.828c-.576.774-1.314 1.134-2.214 1.134-1.836 0-3.006-1.44-3.006-3.366 0-1.926 1.17-3.348 3.006-3.348.9 0 1.638.324 2.214 1.116l.9-.81c-.666-.864-1.602-1.512-3.186-1.512-2.592 0-4.338 1.98-4.338 4.554 0 2.574 1.746 4.572 4.338 4.572zm16.938-.216v-6.282c0-1.746-.846-2.628-2.43-2.628-1.26 0-2.43.828-2.916 1.62-.252-.9-1.008-1.62-2.322-1.62-1.296 0-2.448.918-2.826 1.476v-1.26h-1.35v8.694h1.35v-6.354c.468-.702 1.404-1.35 2.286-1.35 1.152 0 1.602.702 1.602 1.8v5.904h1.35v-6.372c.45-.702 1.404-1.332 2.304-1.332 1.134 0 1.602.702 1.602 1.8v5.904h1.35zM408.11 150.732h-1.495v-3.042h-5.706v-1.242l5.148-7.722h2.052v7.65h1.692v1.314h-1.692v3.042zm-1.495-4.356v-6.264l-4.212 6.264h4.212zm9.324 4.572c-3.366 0-4.644-2.934-4.644-6.21 0-3.24 1.512-6.192 4.896-6.192 1.53 0 2.574.576 3.312 1.44l-.756 1.116c-.612-.72-1.314-1.224-2.556-1.224-2.34 0-3.384 2.358-3.384 4.716v.468c.522-.828 1.854-1.872 3.402-1.872 2.16 0 3.924 1.278 3.924 3.834 0 2.07-1.584 3.924-4.194 3.924zm-.072-1.332c1.854 0 2.754-1.404 2.754-2.538 0-1.764-1.224-2.592-2.754-2.592-1.206 0-2.358.738-3.006 1.782.126 1.494.918 3.348 3.006 3.348zm14.994 1.332c1.584 0 2.52-.648 3.186-1.512l-.9-.828c-.576.774-1.314 1.134-2.214 1.134-1.836 0-3.006-1.44-3.006-3.366 0-1.926 1.17-3.348 3.006-3.348.9 0 1.638.324 2.214 1.116l.9-.81c-.666-.864-1.602-1.512-3.186-1.512-2.592 0-4.338 1.98-4.338 4.554 0 2.574 1.746 4.572 4.338 4.572zm16.938-.216v-6.282c0-1.746-.846-2.628-2.43-2.628-1.26 0-2.43.828-2.916 1.62-.252-.9-1.008-1.62-2.322-1.62-1.296 0-2.448.918-2.826 1.476v-1.26h-1.35v8.694h1.35v-6.354c.468-.702 1.404-1.35 2.286-1.35 1.152 0 1.602.702 1.602 1.8v5.904h1.35v-6.372c.45-.702 1.404-1.332 2.304-1.332 1.134 0 1.602.702 1.602 1.8v5.904h1.35z"/>
        <path stroke="#9CBAEE" stroke-width="1.445" d="M233.5 273.9H390.01v-21.472M1.181 252.429v21.47H157.69"/>
        <path stroke="#9CBAEE" stroke-width="1.185" d="M399.521 241.004h21.5v-63.868M421.021 119.023V51.024h-21.5"/>
        <path fill="#D8E3FF" d="M143.475 248.908c-21.207 0-42.415-.875-60.871-2.623l-72.14-7.266c-3.3 0-5.976-1.62-5.976-3.617V68.649c0-3.353 2.675-6.071 5.976-6.071 45.073-7.622 90.339-15.19 136.094-16.664 33.646-1.082 67.48.017 101.157.017 44.937 0 88.866 9.182 133.01 16.647 3.3 0 5.976 2.718 5.976 6.07v166.754c0 1.997-2.675 3.617-5.976 3.617l-72.14 7.266c-18.456 1.748-39.663 2.623-60.87 2.623h-104.24z"/>
        <path fill="#FFF" d="M142.573 241.792c-21.574 0-43.148-.875-61.925-2.623L7.26 231.902c-3.357 0-6.08-1.619-6.08-3.616V61.533a6.075 6.075 0 0 1 6.08-6.072c45.853-7.622 91.902-15.19 138.449-16.663 34.229-1.082 68.649.017 102.908.017 45.715 0 90.404 9.181 135.312 16.646a6.075 6.075 0 0 1 6.08 6.072V228.286c0 1.997-2.722 3.616-6.08 3.616l-73.388 7.267c-18.776 1.748-40.35 2.623-61.924 2.623H142.573z"/>
        <path stroke="#5D6E8A" stroke-width="1.445" d="M142.573 241.792c-21.574 0-43.148-.875-61.925-2.623L7.26 231.902c-3.357 0-6.08-1.619-6.08-3.616V61.533a6.075 6.075 0 0 1 6.08-6.072c45.853-7.622 91.902-15.19 138.449-16.663 34.229-1.082 68.649.017 102.908.017 45.715 0 90.404 9.181 135.312 16.646a6.075 6.075 0 0 1 6.08 6.072V228.286c0 1.997-2.722 3.616-6.08 3.616l-73.388 7.267c-18.776 1.748-40.35 2.623-61.924 2.623H142.573z"/>
        <path stroke="#6080BB" stroke-width="1.445" d="M390.009 220.89c0 1.997-2.722 3.616-6.08 3.616-45.106 0-90.221.587-135.31.587-80.363 0-161.037-2.806-241.359-.587-3.357 0-6.08-1.62-6.08-3.617"/>
        <path fill="#D8E3FF" d="M383.93 224.506c-45.107 0-90.222.587-135.31.587-80.365 0-161.039-2.806-241.36-.587-3.357 0-6.079-1.62-6.079-3.617v3.378c0 1.997 2.722 3.617 6.079 3.617 80.321-2.219 160.995.587 241.36.587 45.088 0 90.203-.587 135.31-.587 3.357-.001 6.079-1.62 6.079-3.617v-3.378c0 1.998-2.722 3.617-6.08 3.617"/>
        <path stroke="#6080BB" stroke-width="1.204" d="M383.93 224.506c-45.107 0-90.222.587-135.31.587-80.365 0-161.039-2.806-241.36-.587-3.357 0-6.079-1.62-6.079-3.617v3.378c0 1.997 2.722 3.617 6.079 3.617 80.321-2.219 160.995.587 241.36.587 45.088 0 90.203-.587 135.31-.587 3.357-.001 6.079-1.62 6.079-3.617v-3.378c0 1.998-2.722 3.617-6.08 3.617z"/>
        <path fill="#6080BB" d="M48.53 230.438H29.41v-6.397l19.12-.272z"/>
        <path fill="#5D6E8A" d="M189.177 12.497l-5.256-6.354L188.799.49h-2.61l-4.698 5.706V.49h-2.106v12.006h2.106V8.663l1.062-1.242 4.014 5.076h2.61zm3.762 0V.49h-2.106v12.006h2.106zm13.23 0V.49h-2.106v8.316L197.925.49h-2.16v12.006h2.106V3.91l6.264 8.586h2.034zm8.604.234c2.07 0 3.762-.882 4.932-2.196V6.053h-5.688v1.854h3.6V9.76c-.54.522-1.62 1.08-2.844 1.08-2.376 0-4.14-1.836-4.14-4.338 0-2.538 1.764-4.338 4.14-4.338 1.332 0 2.466.702 3.114 1.602l1.71-.99c-.954-1.368-2.484-2.484-4.824-2.484-3.492 0-6.3 2.43-6.3 6.21 0 3.762 2.808 6.228 6.3 6.228z"/>
    </g>
</svg>
