<svg xmlns="http://www.w3.org/2000/svg" width="353" height="280" viewBox="0 0 353 280">
    <g fill="none" fill-rule="evenodd">
        <path stroke="#9CBAEE" stroke-width="1.168" d="M288.331 252.428V273.9v-21.472zm-.014 21.04H185.204h103.113z"/>
        <path stroke="#9CBAEE" stroke-width="1.445" d="M5.548 252.429v21.47h103.486"/>
        <path stroke="#9CBAEE" stroke-width="1.185" d="M304.228 241.004h21.5v-63.868M325.728 119.023V51.024h-21.5"/>
        <path fill="#D8E3FF" d="M281.365 72.506a5.95 5.95 0 0 0-5.955-5.945C207.358 55.249 143.434 44.464 74.45 55.908c-20.475 3.396-43.345 10.653-64.085 10.653a5.95 5.95 0 0 0-5.954 5.945v163.316c0 1.956 2.665 3.542 5.954 3.542 48.094 4.762 96.337 9.101 144.711 8.908 40.332-.161 80.258-4.94 120.335-8.908 3.288 0 5.954-1.586 5.954-3.542V72.506z"/>
        <path fill="#FFF" d="M284.28 61.533a6.075 6.075 0 0 0-6.08-6.072c-69.485-11.55-134.754-22.56-205.191-10.876-20.905 3.468-44.257 10.876-65.434 10.876a6.075 6.075 0 0 0-6.079 6.072v166.753c0 1.997 2.721 3.616 6.08 3.616 49.106 4.863 98.364 9.293 147.757 9.095 41.18-.163 81.948-5.043 122.867-9.095 3.358 0 6.08-1.619 6.08-3.616V61.533z"/>
        <path stroke="#5D6E8A" stroke-width="1.445" d="M284.28 61.533a6.075 6.075 0 0 0-6.08-6.072c-69.485-11.55-134.754-22.56-205.191-10.876-20.905 3.468-44.257 10.876-65.434 10.876a6.075 6.075 0 0 0-6.079 6.072v166.753c0 1.997 2.721 3.616 6.08 3.616 49.106 4.863 98.364 9.293 147.757 9.095 41.18-.163 81.948-5.043 122.867-9.095 3.358 0 6.08-1.619 6.08-3.616V61.533z"/>
        <path fill="#D8E3FF" d="M278.2 221.232c-40.92 4.052-81.687 4.28-122.867 4.444-10.948.044-21.895.09-32.843.08-22.769-.02-45.542-.276-68.291-1.275-11.37-.498-22.732-1.183-34.075-2.114-4.016-.33-8.07-.473-12.073-.877-2.269-.229-6.555-.81-6.555-3.874v3.274c0 3.063 4.286 3.645 6.555 3.874 4.002.403 8.057.547 12.073.877 11.343.931 22.705 1.615 34.075 2.113 22.749.999 45.522 1.255 68.29 1.274 10.949.01 21.896-.034 32.844-.078 41.18-.164 81.947-.392 122.868-4.445 3.357 0 6.08-1.618 6.08-3.615v-3.274c0 1.997-2.723 3.616-6.08 3.616"/>
        <path stroke="#5D6E8A" stroke-width="1.204" d="M278.2 221.232c-40.92 4.052-81.687 4.28-122.867 4.444-10.948.044-21.895.09-32.843.08-22.769-.02-45.542-.276-68.291-1.275-11.37-.498-22.732-1.183-34.075-2.114-4.016-.33-8.07-.473-12.073-.877-2.269-.229-6.555-.81-6.555-3.874v3.274c0 3.063 4.286 3.645 6.555 3.874 4.002.403 8.057.547 12.073.877 11.343.931 22.705 1.615 34.075 2.113 22.749.999 45.522 1.255 68.29 1.274 10.949.01 21.896-.034 32.844-.078 41.18-.164 81.947-.392 122.868-4.445 3.357 0 6.08-1.618 6.08-3.615v-3.274c0 1.997-2.723 3.616-6.08 3.616z"/>
        <path stroke="#5D6E8A" stroke-width="1.445" d="M1.496 217.616c0 3.064 4.286 3.645 6.555 3.874 4.003.404 8.057.547 12.072.877 11.343.931 22.706 1.616 34.076 2.114 22.749.999 45.522 1.254 68.291 1.274 10.948.01 21.896-.035 32.843-.079 41.18-.164 81.947-.392 122.868-4.444 3.357 0 6.078-1.619 6.078-3.616"/>
        <path fill="#6080BB" d="M45.704 231.413l-19.12-1.526v-7.137l19.12 1.323z"/>
        <path fill="#5D6E8A" d="M129.136 280.014c-3.366 0-4.644-2.934-4.644-6.21 0-3.24 1.512-6.192 4.896-6.192 1.53 0 2.574.576 3.312 1.44l-.756 1.116c-.612-.72-1.314-1.224-2.556-1.224-2.34 0-3.384 2.358-3.384 4.716v.468c.522-.828 1.854-1.872 3.402-1.872 2.16 0 3.924 1.278 3.924 3.834 0 2.07-1.584 3.924-4.194 3.924zm-.072-1.332c1.854 0 2.754-1.404 2.754-2.538 0-1.764-1.224-2.592-2.754-2.592-1.206 0-2.358.738-3.006 1.782.126 1.494.918 3.348 3.006 3.348zm12.924 1.116h-1.494v-3.042h-5.706v-1.242l5.148-7.722h2.052v7.65h1.692v1.314h-1.692v3.042zm-1.494-4.356v-6.264l-4.212 6.264h4.212zm13.608 4.572c1.584 0 2.52-.648 3.186-1.512l-.9-.828c-.576.774-1.314 1.134-2.214 1.134-1.836 0-3.006-1.44-3.006-3.366 0-1.926 1.17-3.348 3.006-3.348.9 0 1.638.324 2.214 1.116l.9-.81c-.666-.864-1.602-1.512-3.186-1.512-2.592 0-4.338 1.98-4.338 4.554 0 2.574 1.746 4.572 4.338 4.572zm16.938-.216v-6.282c0-1.746-.846-2.628-2.43-2.628-1.26 0-2.43.828-2.916 1.62-.252-.9-1.008-1.62-2.322-1.62-1.296 0-2.448.918-2.826 1.476v-1.26h-1.35v8.694h1.35v-6.354c.468-.702 1.404-1.35 2.286-1.35 1.152 0 1.602.702 1.602 1.8v5.904h1.35v-6.372c.45-.702 1.404-1.332 2.304-1.332 1.134 0 1.602.702 1.602 1.8v5.904h1.35zM312.821 150.734h-1.494v-3.042h-5.706v-1.242l5.148-7.722h2.052v7.65h1.692v1.314h-1.692v3.042zm-1.494-4.356v-6.264l-4.212 6.264h4.212zm9.324 4.572c-3.366 0-4.644-2.934-4.644-6.21 0-3.24 1.512-6.192 4.896-6.192 1.53 0 2.574.576 3.312 1.44l-.756 1.116c-.612-.72-1.314-1.224-2.556-1.224-2.34 0-3.384 2.358-3.384 4.716v.468c.522-.828 1.854-1.872 3.402-1.872 2.16 0 3.924 1.278 3.924 3.834 0 2.07-1.584 3.924-4.194 3.924zm-.072-1.332c1.854 0 2.754-1.404 2.754-2.538 0-1.764-1.224-2.592-2.754-2.592-1.206 0-2.358.738-3.006 1.782.126 1.494.918 3.348 3.006 3.348zm14.994 1.332c1.584 0 2.52-.648 3.186-1.512l-.9-.828c-.576.774-1.314 1.134-2.214 1.134-1.836 0-3.006-1.44-3.006-3.366 0-1.926 1.17-3.348 3.006-3.348.9 0 1.638.324 2.214 1.116l.9-.81c-.666-.864-1.602-1.512-3.186-1.512-2.592 0-4.338 1.98-4.338 4.554 0 2.574 1.746 4.572 4.338 4.572zm16.938-.216v-6.282c0-1.746-.846-2.628-2.43-2.628-1.26 0-2.43.828-2.916 1.62-.252-.9-1.008-1.62-2.322-1.62-1.296 0-2.448.918-2.826 1.476v-1.26h-1.35v8.694h1.35v-6.354c.468-.702 1.404-1.35 2.286-1.35 1.152 0 1.602.702 1.602 1.8v5.904h1.35v-6.372c.45-.702 1.404-1.332 2.304-1.332 1.134 0 1.602.702 1.602 1.8v5.904h1.35zM120.08 12.497h-2.448l-2.646-4.482h-2.106v4.482h-2.106V.49h5.274c2.376 0 3.942 1.53 3.942 3.762 0 2.124-1.404 3.294-2.862 3.528l2.952 4.716zm-4.302-6.336c1.188 0 2.052-.756 2.052-1.926 0-1.152-.864-1.89-2.052-1.89h-2.898V6.16h2.898zm14.814 6.336v-1.854h-6.12V7.295h5.994V5.44h-5.994V2.345h6.12V.49h-8.226v12.006h8.226zm8.208.234c2.07 0 3.762-.882 4.932-2.196V6.053h-5.688v1.854h3.6V9.76c-.54.522-1.62 1.08-2.844 1.08-2.376 0-4.14-1.836-4.14-4.338 0-2.538 1.764-4.338 4.14-4.338 1.332 0 2.466.702 3.114 1.602l1.71-.99C142.67 1.409 141.14.293 138.8.293c-3.492 0-6.3 2.43-6.3 6.21 0 3.762 2.808 6.228 6.3 6.228zm12.6-.018c3.492 0 5.202-1.998 5.202-4.968V.49h-2.142v7.2c0 1.908-1.062 3.15-3.06 3.15s-3.06-1.242-3.06-3.15V.49h-2.142v7.254c0 2.97 1.728 4.968 5.202 4.968zm15.282-.216v-1.854h-5.292V.49h-2.106v12.006h7.398zm12.942 0h-2.394l-.882-2.322h-5.508l-.882 2.322h-2.394L172.28.49h2.628l4.716 12.006zm-3.87-4.176l-2.16-5.724-2.16 5.724h4.32zm14.742 4.176h-2.448l-2.646-4.482h-2.106v4.482h-2.106V.49h5.274c2.376 0 3.942 1.53 3.942 3.762 0 2.124-1.404 3.294-2.862 3.528l2.952 4.716zm-4.302-6.336c1.188 0 2.052-.756 2.052-1.926 0-1.152-.864-1.89-2.052-1.89h-2.898V6.16h2.898z"/>
    </g>
</svg>
