<?xml version="1.0" encoding="utf-8"?>
<!-- Generator: Adobe Illustrator 21.0.2, SVG Export Plug-In . SVG Version: 6.00 Build 0)  -->
<svg version="1.1" id="Capa_1" xmlns="http://www.w3.org/2000/svg" xmlns:xlink="http://www.w3.org/1999/xlink" x="0px" y="0px"
	 viewBox="0 0 76 76" style="enable-background:new 0 0 76 76;" xml:space="preserve">
<style type="text/css">
	.st0{fill:#5B6D88;}
	.st1{fill:none;}
	.st2{fill:#ADC9E9;stroke:#5B6D88;stroke-width:2;stroke-linecap:round;stroke-linejoin:round;stroke-miterlimit:10;}
	.st3{fill:#FFFFFF;stroke:#5B6D88;stroke-width:2;stroke-linecap:round;stroke-linejoin:round;stroke-miterlimit:10;}
	.st4{fill:none;stroke:#5B6D88;stroke-width:2;stroke-linecap:round;stroke-linejoin:round;stroke-miterlimit:10;}
</style>
<rect x="-4.6" y="-9.3" class="st0" width="83.1" height="97.5"/>
<rect x="-774.2" y="-943.4" class="st1" width="1619.2" height="5953.5"/>
<path class="st2" d="M80,30.5"/>
<polygon class="st3" points="53.7,73 38,66.9 22.3,73 22.3,47.7 53.7,47.7 "/>
<path class="st2" d="M38,81.1"/>
<circle class="st2" cx="38" cy="31" r="29.3"/>
<g>
	<path class="st0" d="M20.7,28.1l0.5,1.5c0.1,0.2,0.2,0.3,0.5,0.3h1.6c0.5,0,0.6,0.6,0.3,0.9l-1.3,0.9C22,31.9,22,32.1,22,32.3
		l0.5,1.5c0.1,0.4-0.4,0.8-0.7,0.5l-1.3-0.9c-0.2-0.1-0.4-0.1-0.6,0l-1.3,0.9c-0.4,0.3-0.9-0.1-0.7-0.5l0.5-1.5
		c0.1-0.2,0-0.4-0.2-0.5l-1.3-0.9c-0.4-0.3-0.2-0.9,0.3-0.9h1.6c0.2,0,0.4-0.1,0.5-0.3l0.5-1.5C19.9,27.7,20.5,27.7,20.7,28.1z"/>
	<path class="st0" d="M29.5,28.1l0.5,1.5c0.1,0.2,0.2,0.3,0.5,0.3h1.6c0.5,0,0.6,0.6,0.3,0.9l-1.3,0.9c-0.2,0.1-0.2,0.3-0.2,0.5
		l0.5,1.5c0.1,0.4-0.4,0.8-0.7,0.5l-1.3-0.9c-0.2-0.1-0.4-0.1-0.6,0l-1.3,0.9c-0.4,0.3-0.9-0.1-0.7-0.5l0.5-1.5
		c0.1-0.2,0-0.4-0.2-0.5l-1.3-0.9c-0.4-0.3-0.2-0.9,0.3-0.9h1.6c0.2,0,0.4-0.1,0.5-0.3l0.5-1.5C28.8,27.7,29.4,27.7,29.5,28.1z"/>
	<path class="st0" d="M38.4,28.1l0.5,1.5c0.1,0.2,0.2,0.3,0.5,0.3H41c0.5,0,0.6,0.6,0.3,0.9l-1.3,0.9c-0.2,0.1-0.2,0.3-0.2,0.5
		l0.5,1.5c0.1,0.4-0.4,0.8-0.7,0.5l-1.3-0.9c-0.2-0.1-0.4-0.1-0.6,0l-1.3,0.9c-0.4,0.3-0.9-0.1-0.7-0.5l0.5-1.5
		c0.1-0.2,0-0.4-0.2-0.5l-1.3-0.9C34.3,30.5,34.5,30,35,30h1.6c0.2,0,0.4-0.1,0.5-0.3l0.5-1.5C37.6,27.7,38.3,27.7,38.4,28.1z"/>
	<path class="st0" d="M47.3,28.1l0.5,1.5c0.1,0.2,0.2,0.3,0.5,0.3h1.6c0.5,0,0.6,0.6,0.3,0.9l-1.3,0.9c-0.2,0.1-0.2,0.3-0.2,0.5
		l0.5,1.5c0.1,0.4-0.4,0.8-0.7,0.5l-1.3-0.9c-0.2-0.1-0.4-0.1-0.6,0l-1.3,0.9c-0.4,0.3-0.9-0.1-0.7-0.5l0.5-1.5
		c0.1-0.2,0-0.4-0.2-0.5l-1.3-0.9c-0.4-0.3-0.2-0.9,0.3-0.9h1.6c0.2,0,0.4-0.1,0.5-0.3l0.5-1.5C46.5,27.7,47.1,27.7,47.3,28.1z"/>
	<path class="st0" d="M56,33.4l0.5,0.3l1.1-3.8h-0.4c-0.2,0-0.4-0.1-0.5-0.3l-0.5-1.5c-0.1-0.4-0.8-0.4-0.9,0l-0.5,1.5
		c-0.1,0.2-0.2,0.3-0.5,0.3h-1.6c-0.5,0-0.6,0.6-0.3,0.9l1.3,0.9c0.2,0.1,0.2,0.3,0.2,0.5l-0.5,1.5c-0.1,0.4,0.4,0.8,0.7,0.5
		l1.3-0.9C55.6,33.3,55.8,33.3,56,33.4z"/>
</g>
<path class="st4" d="M56.7,25.2c-2.5-8-9.9-13.8-18.7-13.8s-16.2,5.8-18.7,13.8"/>
<path class="st3" d="M39.1,50.5c0-1.7,1-3.2,2.5-4c-0.9-0.9-2.2-1.4-3.6-1.4c-3,0-5.3,2.4-5.3,5.3c0,3,2.4,5.3,5.3,5.3
	c1.4,0,2.6-0.5,3.6-1.4C40.1,53.8,39.1,52.3,39.1,50.5z"/>
<path class="st4" d="M19.9,38.3c1.6,4,4.5,7.4,8.2,9.5"/>
<path class="st4" d="M46.1,48.7c4.5-2.1,8.1-5.8,10-10.5"/>
</svg>
