<?xml version="1.0" encoding="UTF-8"?>
<svg width="365px" height="252px" viewBox="0 0 365 252" version="1.1" xmlns="http://www.w3.org/2000/svg" xmlns:xlink="http://www.w3.org/1999/xlink">
    <!-- Generator: Sketch 46.2 (44496) - http://www.bohemiancoding.com/sketch -->
    <title>Group 5</title>
    <desc>Created with Sketch.</desc>
    <defs>
        <polygon id="path-1" points="1.41832461 0.00860451902 0 0.00860451902 0 2.51229325 0 5.01598197 1.41832461 5.01598197 1.41832461 0.00860451902"></polygon>
        <path d="M0.666396684,1.01535808 C0.826201435,0.818591685 1.03601312,0.743581291 1.26974115,0.743581291 C1.2925704,0.743581291 1.31431255,0.744668399 1.33605469,0.745755506 C1.55238901,0.758800792 1.74154566,0.841420935 1.88395669,1.01535808 C1.97744791,1.1251559 2.03941302,1.25669587 2.03941302,1.40345533 C2.04810987,2.1589948 2.05137119,2.91453427 2.0524583,3.66898664 C2.0524583,3.7548681 2.03615169,3.84292378 2.01223534,3.92445682 C1.94483469,4.16688171 1.7785073,4.32016382 1.54912769,4.39408711 C1.3219223,4.46801039 1.09145558,4.45605221 0.876208364,4.34299307 C0.662048255,4.22884682 0.532682504,4.04512571 0.513114575,3.79943949 C0.495720861,3.58310517 0.493546647,3.36677085 0.501156397,3.15043652 C0.510940361,2.79930091 0.693574362,2.56448577 1.00013858,2.42207473 C1.19038233,2.33293195 1.3828003,2.24487627 1.57304405,2.15247216 C1.59261198,2.1426882 1.61652833,2.11116209 1.61761544,2.08941994 C1.61870255,1.88939223 1.62196387,1.68936451 1.61544123,1.4893368 C1.60891858,1.29039619 1.46976887,1.15450779 1.28061222,1.15124647 C1.09145558,1.14798515 0.952305864,1.27300247 0.938173472,1.46976887 C0.929476614,1.5958733 0.935999257,1.72306483 0.935999257,1.85895323 L0.512027468,1.85895323 C0.512027468,1.7024098 0.504417718,1.54477926 0.512027468,1.39041005 C0.518550111,1.24908612 0.57616679,1.12298169 0.666396684,1.01535808 Z M0.939260579,3.71899356 C0.95013165,3.90271467 1.09362979,4.02990621 1.26974115,4.02990621 L1.28169933,4.02990621 C1.46868176,4.02555778 1.6110928,3.89075649 1.61435412,3.69942564 C1.62087676,3.34285449 1.61761544,2.98410913 1.61761544,2.62862509 C1.61761544,2.61992823 1.61544123,2.61014427 1.6110928,2.58948923 C1.43280723,2.67971913 1.25560876,2.76233927 1.08819426,2.85909181 C0.996877258,2.91344717 0.939260579,3.00693838 0.938173472,3.12108463 C0.933825043,3.32111235 0.928389507,3.52114006 0.939260579,3.71899356 Z" id="path-3"></path>
        <path d="M0.681616184,1.01970651 C0.559860183,1.16972729 0.521811433,1.34801287 0.520724325,1.53716951 L0.520724325,4.30385721 C0.520724325,4.32559935 0.52289854,4.34516728 0.523985647,4.36908364 L0.951218757,4.36908364 L0.951218757,4.27994085 L0.951218757,1.72415194 C0.951218757,1.65566419 0.947957436,1.58717644 0.951218757,1.5197758 C0.963176936,1.21864712 1.23277951,1.05558104 1.47737862,1.20451472 C1.60348305,1.28061222 1.64044469,1.40345533 1.64044469,1.54586637 C1.63935758,2.45903638 1.63935758,3.37220638 1.63935758,4.2864635 L1.63935758,4.36582232 L2.07311334,4.36582232 C2.07528755,4.35168993 2.07637466,4.34299307 2.07637466,4.332122 C2.07637466,3.40155828 2.07854887,2.46882034 2.07528755,1.53716951 C2.07528755,1.32518362 2.02093219,1.12841722 1.86873719,0.971873793 C1.73611012,0.834898292 1.57086983,0.76314922 1.38606162,0.749016827 C1.3534484,0.745755506 1.31974808,0.744668399 1.28713487,0.744668399 C1.05340683,0.744668399 0.844682256,0.820765899 0.681616184,1.01970651 Z" id="path-5"></path>
        <path d="M1.60565726,0.815330363 L1.60565726,0.909908686 C1.60565726,1.83503687 1.60565726,2.76016506 1.60239594,3.68638035 C1.60239594,3.82118164 1.54477926,3.92771814 1.42411037,3.98859614 C1.29909305,4.05164835 1.17190151,4.04512571 1.05340683,3.96141846 C0.940347686,3.87988542 0.914257114,3.75595521 0.914257114,3.62550235 L0.914257114,0.899037614 L0.914257114,0.815330363 L0.485936897,0.815330363 L0.485936897,0.903386043 C0.485936897,1.7785073 0.484849789,2.65471566 0.485936897,3.53092403 C0.485936897,3.62441524 0.488111111,3.71790646 0.50006929,3.81248478 C0.531595397,4.05382257 0.653351398,4.23319525 0.8664244,4.34408018 C1.02514204,4.42778743 1.19364365,4.44952957 1.3686679,4.42996164 C1.54912769,4.41039371 1.70784533,4.34081885 1.83721109,4.20710468 C1.99484162,4.04838703 2.04050012,3.84401089 2.04050012,3.62767656 C2.04267434,2.71450656 2.04158723,1.79916234 2.04158723,0.887079435 C2.04158723,0.863163078 2.03832591,0.841420935 2.0372388,0.815330363 L1.60565726,0.815330363 Z" id="path-7"></path>
        <path d="M1.62196387,0.815330363 L1.62196387,0.909908686 C1.62196387,1.83503687 1.62196387,2.75907795 1.62087676,3.68420614 C1.62087676,3.82009453 1.56217298,3.92771814 1.4436783,3.98859614 C1.31757387,4.05164835 1.19038233,4.04512571 1.07188765,3.96141846 C0.9577414,3.87988542 0.932737936,3.75704231 0.932737936,3.62658946 L0.932737936,0.900124721 L0.932737936,0.815330363 L0.503330611,0.815330363 L0.503330611,0.901211828 C0.503330611,1.7785073 0.503330611,2.65362856 0.504417718,3.52983692 C0.504417718,3.62441524 0.505504825,3.71681935 0.517463004,3.81139767 C0.547902004,4.05273546 0.670745112,4.23319525 0.884905221,4.34408018 C1.04253576,4.42778743 1.20995026,4.44952957 1.38497451,4.42996164 C1.5665214,4.41039371 1.72415194,4.34081885 1.85569191,4.20710468 C2.01440955,4.04512571 2.05789384,3.83966246 2.05789384,3.62006681 C2.05898094,2.70907102 2.05789384,1.79916234 2.05789384,0.888166543 C2.05789384,0.865337292 2.05571962,0.841420935 2.05571962,0.815330363 L1.62196387,0.815330363 Z" id="path-9"></path>
        <path d="M0.0206550359,0.473360956 C0.0206550359,0.626643064 0.139149715,0.748399065 0.288083395,0.748399065 C0.437017075,0.748399065 0.557685969,0.626643064 0.557685969,0.473360956 C0.557685969,0.321165955 0.437017075,0.197235739 0.288083395,0.197235739 C0.139149715,0.197235739 0.0206550359,0.321165955 0.0206550359,0.473360956 Z" id="path-11"></path>
    </defs>
    <g id="Page-1" stroke="none" stroke-width="1" fill="none" fill-rule="evenodd">
        <g id="iPhone-7-Copy-2" transform="translate(-10.000000, -3500.000000)">
            <g id="Group-5" transform="translate(10.000000, 3501.000000)">
                <g id="Group-72" transform="translate(41.000000, 0.000000)">
                    <g id="Group-70" transform="translate(132.055400, 0.460022)">
                        <path d="M75.8760642,90.7986528 C75.8760642,91.7990355 75.0634248,92.6165639 74.0701989,92.6165639 L1.9026475,92.6165639 C0.909421594,92.6165639 0.0967822169,91.7990355 0.0967822169,90.7986528 L0.0967822169,1.85921652 C0.0967822169,0.859365453 0.909421594,0.0413054932 1.9026475,0.0413054932 L74.0701989,0.0413054932 C75.0634248,0.0413054932 75.8760642,0.859365453 75.8760642,1.85921652 L75.8760642,90.7986528 Z" id="Fill-5" fill="#FFFFFF"></path>
                        <path d="M75.8760642,90.7986528 C75.8760642,91.7990355 75.0634248,92.6165639 74.0701989,92.6165639 L1.9026475,92.6165639 C0.909421594,92.6165639 0.0967822169,91.7990355 0.0967822169,90.7986528 L0.0967822169,82.2289565 C0.0967822169,81.2291054 0.909421594,80.4110455 1.9026475,80.4110455 L74.0701989,80.4110455 C75.0634248,80.4110455 75.8760642,81.2291054 75.8760642,82.2289565 L75.8760642,90.7986528 Z" id="Fill-32" fill="#404E61"></path>
                        <path d="M74.9669536,80.4110455 L1.00620964,80.4110455 C0.505636453,80.4110455 0.0969406261,80.6858583 0.0969406261,81.0212682 L0.0969406261,84.9627332 L75.8762226,84.9627332 L75.8762226,81.0212682 C75.8762226,80.6858583 75.4664707,80.4110455 74.9669536,80.4110455" id="Fill-33" fill="#F6F9FF"></path>
                        <polygon id="Fill-34" fill="#7B9FD6" points="0.0969406261 85.7033991 75.8762226 85.7033991 75.8762226 84.9624143 0.0969406261 84.9624143"></polygon>
                        <polygon id="Fill-35" fill="#7B9FD6" points="35.0018876 88.9793598 40.9702195 88.9793598 40.9702195 85.0384264 35.0018876 85.0384264"></polygon>
                        <path d="M39.6703662,87.2091291 C39.6022502,87.2431484 39.5341342,87.2739785 39.4702425,87.3106557 C39.4353925,87.3308547 39.4132152,87.3664687 39.4126871,87.4095245 C39.4116311,87.4844735 39.409519,87.5594224 39.4132152,87.6343714 C39.4174394,87.7050679 39.4749948,87.7523761 39.5446948,87.7507815 C39.615979,87.7491868 39.6703662,87.6986893 39.6719503,87.6263981 C39.6740624,87.4919152 39.6730063,87.3579639 39.6735343,87.223481 C39.6735343,87.2202917 39.6719503,87.2176339 39.6703662,87.2091291 M39.4121591,86.9343162 L39.2495256,86.9343162 C39.2495256,86.8758454 39.2468855,86.816843 39.2500537,86.7578406 C39.2526938,86.7052169 39.2743431,86.6579087 39.3086651,86.6175106 C39.375725,86.536183 39.4649622,86.5112001 39.565288,86.515984 C39.6481889,86.520768 39.7205291,86.5521296 39.7749163,86.6169791 C39.8108224,86.6589718 39.8345837,86.7084062 39.8351118,86.7631561 C39.8372239,87.0470054 39.838808,87.3308547 39.839336,87.6152355 C39.839336,87.6471287 39.8329996,87.6806165 39.8240231,87.710915 C39.7976216,87.8023421 39.7347859,87.8602814 39.6471328,87.8879221 C39.5594797,87.9155629 39.4718266,87.9107789 39.3894538,87.8682547 C39.307609,87.8257305 39.2579741,87.7566286 39.2505817,87.6636068 C39.2437173,87.5828108 39.2426612,87.5014832 39.2453014,87.4201556 C39.2489976,87.2877989 39.3192257,87.1995611 39.4364485,87.1464058 C39.5093168,87.1123864 39.5827131,87.0799617 39.6561093,87.0448792 C39.6635018,87.0416899 39.6724783,87.0294642 39.6724783,87.0209593 C39.6735343,86.9460104 39.6745904,86.8705298 39.6719503,86.7955809 C39.6698381,86.7206319 39.616507,86.6696028 39.5441668,86.6685397 C39.4718266,86.6669451 39.4179674,86.7142533 39.4132152,86.7886707 C39.409519,86.8359789 39.4121591,86.8838187 39.4121591,86.9343162" id="Fill-36" fill="#FFFFFF"></path>
                        <path d="M38.5859493,87.8782479 L38.4222598,87.8782479 C38.4217318,87.8692115 38.4212037,87.8617697 38.4212037,87.8537964 L38.4212037,86.8135474 C38.4212037,86.7423193 38.4365166,86.6753436 38.4829833,86.618999 C38.5537395,86.5344821 38.6472009,86.5089675 38.751751,86.5169408 C38.8230352,86.5227879 38.8858708,86.5498971 38.9370898,86.6014577 C38.9957012,86.6599286 39.0157664,86.734346 39.0157664,86.8135474 C39.0168225,87.1638407 39.0162944,87.5141341 39.0162944,87.8649591 C39.0162944,87.8681484 39.0157664,87.8713377 39.0147103,87.8771848 L38.8494367,87.8771848 L38.8494367,87.8468863 C38.8494367,87.5035031 38.8489087,87.1601199 38.8499647,86.8172682 C38.8499647,86.7630498 38.8357079,86.7168047 38.7871291,86.6886324 C38.6936676,86.6328194 38.5901736,86.6934164 38.5859493,86.8066372 C38.5848933,86.8326833 38.5859493,86.8581978 38.5859493,86.8842439 L38.5859493,87.8452916 L38.5859493,87.8782479 Z" id="Fill-37" fill="#FFFFFF"></path>
                        <path d="M37.1720413,86.5420833 L37.3373149,86.5420833 C37.337843,86.5521828 37.338899,86.5606876 37.338899,86.5691925 C37.338899,86.9125757 37.3394271,87.2559589 37.338371,87.5988105 C37.338371,87.6812012 37.320946,87.7572133 37.2612785,87.8172788 C37.2111156,87.8672447 37.1509201,87.8938224 37.08122,87.9012641 C37.0146881,87.9081743 36.9502684,87.900201 36.8900729,87.8693709 C36.8082281,87.8273783 36.7617614,87.759871 36.7490887,87.6684439 C36.7443364,87.633893 36.7438083,87.5977474 36.7438083,87.5626649 C36.7432803,87.2336336 36.7438083,86.9046024 36.7438083,86.5750396 L36.7438083,86.5420833 L36.9080259,86.5420833 L36.9080259,86.5739765 L36.9080259,87.5988105 C36.9080259,87.6482449 36.9180585,87.69449 36.961357,87.7253201 C37.0067677,87.7566817 37.0548185,87.7588079 37.1033973,87.7348881 C37.148808,87.7125628 37.1715133,87.6726964 37.1715133,87.6211357 C37.1720413,87.2735001 37.1720413,86.9258645 37.1720413,86.5776973 L37.1720413,86.5420833 Z" id="Fill-38" fill="#FFFFFF"></path>
                        <path d="M37.5824796,86.5420833 L37.7472252,86.5420833 L37.7472252,86.574508 L37.7472252,87.5988105 C37.7472252,87.6482449 37.7567298,87.69449 37.8000283,87.7253201 C37.845439,87.7566817 37.8940178,87.7588079 37.9425966,87.7348881 C37.9880073,87.7120313 38.0107126,87.6721648 38.0107126,87.6206042 C38.0107126,87.2729686 38.0107126,86.9253329 38.0112406,86.5776973 L38.0112406,86.5420833 L38.1765143,86.5420833 C38.1770423,86.5521828 38.1775703,86.5606876 38.1775703,86.569724 C38.1775703,86.9120441 38.1780984,87.2543642 38.1775703,87.5966843 C38.1775703,87.6796066 38.1606733,87.7566817 38.0994218,87.8172788 C38.0503149,87.8677763 37.9895914,87.8938224 37.9198913,87.9012641 C37.8533594,87.9081743 37.7889397,87.900201 37.7282161,87.8688394 C37.6463714,87.8273783 37.5999047,87.7593395 37.588288,87.6684439 C37.5835357,87.6333614 37.5830077,87.5977474 37.5830077,87.5626649 C37.5824796,87.2336336 37.5824796,86.9040708 37.5824796,86.5750396 L37.5824796,86.5420833 Z" id="Fill-39" fill="#FFFFFF"></path>
                        <polygon id="Fill-40" fill="#FFFFFF" points="36.2273276 87.7230344 36.5411787 87.7230344 36.5411787 87.8771848 36.0754798 87.8771848 36.0754798 86.112429 36.2273276 86.112429"></polygon>
                        <path d="M40.070943,86.3063593 C40.070943,86.3557883 40.0312486,86.3956061 39.9824292,86.3956061 C39.9331535,86.3956061 39.8934592,86.3557883 39.8934592,86.3063593 C39.8934592,86.257388 39.9331535,86.2175702 39.9824292,86.2175702 C40.0312486,86.2175702 40.070943,86.257388 40.070943,86.3063593" id="Fill-41" fill="#FFFFFF"></path>
                        <path d="M75.8760642,90.7986528 C75.8760642,91.7990355 75.0634248,92.6165639 74.0701989,92.6165639 L1.9026475,92.6165639 C0.909421594,92.6165639 0.0967822169,91.7990355 0.0967822169,90.7986528 L0.0967822169,1.85921652 C0.0967822169,0.859365453 0.909421594,0.0413054932 1.9026475,0.0413054932 L74.0701989,0.0413054932 C75.0634248,0.0413054932 75.8760642,0.859365453 75.8760642,1.85921652 L75.8760642,90.7986528 Z" id="Stroke-54" stroke="#5D6E8A" stroke-width="0.6"></path>
                    </g>
                    <g id="Group-69" transform="translate(56.920431, 0.460022)">
                        <path d="M68.5473772,90.8920998 C68.5473772,91.8403903 67.7764522,92.6164576 66.8339173,92.6164576 L2.06038096,92.6164576 C1.11784601,92.6164576 0.346921069,91.8403903 0.346921069,90.8920998 L0.346921069,1.76608844 C0.346921069,0.817266461 1.11784601,0.0411991826 2.06038096,0.0411991826 L66.8339173,0.0411991826 C67.7764522,0.0411991826 68.5473772,0.817266461 68.5473772,1.76608844 L68.5473772,90.8920998 Z" id="Fill-3" fill="#FFFFFF"></path>
                        <path d="M68.5473772,90.8920998 C68.5473772,91.8403903 67.7764522,92.6164576 66.8339173,92.6164576 L2.06038096,92.6164576 C1.11784601,92.6164576 0.346921069,91.8403903 0.346921069,90.8920998 L0.346921069,82.1352969 C0.346921069,81.1870064 1.11784601,80.4109392 2.06038096,80.4109392 L66.8339173,80.4109392 C67.7764522,80.4109392 68.5473772,81.1870064 68.5473772,82.1352969 L68.5473772,90.8920998 Z" id="Fill-22" fill="#404E61"></path>
                        <path d="M67.7290351,80.4110455 L1.16494636,80.4110455 C0.715592163,80.4110455 0.347026675,80.6858583 0.347026675,81.0212682 L0.347026675,84.9627332 L68.5474828,84.9627332 L68.5474828,81.0212682 C68.5474828,80.6858583 68.1794453,80.4110455 67.7290351,80.4110455" id="Fill-23" fill="#F6F9FF"></path>
                        <polygon id="Fill-24" fill="#7B9FD6" points="0.346709857 85.7033991 68.547166 85.7033991 68.547166 84.9624143 0.346709857 84.9624143"></polygon>
                        <polygon id="Fill-25" fill="#7B9FD6" points="31.463564 88.9793598 37.4318959 88.9793598 37.4318959 85.0384264 31.463564 85.0384264"></polygon>
                        <path d="M35.9667689,87.2397465 C35.8986529,87.2737659 35.830537,87.304596 35.7666452,87.3407416 C35.7317952,87.3614721 35.7101459,87.3970862 35.7090899,87.440142 C35.7080338,87.5150909 35.7059217,87.5895083 35.7101459,87.6649888 C35.7138422,87.7351538 35.7713975,87.7829936 35.8410976,87.7813989 C35.9123817,87.7798043 35.9667689,87.7287752 35.968353,87.6570156 C35.9704651,87.5225327 35.9694091,87.3885813 35.9699371,87.2540984 C35.9699371,87.2509091 35.968353,87.2482514 35.9667689,87.2397465 M35.7085619,86.9649336 L35.5459284,86.9649336 C35.5459284,86.9064628 35.5432882,86.8474604 35.5464564,86.7884581 C35.5490966,86.7358343 35.5707458,86.6885261 35.6050678,86.6475965 C35.6721277,86.5668005 35.7613649,86.541286 35.8616908,86.5466015 C35.9445916,86.5513855 36.0169318,86.5827471 36.071319,86.6475965 C36.1072251,86.6895892 36.1309865,86.7390236 36.1315145,86.7937736 C36.1336266,87.0776229 36.1352107,87.3614721 36.1357388,87.6458529 C36.1357388,87.6777461 36.1294024,87.7107024 36.1204259,87.7415325 C36.0940243,87.8329596 36.0311887,87.8908988 35.9435356,87.918008 C35.8558824,87.9461803 35.7682293,87.9413964 35.6858565,87.8988721 C35.6040118,87.8563479 35.5543769,87.7867145 35.5469844,87.6942243 C35.54012,87.6134282 35.539064,87.5321006 35.5417041,87.4502415 C35.5454003,87.3184163 35.6161565,87.2301786 35.7328513,87.1770233 C35.8057195,87.1430039 35.8796438,87.1105791 35.9525121,87.0754966 C35.9599045,87.0723073 35.968881,87.0595501 35.9694091,87.0515768 C35.9699371,86.9766278 35.9709932,86.9011473 35.968353,86.8261983 C35.9662409,86.7512494 35.9129098,86.7002203 35.8405696,86.6986256 C35.7682293,86.6975625 35.7143702,86.7448707 35.7096179,86.8187566 C35.7059217,86.8665963 35.7085619,86.9144361 35.7085619,86.9649336" id="Fill-26" fill="#FFFFFF"></path>
                        <path d="M34.8823521,87.9088653 L34.7186625,87.9088653 C34.7181345,87.8998289 34.7176065,87.8923872 34.7176065,87.8844139 L34.7176065,86.8441648 C34.7176065,86.7729367 34.7329194,86.7059611 34.7799141,86.6496164 C34.8501422,86.5650995 34.9436037,86.5390534 35.0481538,86.5475583 C35.1194379,86.5534054 35.1822736,86.5805146 35.2334926,86.6320752 C35.292104,86.690546 35.3121691,86.7644319 35.3121691,86.8441648 C35.3132252,87.1944582 35.3126972,87.5447516 35.3126972,87.8955765 C35.3126972,87.8987658 35.3121691,87.9019551 35.3116411,87.9078022 L35.1458395,87.9078022 L35.1458395,87.8775037 C35.1458395,87.5341205 35.1453114,87.1907373 35.1463675,86.8478857 C35.1463675,86.7936673 35.1321107,86.7474222 35.0840598,86.7192499 C34.9900704,86.6634368 34.8865763,86.7240339 34.8823521,86.8372546 C34.8818241,86.8633007 34.8823521,86.8888153 34.8823521,86.9143298 L34.8823521,87.8753775 L34.8823521,87.9088653 Z" id="Fill-27" fill="#FFFFFF"></path>
                        <path d="M33.4683913,86.5727007 L33.6336649,86.5727007 C33.6341929,86.5828002 33.635249,86.5907735 33.635249,86.5998099 C33.635249,86.9431931 33.635777,87.2865763 33.634721,87.629428 C33.634721,87.7118187 33.6172959,87.7878307 33.5576285,87.8478962 C33.5079936,87.8978622 33.44727,87.9239083 33.37757,87.9318816 C33.3110381,87.9387918 33.2466183,87.9308185 33.1864228,87.8999884 C33.104578,87.8579957 33.0581113,87.7899569 33.0454386,87.6990614 C33.0406863,87.6645105 33.0401583,87.6283649 33.0401583,87.5932824 C33.0396303,87.2642511 33.0401583,86.9352198 33.0401583,86.605657 L33.0401583,86.5727007 L33.2043759,86.5727007 L33.2043759,86.6045939 L33.2043759,87.6288964 C33.2043759,87.6788624 33.2144084,87.7251075 33.257707,87.7559376 C33.3031176,87.7872992 33.3511684,87.7894254 33.3997473,87.7655055 C33.4451579,87.7431803 33.4678632,87.7033138 33.4678632,87.6517532 C33.4683913,87.3041176 33.4683913,86.9564819 33.4683913,86.6083148 L33.4683913,86.5727007 Z" id="Fill-28" fill="#FFFFFF"></path>
                        <path d="M33.8788824,86.5727007 L34.043628,86.5727007 L34.043628,86.6051255 L34.043628,87.629428 C34.043628,87.6788624 34.0531325,87.7251075 34.0969591,87.7559376 C34.1418417,87.7872992 34.1904205,87.7894254 34.2389994,87.7655055 C34.28441,87.7426487 34.3071154,87.7027823 34.3071154,87.6512216 C34.3071154,87.303586 34.3071154,86.9559504 34.3076434,86.6083148 L34.3076434,86.5727007 L34.472917,86.5727007 C34.4734451,86.5828002 34.4739731,86.5913051 34.4739731,86.6003415 C34.4739731,86.94213 34.4745011,87.2849817 34.4739731,87.6273017 C34.4739731,87.710224 34.4570761,87.7872992 34.3958245,87.8478962 C34.3467177,87.8978622 34.2859941,87.9244398 34.2162941,87.9318816 C34.1497622,87.9387918 34.0853424,87.9308185 34.0246189,87.8994568 C33.9427741,87.8574642 33.8963074,87.7899569 33.8846907,87.6985298 C33.8799384,87.6639789 33.8794104,87.6283649 33.8794104,87.5932824 C33.8788824,87.2642511 33.8788824,86.9346883 33.8788824,86.605657 L33.8788824,86.5727007 Z" id="Fill-29" fill="#FFFFFF"></path>
                        <polygon id="Fill-30" fill="#FFFFFF" points="32.5237303 87.7536519 32.8375814 87.7536519 32.8375814 87.9078022 32.3718825 87.9078022 32.3718825 86.1430465 32.5237303 86.1430465"></polygon>
                        <path d="M36.3673457,86.3369029 C36.3673457,86.3863319 36.3276514,86.4261497 36.2788319,86.4261497 C36.2295562,86.4261497 36.1898619,86.3863319 36.1898619,86.3369029 C36.1898619,86.2879316 36.2295562,86.2476561 36.2788319,86.2476561 C36.3276514,86.2476561 36.3673457,86.2879316 36.3673457,86.3369029" id="Fill-31" fill="#FFFFFF"></path>
                        <path d="M68.5473772,90.8920998 C68.5473772,91.8403903 67.7764522,92.6164576 66.8339173,92.6164576 L2.06038096,92.6164576 C1.11784601,92.6164576 0.346921069,91.8403903 0.346921069,90.8920998 L0.346921069,1.76608844 C0.346921069,0.817266461 1.11784601,0.0411991826 2.06038096,0.0411991826 L66.8339173,0.0411991826 C67.7764522,0.0411991826 68.5473772,0.817266461 68.5473772,1.76608844 L68.5473772,90.8920998 Z" id="Stroke-53" stroke="#5D6E8A" stroke-width="0.6"></path>
                    </g>
                    <g id="Group-14" transform="translate(0.000000, 0.460022)">
                        <path d="M50.9747087,91.5495635 C50.9747087,92.3660288 50.3115021,93.0336592 49.5004468,93.0336592 L1.9296254,93.0336592 C1.11857011,93.0336592 0.455363448,92.3660288 0.455363448,91.5495635 L0.455363448,1.94249666 C0.455363448,1.12656291 1.11857011,0.458400878 1.9296254,0.458400878 L49.5004468,0.458400878 C50.3115021,0.458400878 50.9747087,1.12656291 50.9747087,1.94249666 L50.9747087,91.5495635 Z" id="Fill-1" fill="#FFFFFF"></path>
                        <path d="M50.5193453,90.9415762 C50.5193453,91.7580415 49.8561386,92.425672 49.0450833,92.425672 L1.47426195,92.425672 C0.663206665,92.425672 0,91.7580415 0,90.9415762 L0,81.7042494 C0,80.8877841 0.663206665,80.2201536 1.47426195,80.2201536 L49.0450833,80.2201536 C49.8561386,80.2201536 50.5193453,80.8877841 50.5193453,81.7042494 L50.5193453,90.9415762 Z" id="Fill-9" fill="#404E61"></path>
                        <path d="M49.9131659,80.2201536 L0.60617934,80.2201536 C0.272463885,80.2201536 0,80.4949665 0,80.8303764 L0,84.7718413 L50.5188173,84.7718413 L50.5188173,80.8303764 C50.5188173,80.4949665 50.2463534,80.2201536 49.9131659,80.2201536" id="Fill-11" fill="#F6F9FF"></path>
                        <polygon id="Fill-13" fill="#7B9FD6" points="0 85.5451472 50.5193453 85.5451472 50.5193453 84.8041624 0 84.8041624"></polygon>
                        <polygon id="Fill-15" fill="#7B9FD6" points="22.3128089 89.2034967 28.2811409 89.2034967 28.2811409 85.2625633 22.3128089 85.2625633"></polygon>
                        <path d="M26.8374942,87.3315834 C26.7688501,87.3656027 26.7012622,87.3964328 26.6368425,87.4325784 C26.6019924,87.453309 26.5803432,87.488923 26.5798151,87.5319788 C26.578231,87.6069278 26.5761189,87.6813452 26.5803432,87.7568257 C26.5840394,87.8269907 26.6415947,87.8748304 26.7112948,87.8732358 C26.782579,87.8716411 26.8374942,87.820612 26.8385502,87.7488524 C26.8411904,87.6143695 26.8401343,87.4804182 26.8401343,87.3459353 C26.8401343,87.342746 26.8390782,87.3400882 26.8374942,87.3315834 M26.5792871,87.0567705 L26.4161256,87.0567705 C26.4161256,86.9982997 26.4140135,86.9392973 26.4166536,86.8802949 C26.4192938,86.8276712 26.440943,86.780363 26.475265,86.7394334 C26.5423249,86.6586373 26.6320902,86.6331228 26.732416,86.6384383 C26.8147888,86.6432223 26.887129,86.6745839 26.9415162,86.7394334 C26.9774223,86.7814261 27.0011837,86.8308605 27.0017117,86.8856104 C27.0043519,87.1694597 27.005936,87.453309 27.005936,87.7376898 C27.005936,87.769583 27.0001276,87.8025392 26.9911511,87.8333693 C26.9647496,87.9247964 26.9013859,87.9827357 26.8137328,88.0098449 C26.7266077,88.0380172 26.6389546,88.0332332 26.5560537,87.990709 C26.474209,87.9481848 26.4251021,87.8785513 26.4171816,87.7860611 C26.4108453,87.7052651 26.4097892,87.6239375 26.4124294,87.5420783 C26.4155976,87.4102532 26.4863537,87.3220154 26.6030485,87.2688601 C26.6764448,87.2348407 26.749841,87.202416 26.8227093,87.1673335 C26.8301017,87.1641442 26.8396063,87.1513869 26.8396063,87.1434136 C26.8406623,87.0684647 26.8411904,86.9929841 26.8390782,86.9180352 C26.8364381,86.8430862 26.783107,86.7920571 26.7112948,86.7904625 C26.6384265,86.7893994 26.5845674,86.8367076 26.5798151,86.9105934 C26.5766469,86.9584332 26.5792871,87.006273 26.5792871,87.0567705" id="Fill-16" fill="#FFFFFF"></path>
                        <path d="M25.6650987,88.0006011 L25.5019372,88.0006011 C25.5014091,87.9915647 25.5003531,87.984123 25.5003531,87.9761497 L25.5003531,86.9359006 C25.5008811,86.8646725 25.515666,86.7976968 25.5626607,86.7413522 C25.6328888,86.6568353 25.7263502,86.6307892 25.8314284,86.639294 C25.9021845,86.6451411 25.9650202,86.6722503 26.0167672,86.723811 C26.0748506,86.7822818 26.0949157,86.8561676 26.0949157,86.9359006 C26.0959718,87.286194 26.0954438,87.6364873 26.0954438,87.9873123 C26.0954438,87.9905016 26.0949157,87.9936909 26.0943877,87.999538 L25.9291141,87.999538 L25.9291141,87.9692395 C25.9291141,87.6258563 25.928586,87.2824731 25.9291141,86.9396215 C25.9291141,86.8854031 25.9148572,86.839158 25.8668064,86.8109856 C25.773345,86.7551726 25.6698509,86.8157696 25.6650987,86.9289904 C25.6645706,86.9550365 25.6650987,86.980551 25.6650987,87.0060656 L25.6650987,87.9671133 L25.6650987,88.0006011 Z" id="Fill-17" fill="#FFFFFF"></path>
                        <path d="M24.1071322,86.6377659 L24.2729339,86.6377659 C24.2734619,86.6478654 24.27399,86.6558387 24.27399,86.6648751 C24.27399,87.0082583 24.274518,87.3516415 24.27399,87.6944931 C24.2734619,87.7768838 24.256565,87.8528959 24.1968975,87.9129614 C24.1467345,87.9629273 24.086011,87.9889734 24.016839,87.9969467 C23.9497791,88.0038569 23.8858873,87.9958836 23.8251638,87.9650536 C23.7438471,87.9230609 23.6968523,87.8550221 23.6847076,87.7641265 C23.6799553,87.7295756 23.6794273,87.69343 23.6788993,87.6583475 L23.6788993,86.6707222 L23.6788993,86.6377659 L23.8436449,86.6377659 L23.8436449,86.6696591 L23.8436449,87.6939616 C23.8436449,87.7439275 23.8531494,87.7901726 23.896976,87.8210027 C23.9418586,87.8523643 23.9899094,87.8544905 24.0384882,87.8305707 C24.0844269,87.8082454 24.1066042,87.768379 24.1066042,87.7168183 C24.1071322,87.3691827 24.1071322,87.0215471 24.1071322,86.6733799 L24.1071322,86.6377659 Z" id="Fill-18" fill="#FFFFFF"></path>
                        <path d="M24.5896262,86.6377659 L24.7543718,86.6377659 L24.7543718,86.6701906 L24.7543718,87.6944931 C24.7543718,87.7439275 24.7638763,87.7901726 24.8077029,87.8210027 C24.8525855,87.8523643 24.9016924,87.8544905 24.9497432,87.8305707 C24.9956818,87.8077139 25.0178591,87.7678474 25.0178591,87.7162868 C25.0183872,87.3686512 25.0183872,87.0210156 25.0183872,86.6733799 L25.0183872,86.6377659 L25.1841888,86.6377659 C25.1841888,86.6478654 25.1852449,86.6563702 25.1852449,86.6654066 L25.1852449,87.6923669 C25.1847169,87.7752892 25.1683479,87.8523643 25.1070963,87.9129614 C25.0574614,87.9629273 24.9967379,87.989505 24.9275659,87.9969467 C24.860506,88.0038569 24.7966142,87.9958836 24.7358907,87.964522 C24.6540459,87.9225293 24.6070512,87.8550221 24.5954345,87.763595 C24.5906822,87.7290441 24.5901542,87.69343 24.5901542,87.6583475 C24.5896262,87.3293163 24.5896262,86.9997534 24.5896262,86.6707222 L24.5896262,86.6377659 Z" id="Fill-19" fill="#FFFFFF"></path>
                        <polygon id="Fill-20" fill="#FFFFFF" points="23.3753836 87.7899704 23.6892347 87.7899704 23.6892347 87.9441207 23.2235358 87.9441207 23.2235358 86.179365 23.3753836 86.179365"></polygon>
                        <path d="M27.0443834,86.2686118 C27.0443834,86.3180408 27.0046891,86.3578586 26.9554134,86.3578586 C26.9061377,86.3578586 26.8664434,86.3180408 26.8664434,86.2686118 C26.8664434,86.2196405 26.9061377,86.179365 26.9554134,86.179365 C27.0046891,86.179365 27.0443834,86.2196405 27.0443834,86.2686118" id="Fill-21" fill="#FFFFFF"></path>
                        <path d="M50.5193453,91.0911626 C50.5193453,91.9076279 49.8561386,92.5752584 49.0450833,92.5752584 L1.47426195,92.5752584 C0.663206665,92.5752584 0,91.9076279 0,91.0911626 L0,1.48409578 C0,0.668162034 0.663206665,0 1.47426195,0 L49.0450833,0 C49.8561386,0 50.5193453,0.668162034 50.5193453,1.48409578 L50.5193453,91.0911626 Z" id="Stroke-52" stroke="#5D6E8A" stroke-width="0.6"></path>
                    </g>
                </g>
                <g id="Group-32" transform="translate(168.000000, 153.000000)">
                    <path d="M4.08756,22.3242429 C4.99956,22.3242429 5.77956,22.9482429 5.77956,23.9322429 C5.77956,24.7722429 5.31156,25.4202429 4.02756,26.5722429 L0.979560005,29.2602429 L0.979560005,29.9922429 L6.84756,29.9922429 L6.84756,29.1282429 L2.39556,29.1282429 L4.63956,27.1362429 C6.11556,25.8522429 6.76356,25.0962429 6.76356,23.8602429 C6.76356,22.4802429 5.68356,21.4722429 4.15956,21.4722429 C2.68356,21.4722429 1.89156,22.1322429 1.13556,23.2602429 L1.83156,23.7642429 C2.50356,22.8282429 3.12756,22.3242429 4.08756,22.3242429 Z M12.54756,21.5322429 L13.37556,21.5322429 L13.37556,27.2082429 L14.68356,27.2082429 L14.68356,28.0002429 L13.37556,28.0002429 L13.37556,29.9922429 L12.46356,29.9922429 L12.46356,28.0002429 L8.03556,28.0002429 L7.79556,27.3162429 L12.54756,21.5322429 Z M12.46356,27.2082429 L12.46356,22.8762429 L8.93556,27.2082429 L12.46356,27.2082429 Z M25.29156,28.9362429 L24.70356,28.3842429 C24.21156,28.9122429 23.59956,29.3082429 22.80756,29.3082429 C21.51156,29.3082429 20.52756,28.2402429 20.52756,26.8842429 C20.52756,25.5402429 21.48756,24.4722429 22.74756,24.4722429 C23.58756,24.4722429 24.13956,24.8922429 24.63156,25.4082429 L25.24356,24.7602429 C24.66756,24.1482429 23.93556,23.6562429 22.75956,23.6562429 C20.94756,23.6562429 19.57956,25.1442429 19.57956,26.9082429 C19.57956,28.6602429 20.94756,30.1362429 22.75956,30.1362429 C23.92356,30.1362429 24.66756,29.6322429 25.29156,28.9362429 Z M31.73556,24.8922429 C31.39956,24.1962429 30.75156,23.6562429 29.74356,23.6562429 C28.69956,23.6562429 28.14756,24.2202429 27.73956,24.8322429 L27.73956,23.7882429 L26.81556,23.7882429 L26.81556,29.9922429 L27.73956,29.9922429 L27.73956,26.4522429 C27.73956,25.3122429 28.48356,24.4962429 29.46756,24.4962429 C30.45156,24.4962429 31.06356,25.1802429 31.06356,26.3442429 L31.06356,29.9922429 L31.97556,29.9922429 L31.97556,26.4162429 C31.97556,25.1922429 32.75556,24.4962429 33.69156,24.4962429 C34.69956,24.4962429 35.29956,25.1682429 35.29956,26.3682429 L35.29956,29.9922429 L36.22356,29.9922429 L36.22356,26.1522429 C36.22356,24.6162429 35.34756,23.6562429 33.91956,23.6562429 C32.83956,23.6562429 32.17956,24.2082429 31.73556,24.8922429 Z" id="24-cm" fill="#5D6E8A"></path>
                    <polyline id="Page-1-Copy" stroke="#9CBAEE" stroke-width="0.88" stroke-linecap="square" points="44.8125651 0.6068909 26.4504438 0.6068909 26.4504438 10.9207223"></polyline>
                    <polyline id="Page-1-Copy-15" stroke="#9CBAEE" stroke-width="0.88" stroke-linecap="square" transform="translate(35.631504, 44.577328) scale(-1, 1) rotate(-180.000000) translate(-35.631504, -44.577328) " points="44.8125651 39.4204119 26.4504438 39.4204119 26.4504438 49.7342432"></polyline>
                    <g id="Group-53" transform="translate(156.455140, 39.106036)">
                        <g id="Page-1" transform="translate(0.203710, 0.105911)">
                            <path d="M10.0222453,3.12303499 C9.83157773,3.22044395 9.6429064,3.30727577 9.46379089,3.41154657 C9.36596481,3.46861958 9.30527531,3.56980437 9.30353897,3.69171987 C9.30005446,3.90403729 9.29414851,4.11714133 9.30527531,4.32947085 C9.31608319,4.52949263 9.47706745,4.66587002 9.67095964,4.6602789 C9.87059241,4.65497823 10.022387,4.5116906 10.0259306,4.30743311 C10.0324744,3.92684955 10.0294623,3.54596343 10.0301238,3.16477477 C10.0301238,3.15617025 10.0265921,3.14668229 10.0222453,3.12303499 M9.30229872,2.34482825 L8.84869849,2.34482825 C8.84869849,2.17785701 8.84191846,2.01059533 8.85016316,1.8442776 C8.85736841,1.69354724 8.91759724,1.55971127 9.01367517,1.44393148 C9.20118893,1.2154821 9.45030171,1.14205929 9.7288261,1.15735622 C9.95953595,1.17095886 10.1609169,1.25890406 10.3135147,1.44336268 C10.4123448,1.56300301 10.4783496,1.7023817 10.4799679,1.85842483 C10.4881535,2.66417571 10.4921932,3.469975 10.4931617,4.27573799 C10.4931617,4.36622461 10.4750777,4.46020871 10.4505563,4.54815391 C10.3775588,4.80747548 10.2010655,4.97017471 9.95663022,5.04927335 C9.71336433,5.12744014 9.46881094,5.11490248 9.23857357,4.99360417 C9.00941107,4.87280205 8.8721569,4.67668921 8.85124985,4.41374915 C8.83356745,4.18452524 8.83076804,3.95305037 8.83754806,3.72238633 C8.84735193,3.34728497 9.04359468,3.09746347 9.36931939,2.9454624 C9.57364147,2.85006237 9.77824705,2.7562719 9.98138795,2.65812472 C10.0033108,2.64752337 10.027974,2.61327472 10.0283875,2.58996628 C10.0309506,2.37686223 10.0328051,2.16314099 10.0265921,1.94998853 C10.0200719,1.73823991 9.87183266,1.59363316 9.67016825,1.58968791 C9.46836209,1.58635987 9.31845738,1.72076463 9.30435399,1.92992342 C9.29511709,2.06465494 9.30229872,2.20042723 9.30229872,2.34482825" id="Fill-1" fill="#FFFFFF"></path>
                            <path d="M6.99848154,5.02201966 L6.54335758,5.02201966 C6.54231813,4.99727108 6.53999119,4.97552379 6.53999119,4.95323191 C6.53999119,3.96912182 6.53986126,2.98587097 6.54034554,2.00171246 C6.54059359,1.79946391 6.58163991,1.60951098 6.7121495,1.44943788 C6.90928995,1.20887441 7.16987208,1.13617772 7.46231087,1.16035751 C7.66027816,1.17646527 7.83533038,1.25278045 7.97806527,1.39882734 C8.14109299,1.56526609 8.19743571,1.77533253 8.19789637,2.00171246 C8.20069579,2.99557677 8.19908937,3.98952578 8.19892401,4.98362003 C8.19892401,4.99360417 8.19724672,5.00310424 8.195534,5.01893365 L7.73363,5.01893365 L7.73363,4.93352987 C7.73363,3.95908927 7.73267324,2.98504803 7.73483482,2.01116412 C7.73497656,1.85792865 7.69462714,1.72791691 7.56030232,1.64676093 C7.2998265,1.48841841 7.01094309,1.66180371 6.99900126,1.98284545 C6.99667432,2.05566316 6.99888315,2.12810571 6.99848154,2.20095972 L6.99848154,4.9270795 L6.99848154,5.02201966 Z" id="Fill-3" fill="#FFFFFF"></path>
                            <path d="M3.05731305,1.23078629 L3.51944147,1.23078629 C3.52042185,1.25891132 3.52272517,1.28336946 3.52272517,1.30758555 C3.52272517,2.28220768 3.5240481,3.25633363 3.52204008,4.23037486 C3.52160304,4.46184974 3.47341053,4.67889903 3.30633133,4.84979132 C3.16738806,4.99138467 2.99850164,5.06543678 2.804952,5.08653056 C2.61841862,5.10712815 2.43972834,5.08430379 2.27119628,4.99664903 C2.04307323,4.8775775 1.91290619,4.68556723 1.87906513,4.4276495 C1.86615473,4.32836472 1.86451288,4.22704682 1.86399315,4.12718115 C1.86316632,3.19313701 1.86368604,2.25876612 1.86368604,1.32473408 L1.86368604,1.23131877 L2.32190472,1.23131877 L2.32190472,1.3212366 C2.32190472,2.2908001 2.32173936,3.25990372 2.32190472,4.22901944 C2.32190472,4.36925737 2.34856416,4.50026147 2.47002584,4.5871296 C2.59557442,4.67726526 2.73111587,4.68367932 2.86568874,4.61600496 C2.99292643,4.55173126 3.05593106,4.43821454 3.05593106,4.29329314 C3.05731305,3.30661742 3.05731305,2.31949393 3.05731305,1.33315707 L3.05731305,1.23078629 Z" id="Fill-5" fill="#FFFFFF"></path>
                            <path d="M4.20163604,1.23049705 L4.66020908,1.23049705 L4.66020908,1.32252062 C4.66020908,2.29141851 4.66020908,3.26077627 4.66057525,4.22960155 C4.66057525,4.36983947 4.68703388,4.50026268 4.8088381,4.58791744 C4.93456387,4.67726647 5.07034155,4.68334168 5.20447739,4.61550999 C5.33162058,4.55061909 5.39436534,4.43742912 5.39436534,4.29218097 C5.39518036,3.30550525 5.39518036,2.3186722 5.39598357,1.33234744 L5.39598357,1.23102954 L5.85771038,1.23102954 C5.85863171,1.25977178 5.8608996,1.28448405 5.8608996,1.30870014 C5.8608996,2.28052671 5.8615965,3.25213545 5.86061611,4.22399832 C5.85995464,4.45744582 5.81354573,4.67726647 5.64380885,4.85031291 C5.50530262,4.99188206 5.33603823,5.06564372 5.14227597,5.08653177 C4.95577802,5.10712936 4.77708774,5.084305 4.60866199,4.99582731 C4.38044444,4.87704622 4.25030103,4.68478181 4.21696788,4.42628318 C4.20404567,4.32749459 4.20241563,4.2268907 4.20241563,4.12631101 C4.20134074,3.19227898 4.20163604,2.25794439 4.20163604,1.32396076 L4.20163604,1.23049705 Z" id="Fill-7" fill="#FFFFFF"></path>
                            <g id="Group-11" transform="translate(0.000000, 0.003497)">
                                <mask id="mask-2" fill="white">
                                    <use xlink:href="#path-1"></use>
                                </mask>
                                <g id="Clip-10"></g>
                                <polygon id="Fill-9" fill="#FFFFFF" mask="url(#mask-2)" points="0.462128417 4.57804705 1.41832461 4.57804705 1.41832461 5.01598197 0 5.01598197 0 0.00859967822 0.462128417 0.00859967822"></polygon>
                            </g>
                            <path d="M11.2170511,0.603060604 C11.2170511,0.765554102 11.0887976,0.897127 10.9301993,0.897127 C10.7718019,0.897127 10.6437256,0.765554102 10.6437256,0.603060604 C10.6437256,0.441148002 10.7718019,0.309538798 10.9301993,0.309538798 C11.0887976,0.309538798 11.2170511,0.441148002 11.2170511,0.603060604" id="Fill-12" fill="#FFFFFF"></path>
                        </g>
                    </g>
                </g>
                <g id="Page-1" transform="translate(226.000000, 152.000000)">
                    <g id="Group-3" transform="translate(55.442465, 28.264786)">
                        <mask id="mask-4" fill="white">
                            <use xlink:href="#path-3"></use>
                        </mask>
                        <g id="Clip-2"></g>
                        <polygon id="Fill-1" fill="#FFFFFF" mask="url(#mask-4)" points="-4.93764068 9.87528136 7.48908116 9.87528136 7.48908116 -4.69195446 -4.93764068 -4.69195446"></polygon>
                    </g>
                    <g id="Group-6" transform="translate(53.268250, 28.264786)">
                        <mask id="mask-6" fill="white">
                            <use xlink:href="#path-5"></use>
                        </mask>
                        <g id="Clip-5"></g>
                        <polygon id="Fill-4" fill="#FFFFFF" mask="url(#mask-6)" points="-4.91481143 9.8046194 7.51299752 9.8046194 7.51299752 -4.69086736 -4.91481143 -4.69086736"></polygon>
                    </g>
                    <g id="Group-9" transform="translate(48.919822, 28.264786)">
                        <mask id="mask-8" fill="white">
                            <use xlink:href="#path-7"></use>
                        </mask>
                        <g id="Clip-8"></g>
                        <polygon id="Fill-7" fill="#FFFFFF" mask="url(#mask-8)" points="-4.95068597 9.87202004 7.47712299 9.87202004 7.47712299 -4.62020539 -4.95068597 -4.62020539"></polygon>
                    </g>
                    <g id="Group-12" transform="translate(51.094036, 28.264786)">
                        <mask id="mask-10" fill="white">
                            <use xlink:href="#path-9"></use>
                        </mask>
                        <g id="Clip-11"></g>
                        <polygon id="Fill-10" fill="#FFFFFF" mask="url(#mask-10)" points="-4.93329225 9.87202004 7.4945167 9.87202004 7.4945167 -4.62020539 -4.93329225 -4.62020539"></polygon>
                    </g>
                    <polygon id="Fill-13" fill="#FFFFFF" points="47.658234 27.937458 47.658234 32.6315866 48.9866789 32.6315866 48.9866789 32.2206601 48.0919897 32.2206601 48.0919897 27.937458"></polygon>
                    <g id="Group-16" transform="translate(57.616679, 28.017543)">
                        <mask id="mask-12" fill="white">
                            <use xlink:href="#path-11"></use>
                        </mask>
                        <g id="Clip-15"></g>
                        <polygon id="Fill-14" fill="#FFFFFF" mask="url(#mask-12)" points="-5.41596783 6.18393482 5.99213462 6.18393482 5.99213462 -5.23830002 -5.41596783 -5.23830002"></polygon>
                    </g>
                    <g id="Group-31">
                        <path d="M417.168455,48.3385456 C417.168455,50.3833942 415.495397,52.0564521 413.450549,52.0564521 L4.17101272,52.0564521 C2.12616417,52.0564521 0.453106261,50.3833942 0.453106261,48.3385456 L0.453106261,4.13894306 C0.453106261,2.09409451 2.12616417,0.4210366 4.17101272,0.4210366 L413.450549,0.4210366 C415.495397,0.4210366 417.168455,2.09409451 417.168455,4.13894306 L417.168455,48.3385456 Z" id="Fill-17" fill="#404E61"></path>
                        <path d="M413.296614,0.420927889 L4.32472967,0.420927889 C2.19508676,0.420927889 0.452453996,1.58195833 0.452453996,3.00280737 L0.452453996,19.677944 L417.16889,19.677944 L417.16889,3.00280737 C417.16889,1.58195833 415.42517,0.420927889 413.296614,0.420927889" id="Fill-19" fill="#FFFFFF"></path>
                        <polygon id="Fill-21" fill="#7B9FD6" points="0.453323682 22.8107694 417.168672 22.8107694 417.168672 19.6777265 0.453323682 19.6777265"></polygon>
                        <path d="M417.168455,48.3385456 C417.168455,50.3833942 415.495397,52.0564521 413.450549,52.0564521 L4.17101272,52.0564521 C2.12616417,52.0564521 0.453106261,50.3833942 0.453106261,48.3385456 L0.453106261,4.13894306 C0.453106261,2.09409451 2.12616417,0.4210366 4.17101272,0.4210366 L413.450549,0.4210366 C415.495397,0.4210366 417.168455,2.09409451 417.168455,4.13894306 L417.168455,48.3385456 Z" id="Stroke-30" stroke="#5D6E8A" stroke-width="0.6"></path>
                    </g>
                </g>
                <polyline id="Page-1" stroke="#9CBAEE" stroke-width="0.66528" stroke-linecap="square" points="30 1 16 1 16 27"></polyline>
                <polyline id="Page-1-Copy-3" stroke="#9CBAEE" stroke-width="0.66528" stroke-linecap="square" points="44 122 30 122 30 158.139648"></polyline>
                <polyline id="Page-1-Copy-2" stroke="#9CBAEE" stroke-width="0.66528" stroke-linecap="square" transform="translate(23.000000, 78.500000) scale(-1, 1) rotate(-180.000000) translate(-23.000000, -78.500000) " points="30 64 16 64 16 93"></polyline>
                <polyline id="Page-1-Copy-4" stroke="#9CBAEE" stroke-width="0.66528" stroke-linecap="square" transform="translate(37.000000, 208.184082) scale(-1, 1) rotate(-180.000000) translate(-37.000000, -208.184082) " points="44 189 30 189 30 227.368164"></polyline>
                <path d="M3.502,51 L3.502,42.996 L2.626,42.996 L0.622,45.06 L1.222,45.672 L2.506,44.304 L2.506,51 L3.502,51 Z M7.666,51.132 C6.646,51.132 5.95,50.736 5.446,50.172 L5.95,49.428 C6.358,49.908 6.838,50.244 7.666,50.244 C9.286,50.244 9.922,48.624 9.922,47.1 C9.922,47.004 9.922,46.896 9.91,46.788 C9.562,47.34 8.674,48.036 7.654,48.036 C6.214,48.036 5.026,47.184 5.026,45.48 C5.026,44.1 6.082,42.864 7.834,42.864 C10.066,42.864 10.93,44.82 10.93,47.004 C10.93,49.164 9.91,51.132 7.666,51.132 Z M7.882,47.172 C8.674,47.172 9.454,46.68 9.886,45.972 C9.79,44.988 9.262,43.752 7.87,43.752 C6.646,43.752 6.034,44.676 6.034,45.444 C6.034,46.62 6.85,47.172 7.882,47.172 Z M15.202,51.144 C13.006,51.144 12.142,48.948 12.142,47.004 C12.142,45.048 13.006,42.876 15.202,42.876 C17.386,42.876 18.262,45.048 18.262,47.004 C18.262,48.948 17.386,51.144 15.202,51.144 Z M15.202,50.256 C16.726,50.256 17.242,48.6 17.242,47.004 C17.242,45.408 16.726,43.764 15.202,43.764 C13.678,43.764 13.162,45.408 13.162,47.004 C13.162,48.6 13.678,50.256 15.202,50.256 Z M25.438,51.144 C26.494,51.144 27.118,50.712 27.562,50.136 L26.962,49.584 C26.578,50.1 26.086,50.34 25.486,50.34 C24.262,50.34 23.482,49.38 23.482,48.096 C23.482,46.812 24.262,45.864 25.486,45.864 C26.086,45.864 26.578,46.08 26.962,46.608 L27.562,46.068 C27.118,45.492 26.494,45.06 25.438,45.06 C23.71,45.06 22.546,46.38 22.546,48.096 C22.546,49.812 23.71,51.144 25.438,51.144 Z M36.73,51 L36.73,46.812 C36.73,45.648 36.166,45.06 35.11,45.06 C34.27,45.06 33.49,45.612 33.166,46.14 C32.998,45.54 32.494,45.06 31.618,45.06 C30.754,45.06 29.986,45.672 29.734,46.044 L29.734,45.204 L28.834,45.204 L28.834,51 L29.734,51 L29.734,46.764 C30.046,46.296 30.67,45.864 31.258,45.864 C32.026,45.864 32.326,46.332 32.326,47.064 L32.326,51 L33.226,51 L33.226,46.752 C33.526,46.284 34.162,45.864 34.762,45.864 C35.518,45.864 35.83,46.332 35.83,47.064 L35.83,51 L36.73,51 Z" id="190-cm" fill="#5D6E8A"></path>
                <path d="M17.502,177 L17.502,168.996 L16.626,168.996 L14.622,171.06 L15.222,171.672 L16.506,170.304 L16.506,177 L17.502,177 Z M21.666,177.132 C20.646,177.132 19.95,176.736 19.446,176.172 L19.95,175.428 C20.358,175.908 20.838,176.244 21.666,176.244 C23.286,176.244 23.922,174.624 23.922,173.1 C23.922,173.004 23.922,172.896 23.91,172.788 C23.562,173.34 22.674,174.036 21.654,174.036 C20.214,174.036 19.026,173.184 19.026,171.48 C19.026,170.1 20.082,168.864 21.834,168.864 C24.066,168.864 24.93,170.82 24.93,173.004 C24.93,175.164 23.91,177.132 21.666,177.132 Z M21.882,173.172 C22.674,173.172 23.454,172.68 23.886,171.972 C23.79,170.988 23.262,169.752 21.87,169.752 C20.646,169.752 20.034,170.676 20.034,171.444 C20.034,172.62 20.85,173.172 21.882,173.172 Z M29.202,177.144 C27.006,177.144 26.142,174.948 26.142,173.004 C26.142,171.048 27.006,168.876 29.202,168.876 C31.386,168.876 32.262,171.048 32.262,173.004 C32.262,174.948 31.386,177.144 29.202,177.144 Z M29.202,176.256 C30.726,176.256 31.242,174.6 31.242,173.004 C31.242,171.408 30.726,169.764 29.202,169.764 C27.678,169.764 27.162,171.408 27.162,173.004 C27.162,174.6 27.678,176.256 29.202,176.256 Z M39.438,177.144 C40.494,177.144 41.118,176.712 41.562,176.136 L40.962,175.584 C40.578,176.1 40.086,176.34 39.486,176.34 C38.262,176.34 37.482,175.38 37.482,174.096 C37.482,172.812 38.262,171.864 39.486,171.864 C40.086,171.864 40.578,172.08 40.962,172.608 L41.562,172.068 C41.118,171.492 40.494,171.06 39.438,171.06 C37.71,171.06 36.546,172.38 36.546,174.096 C36.546,175.812 37.71,177.144 39.438,177.144 Z M50.73,177 L50.73,172.812 C50.73,171.648 50.166,171.06 49.11,171.06 C48.27,171.06 47.49,171.612 47.166,172.14 C46.998,171.54 46.494,171.06 45.618,171.06 C44.754,171.06 43.986,171.672 43.734,172.044 L43.734,171.204 L42.834,171.204 L42.834,177 L43.734,177 L43.734,172.764 C44.046,172.296 44.67,171.864 45.258,171.864 C46.026,171.864 46.326,172.332 46.326,173.064 L46.326,177 L47.226,177 L47.226,172.752 C47.526,172.284 48.162,171.864 48.762,171.864 C49.518,171.864 49.83,172.332 49.83,173.064 L49.83,177 L50.73,177 Z" id="190-cm-copy" fill="#5D6E8A"></path>
                <path d="M51.376,109 L51.376,100.996 L50.5,100.996 L48.496,103.06 L49.096,103.672 L50.38,102.304 L50.38,109 L51.376,109 Z M55.984,109.144 C53.788,109.144 52.924,106.948 52.924,105.004 C52.924,103.048 53.788,100.876 55.984,100.876 C58.168,100.876 59.044,103.048 59.044,105.004 C59.044,106.948 58.168,109.144 55.984,109.144 Z M55.984,108.256 C57.508,108.256 58.024,106.6 58.024,105.004 C58.024,103.408 57.508,101.764 55.984,101.764 C54.46,101.764 53.944,103.408 53.944,105.004 C53.944,106.6 54.46,108.256 55.984,108.256 Z M63.328,109.144 C61.132,109.144 60.268,106.948 60.268,105.004 C60.268,103.048 61.132,100.876 63.328,100.876 C65.512,100.876 66.388,103.048 66.388,105.004 C66.388,106.948 65.512,109.144 63.328,109.144 Z M63.328,108.256 C64.852,108.256 65.368,106.6 65.368,105.004 C65.368,103.408 64.852,101.764 63.328,101.764 C61.804,101.764 61.288,103.408 61.288,105.004 C61.288,106.6 61.804,108.256 63.328,108.256 Z M73.564,109.144 C74.62,109.144 75.244,108.712 75.688,108.136 L75.088,107.584 C74.704,108.1 74.212,108.34 73.612,108.34 C72.388,108.34 71.608,107.38 71.608,106.096 C71.608,104.812 72.388,103.864 73.612,103.864 C74.212,103.864 74.704,104.08 75.088,104.608 L75.688,104.068 C75.244,103.492 74.62,103.06 73.564,103.06 C71.836,103.06 70.672,104.38 70.672,106.096 C70.672,107.812 71.836,109.144 73.564,109.144 Z M84.856,109 L84.856,104.812 C84.856,103.648 84.292,103.06 83.236,103.06 C82.396,103.06 81.616,103.612 81.292,104.14 C81.124,103.54 80.62,103.06 79.744,103.06 C78.88,103.06 78.112,103.672 77.86,104.044 L77.86,103.204 L76.96,103.204 L76.96,109 L77.86,109 L77.86,104.764 C78.172,104.296 78.796,103.864 79.384,103.864 C80.152,103.864 80.452,104.332 80.452,105.064 L80.452,109 L81.352,109 L81.352,104.752 C81.652,104.284 82.288,103.864 82.888,103.864 C83.644,103.864 83.956,104.332 83.956,105.064 L83.956,109 L84.856,109 Z" id="100-cm" fill="#5D6E8A"></path>
                <path d="M196.508,109 L196.508,100.996 L195.632,100.996 L193.628,103.06 L194.228,103.672 L195.512,102.304 L195.512,109 L196.508,109 Z M201.056,109.144 C202.664,109.144 203.912,108.124 203.912,106.504 C203.912,104.848 202.7,103.948 201.356,103.948 C200.552,103.948 199.88,104.284 199.484,104.668 L199.484,101.884 L203.384,101.884 L203.384,100.996 L198.488,100.996 L198.488,105.304 L199.22,105.556 C199.76,105.04 200.372,104.812 201.068,104.812 C202.148,104.812 202.904,105.484 202.904,106.54 C202.904,107.512 202.148,108.256 201.056,108.256 C200.084,108.256 199.376,107.872 198.848,107.188 L198.236,107.86 C198.836,108.652 199.712,109.144 201.056,109.144 Z M208.196,109.144 C206,109.144 205.136,106.948 205.136,105.004 C205.136,103.048 206,100.876 208.196,100.876 C210.38,100.876 211.256,103.048 211.256,105.004 C211.256,106.948 210.38,109.144 208.196,109.144 Z M208.196,108.256 C209.72,108.256 210.236,106.6 210.236,105.004 C210.236,103.408 209.72,101.764 208.196,101.764 C206.672,101.764 206.156,103.408 206.156,105.004 C206.156,106.6 206.672,108.256 208.196,108.256 Z M218.432,109.144 C219.488,109.144 220.112,108.712 220.556,108.136 L219.956,107.584 C219.572,108.1 219.08,108.34 218.48,108.34 C217.256,108.34 216.476,107.38 216.476,106.096 C216.476,104.812 217.256,103.864 218.48,103.864 C219.08,103.864 219.572,104.08 219.956,104.608 L220.556,104.068 C220.112,103.492 219.488,103.06 218.432,103.06 C216.704,103.06 215.54,104.38 215.54,106.096 C215.54,107.812 216.704,109.144 218.432,109.144 Z M229.724,109 L229.724,104.812 C229.724,103.648 229.16,103.06 228.104,103.06 C227.264,103.06 226.484,103.612 226.16,104.14 C225.992,103.54 225.488,103.06 224.612,103.06 C223.748,103.06 222.98,103.672 222.728,104.044 L222.728,103.204 L221.828,103.204 L221.828,109 L222.728,109 L222.728,104.764 C223.04,104.296 223.664,103.864 224.252,103.864 C225.02,103.864 225.32,104.332 225.32,105.064 L225.32,109 L226.22,109 L226.22,104.752 C226.52,104.284 227.156,103.864 227.756,103.864 C228.512,103.864 228.824,104.332 228.824,105.064 L228.824,109 L229.724,109 Z" id="150-cm" fill="#5D6E8A"></path>
                <path d="M117.338,109 L117.338,100.996 L116.462,100.996 L114.458,103.06 L115.058,103.672 L116.342,102.304 L116.342,109 L117.338,109 Z M121.466,109.144 C123.23,109.144 124.31,108.172 124.31,106.84 C124.31,105.544 123.182,104.932 122.462,104.86 C123.206,104.74 124.178,104.164 124.178,103 C124.178,101.656 123.014,100.876 121.478,100.876 C120.23,100.876 119.306,101.404 118.73,102.112 L119.282,102.736 C119.87,102.1 120.518,101.764 121.394,101.764 C122.366,101.764 123.182,102.244 123.182,103.132 C123.182,104.056 122.33,104.452 121.322,104.452 C120.998,104.452 120.626,104.452 120.494,104.44 L120.494,105.352 C120.614,105.34 120.986,105.34 121.322,105.34 C122.498,105.34 123.314,105.76 123.314,106.756 C123.314,107.668 122.606,108.256 121.442,108.256 C120.494,108.256 119.678,107.824 119.21,107.2 L118.622,107.824 C119.114,108.544 120.11,109.144 121.466,109.144 Z M128.57,109.144 C130.178,109.144 131.426,108.124 131.426,106.504 C131.426,104.848 130.214,103.948 128.87,103.948 C128.066,103.948 127.394,104.284 126.998,104.668 L126.998,101.884 L130.898,101.884 L130.898,100.996 L126.002,100.996 L126.002,105.304 L126.734,105.556 C127.274,105.04 127.886,104.812 128.582,104.812 C129.662,104.812 130.418,105.484 130.418,106.54 C130.418,107.512 129.662,108.256 128.57,108.256 C127.598,108.256 126.89,107.872 126.362,107.188 L125.75,107.86 C126.35,108.652 127.226,109.144 128.57,109.144 Z M138.602,109.144 C139.658,109.144 140.282,108.712 140.726,108.136 L140.126,107.584 C139.742,108.1 139.25,108.34 138.65,108.34 C137.426,108.34 136.646,107.38 136.646,106.096 C136.646,104.812 137.426,103.864 138.65,103.864 C139.25,103.864 139.742,104.08 140.126,104.608 L140.726,104.068 C140.282,103.492 139.658,103.06 138.602,103.06 C136.874,103.06 135.71,104.38 135.71,106.096 C135.71,107.812 136.874,109.144 138.602,109.144 Z M149.894,109 L149.894,104.812 C149.894,103.648 149.33,103.06 148.274,103.06 C147.434,103.06 146.654,103.612 146.33,104.14 C146.162,103.54 145.658,103.06 144.782,103.06 C143.918,103.06 143.15,103.672 142.898,104.044 L142.898,103.204 L141.998,103.204 L141.998,109 L142.898,109 L142.898,104.764 C143.21,104.296 143.834,103.864 144.422,103.864 C145.19,103.864 145.49,104.332 145.49,105.064 L145.49,109 L146.39,109 L146.39,104.752 C146.69,104.284 147.326,103.864 147.926,103.864 C148.682,103.864 148.994,104.332 148.994,105.064 L148.994,109 L149.894,109 Z" id="135-cm" fill="#5D6E8A"></path>
                <path d="M288.394,109 L288.394,108.112 L284.47,108.112 C286.702,106.348 288.358,104.86 288.358,103.228 C288.358,101.632 287.002,100.876 285.67,100.876 C284.542,100.876 283.498,101.32 282.886,102.136 L283.498,102.772 C283.966,102.172 284.71,101.764 285.67,101.764 C286.498,101.764 287.35,102.196 287.35,103.228 C287.35,104.608 285.778,105.94 282.898,108.196 L282.898,109 L288.394,109 Z M292.978,109.144 C290.782,109.144 289.918,106.948 289.918,105.004 C289.918,103.048 290.782,100.876 292.978,100.876 C295.162,100.876 296.038,103.048 296.038,105.004 C296.038,106.948 295.162,109.144 292.978,109.144 Z M292.978,108.256 C294.502,108.256 295.018,106.6 295.018,105.004 C295.018,103.408 294.502,101.764 292.978,101.764 C291.454,101.764 290.938,103.408 290.938,105.004 C290.938,106.6 291.454,108.256 292.978,108.256 Z M300.322,109.144 C298.126,109.144 297.262,106.948 297.262,105.004 C297.262,103.048 298.126,100.876 300.322,100.876 C302.506,100.876 303.382,103.048 303.382,105.004 C303.382,106.948 302.506,109.144 300.322,109.144 Z M300.322,108.256 C301.846,108.256 302.362,106.6 302.362,105.004 C302.362,103.408 301.846,101.764 300.322,101.764 C298.798,101.764 298.282,103.408 298.282,105.004 C298.282,106.6 298.798,108.256 300.322,108.256 Z M310.558,109.144 C311.614,109.144 312.238,108.712 312.682,108.136 L312.082,107.584 C311.698,108.1 311.206,108.34 310.606,108.34 C309.382,108.34 308.602,107.38 308.602,106.096 C308.602,104.812 309.382,103.864 310.606,103.864 C311.206,103.864 311.698,104.08 312.082,104.608 L312.682,104.068 C312.238,103.492 311.614,103.06 310.558,103.06 C308.83,103.06 307.666,104.38 307.666,106.096 C307.666,107.812 308.83,109.144 310.558,109.144 Z M321.85,109 L321.85,104.812 C321.85,103.648 321.286,103.06 320.23,103.06 C319.39,103.06 318.61,103.612 318.286,104.14 C318.118,103.54 317.614,103.06 316.738,103.06 C315.874,103.06 315.106,103.672 314.854,104.044 L314.854,103.204 L313.954,103.204 L313.954,109 L314.854,109 L314.854,104.764 C315.166,104.296 315.79,103.864 316.378,103.864 C317.146,103.864 317.446,104.332 317.446,105.064 L317.446,109 L318.346,109 L318.346,104.752 C318.646,104.284 319.282,103.864 319.882,103.864 C320.638,103.864 320.95,104.332 320.95,105.064 L320.95,109 L321.85,109 Z" id="200-cm" fill="#5D6E8A"></path>
                <polyline id="Page-1-Copy-7" stroke="#9CBAEE" stroke-width="0.5544" stroke-linecap="square" transform="translate(43.907629, 100.786411) rotate(-90.000000) translate(-43.907629, -100.786411) " points="49.6940399 97.8787818 38.1212182 97.8787818 38.1212182 103.69404"></polyline>
                <polyline id="Page-1-Copy-8" stroke="#9CBAEE" stroke-width="0.5544" stroke-linecap="square" transform="translate(103.738866, 100.786411) rotate(-90.000000) translate(-103.738866, -100.786411) " points="109.525277 95.0475452 97.9524548 95.0475452 97.9524548 106.525277"></polyline>
                <polyline id="Page-1-Copy-9" stroke="#9CBAEE" stroke-width="0.5544" stroke-linecap="square" transform="translate(178.738866, 100.786411) rotate(-90.000000) translate(-178.738866, -100.786411) " points="184.525277 95.0475452 172.952455 95.0475452 172.952455 106.525277"></polyline>
                <polyline id="Page-1-Copy-12" stroke="#9CBAEE" stroke-width="0.5544" stroke-linecap="square" transform="translate(264.705231, 100.786411) rotate(-90.000000) translate(-264.705231, -100.786411) " points="270.491642 90.0811795 258.91882 90.0811795 258.91882 111.491642"></polyline>
                <polyline id="Page-1-Copy-7" stroke="#9CBAEE" stroke-width="0.5544" stroke-linecap="square" transform="translate(88.907629, 100.786411) scale(-1, 1) rotate(-90.000000) translate(-88.907629, -100.786411) " points="94.6940399 97.8787818 83.1212182 97.8787818 83.1212182 103.69404"></polyline>
                <polyline id="Page-1-Copy-10" stroke="#9CBAEE" stroke-width="0.5544" stroke-linecap="square" transform="translate(160.160315, 100.786411) scale(-1, 1) rotate(-90.000000) translate(-160.160315, -100.786411) " points="165.946725 94.6260962 154.373904 94.6260962 154.373904 106.946725"></polyline>
                <polyline id="Page-1-Copy-11" stroke="#9CBAEE" stroke-width="0.5544" stroke-linecap="square" transform="translate(243.160315, 100.786411) scale(-1, 1) rotate(-90.000000) translate(-243.160315, -100.786411) " points="248.946725 94.6260962 237.373904 94.6260962 237.373904 106.946725"></polyline>
                <polyline id="Page-1-Copy-13" stroke="#9CBAEE" stroke-width="0.5544" stroke-linecap="square" transform="translate(342.242834, 100.786411) scale(-1, 1) rotate(-90.000000) translate(-342.242834, -100.786411) " points="348.029245 87.5435767 336.456423 87.5435767 336.456423 114.029245"></polyline>
                <g id="Page-1" transform="translate(58.000000, 122.000000)">
                    <path d="M93.890157,102.309375 C93.890157,103.309757 93.0775176,104.127286 92.0842917,104.127286 L2.06982787,104.127286 C1.07660197,104.127286 0.263962589,103.309757 0.263962589,102.309375 L0.263962589,2.08400642 C0.263962589,1.0836238 1.07660197,0.266095397 2.06982787,0.266095397 L92.0842917,0.266095397 C93.0775176,0.266095397 93.890157,1.0836238 93.890157,2.08400642 L93.890157,102.309375 Z" id="Fill-1" fill="#FFFFFF"></path>
                    <path d="M93.8298559,102.309375 C93.8298559,103.309757 93.0177445,104.127286 92.0239906,104.127286 L2.00952676,104.127286 C1.01682888,104.127286 0.203661473,103.309757 0.203661473,102.309375 L0.203661473,93.7396782 C0.203661473,92.7398272 1.01682888,91.9217672 2.00952676,91.9217672 L92.0239906,91.9217672 C93.0177445,91.9217672 93.8298559,92.7398272 93.8298559,93.7396782 L93.8298559,102.309375 Z" id="Fill-3" fill="#404E61"></path>
                    <path d="M92.9207453,91.9217672 L1.11308889,91.9217672 C0.613043741,91.9217672 0.203819883,92.1965801 0.203819883,92.53199 L0.203819883,96.4734549 L93.8300143,96.4734549 L93.8300143,92.53199 C93.8300143,92.1965801 93.4202624,91.9217672 92.9207453,91.9217672" id="Fill-5" fill="#F6F9FF"></path>
                    <polygon id="Fill-7" fill="#7B9FD6" points="0.203819883 97.2141208 93.8300143 97.2141208 93.8300143 96.473136 0.203819883 96.473136"></polygon>
                    <polygon id="Fill-9" fill="#7B9FD6" points="44.0926826 100.490082 50.0610146 100.490082 50.0610146 96.5491481 44.0926826 96.5491481"></polygon>
                    <path d="M48.6605185,98.7198508 C48.5918745,98.7538702 48.5242866,98.7847002 48.4598668,98.8213774 C48.4250168,98.8415764 48.4033675,98.8771904 48.4028395,98.9202462 C48.4012554,98.9951952 48.3991433,99.0701442 48.4033675,99.1450931 C48.4070637,99.2157897 48.4646191,99.2630979 48.5343192,99.2615032 C48.6056033,99.2599086 48.6605185,99.209411 48.6615746,99.1371198 C48.6642147,99.0026369 48.6631587,98.8686856 48.6631587,98.7342027 C48.6631587,98.7310134 48.6621026,98.7283556 48.6605185,98.7198508 M48.4023115,98.4450379 L48.2391499,98.4450379 C48.2391499,98.3865671 48.2370378,98.3275647 48.239678,98.2685623 C48.2423181,98.2159386 48.2639674,98.1686304 48.2982894,98.1282324 C48.3658773,98.0469048 48.4551145,98.0219218 48.5554404,98.0267058 C48.6378132,98.0314897 48.7101534,98.0628514 48.7645406,98.1277008 C48.8004467,98.1696935 48.8242081,98.2191279 48.8247361,98.2738779 C48.8273762,98.5577271 48.8289603,98.8415764 48.8289603,99.1259572 C48.8289603,99.1578504 48.823152,99.1913382 48.8141755,99.2216367 C48.7877739,99.3130638 48.7244102,99.3710031 48.6367571,99.3986439 C48.549632,99.4262846 48.4619789,99.4215006 48.3796061,99.3789764 C48.2972333,99.3364522 48.2481265,99.2673503 48.240206,99.1743285 C48.2338696,99.0935325 48.2328136,99.0122049 48.2354537,98.9308773 C48.2386219,98.7985206 48.309378,98.7102828 48.4266009,98.6571275 C48.4994691,98.6231081 48.5728654,98.5906834 48.6457337,98.5556009 C48.6536541,98.5524116 48.6626306,98.5401859 48.6626306,98.531681 C48.6636867,98.4567321 48.6642147,98.3812516 48.6621026,98.3063026 C48.6594625,98.2313536 48.6061313,98.1803246 48.5343192,98.1792614 C48.4614509,98.1776668 48.4075918,98.224975 48.4028395,98.2993924 C48.3996713,98.3467006 48.4023115,98.3945404 48.4023115,98.4450379" id="Fill-10" fill="#FFFFFF"></path>
                    <path d="M47.5755737,99.3889696 L47.4124121,99.3889696 C47.4118841,99.3799332 47.4108281,99.3724915 47.4108281,99.3645182 C47.4108281,99.0179457 47.4108281,98.6708416 47.4113561,98.3242691 C47.4113561,98.253041 47.426141,98.1860653 47.4731357,98.1297207 C47.5433638,98.0452038 47.6368252,98.0196893 47.7419034,98.0276626 C47.8131875,98.0335096 47.8754951,98.0606188 47.9272422,98.1121795 C47.9853256,98.1706503 48.0053907,98.2450677 48.0059188,98.3242691 C48.0069748,98.6745625 48.0059188,99.0248558 48.0059188,99.3756808 C48.0059188,99.3788701 48.0053907,99.3820594 48.0048627,99.3879065 L47.8395891,99.3879065 L47.8395891,99.357608 C47.8395891,99.0142248 47.839061,98.6708416 47.8395891,98.32799 C47.8401171,98.2737716 47.8253322,98.2275265 47.7772814,98.1993541 C47.68382,98.1435411 47.5803259,98.2041381 47.5761017,98.3173589 C47.5750456,98.343405 47.5761017,98.3689195 47.5755737,98.3949656 L47.5755737,99.3560133 L47.5755737,99.3889696 Z" id="Fill-11" fill="#FFFFFF"></path>
                    <path d="M46.1616656,98.052805 L46.3274673,98.052805 C46.3279953,98.0629045 46.3285234,98.0714094 46.3285234,98.0799142 C46.3285234,98.4232974 46.3290514,98.7666806 46.3285234,99.1095322 C46.3279953,99.1919229 46.3110983,99.267935 46.2514309,99.3280005 C46.2012679,99.3779665 46.1410724,99.4045441 46.0713724,99.4119858 C46.0043125,99.418896 45.9404207,99.4109227 45.8802252,99.3800927 C45.7983805,99.3381 45.7513857,99.2705928 45.739241,99.1791657 C45.7344887,99.1446147 45.7339607,99.1084691 45.7334327,99.0733866 L45.7334327,98.0857613 L45.7334327,98.052805 L45.8981783,98.052805 L45.8981783,98.0846982 L45.8981783,99.1095322 C45.8981783,99.1589667 45.9076828,99.2052118 45.9515094,99.2360418 C45.996392,99.2674035 46.0449708,99.2695297 46.0930216,99.2456098 C46.1389603,99.2232846 46.1616656,99.1834181 46.1616656,99.1318575 L46.1616656,98.0884191 L46.1616656,98.052805 Z" id="Fill-12" fill="#FFFFFF"></path>
                    <path d="M46.572632,98.052805 L46.7373776,98.052805 L46.7373776,98.0852297 L46.7373776,99.1095322 C46.7373776,99.1589667 46.7463541,99.2052118 46.7901807,99.2360418 C46.8350633,99.2674035 46.8841702,99.2695297 46.932221,99.2456098 C46.9781596,99.222753 47.0003369,99.1828865 47.0003369,99.1313259 C47.000865,98.7836903 47.000865,98.4360547 47.000865,98.0884191 L47.000865,98.052805 L47.1666666,98.052805 C47.1666666,98.0629045 47.1677227,98.0714094 47.1677227,98.0804458 L47.1677227,99.107406 C47.1671947,99.1903283 47.1508257,99.2674035 47.0895741,99.3280005 C47.0399392,99.378498 46.9797437,99.4045441 46.9100437,99.4119858 C46.8429838,99.418896 46.779092,99.4109227 46.7183685,99.3795611 C46.6365237,99.3381 46.589529,99.2700612 46.5779123,99.1791657 C46.57316,99.1440832 46.572632,99.1084691 46.572632,99.0733866 C46.572104,98.7443554 46.572632,98.4147926 46.572632,98.0857613 L46.572632,98.052805 Z" id="Fill-13" fill="#FFFFFF"></path>
                    <polygon id="Fill-14" fill="#FFFFFF" points="45.2168392 99.2337562 45.5303643 99.2337562 45.5303643 99.3879065 45.0656321 99.3879065 45.0656321 97.6231508 45.2168392 97.6231508"></polygon>
                    <path d="M49.0610235,97.8170811 C49.0610235,97.8665101 49.0213292,97.9063279 48.9720535,97.9063279 C48.9227778,97.9063279 48.8830835,97.8665101 48.8830835,97.8170811 C48.8830835,97.7681097 48.9227778,97.7282919 48.9720535,97.7282919 C49.0213292,97.7282919 49.0610235,97.7681097 49.0610235,97.8170811" id="Fill-15" fill="#FFFFFF"></path>
                    <path d="M93.890157,102.309375 C93.890157,103.309757 93.0775176,104.127286 92.0842917,104.127286 L2.06982787,104.127286 C1.07660197,104.127286 0.263962589,103.309757 0.263962589,102.309375 L0.263962589,2.08400642 C0.263962589,1.0836238 1.07660197,0.266095397 2.06982787,0.266095397 L92.0842917,0.266095397 C93.0775176,0.266095397 93.890157,1.0836238 93.890157,2.08400642 L93.890157,102.309375 Z" id="Stroke-16" stroke="#404E61" stroke-width="0.6"></path>
                    <path d="M93.890157,102.309375 C93.890157,103.309757 93.0775176,104.127286 92.0842917,104.127286 L2.06982787,104.127286 C1.07660197,104.127286 0.263962589,103.309757 0.263962589,102.309375 L0.263962589,2.08400642 C0.263962589,1.0836238 1.07660197,0.266095397 2.06982787,0.266095397 L92.0842917,0.266095397 C93.0775176,0.266095397 93.890157,1.0836238 93.890157,2.08400642 L93.890157,102.309375 Z" id="Stroke-17" stroke="#5D6E8A" stroke-width="0.6"></path>
                </g>
                <g id="Group-71" transform="translate(255.000000, 0.000000)">
                    <path d="M100.009498,92.2655781 C100.009498,93.2821227 99.1793374,94.1128589 98.1646961,94.1128589 L1.8913647,94.1128589 C0.877262812,94.1128589 0.0471017438,93.2821227 0.0471017438,92.2655781 L0.0471017438,1.88925365 C0.0471017438,0.873249193 0.877262812,0.0419728167 1.8913647,0.0419728167 L98.1646961,0.0419728167 C99.1793374,0.0419728167 100.009498,0.873249193 100.009498,1.88925365 L100.009498,92.2655781 Z" id="Fill-7" fill="#FFFFFF"></path>
                    <path d="M100.009498,92.2655781 C100.009498,93.2821227 99.1793374,94.1128589 98.1646961,94.1128589 L1.8913647,94.1128589 C0.877262812,94.1128589 0.0471017438,93.2821227 0.0471017438,92.2655781 L0.0471017438,83.5574314 C0.0471017438,82.541427 0.877262812,81.7101506 1.8913647,81.7101506 L98.1646961,81.7101506 C99.1793374,81.7101506 100.009498,82.541427 100.009498,83.5574314 L100.009498,92.2655781 Z" id="Fill-42" fill="#404E61"></path>
                    <path d="M99.0802467,81.7101506 L0.975598331,81.7101506 C0.464771474,81.7101506 0.0467241526,81.9894033 0.0467241526,82.330232 L0.0467241526,86.3353745 L100.00966,86.3353745 L100.00966,82.330232 C100.00966,81.9894033 99.5910736,81.7101506 99.0802467,81.7101506" id="Fill-43" fill="#F6F9FF"></path>
                    <polygon id="Fill-44" fill="#7B9FD6" points="0.0473175101 87.0880064 100.009714 87.0880064 100.009714 86.3350504 0.0473175101 86.3350504"></polygon>
                    <polygon id="Fill-45" fill="#7B9FD6" points="47.6421399 90.4168929 53.7386184 90.4168929 53.7386184 86.4122905 47.6421399 86.4122905"></polygon>
                    <path d="M52.3080335,88.6180627 C52.2379095,88.6526317 52.1688642,88.6839598 52.1035949,88.7212295 C52.067454,88.7417549 52.045338,88.7779443 52.0447986,88.8216957 C52.0437197,88.8978555 52.0415621,88.9740153 52.045338,89.0501752 C52.0496533,89.1220139 52.1084496,89.1700864 52.1796525,89.1684659 C52.2524737,89.1668455 52.3080335,89.1155322 52.3096518,89.042073 C52.3118094,88.9054175 52.3107306,88.769302 52.31127,88.6326465 C52.31127,88.6294056 52.3096518,88.6267049 52.3080335,88.6180627 M52.0442591,88.33881 L51.878119,88.33881 C51.878119,88.2793945 51.875422,88.2194389 51.8786585,88.1594833 C51.8813555,88.1060094 51.9034716,88.0579369 51.9379942,88.0168862 C52.0070394,87.9342447 52.0982007,87.9088581 52.2006898,87.9137193 C52.2848386,87.9185806 52.3587386,87.9504489 52.4148379,88.0163461 C52.4509787,88.0590172 52.4752524,88.1092502 52.4757919,88.1648847 C52.4784889,88.4533198 52.4801072,88.7417549 52.4806466,89.0307301 C52.4806466,89.0631385 52.4741736,89.0971674 52.4650035,89.1279554 C52.4380328,89.2208596 52.3733028,89.2797349 52.2837598,89.3078222 C52.1947562,89.3359095 52.1052131,89.3310483 52.0210643,89.287837 C51.9369154,89.2446258 51.8867497,89.1744075 51.8786585,89.0798829 C51.8721855,88.9977815 51.8711066,88.91514 51.8738037,88.8324985 C51.8775796,88.6980035 51.9493219,88.6083402 52.0690723,88.5543261 C52.1435117,88.5197571 52.2184905,88.4868085 52.2934693,88.4511592 C52.3010211,88.4479184 52.3101912,88.4354952 52.3101912,88.4268529 C52.31127,88.3506931 52.3118094,88.2739931 52.3096518,88.1978333 C52.3074941,88.1216735 52.2524737,88.06982 52.1791131,88.0687397 C52.1052131,88.0671193 52.0496533,88.1151918 52.045338,88.1908115 C52.0415621,88.238884 52.0442591,88.2874966 52.0442591,88.33881" id="Fill-46" fill="#FFFFFF"></path>
                    <path d="M51.2002351,89.2979917 L51.0330162,89.2979917 C51.0324767,89.2888093 51.0319373,89.2812473 51.0319373,89.2731452 L51.0319373,88.2160901 C51.0319373,88.1437112 51.0475804,88.0756535 51.095049,88.0183986 C51.1667913,87.9325162 51.2628073,87.9065895 51.3696117,87.9146916 C51.4424328,87.9206331 51.5066233,87.9481803 51.5589467,88.000574 C51.6182824,88.0599894 51.6393196,88.1356091 51.6393196,88.2160901 C51.6403985,88.5720427 51.639859,88.9279954 51.639859,89.2844881 C51.639859,89.287729 51.6387802,89.2909698 51.6382408,89.2969114 L51.4694036,89.2969114 L51.4694036,89.2661234 C51.4694036,88.9171925 51.4688642,88.5682617 51.469943,88.219871 C51.469943,88.1647767 51.4553788,88.1177845 51.4057525,88.089157 C51.3102759,88.0324422 51.2045504,88.0940183 51.2002351,88.2090682 C51.1991563,88.2355351 51.2002351,88.2614619 51.2002351,88.2879288 L51.2002351,89.2645029 L51.2002351,89.2979917 Z" id="Fill-47" fill="#FFFFFF"></path>
                    <path d="M49.7558411,87.9402402 L49.9246783,87.9402402 C49.9252177,87.9505029 49.9262966,87.9591452 49.9262966,87.9677874 C49.9262966,88.3167182 49.9262966,88.6656491 49.9257571,89.0140398 C49.9257571,89.0977615 49.9079564,89.1750017 49.8470024,89.2360375 C49.7957579,89.2868108 49.7342645,89.3138178 49.6630616,89.3213798 C49.5945558,89.3284016 49.5292865,89.3202995 49.467793,89.2889713 C49.3841836,89.2463002 49.336715,89.1777024 49.323769,89.0847982 C49.3189143,89.049689 49.3183748,89.0129595 49.3183748,88.9773102 C49.3178354,88.6429632 49.3178354,88.3086161 49.3178354,87.973729 L49.3178354,87.9402402 L49.4861332,87.9402402 L49.4861332,87.9726487 L49.4861332,89.0140398 C49.4861332,89.0642728 49.4963821,89.1112651 49.5406142,89.1425932 C49.5864645,89.1744615 49.6360908,89.1766221 49.6851777,89.1523157 C49.7321068,89.1296298 49.7553017,89.0891193 49.7553017,89.0367257 C49.7558411,88.6834737 49.7558411,88.3302218 49.7558411,87.9764297 L49.7558411,87.9402402 Z" id="Fill-48" fill="#FFFFFF"></path>
                    <path d="M50.1751291,87.9402402 L50.3434269,87.9402402 L50.3434269,87.9731888 L50.3434269,89.0140398 C50.3434269,89.0642728 50.3525969,89.1112651 50.3973685,89.1425932 C50.4437582,89.1744615 50.4933845,89.1766221 50.5424713,89.1523157 C50.5894005,89.1290897 50.6125954,89.0885792 50.6125954,89.0361855 C50.6125954,88.6829336 50.6125954,88.3296816 50.6131348,87.9764297 L50.6131348,87.9402402 L50.781972,87.9402402 C50.7825114,87.9505029 50.7830508,87.9591452 50.7830508,87.9683276 C50.7830508,88.3161781 50.7835902,88.6640286 50.7830508,89.0118792 C50.7825114,89.0961411 50.7657895,89.1744615 50.7032173,89.2360375 C50.6530516,89.2873509 50.5910188,89.3138178 50.5198159,89.3213798 C50.4513101,89.3284016 50.3860407,89.3202995 50.3240079,89.2884312 C50.2403984,89.2463002 50.1929298,89.1771622 50.1805233,89.0847982 C50.1762079,89.0491489 50.1751291,89.0129595 50.1751291,88.9773102 L50.1751291,87.973729 L50.1751291,87.9402402 Z" id="Fill-49" fill="#FFFFFF"></path>
                    <polygon id="Fill-50" fill="#FFFFFF" points="48.8044733 89.1402706 49.1550936 89.1402706 49.1550936 89.2969114 48.6356361 89.2969114 48.6356361 87.5036446 48.8044733 87.5036446"></polygon>
                    <path d="M52.7635117,87.7239567 C52.7635117,87.7871268 52.7126246,87.8380139 52.6500394,87.8380139 C52.5862844,87.8380139 52.5353973,87.7871268 52.5353973,87.7239567 C52.5353973,87.6613715 52.5862844,87.6104844 52.6500394,87.6104844 C52.7126246,87.6104844 52.7635117,87.6613715 52.7635117,87.7239567" id="Fill-51" fill="#FFFFFF"></path>
                    <path d="M100.009498,92.2655781 C100.009498,93.2821227 99.1793374,94.1128589 98.1646961,94.1128589 L1.8913647,94.1128589 C0.877262812,94.1128589 0.0471017438,93.2821227 0.0471017438,92.2655781 L0.0471017438,1.88925365 C0.0471017438,0.873249193 0.877262812,0.0419728167 1.8913647,0.0419728167 L98.1646961,0.0419728167 C99.1793374,0.0419728167 100.009498,0.873249193 100.009498,1.88925365 L100.009498,92.2655781 Z" id="Stroke-55" stroke="#5D6E8A" stroke-width="0.6"></path>
                </g>
                <g id="Group-7" transform="translate(59.000000, 236.000000)">
                    <path d="M32.386,14 L32.386,5.996 L31.51,5.996 L29.506,8.06 L30.106,8.672 L31.39,7.304 L31.39,14 L32.386,14 Z M36.814,14.144 C35.23,14.144 33.946,13.34 33.946,11.972 C33.946,10.904 34.858,10.172 35.854,9.872 C34.93,9.608 34.078,8.996 34.078,7.952 C34.078,6.512 35.482,5.876 36.814,5.876 C38.134,5.876 39.562,6.512 39.562,7.952 C39.562,8.996 38.698,9.608 37.774,9.872 C38.77,10.172 39.682,10.904 39.682,11.972 C39.682,13.328 38.386,14.144 36.814,14.144 Z M36.814,9.464 C37.306,9.38 38.554,9.056 38.554,8.084 C38.554,7.256 37.774,6.764 36.814,6.764 C35.842,6.764 35.086,7.256 35.086,8.084 C35.086,9.056 36.334,9.38 36.814,9.464 Z M36.814,13.256 C37.798,13.256 38.674,12.728 38.674,11.864 C38.674,10.82 37.306,10.376 36.814,10.316 C36.322,10.376 34.954,10.82 34.954,11.864 C34.954,12.728 35.818,13.256 36.814,13.256 Z M43.498,14.144 C45.262,14.144 46.342,13.172 46.342,11.84 C46.342,10.544 45.214,9.932 44.494,9.86 C45.238,9.74 46.21,9.164 46.21,8 C46.21,6.656 45.046,5.876 43.51,5.876 C42.262,5.876 41.338,6.404 40.762,7.112 L41.314,7.736 C41.902,7.1 42.55,6.764 43.426,6.764 C44.398,6.764 45.214,7.244 45.214,8.132 C45.214,9.056 44.362,9.452 43.354,9.452 C43.03,9.452 42.658,9.452 42.526,9.44 L42.526,10.352 C42.646,10.34 43.018,10.34 43.354,10.34 C44.53,10.34 45.346,10.76 45.346,11.756 C45.346,12.668 44.638,13.256 43.474,13.256 C42.526,13.256 41.71,12.824 41.242,12.2 L40.654,12.824 C41.146,13.544 42.142,14.144 43.498,14.144 Z M53.554,14.144 C54.61,14.144 55.234,13.712 55.678,13.136 L55.078,12.584 C54.694,13.1 54.202,13.34 53.602,13.34 C52.378,13.34 51.598,12.38 51.598,11.096 C51.598,9.812 52.378,8.864 53.602,8.864 C54.202,8.864 54.694,9.08 55.078,9.608 L55.678,9.068 C55.234,8.492 54.61,8.06 53.554,8.06 C51.826,8.06 50.662,9.38 50.662,11.096 C50.662,12.812 51.826,14.144 53.554,14.144 Z M64.846,14 L64.846,9.812 C64.846,8.648 64.282,8.06 63.226,8.06 C62.386,8.06 61.606,8.612 61.282,9.14 C61.114,8.54 60.61,8.06 59.734,8.06 C58.87,8.06 58.102,8.672 57.85,9.044 L57.85,8.204 L56.95,8.204 L56.95,14 L57.85,14 L57.85,9.764 C58.162,9.296 58.786,8.864 59.374,8.864 C60.142,8.864 60.442,9.332 60.442,10.064 L60.442,14 L61.342,14 L61.342,9.752 C61.642,9.284 62.278,8.864 62.878,8.864 C63.634,8.864 63.946,9.332 63.946,10.064 L63.946,14 L64.846,14 Z" id="183-cm" fill="#5D6E8A"></path>
                    <polyline id="Page-1-Copy-16" stroke="#9CBAEE" stroke-width="0.6336" stroke-linecap="square" transform="translate(10.775391, 7.213041) rotate(-90.000000) translate(-10.775391, -7.213041) " points="17.3884316 -3.56234964 4.16234964 -3.56234964 4.16234964 17.9884316"></polyline>
                    <polyline id="Page-1-Copy-17" stroke="#9CBAEE" stroke-width="0.6336" stroke-linecap="square" transform="translate(82.817761, 6.752689) scale(-1, 1) rotate(-90.000000) translate(-82.817761, -6.752689) " points="89.4308019 -3.54163404 76.20472 -3.54163404 76.20472 17.0470129"></polyline>
                </g>
                <circle id="Oval-4" stroke="#8BA7D4" cx="65.5" cy="42.5" r="10.5"></circle>
                <circle id="Oval-4-Copy" stroke="#8BA7D4" cx="133.5" cy="42.5" r="10.5"></circle>
                <circle id="Oval-4-Copy-2" stroke="#8BA7D4" cx="210.5" cy="42.5" r="10.5"></circle>
                <circle id="Oval-4-Copy-4" stroke="#8BA7D4" cx="104.5" cy="169.5" r="10.5"></circle>
                <circle id="Oval-4-Copy-3" stroke="#8BA7D4" cx="305.5" cy="42.5" r="10.5"></circle>
                <polygon id="I" fill="#404E61" points="66.852 47 66.852 38.996 65.148 38.996 65.148 47"></polygon>
                <polygon id="M" fill="#404E61" points="137.838 47 137.838 38.996 135.438 38.996 133.494 44 131.55 38.996 129.162 38.996 129.162 47 130.866 47 130.866 41.228 133.122 47 133.866 47 136.122 41.228 136.122 47"></polygon>
                <path d="M210.188,46.28 C207.764,46.28 206,44.552 206,42.14 C206,39.728 207.764,38 210.188,38 C212.6,38 214.364,39.728 214.364,42.14 C214.364,43.268 213.968,44.252 213.32,44.972 L213.908,45.656 L212.72,46.628 L212.072,45.884 C211.52,46.136 210.872,46.28 210.188,46.28 Z M210.188,44.768 C210.488,44.768 210.764,44.72 211.016,44.636 L210.14,43.604 L211.328,42.632 L212.204,43.664 C212.468,43.244 212.612,42.716 212.612,42.14 C212.612,40.64 211.664,39.512 210.188,39.512 C208.7,39.512 207.752,40.64 207.752,42.14 C207.752,43.628 208.7,44.768 210.188,44.768 Z" id="Q" fill="#404E61"></path>
                <path d="M100.742,174.144 C102.494,174.144 103.514,173.172 104.078,172.176 L102.614,171.468 C102.278,172.116 101.558,172.632 100.742,172.632 C99.278,172.632 98.222,171.516 98.222,170.004 C98.222,168.492 99.278,167.376 100.742,167.376 C101.558,167.376 102.278,167.892 102.614,168.54 L104.078,167.82 C103.514,166.812 102.494,165.864 100.742,165.864 C98.33,165.864 96.47,167.532 96.47,170.004 C96.47,172.464 98.33,174.144 100.742,174.144 Z M111.95,174 L108.554,169.752 L111.734,165.996 L109.634,165.996 L106.802,169.56 L106.802,165.996 L105.098,165.996 L105.098,174 L106.802,174 L106.802,171.54 L107.426,170.784 L109.85,174 L111.95,174 Z" id="CK" fill="#404E61"></path>
                <polygon id="K" fill="#404E61" points="308.828 47 305.432 42.752 308.612 38.996 306.512 38.996 303.68 42.56 303.68 38.996 301.976 38.996 301.976 47 303.68 47 303.68 44.54 304.304 43.784 306.728 47"></polygon>
            </g>
        </g>
    </g>
</svg>