<svg xmlns="http://www.w3.org/2000/svg" xmlns:xlink="http://www.w3.org/1999/xlink" width="1006" height="447" viewBox="0 0 1006 447">
    <defs>
        <path id="a" d="M1.418.009H0v5.007h1.418V.009z"/>
        <path id="c" d="M.666 1.015A.735.735 0 0 1 1.27.744c.023 0 .044 0 .066.002a.735.735 0 0 1 .548.27c.093.11.155.24.155.387.01.756.012 1.512.013 2.266a.922.922 0 0 1-.04.255.664.664 0 0 1-.463.47.845.845 0 0 1-.673-.051.65.65 0 0 1-.363-.544 5.623 5.623 0 0 1-.012-.649c.01-.35.193-.586.5-.728.19-.09.382-.177.572-.27.02-.01.044-.04.045-.063 0-.2.004-.4-.003-.6-.006-.199-.145-.334-.334-.338-.19-.003-.329.122-.343.319-.009.126-.002.253-.002.389H.512c0-.157-.008-.314 0-.469a.625.625 0 0 1 .154-.375zM.94 3.72c.011.184.155.31.33.31h.013a.329.329 0 0 0 .332-.33c.007-.356.004-.715.004-1.07 0-.01-.003-.019-.007-.04-.178.09-.355.173-.523.27a.301.301 0 0 0-.15.262c-.004.2-.01.4.001.598z"/>
        <path id="e" d="M.682 1.02c-.122.15-.16.328-.161.517v2.767c0 .022.002.041.003.065h.427V1.724c0-.068-.003-.137 0-.204.012-.301.282-.464.526-.315.126.076.163.198.163.34v2.821h.433a.206.206 0 0 0 .003-.034c0-.93.003-1.863 0-2.795 0-.212-.055-.409-.207-.565a.731.731 0 0 0-.483-.223 1.004 1.004 0 0 0-.099-.004.74.74 0 0 0-.605.275z"/>
        <path id="g" d="M1.606.815V.91c0 .925 0 1.85-.004 2.776a.317.317 0 0 1-.178.303.341.341 0 0 1-.37-.028c-.114-.081-.14-.205-.14-.335V.815H.486v2.716c0 .093.002.187.014.281.032.242.153.421.366.532a.847.847 0 0 0 .503.086c.18-.02.339-.09.468-.223.158-.159.204-.363.204-.58.002-.912 0-1.828 0-2.74 0-.024-.003-.046-.004-.072h-.431z"/>
        <path id="i" d="M1.622.815V.91l-.001 2.774a.321.321 0 0 1-.177.305.343.343 0 0 1-.372-.028c-.114-.081-.14-.204-.14-.334V.815H.504v.086L.504 3.53c0 .094.002.187.013.281.03.242.154.422.368.533a.839.839 0 0 0 .5.086.75.75 0 0 0 .47-.223c.16-.162.203-.367.203-.587V.888L2.056.815h-.434z"/>
        <path id="k" d="M.02.473a.27.27 0 0 0 .268.275c.149 0 .27-.121.27-.275a.273.273 0 0 0-.27-.276.271.271 0 0 0-.267.276z"/>
    </defs>
    <g fill="none" fill-rule="evenodd">
        <text fill="#5D6E8A" font-family="ProximaNova-Regular, Proxima Nova" font-size="16" transform="translate(-.361 27.67)">
            <tspan x=".772" y="106.485">190 cm</tspan>
        </text>
        <text fill="#5D6E8A" font-family="ProximaNova-Regular, Proxima Nova" font-size="18" transform="translate(-.361 27.67)">
            <tspan x="87.927" y="229.361">100 cm</tspan>
        </text>
        <text fill="#5D6E8A" font-family="ProximaNova-Regular, Proxima Nova" font-size="18" transform="translate(-.361 27.67)">
            <tspan x="233.28" y="229.361">135 cm</tspan>
        </text>
        <text fill="#5D6E8A" font-family="ProximaNova-Regular, Proxima Nova" font-size="18" transform="translate(-.361 27.67)">
            <tspan x="402.703" y="229.361">150 cm</tspan>
        </text>
        <text fill="#5D6E8A" font-family="ProximaNova-Regular, Proxima Nova" font-size="18" transform="translate(-.361 27.67)">
            <tspan x="609.017" y="229.038">200 cm</tspan>
        </text>
        <path stroke="#9CBAEE" stroke-linecap="square" stroke-width=".792" d="M54.32 27.67H37.789v82.202M61.027 240.047v16.533h16.615M185.923 240.047v16.533h35.019M348.484 240.047v16.533h45.141M512.76 240.047v16.533h-45.14M530.61 239.874v16.532h69.986M744.267 239.874v16.532H676.28M334.567 240.047v16.533h-35.019M170.142 240.047v16.533h-16.615M54.32 227.543H37.789v-73.478"/>
        <g>
            <text fill="#5D6E8A" font-family="ProximaNova-Semibold, Proxima Nova" font-size="18" font-weight="500" transform="translate(69.235 279.2)">
                <tspan x="1.141" y="18">INDIVIDUAL</tspan>
            </text>
            <text fill="#5D6E8A" font-family="ProximaNova-Semibold, Proxima Nova" font-size="18" font-weight="500" transform="translate(69.235 279.2)">
                <tspan x="128.375" y="18">MATRIMONIAL</tspan>
            </text>
            <text fill="#5D6E8A" font-family="ProximaNova-Semibold, Proxima Nova" font-size="18" font-weight="500" transform="translate(69.235 279.2)">
                <tspan x="309.401" y="18">QUEEN SIZE</tspan>
            </text>
            <text fill="#5D6E8A" font-family="ProximaNova-Semibold, Proxima Nova" font-size="18" font-weight="500" transform="translate(69.235 279.2)">
                <tspan x="526.213" y="18">KING SIZE</tspan>
            </text>
            <text fill="#5D6E8A" font-family="ProximaNova-Semibold, Proxima Nova" font-size="18" font-weight="500" transform="translate(69.235 279.2)">
                <tspan x="764.21" y="19.037">CALIFORNIA KING</tspan>
            </text>
            <text fill="#5D6E8A" font-family="ProximaNova-Regular, Proxima Nova" font-size="17.424" transform="translate(69.235 279.2)">
                <tspan x="15.491" y="50.664">$7,990.00</tspan>
            </text>
            <text fill="#6080BB" font-family="ProximaNova-Regular, Proxima Nova" font-size="14" transform="translate(69.235 279.2)">
                <tspan x="38.164" y="81.398">21 kg</tspan>
            </text>
            <text fill="#5D6E8A" font-family="ProximaNova-Regular, Proxima Nova" font-size="17.424" transform="translate(69.235 279.2)">
                <tspan x="145.773" y="52.02">$10,990.00</tspan>
            </text>
            <text fill="#6080BB" font-family="ProximaNova-Regular, Proxima Nova" font-size="14" transform="translate(69.235 279.2)">
                <tspan x="171.056" y="81.398">29 kg</tspan>
            </text>
            <text fill="#5D6E8A" font-family="ProximaNova-Regular, Proxima Nova" font-size="17.424" transform="translate(69.235 279.2)">
                <tspan x="317.603" y="52.02">$12,990.00</tspan>
            </text>
            <text fill="#6080BB" font-family="ProximaNova-Regular, Proxima Nova" font-size="14" transform="translate(69.235 279.2)">
                <tspan x="344.927" y="81.398">31 kg</tspan>
            </text>
            <text fill="#5D6E8A" font-family="ProximaNova-Regular, Proxima Nova" font-size="17.424" transform="translate(69.235 279.2)">
                <tspan x="524.572" y="50.309">$16,490.00</tspan>
            </text>
            <text fill="#5D6E8A" font-family="ProximaNova-Regular, Proxima Nova" font-size="17.424" transform="translate(69.235 279.2)">
                <tspan x="795.626" y="50.309">$16,990.00</tspan>
            </text>
            <text fill="#6080BB" font-family="ProximaNova-Regular, Proxima Nova" font-size="14" transform="translate(69.235 279.2)">
                <tspan x="554.191" y="81.096">41 kg</tspan>
            </text>
            <text fill="#6080BB" font-family="ProximaNova-Regular, Proxima Nova" font-size="14" transform="translate(69.235 279.2)">
                <tspan x="821.681" y="82.054">44 kg</tspan>
            </text>
        </g>
        <g>
            <text fill="#5D6E8A" font-family="Gotham-Book, Gotham" font-size="16" font-weight="300" transform="translate(-.823 395.11)">
                <tspan x="1.272" y="27.992">24 cm</tspan>
            </text>
            <path stroke="#9CBAEE" stroke-linecap="square" stroke-width=".88" d="M50.99 395.716H32.628v10.314M50.99 444.844H32.628V434.53"/>
            <path fill="#FFF" d="M172.858 437.445c-.19.097-.379.184-.558.288a.322.322 0 0 0-.16.28c-.004.213-.01.426.002.638.01.2.171.336.365.33a.351.351 0 0 0 .355-.352c.007-.38.004-.762.004-1.143 0-.008-.003-.018-.008-.041m-.72-.779h-.453c0-.167-.007-.334.001-.5a.67.67 0 0 1 .164-.4c.187-.229.437-.302.715-.287.23.013.432.101.585.286.099.12.165.259.166.415.008.806.012 1.611.013 2.417 0 .09-.018.185-.042.273a.71.71 0 0 1-.494.5.903.903 0 0 1-.718-.055.69.69 0 0 1-.387-.58c-.018-.229-.021-.46-.014-.691.01-.375.206-.625.532-.777.204-.095.409-.19.612-.287.022-.011.046-.045.047-.069.002-.213.004-.426-.002-.64a.354.354 0 0 0-.357-.36.347.347 0 0 0-.365.34c-.01.135-.002.27-.002.415M169.835 439.344h-.455c-.001-.025-.004-.047-.004-.07v-2.95c0-.203.042-.393.172-.553.198-.24.458-.313.75-.29a.79.79 0 0 1 .516.24c.163.166.22.376.22.602.003.994.001 1.988.001 2.982l-.003.035h-.462v-.085c0-.974-.001-1.948.001-2.922 0-.154-.04-.284-.174-.365-.26-.158-.55.015-.562.336-.002.073 0 .146 0 .218v2.822zM165.894 435.552h.462c0 .028.003.053.003.077v2.923c-.001.231-.05.448-.216.62a.8.8 0 0 1-.502.236.91.91 0 0 1-.534-.09.711.711 0 0 1-.392-.569c-.013-.1-.014-.2-.015-.3v-2.896h.458V438.55c0 .14.027.27.148.358.126.09.261.096.396.028a.339.339 0 0 0 .19-.322c.002-.987.002-1.974.002-2.96v-.103zM167.038 435.552h.458v2.999c0 .14.027.27.15.358.125.09.26.096.395.028a.34.34 0 0 0 .19-.323l.001-2.96v-.101h.462c0 .028.003.053.003.077v2.915c0 .234-.047.454-.217.627a.797.797 0 0 1-.501.236.904.904 0 0 1-.534-.09.71.71 0 0 1-.392-.57 2.316 2.316 0 0 1-.014-.3l-.001-2.803v-.093z"/>
            <g transform="translate(162.836 434.325)">
                <mask id="b" fill="#fff">
                    <use xlink:href="#a"/>
                </mask>
                <path fill="#FFF" d="M.462 4.578h.956v.438H0V.009h.462z" mask="url(#b)"/>
            </g>
            <path fill="#FFF" d="M174.053 434.925a.29.29 0 0 1-.287.294.29.29 0 0 1-.286-.294.29.29 0 0 1 .286-.294.29.29 0 0 1 .287.294"/>
        </g>
        <g>
            <path fill="#FFF" d="M171.343 225.805a3.246 3.246 0 0 1-3.238 3.238H63.637a3.246 3.246 0 0 1-3.237-3.238V30.328a3.247 3.247 0 0 1 3.237-3.238h104.468a3.247 3.247 0 0 1 3.238 3.238v195.477zM334.533 225.28a3.773 3.773 0 0 1-3.763 3.762H188.525a3.773 3.773 0 0 1-3.763-3.761V30.853a3.774 3.774 0 0 1 3.763-3.763H330.77a3.774 3.774 0 0 1 3.763 3.763V225.28zM513.627 225.077a3.977 3.977 0 0 1-3.965 3.966H351.178a3.977 3.977 0 0 1-3.965-3.966V31.056a3.977 3.977 0 0 1 3.965-3.966h158.484a3.977 3.977 0 0 1 3.965 3.966v194.021zM742.99 225.077a3.977 3.977 0 0 1-3.966 3.966H532.066a3.976 3.976 0 0 1-3.965-3.966V31.056a3.977 3.977 0 0 1 3.965-3.966h206.958a3.977 3.977 0 0 1 3.966 3.966v194.021z"/>
            <path fill="#404E61" d="M171.343 225.805a3.246 3.246 0 0 1-3.238 3.238H63.637a3.246 3.246 0 0 1-3.237-3.238v-20.151a3.246 3.246 0 0 1 3.237-3.238h104.468a3.246 3.246 0 0 1 3.238 3.238v20.151z"/>
            <path fill="#F6F9FF" d="M170.012 202.416H61.732c-.733 0-1.331.6-1.331 1.332v8.598h110.941v-8.598c0-.732-.598-1.332-1.33-1.332"/>
            <path fill="#7B9FD6" d="M60.4 213.962h110.943v-1.617H60.4z"/>
            <path fill="#7B9FD6" d="M109.318 221.108h13.107v-8.597h-13.107z"/>
            <path fill="#FFF" d="M119.56 217.313c-.152.074-.3.142-.442.22a.25.25 0 0 0-.125.217c-.003.164-.008.326.001.49.008.154.135.258.288.255.156-.004.277-.115.28-.272.005-.293.003-.585.003-.878 0-.007-.002-.013-.006-.032m-.567-.6h-.358c0-.127-.005-.256 0-.384a.514.514 0 0 1 .13-.308c.147-.176.344-.231.564-.22.181.01.34.079.46.22.078.092.13.2.132.32.006.619.009 1.238.009 1.858 0 .07-.013.142-.032.209a.551.551 0 0 1-.39.385.724.724 0 0 1-.566-.042.535.535 0 0 1-.305-.446 4.786 4.786 0 0 1-.01-.533c.007-.287.162-.48.418-.596.161-.074.323-.145.483-.221.016-.007.037-.035.037-.052.002-.164.003-.328-.001-.492a.277.277 0 0 0-.281-.278c-.16-.003-.278.1-.289.262-.007.104-.001.209-.001.319M117.176 218.773h-.358l-.003-.053v-2.27a.639.639 0 0 1 .137-.424c.154-.185.359-.241.59-.223a.636.636 0 0 1 .407.185.624.624 0 0 1 .171.462c.003.764.002 1.529.002 2.294l-.003.027h-.363v-.067-2.246c0-.118-.031-.219-.137-.28-.205-.122-.432.01-.443.257v2.338zM114.071 215.858h.365l.002.06v2.245c-.001.18-.038.346-.17.477a.648.648 0 0 1-.395.183.742.742 0 0 1-.42-.07.55.55 0 0 1-.31-.438c-.01-.075-.01-.154-.012-.23v-2.227h.362v2.304c0 .11.02.21.117.277a.29.29 0 0 0 .31.021c.102-.049.15-.136.15-.248l.001-2.276v-.078zM114.973 215.858h.362V218.163c0 .108.02.209.117.276a.292.292 0 0 0 .312.021.26.26 0 0 0 .15-.25v-2.352h.365l.002.06v2.24c-.001.182-.037.35-.172.482a.636.636 0 0 1-.394.183.733.733 0 0 1-.421-.07.544.544 0 0 1-.308-.439 1.683 1.683 0 0 1-.012-.23l-.001-2.154v-.072zM112.027 218.434h.753v.337h-1.117v-3.85h.364zM120.5 215.375a.226.226 0 1 1-.451.001.226.226 0 0 1 .451 0"/>
            <path fill="#404E61" d="M334.533 225.28a3.773 3.773 0 0 1-3.763 3.762H188.525a3.773 3.773 0 0 1-3.763-3.761v-19.103a3.773 3.773 0 0 1 3.763-3.762H330.77a3.773 3.773 0 0 1 3.763 3.762v19.103z"/>
            <path fill="#F6F9FF" d="M332.736 202.416H186.558c-.987 0-1.796.6-1.796 1.332v8.598h149.772v-8.598c0-.732-.809-1.332-1.798-1.332"/>
            <path fill="#7B9FD6" d="M184.761 213.962h149.772v-1.617H184.76z"/>
            <path fill="#7B9FD6" d="M253.095 221.108h13.107v-8.597h-13.107z"/>
            <path fill="#FFF" d="M262.985 217.313c-.15.074-.3.142-.44.22a.253.253 0 0 0-.126.217c-.002.164-.007.326.002.49.008.154.135.258.288.255a.274.274 0 0 0 .28-.272c.004-.293.002-.585.003-.878 0-.007-.004-.013-.007-.032m-.567-.6h-.357c0-.127-.006-.256 0-.384a.514.514 0 0 1 .13-.308c.147-.176.343-.231.563-.22.182.01.34.079.46.22.08.092.131.2.133.32.004.619.008 1.238.009 1.858 0 .07-.014.142-.034.209a.55.55 0 0 1-.388.385.723.723 0 0 1-.566-.042.533.533 0 0 1-.305-.446 4.52 4.52 0 0 1-.012-.533c.008-.287.164-.48.42-.596.16-.074.322-.145.482-.221a.078.078 0 0 0 .038-.052c0-.164.003-.328-.003-.492a.276.276 0 0 0-.28-.278c-.16-.003-.278.1-.288.262-.008.104-.002.209-.002.319M260.603 218.773h-.36l-.001-.053v-2.27c0-.155.033-.301.136-.424.155-.185.36-.241.59-.223a.63.63 0 0 1 .406.185.62.62 0 0 1 .173.462c.003.764.001 1.529.001 2.294 0 .007 0 .014-.002.027h-.364v-.067c0-.749-.001-1.498.001-2.246 0-.118-.031-.219-.137-.28-.206-.122-.433.01-.443.257v2.338zM257.498 215.858h.363c.001.022.004.04.004.06 0 .748 0 1.497-.002 2.245 0 .18-.038.346-.169.477a.642.642 0 0 1-.395.183.738.738 0 0 1-.42-.07.552.552 0 0 1-.31-.438 1.7 1.7 0 0 1-.011-.23v-2.227h.36v2.304c0 .11.022.21.118.277.1.069.205.073.311.021.1-.049.15-.136.15-.248l.001-2.276v-.078zM258.4 215.858h.361V218.163c0 .108.021.209.118.276a.292.292 0 0 0 .311.021c.1-.05.15-.137.15-.25l.001-2.274v-.078h.363l.003.06v2.24c0 .182-.038.35-.172.482a.63.63 0 0 1-.394.183.735.735 0 0 1-.421-.07.543.543 0 0 1-.308-.439 1.683 1.683 0 0 1-.011-.23l-.001-2.154v-.072zM255.454 218.434h.753v.337h-1.117v-3.85h.364zM263.926 215.375a.225.225 0 1 1-.451 0c0-.124.1-.226.226-.226.124 0 .225.102.225.226"/>
            <path fill="#404E61" d="M513.627 225.077a3.977 3.977 0 0 1-3.965 3.966H351.178a3.977 3.977 0 0 1-3.965-3.966v-18.695a3.977 3.977 0 0 1 3.965-3.966h158.484a3.977 3.977 0 0 1 3.965 3.966v18.695z"/>
            <path fill="#F6F9FF" d="M511.631 202.416H349.21c-1.1 0-1.997.6-1.997 1.332v8.598h166.415v-8.598c0-.732-.9-1.332-1.997-1.332"/>
            <path fill="#7B9FD6" d="M347.213 213.962h166.415v-1.617H347.213z"/>
            <path fill="#7B9FD6" d="M423.866 221.108h13.107v-8.597h-13.107z"/>
            <path fill="#FFF" d="M434.118 217.246c-.15.075-.3.142-.44.222a.248.248 0 0 0-.126.216c-.002.163-.007.327.001.49.01.154.136.258.289.254.157-.003.276-.114.28-.271.004-.294.002-.586.003-.88 0-.006-.003-.012-.007-.03m-.567-.6h-.357c0-.128-.006-.256.001-.385a.508.508 0 0 1 .129-.306c.147-.178.343-.232.563-.222.182.01.341.08.46.22.08.092.132.2.133.32.004.619.008 1.238.01 1.858 0 .07-.015.143-.035.21a.553.553 0 0 1-.388.385.728.728 0 0 1-.566-.043.531.531 0 0 1-.305-.446 4.506 4.506 0 0 1-.011-.531c.008-.289.162-.481.42-.597.16-.075.32-.145.482-.222.016-.007.036-.034.036-.052a9.929 9.929 0 0 0-.001-.492.274.274 0 0 0-.281-.277.268.268 0 0 0-.288.262c-.008.103-.002.208-.002.318M431.737 218.706h-.36l-.002-.053v-2.27c0-.155.033-.301.135-.424.156-.184.361-.24.59-.223a.63.63 0 0 1 .408.185c.128.127.172.29.172.462.003.765.002 1.529.002 2.294a.151.151 0 0 1-.004.027h-.363v-.066l.001-2.246c0-.119-.03-.22-.138-.281-.205-.122-.432.01-.441.257-.003.057 0 .113 0 .17v2.168zM428.632 215.791h.363c0 .022.003.04.003.06 0 .748.001 1.498-.001 2.246 0 .18-.038.345-.17.476a.639.639 0 0 1-.395.183.738.738 0 0 1-.42-.07.55.55 0 0 1-.31-.438 1.7 1.7 0 0 1-.01-.23c-.002-.718 0-1.436 0-2.155v-.072h.36v2.306c0 .107.022.208.117.275.1.069.205.074.312.021.1-.048.15-.135.15-.248V215.791zM429.533 215.791h.362v2.306c0 .107.02.208.116.275.1.069.206.074.313.021.1-.05.15-.136.15-.249V215.791h.363l.003.06v2.24c0 .182-.037.35-.172.482a.624.624 0 0 1-.394.183.735.735 0 0 1-.421-.07.541.541 0 0 1-.307-.438 1.71 1.71 0 0 1-.012-.23l-.001-2.155v-.072zM426.588 218.368h.752v.336h-1.117v-3.85h.365zM435.059 215.308a.225.225 0 1 1-.45.002.225.225 0 0 1 .45-.002"/>
            <path fill="#404E61" d="M742.99 225.077a3.977 3.977 0 0 1-3.966 3.966H532.066a3.976 3.976 0 0 1-3.965-3.966v-18.695a3.977 3.977 0 0 1 3.965-3.966h206.958a3.977 3.977 0 0 1 3.966 3.966v18.695z"/>
            <path fill="#F6F9FF" d="M740.993 202.416H530.097c-1.098 0-1.997.6-1.997 1.332v8.598h214.89v-8.598c0-.732-.9-1.332-1.997-1.332"/>
            <path fill="#7B9FD6" d="M528.102 213.962H742.99v-1.617H528.1z"/>
            <path fill="#7B9FD6" d="M630.416 221.108h13.106v-8.597h-13.106z"/>
            <path fill="#FFF" d="M640.446 217.246c-.15.075-.299.142-.439.222a.245.245 0 0 0-.126.216c-.003.163-.007.327 0 .49.01.154.136.258.29.254.156-.003.275-.114.279-.271.005-.294.002-.586.003-.88 0-.006-.003-.012-.007-.03m-.567-.6h-.357c0-.128-.006-.256.001-.385a.513.513 0 0 1 .128-.306c.148-.178.344-.232.565-.222.18.01.34.08.46.22.078.092.13.2.131.32.006.619.01 1.238.01 1.858 0 .07-.013.143-.033.21a.555.555 0 0 1-.39.385.726.726 0 0 1-.564-.043.532.532 0 0 1-.307-.446 4.77 4.77 0 0 1-.01-.531c.008-.289.162-.481.42-.597.16-.075.321-.145.482-.222.016-.007.036-.034.036-.052.002-.164.004-.328-.001-.492a.275.275 0 0 0-.28-.277c-.16-.003-.279.1-.288.262-.008.103-.003.208-.003.318M638.065 218.706h-.36l-.002-.053v-2.27c0-.155.034-.301.136-.424.154-.184.36-.24.59-.223a.63.63 0 0 1 .407.185c.128.127.173.29.173.462.002.765.001 1.529.001 2.294l-.003.027h-.363v-.066c0-.75-.002-1.498 0-2.246 0-.119-.03-.22-.137-.281-.205-.122-.433.01-.442.257-.002.057 0 .113 0 .17v2.168zM634.96 215.791h.363l.003.06v2.246c0 .18-.039.345-.17.476a.639.639 0 0 1-.395.183.737.737 0 0 1-.42-.07.55.55 0 0 1-.31-.438 1.7 1.7 0 0 1-.011-.23c-.002-.718-.002-1.436-.002-2.155v-.072h.362v2.306c0 .107.022.208.117.275a.29.29 0 0 0 .311.021c.101-.048.15-.135.15-.248.002-.758.002-1.517.002-2.276v-.078zM635.861 215.791h.362v2.306c0 .107.02.208.116.275.1.069.206.074.312.021a.26.26 0 0 0 .15-.249c0-.758 0-1.517.002-2.275v-.078h.363l.002.06v2.24c-.001.182-.037.35-.171.482a.624.624 0 0 1-.395.183.733.733 0 0 1-.42-.07.545.545 0 0 1-.31-.438 1.922 1.922 0 0 1-.01-.23v-2.227zM632.915 218.368h.754v.336h-1.117v-3.85h.363zM641.387 215.308a.226.226 0 1 1-.453 0 .226.226 0 0 1 .453 0"/>
            <path stroke="#5D6E8A" stroke-width="1.445" d="M171.343 225.805a3.246 3.246 0 0 1-3.238 3.238H63.637a3.246 3.246 0 0 1-3.237-3.238V30.328a3.247 3.247 0 0 1 3.237-3.238h104.468a3.247 3.247 0 0 1 3.238 3.238v195.477zM334.533 225.28a3.773 3.773 0 0 1-3.763 3.762H188.525a3.773 3.773 0 0 1-3.763-3.761V30.853a3.774 3.774 0 0 1 3.763-3.763H330.77a3.774 3.774 0 0 1 3.763 3.763V225.28zM513.627 225.077a3.977 3.977 0 0 1-3.965 3.966H351.178a3.977 3.977 0 0 1-3.965-3.966V31.056a3.977 3.977 0 0 1 3.965-3.966h158.484a3.977 3.977 0 0 1 3.965 3.966v194.021zM742.99 225.077a3.977 3.977 0 0 1-3.966 3.966H532.066a3.976 3.976 0 0 1-3.965-3.966V31.056a3.977 3.977 0 0 1 3.965-3.966h206.958a3.977 3.977 0 0 1 3.966 3.966v194.021z"/>
        </g>
        <g>
            <g transform="translate(119.9 422.363)">
                <mask id="d" fill="#fff">
                    <use xlink:href="#c"/>
                </mask>
                <path fill="#FFF" d="M-4.938 9.875H7.49V-4.692H-4.938z" mask="url(#d)"/>
            </g>
            <g transform="translate(117.727 422.363)">
                <mask id="f" fill="#fff">
                    <use xlink:href="#e"/>
                </mask>
                <path fill="#FFF" d="M-4.915 9.805H7.513V-4.691H-4.915z" mask="url(#f)"/>
            </g>
            <g transform="translate(113.378 422.363)">
                <mask id="h" fill="#fff">
                    <use xlink:href="#g"/>
                </mask>
                <path fill="#FFF" d="M-4.95 9.872H7.476V-4.62H-4.95z" mask="url(#h)"/>
            </g>
            <g transform="translate(115.552 422.363)">
                <mask id="j" fill="#fff">
                    <use xlink:href="#i"/>
                </mask>
                <path fill="#FFF" d="M-4.933 9.872H7.495V-4.62H-4.933z" mask="url(#j)"/>
            </g>
            <path fill="#FFF" d="M112.117 422.035v4.695h1.328v-.411h-.895v-4.284z"/>
            <g transform="translate(122.075 422.115)">
                <mask id="l" fill="#fff">
                    <use xlink:href="#k"/>
                </mask>
                <path fill="#FFF" d="M-5.416 6.184H5.992V-5.238H-5.416z" mask="url(#l)"/>
            </g>
            <path fill="#404E61" d="M481.627 442.436a3.729 3.729 0 0 1-3.718 3.718H68.629a3.729 3.729 0 0 1-3.718-3.718v-44.2a3.729 3.729 0 0 1 3.718-3.717h409.28a3.729 3.729 0 0 1 3.718 3.718v44.2z"/>
            <path fill="#FFF" d="M477.755 394.519H68.783c-2.13 0-3.872 1.16-3.872 2.582v16.675h416.716V397.1c0-1.421-1.743-2.582-3.872-2.582"/>
            <path fill="#7B9FD6" d="M64.912 416.909h416.715v-3.133H64.912z"/>
            <path fill="#7B9FD6" d="M263.323 430.767h25.415v-16.673h-25.415z"/>
            <path fill="#FFF" d="M282.773 423.277c-.291.145-.578.274-.852.43a.477.477 0 0 0-.246.417c-.005.318-.013.635.004.951.016.3.262.502.558.494.305-.008.537-.222.543-.526.01-.567.005-1.135.006-1.704 0-.013-.005-.027-.013-.062m-1.099-1.16h-.692c0-.25-.011-.499.002-.746a.982.982 0 0 1 .249-.598c.287-.34.666-.45 1.092-.427.353.02.66.15.894.427a.971.971 0 0 1 .254.62c.012 1.2.019 2.402.02 3.603 0 .135-.027.275-.064.406-.112.387-.382.629-.756.747a1.412 1.412 0 0 1-1.097-.083c-.35-.18-.558-.472-.592-.865a9.595 9.595 0 0 1-.02-1.031c.016-.558.314-.93.812-1.158.312-.142.624-.281.935-.428.034-.015.072-.067.072-.101.004-.318.008-.637-.002-.955a.537.537 0 0 0-.545-.538c-.309-.004-.537.196-.56.508-.013.2-.002.403-.002.62M278.154 426.109h-.695c-.002-.037-.005-.07-.005-.104v-4.4c0-.301.064-.585.263-.823.301-.359.699-.468 1.146-.432.303.025.57.138.788.356.249.249.336.562.336.899.003 1.482.001 2.964.001 4.446 0 .015-.002.03-.004.052h-.707v-.127c0-1.452-.001-2.905.002-4.357 0-.228-.06-.423-.266-.544-.398-.236-.84.023-.858.502-.003.108 0 .216-.001.326V426.109zM272.134 420.456h.705c.001.04.006.078.006.114 0 1.453.002 2.905-.001 4.358-.002.346-.074.668-.33.924-.213.21-.47.322-.765.352a1.424 1.424 0 0 1-.816-.134 1.06 1.06 0 0 1-.599-.848c-.02-.148-.022-.3-.023-.447-.002-1.394 0-2.787 0-4.18v-.138h.7v4.469c0 .21.04.404.226.535a.563.563 0 0 0 .603.042.504.504 0 0 0 .291-.482c.003-1.47.003-2.942.003-4.412v-.153zM273.882 420.456h.701v4.471c0 .21.04.403.228.534.19.134.399.142.603.042a.506.506 0 0 0 .29-.483l.002-4.412v-.152h.706c0 .043.004.079.004.115v4.347c0 .349-.072.677-.331.935-.211.21-.47.32-.767.351a1.415 1.415 0 0 1-.814-.135 1.06 1.06 0 0 1-.599-.849 3.407 3.407 0 0 1-.022-.446c-.002-1.394 0-2.787 0-4.18v-.138zM268.17 425.452h1.46v.653h-2.166v-7.467h.706zM284.6 419.52a.438.438 0 1 1-.876 0 .438.438 0 0 1 .875 0"/>
            <path stroke="#5D6E8A" stroke-width="1.445" d="M481.627 442.436a3.729 3.729 0 0 1-3.718 3.718H68.629a3.729 3.729 0 0 1-3.718-3.718v-44.2a3.729 3.729 0 0 1 3.718-3.717h409.28a3.729 3.729 0 0 1 3.718 3.718v44.2z"/>
        </g>
        <g>
            <path fill="#FFF" d="M1004.66 224.188a3.977 3.977 0 0 1-3.965 3.965H803.019a3.977 3.977 0 0 1-3.966-3.965V5.546a3.977 3.977 0 0 1 3.966-3.966h197.676a3.977 3.977 0 0 1 3.965 3.966v218.642z"/>
            <path fill="#404E61" d="M1004.528 224.188a3.976 3.976 0 0 1-3.966 3.965H802.886a3.977 3.977 0 0 1-3.966-3.965v-18.695a3.978 3.978 0 0 1 3.966-3.966h197.676a3.977 3.977 0 0 1 3.966 3.966v18.695z"/>
            <path fill="#F6F9FF" d="M1002.532 201.527H800.917c-1.098 0-1.996.6-1.996 1.331v8.599h205.607v-8.599c0-.731-.9-1.331-1.996-1.331"/>
            <path fill="#7B9FD6" d="M798.92 213.072h205.608v-1.616H798.921z"/>
            <path fill="#7B9FD6" d="M895.303 220.219h13.106v-8.597h-13.106z"/>
            <path fill="#FFF" d="M905.334 216.357c-.15.074-.3.141-.44.222a.247.247 0 0 0-.126.215c-.003.164-.008.327.001.49.008.155.135.258.288.255.156-.004.277-.114.28-.272.005-.293.003-.585.003-.879 0-.007-.003-.012-.006-.031m-.567-.6h-.358c0-.127-.005-.256 0-.384a.508.508 0 0 1 .13-.307c.148-.177.344-.232.564-.221.181.01.34.079.46.22.078.092.13.2.132.32.005.618.009 1.238.009 1.858 0 .07-.013.143-.033.209a.555.555 0 0 1-.39.386.726.726 0 0 1-.564-.043.532.532 0 0 1-.306-.447 4.77 4.77 0 0 1-.01-.53c.006-.29.162-.482.42-.598.16-.074.32-.145.48-.221.018-.007.038-.034.038-.052.002-.164.003-.329-.002-.492a.276.276 0 0 0-.28-.277c-.16-.004-.279.1-.289.262-.007.103-.001.207-.001.318M902.951 217.817h-.358l-.003-.054v-2.269c0-.155.033-.301.136-.424.155-.185.36-.24.59-.223a.633.633 0 0 1 .408.184.63.63 0 0 1 .172.463c.003.764 0 1.528 0 2.294 0 .007 0 .014-.002.026h-.363v-.066-2.246c.001-.118-.031-.219-.137-.28-.205-.122-.432.01-.442.257-.002.057 0 .112 0 .17v2.168zM899.846 214.902h.364l.003.059v2.246c-.001.18-.039.346-.17.477a.639.639 0 0 1-.395.183.737.737 0 0 1-.42-.07.548.548 0 0 1-.31-.438c-.01-.075-.01-.154-.012-.23v-2.227h.362V217.207c0 .108.02.209.117.276a.29.29 0 0 0 .31.021c.101-.049.151-.136.151-.248V214.902zM900.749 214.902h.362V217.207c0 .108.02.209.116.276a.292.292 0 0 0 .312.021.26.26 0 0 0 .15-.25v-2.352h.364c0 .022.003.04.003.06v2.24c-.001.181-.037.35-.172.482a.627.627 0 0 1-.394.183.733.733 0 0 1-.421-.07.542.542 0 0 1-.309-.438 1.71 1.71 0 0 1-.011-.23v-2.227zM897.802 217.478h.753v.336h-1.116v-3.85h.363zM906.275 214.419a.226.226 0 1 1-.451 0 .226.226 0 0 1 .45 0"/>
            <path stroke="#404E61" d="M1004.66 224.188a3.977 3.977 0 0 1-3.965 3.965H803.019a3.977 3.977 0 0 1-3.966-3.965V5.546a3.977 3.977 0 0 1 3.966-3.966h197.676a3.977 3.977 0 0 1 3.965 3.966v218.642z"/>
            <path stroke="#5D6E8A" stroke-width="1.445" d="M1004.66 224.188a3.977 3.977 0 0 1-3.965 3.965H803.019a3.977 3.977 0 0 1-3.966-3.965V5.546a3.977 3.977 0 0 1 3.966-3.966h197.676a3.977 3.977 0 0 1 3.965 3.966v218.642z"/>
        </g>
        <g>
            <text fill="#5D6E8A" stroke="#979797" font-family="ProximaNova-Regular, Proxima Nova" font-size="16" transform="translate(747.93 2.16)">
                <tspan x=".236" y="113.08">213 cm</tspan>
            </text>
            <path stroke="#9CBAEE" stroke-linecap="square" stroke-width=".792" d="M795.293 2.16H778.76v89.539M795.293 227.543H778.76v-97.909"/>
        </g>
        <g>
            <text fill="#5D6E8A" font-family="ProximaNova-Regular, Proxima Nova" font-size="18" transform="translate(799.633 237.874)">
                <tspan x="77.573" y="18.835">183 cm</tspan>
            </text>
            <path stroke="#9CBAEE" stroke-linecap="square" stroke-width=".792" d="M799.633 239.874v16.532h72.188M1002.853 239.874v16.532h-66.39"/>
        </g>
    </g>
</svg>
