<svg xmlns="http://www.w3.org/2000/svg" xmlns:xlink="http://www.w3.org/1999/xlink" width="365" height="252" viewBox="0 0 365 252">
    <defs>
        <path id="a" d="M1.418.009H0v5.007h1.418V.009z"/>
        <path id="c" d="M.666 1.015A.735.735 0 0 1 1.27.744c.023 0 .044 0 .066.002a.735.735 0 0 1 .548.27c.093.11.155.24.155.387.01.756.012 1.512.013 2.266a.922.922 0 0 1-.04.255.664.664 0 0 1-.463.47.845.845 0 0 1-.673-.051.65.65 0 0 1-.363-.544 5.623 5.623 0 0 1-.012-.649c.01-.35.193-.586.5-.728.19-.09.382-.177.572-.27.02-.01.044-.04.045-.063 0-.2.004-.4-.003-.6-.006-.199-.145-.334-.334-.338-.19-.003-.329.122-.343.319-.009.126-.002.253-.002.389H.512c0-.157-.008-.314 0-.469a.625.625 0 0 1 .154-.375zM.94 3.72c.011.184.155.31.33.31h.013a.329.329 0 0 0 .332-.33c.007-.356.004-.715.004-1.07 0-.01-.003-.019-.007-.04-.178.09-.355.173-.523.27a.301.301 0 0 0-.15.262c-.004.2-.01.4.001.598z"/>
        <path id="e" d="M.682 1.02c-.122.15-.16.328-.161.517v2.767c0 .022.002.041.003.065h.427V1.724c0-.068-.003-.137 0-.204.012-.301.282-.464.526-.315.126.076.163.198.163.34v2.821h.433a.206.206 0 0 0 .003-.034c0-.93.003-1.863 0-2.795 0-.212-.055-.409-.207-.565a.731.731 0 0 0-.483-.223 1.004 1.004 0 0 0-.099-.004.74.74 0 0 0-.605.275z"/>
        <path id="g" d="M1.606.815V.91c0 .925 0 1.85-.004 2.776a.317.317 0 0 1-.178.303.341.341 0 0 1-.37-.028c-.114-.081-.14-.205-.14-.335V.815H.486v2.716c0 .093.002.187.014.281.032.242.153.421.366.532a.847.847 0 0 0 .503.086c.18-.02.339-.09.468-.223.158-.159.204-.363.204-.58.002-.912 0-1.828 0-2.74 0-.024-.003-.046-.004-.072h-.431z"/>
        <path id="i" d="M1.622.815V.91l-.001 2.774a.321.321 0 0 1-.177.305.343.343 0 0 1-.372-.028c-.114-.081-.14-.204-.14-.334V.815H.504v.086L.504 3.53c0 .094.002.187.013.281.03.242.154.422.368.533a.839.839 0 0 0 .5.086.75.75 0 0 0 .47-.223c.16-.162.203-.367.203-.587V.888L2.056.815h-.434z"/>
        <path id="k" d="M.02.473a.27.27 0 0 0 .268.275c.149 0 .27-.121.27-.275a.273.273 0 0 0-.27-.276.271.271 0 0 0-.267.276z"/>
    </defs>
    <g fill="none" fill-rule="evenodd" transform="translate(0 1)">
        <path fill="#FFF" d="M248.931 91.259c0 1-.812 1.818-1.805 1.818h-72.168a1.817 1.817 0 0 1-1.806-1.818V2.319c0-1 .813-1.818 1.806-1.818h72.168c.993 0 1.805.818 1.805 1.818v88.94z"/>
        <path fill="#404E61" d="M248.931 91.259c0 1-.812 1.818-1.805 1.818h-72.168a1.817 1.817 0 0 1-1.806-1.818v-8.57c0-1 .813-1.818 1.806-1.818h72.168c.993 0 1.805.818 1.805 1.818v8.57z"/>
        <path fill="#F6F9FF" d="M248.022 80.871h-73.96c-.501 0-.91.275-.91.61v3.942h75.78V81.48c0-.335-.41-.61-.91-.61"/>
        <path fill="#7B9FD6" d="M173.152 86.163h75.78v-.74h-75.78z"/>
        <path fill="#7B9FD6" d="M208.057 89.44h5.969v-3.942h-5.969z"/>
        <path fill="#FFF" d="M212.726 87.67c-.068.033-.136.064-.2.1a.114.114 0 0 0-.058.1c-.001.074-.003.15 0 .224.005.071.062.118.132.117a.125.125 0 0 0 .127-.125c.002-.134.001-.268.002-.402l-.003-.015m-.258-.275h-.163c0-.058-.003-.117 0-.176a.233.233 0 0 1 .06-.14c.066-.082.155-.107.256-.102a.284.284 0 0 1 .21.101c.035.042.059.091.06.146l.004.852a.345.345 0 0 1-.016.096.253.253 0 0 1-.176.177.33.33 0 0 1-.258-.02.244.244 0 0 1-.139-.204 2.08 2.08 0 0 1-.005-.244c.003-.132.074-.22.19-.274.074-.034.147-.066.22-.101.008-.003.017-.016.017-.024 0-.075.002-.15 0-.225a.125.125 0 0 0-.128-.127.123.123 0 0 0-.131.12c-.004.047-.001.095-.001.145M211.641 88.338h-.163l-.001-.024v-1.04c0-.072.015-.139.061-.195.071-.084.165-.11.27-.102a.286.286 0 0 1 .184.084.286.286 0 0 1 .08.213v1.051a.07.07 0 0 1-.002.012h-.165v-.03-1.03c0-.054-.014-.1-.062-.128-.094-.056-.197.004-.202.118v1.071zM210.227 87.002h.166l.001.027v1.03c0 .082-.018.158-.077.218a.29.29 0 0 1-.18.084.334.334 0 0 1-.192-.032.252.252 0 0 1-.14-.2.784.784 0 0 1-.006-.106v-1.021h.164v1.057c0 .05.01.096.054.126a.132.132 0 0 0 .142.01.119.119 0 0 0 .068-.114v-1.079zM210.638 87.002h.165v1.057c0 .05.01.096.052.126a.133.133 0 0 0 .143.01.12.12 0 0 0 .068-.114v-1.079h.166l.001.028v1.027c0 .083-.017.16-.078.22a.283.283 0 0 1-.18.084.333.333 0 0 1-.191-.032.248.248 0 0 1-.14-.2.789.789 0 0 1-.006-.106v-1.021zM209.283 88.183h.314v.154h-.466v-1.765h.152zM213.126 86.766a.089.089 0 1 1-.177.001.089.089 0 0 1 .177 0"/>
        <path stroke="#5D6E8A" stroke-width=".6" d="M248.931 91.259c0 1-.812 1.818-1.805 1.818h-72.168a1.817 1.817 0 0 1-1.806-1.818V2.319c0-1 .813-1.818 1.806-1.818h72.168c.993 0 1.805.818 1.805 1.818v88.94z"/>
        <path fill="#FFF" d="M166.468 91.352c0 .948-.771 1.724-1.714 1.724H99.981a1.724 1.724 0 0 1-1.714-1.724V2.226c0-.949.771-1.725 1.714-1.725h64.773c.943 0 1.714.776 1.714 1.725v89.126z"/>
        <path fill="#404E61" d="M166.468 91.352c0 .948-.771 1.724-1.714 1.724H99.981a1.724 1.724 0 0 1-1.714-1.724v-8.757c0-.948.771-1.724 1.714-1.724h64.773c.943 0 1.714.776 1.714 1.724v8.757z"/>
        <path fill="#F6F9FF" d="M165.65 80.871H99.084c-.449 0-.818.275-.818.61v3.942h68.2V81.48c0-.335-.367-.61-.818-.61"/>
        <path fill="#7B9FD6" d="M98.267 86.163h68.2v-.74h-68.2z"/>
        <path fill="#7B9FD6" d="M129.384 89.44h5.968v-3.942h-5.968z"/>
        <path fill="#FFF" d="M133.887 87.7c-.068.034-.136.065-.2.1a.116.116 0 0 0-.057.1c-.002.075-.004.15 0 .225.004.07.062.118.132.116a.125.125 0 0 0 .127-.124c.002-.134 0-.268.001-.403l-.003-.014m-.258-.275h-.163c0-.059-.002-.118 0-.177a.236.236 0 0 1 .06-.14c.067-.081.156-.107.256-.101a.284.284 0 0 1 .21.1c.036.043.06.092.06.147.002.284.004.567.004.852a.348.348 0 0 1-.015.096.251.251 0 0 1-.177.176.327.327 0 0 1-.258-.02.244.244 0 0 1-.139-.204 2.086 2.086 0 0 1-.005-.244c.004-.132.075-.22.191-.273.073-.034.147-.066.22-.101a.036.036 0 0 0 .017-.024c0-.075.001-.15-.001-.226a.126.126 0 0 0-.128-.127.123.123 0 0 0-.131.12c-.004.048-.001.095-.001.146M132.803 88.369h-.164l-.001-.025v-1.04c0-.071.015-.138.062-.194.07-.085.164-.11.269-.102a.286.286 0 0 1 .185.084.285.285 0 0 1 .079.212v1.064h-.167v-.03-1.03c0-.054-.013-.1-.062-.129-.093-.056-.197.005-.201.118v1.072zM131.389 87.033h.165l.002.027v1.03c0 .082-.018.158-.078.218a.291.291 0 0 1-.18.084.334.334 0 0 1-.191-.032.253.253 0 0 1-.141-.2.784.784 0 0 1-.005-.107v-1.02h.164v1.056c0 .05.01.096.053.127a.132.132 0 0 0 .142.01.119.119 0 0 0 .068-.114v-1.079zM131.8 87.033h.164v1.056c0 .05.01.096.053.127a.132.132 0 0 0 .142.01.12.12 0 0 0 .069-.115V87.033h.165l.001.027v1.027c0 .083-.016.16-.078.22a.286.286 0 0 1-.18.085.333.333 0 0 1-.191-.033.249.249 0 0 1-.14-.2.776.776 0 0 1-.005-.106v-1.02zM130.444 88.214h.314v.154h-.466v-1.765h.152zM134.288 86.797a.089.089 0 1 1-.178 0 .09.09 0 1 1 .177 0"/>
        <path stroke="#5D6E8A" stroke-width=".6" d="M166.468 91.352c0 .948-.771 1.724-1.714 1.724H99.981a1.724 1.724 0 0 1-1.714-1.724V2.226c0-.949.771-1.725 1.714-1.725h64.773c.943 0 1.714.776 1.714 1.725v89.126z"/>
        <path fill="#FFF" d="M91.975 92.01c0 .816-.663 1.484-1.475 1.484H42.93a1.483 1.483 0 0 1-1.475-1.484V2.403c0-.816.664-1.485 1.475-1.485H90.5c.812 0 1.475.669 1.475 1.485V92.01z"/>
        <path fill="#404E61" d="M91.52 91.402c0 .816-.664 1.484-1.475 1.484h-47.57A1.483 1.483 0 0 1 41 91.402v-9.238c0-.816.663-1.484 1.474-1.484h47.571c.811 0 1.474.668 1.474 1.484v9.238z"/>
        <path fill="#F6F9FF" d="M90.913 80.68H41.606a.61.61 0 0 0-.606.61v3.942h50.519V81.29a.61.61 0 0 0-.606-.61"/>
        <path fill="#7B9FD6" d="M41 86.005h50.52v-.74H41z"/>
        <path fill="#7B9FD6" d="M63.313 89.664h5.968v-3.941h-5.968z"/>
        <path fill="#FFF" d="M67.837 87.792c-.068.034-.136.064-.2.1a.115.115 0 0 0-.057.1c-.002.075-.004.15 0 .225.004.07.062.118.131.116a.125.125 0 0 0 .128-.124c.002-.135.001-.269.001-.403 0-.003 0-.006-.003-.014m-.258-.275h-.163c0-.059-.002-.118 0-.177a.236.236 0 0 1 .06-.14c.066-.081.156-.107.256-.102a.284.284 0 0 1 .21.101c.035.042.06.092.06.147.002.283.004.567.004.852a.348.348 0 0 1-.015.095.252.252 0 0 1-.177.177.328.328 0 0 1-.258-.02.245.245 0 0 1-.139-.204 2.208 2.208 0 0 1-.005-.244c.004-.132.074-.22.191-.273.073-.034.147-.067.22-.102.007-.003.017-.016.017-.024v-.225a.127.127 0 0 0-.129-.128.123.123 0 0 0-.131.12c-.003.048 0 .096 0 .147M66.665 88.46h-.163l-.002-.024v-1.04c0-.071.016-.138.063-.195.07-.084.163-.11.268-.102.071.006.134.033.186.085a.287.287 0 0 1 .078.212V88.46h-.166v-.03-1.03c0-.055-.014-.1-.062-.129-.094-.056-.197.005-.202.118v1.072zM65.107 87.098h.166l.001.027v1.03c0 .082-.017.158-.077.218a.336.336 0 0 1-.372.052.252.252 0 0 1-.14-.2c-.005-.035-.006-.072-.006-.107v-1.02h.165v1.056c0 .05.01.096.053.127a.131.131 0 0 0 .141.01c.046-.023.069-.063.069-.114v-1.079zM65.59 87.098h.164v1.057c0 .049.01.095.054.126a.132.132 0 0 0 .142.01.12.12 0 0 0 .068-.115V87.098h.166l.001.027v1.027c0 .083-.017.16-.078.221a.289.289 0 0 1-.18.084.332.332 0 0 1-.191-.032.25.25 0 0 1-.14-.201.776.776 0 0 1-.006-.106v-1.02z"/>
        <path fill="#FFF" d="M64.375 88.25h.314v.154h-.465V86.64h.151zM68.044 86.729a.089.089 0 1 1-.178 0c0-.05.04-.09.09-.09.049 0 .088.04.088.09"/>
        <path stroke="#5D6E8A" stroke-width=".6" d="M91.52 91.551c0 .817-.664 1.484-1.475 1.484h-47.57A1.483 1.483 0 0 1 41 91.551V1.944c0-.816.663-1.484 1.474-1.484h47.571c.811 0 1.474.668 1.474 1.484v89.607z"/>
        <g>
            <text fill="#5D6E8A" font-family="Gotham-Book, Gotham" font-size="12" font-weight="300" transform="translate(168 153)">
                <tspan x=".404" y="28.992">24 cm</tspan>
            </text>
            <path stroke="#9CBAEE" stroke-linecap="square" stroke-width=".88" d="M212.813 153.607H194.45v10.314M212.813 202.734H194.45V192.42"/>
            <path fill="#FFF" d="M334.681 195.335c-.19.097-.38.184-.558.288a.322.322 0 0 0-.16.28c-.004.213-.01.426.001.638.01.2.172.337.366.331a.351.351 0 0 0 .355-.353c.006-.38.003-.761.004-1.142 0-.009-.004-.018-.008-.042m-.72-.778h-.453c0-.167-.007-.334.001-.5a.67.67 0 0 1 .164-.401c.187-.229.436-.302.715-.287.23.014.432.102.584.286.1.12.165.26.167.415.008.806.012 1.612.013 2.418 0 .09-.018.184-.043.272a.71.71 0 0 1-.494.501.903.903 0 0 1-.718-.055.69.69 0 0 1-.387-.58c-.018-.23-.02-.461-.014-.692.01-.375.206-.625.532-.777.204-.095.41-.189.612-.287.022-.01.047-.045.047-.068.003-.213.005-.427-.002-.64a.354.354 0 0 0-.356-.36.347.347 0 0 0-.366.34c-.009.135-.002.27-.002.415M331.657 197.234h-.455c0-.025-.003-.047-.003-.069v-2.951c0-.203.041-.393.172-.553.197-.24.458-.313.75-.289a.79.79 0 0 1 .516.239c.163.166.22.376.22.603.003.994 0 1.987 0 2.982 0 .01 0 .02-.003.035h-.462v-.086c0-.974 0-1.948.002-2.922 0-.153-.04-.283-.175-.364-.26-.159-.55.015-.561.336-.002.073 0 .145 0 .218v2.821zM327.716 193.443h.462c.001.028.004.052.004.077l-.001 2.922c0 .232-.049.449-.216.62a.8.8 0 0 1-.501.236.91.91 0 0 1-.534-.09.711.711 0 0 1-.392-.568c-.013-.1-.015-.201-.015-.3v-2.897h.458V196.441c0 .14.026.271.148.358.125.09.261.097.396.029a.339.339 0 0 0 .19-.323l.001-2.96v-.102zM328.86 193.442h.46v3c0 .14.026.27.148.358.125.09.261.095.395.027a.34.34 0 0 0 .19-.323l.002-2.96v-.101h.462c0 .029.003.053.003.078v2.915c-.001.233-.048.453-.217.626a.797.797 0 0 1-.502.236.904.904 0 0 1-.533-.09.71.71 0 0 1-.392-.57 2.316 2.316 0 0 1-.015-.3v-2.896z"/>
            <g transform="translate(324.659 192.215)">
                <mask id="b" fill="#fff">
                    <use xlink:href="#a"/>
                </mask>
                <path fill="#FFF" d="M.462 4.578h.956v.438H0V.009h.462z" mask="url(#b)"/>
            </g>
            <path fill="#FFF" d="M335.876 192.815a.29.29 0 0 1-.287.294.29.29 0 0 1-.286-.294.29.29 0 0 1 .286-.294.29.29 0 0 1 .287.294"/>
        </g>
        <g>
            <g transform="translate(281.442 180.265)">
                <mask id="d" fill="#fff">
                    <use xlink:href="#c"/>
                </mask>
                <path fill="#FFF" d="M-4.938 9.875H7.49V-4.692H-4.938z" mask="url(#d)"/>
            </g>
            <g transform="translate(279.268 180.265)">
                <mask id="f" fill="#fff">
                    <use xlink:href="#e"/>
                </mask>
                <path fill="#FFF" d="M-4.915 9.805H7.513V-4.691H-4.915z" mask="url(#f)"/>
            </g>
            <g transform="translate(274.92 180.265)">
                <mask id="h" fill="#fff">
                    <use xlink:href="#g"/>
                </mask>
                <path fill="#FFF" d="M-4.95 9.872H7.476V-4.62H-4.95z" mask="url(#h)"/>
            </g>
            <g transform="translate(277.094 180.265)">
                <mask id="j" fill="#fff">
                    <use xlink:href="#i"/>
                </mask>
                <path fill="#FFF" d="M-4.933 9.872H7.495V-4.62H-4.933z" mask="url(#j)"/>
            </g>
            <path fill="#FFF" d="M273.658 179.937v4.695h1.329v-.411h-.895v-4.284z"/>
            <g transform="translate(283.617 180.018)">
                <mask id="l" fill="#fff">
                    <use xlink:href="#k"/>
                </mask>
                <path fill="#FFF" d="M-5.416 6.184H5.992V-5.238H-5.416z" mask="url(#l)"/>
            </g>
            <path fill="#404E61" d="M643.168 200.339a3.729 3.729 0 0 1-3.717 3.717H230.17a3.729 3.729 0 0 1-3.718-3.717v-44.2a3.729 3.729 0 0 1 3.718-3.718h409.28a3.729 3.729 0 0 1 3.717 3.718v44.2z"/>
            <path fill="#FFF" d="M639.297 152.42H230.325c-2.13 0-3.873 1.162-3.873 2.583v16.675H643.17v-16.675c0-1.421-1.744-2.582-3.872-2.582"/>
            <path fill="#7B9FD6" d="M226.453 174.81H643.17v-3.132H226.453z"/>
            <path stroke="#5D6E8A" stroke-width=".6" d="M643.168 200.339a3.729 3.729 0 0 1-3.717 3.717H230.17a3.729 3.729 0 0 1-3.718-3.717v-44.2a3.729 3.729 0 0 1 3.718-3.718h409.28a3.729 3.729 0 0 1 3.717 3.718v44.2z"/>
        </g>
        <path stroke="#9CBAEE" stroke-linecap="square" stroke-width=".665" d="M30 1H16v26M44 122H30v36.14M30 93H16V64M44 227.368H30V189"/>
        <text fill="#5D6E8A" font-family="ProximaNova-Regular, Proxima Nova" font-size="12">
            <tspan x=".37" y="51">190 cm</tspan>
        </text>
        <text fill="#5D6E8A" font-family="ProximaNova-Regular, Proxima Nova" font-size="12">
            <tspan x="14.37" y="177">190 cm</tspan>
        </text>
        <text fill="#5D6E8A" font-family="ProximaNova-Regular, Proxima Nova" font-size="12">
            <tspan x="48.244" y="109">100 cm</tspan>
        </text>
        <text fill="#5D6E8A" font-family="ProximaNova-Regular, Proxima Nova" font-size="12">
            <tspan x="193.376" y="109">150 cm</tspan>
        </text>
        <text fill="#5D6E8A" font-family="ProximaNova-Regular, Proxima Nova" font-size="12">
            <tspan x="114.206" y="109">135 cm</tspan>
        </text>
        <text fill="#5D6E8A" font-family="ProximaNova-Regular, Proxima Nova" font-size="12">
            <tspan x="282.25" y="109">200 cm</tspan>
        </text>
        <path stroke="#9CBAEE" stroke-linecap="square" stroke-width=".554" d="M41 95v11.573h5.815M98 95v11.573h11.478M173 95v11.573h11.478M254 95v11.573h21.41M91.815 95v11.573H86M166.32 95v11.573H154M249.32 95v11.573H237M355.486 95v11.573H329"/>
        <g>
            <path fill="#FFF" d="M151.89 224.31c0 1-.812 1.817-1.806 1.817H60.07a1.817 1.817 0 0 1-1.806-1.818V124.084c0-1 .813-1.818 1.806-1.818h90.014c.994 0 1.806.818 1.806 1.818v100.225z"/>
            <path fill="#404E61" d="M151.83 224.31c0 1-.812 1.817-1.806 1.817H60.01a1.817 1.817 0 0 1-1.806-1.818v-8.57c0-1 .813-1.817 1.806-1.817h90.014c.994 0 1.806.818 1.806 1.818v8.57z"/>
            <path fill="#F6F9FF" d="M150.92 213.922H59.114c-.5 0-.91.275-.91.61v3.941h93.627v-3.941c0-.335-.41-.61-.91-.61"/>
            <path fill="#7B9FD6" d="M58.204 219.214h93.626v-.74H58.204z"/>
            <path fill="#7B9FD6" d="M102.093 222.49h5.968v-3.94h-5.968z"/>
            <path fill="#FFF" d="M106.66 220.72c-.068.034-.136.065-.2.101a.113.113 0 0 0-.057.1c-.002.074-.004.15 0 .224.004.07.062.118.131.117.072-.002.127-.053.128-.125.002-.134.001-.268.001-.403l-.002-.014m-.259-.275h-.163c0-.058-.002-.117 0-.176a.233.233 0 0 1 .06-.14c.067-.082.156-.107.256-.102a.284.284 0 0 1 .21.1c.035.043.06.092.06.147.002.284.004.568.004.852a.344.344 0 0 1-.015.096.253.253 0 0 1-.177.177.328.328 0 0 1-.257-.02.244.244 0 0 1-.14-.205 2.201 2.201 0 0 1-.005-.243c.004-.132.074-.22.192-.274.072-.034.146-.066.219-.101.008-.004.017-.016.017-.024v-.226a.126.126 0 0 0-.129-.127.123.123 0 0 0-.131.12c-.003.048 0 .096 0 .146M105.576 221.389h-.164l-.001-.024v-1.04c0-.072.015-.139.062-.195.07-.085.164-.11.269-.102a.288.288 0 0 1 .185.084.29.29 0 0 1 .079.212v1.052l-.001.012h-.165v-.03-1.03c0-.054-.015-.1-.063-.129-.093-.055-.197.005-.2.118-.002.026 0 .052-.001.078v.994zM104.162 220.053h.165l.002.027v1.03c-.001.082-.018.158-.078.218a.29.29 0 0 1-.18.084.334.334 0 0 1-.19-.032.251.251 0 0 1-.142-.2c-.005-.035-.005-.072-.006-.107v-1.02h.165v1.057c0 .049.01.095.054.126a.131.131 0 0 0 .141.01.118.118 0 0 0 .069-.114v-1.079zM104.573 220.053h.164v1.057c0 .049.01.095.053.126a.132.132 0 0 0 .142.01.12.12 0 0 0 .068-.115V220.053h.167V221.107c0 .083-.016.16-.077.221a.285.285 0 0 1-.18.084.332.332 0 0 1-.192-.032.249.249 0 0 1-.14-.2.789.789 0 0 1-.005-.107v-1.02zM103.217 221.234h.313v.154h-.464v-1.765h.15zM107.061 219.817a.089.089 0 1 1-.178 0 .089.089 0 0 1 .178 0"/>
            <path stroke="#404E61" stroke-width=".6" d="M151.89 224.31c0 1-.812 1.817-1.806 1.817H60.07a1.817 1.817 0 0 1-1.806-1.818V124.084c0-1 .813-1.818 1.806-1.818h90.014c.994 0 1.806.818 1.806 1.818v100.225z"/>
            <path stroke="#5D6E8A" stroke-width=".6" d="M151.89 224.31c0 1-.812 1.817-1.806 1.817H60.07a1.817 1.817 0 0 1-1.806-1.818V124.084c0-1 .813-1.818 1.806-1.818h90.014c.994 0 1.806.818 1.806 1.818v100.225z"/>
        </g>
        <g>
            <path fill="#FFF" d="M355.01 92.266c0 1.016-.83 1.847-1.845 1.847H256.89a1.851 1.851 0 0 1-1.844-1.847V1.889c0-1.016.83-1.847 1.844-1.847h96.274c1.014 0 1.844.831 1.844 1.847v90.377z"/>
            <path fill="#404E61" d="M355.01 92.266c0 1.016-.83 1.847-1.845 1.847H256.89a1.851 1.851 0 0 1-1.844-1.847v-8.709c0-1.016.83-1.847 1.844-1.847h96.274c1.014 0 1.844.831 1.844 1.847v8.709z"/>
            <path fill="#F6F9FF" d="M354.08 81.71h-98.104c-.511 0-.93.28-.93.62v4.005h99.964V82.33c0-.34-.419-.62-.93-.62"/>
            <path fill="#7B9FD6" d="M255.047 87.088h99.963v-.753h-99.963z"/>
            <path fill="#7B9FD6" d="M302.642 90.417h6.097v-4.005h-6.097z"/>
            <path fill="#FFF" d="M307.308 88.618c-.07.035-.14.066-.204.103a.114.114 0 0 0-.06.1c0 .077-.002.153.001.23.005.071.063.12.135.117.072-.001.128-.052.13-.126.002-.137 0-.273.001-.41l-.003-.014m-.264-.28h-.166c0-.059-.003-.119 0-.179a.24.24 0 0 1 .06-.142c.069-.083.16-.108.263-.103a.292.292 0 0 1 .214.102c.036.043.06.093.06.149.003.288.005.577.006.866a.349.349 0 0 1-.016.097.258.258 0 0 1-.181.18.337.337 0 0 1-.263-.02.248.248 0 0 1-.142-.208 2.225 2.225 0 0 1-.005-.248c.004-.134.075-.224.195-.278.075-.034.15-.067.224-.103.008-.003.017-.016.017-.024a5.403 5.403 0 0 0 0-.23.128.128 0 0 0-.13-.128c-.075-.002-.13.046-.135.122-.003.048 0 .096 0 .148M306.2 89.298h-.167l-.001-.025v-1.057c0-.072.016-.14.063-.198.072-.085.168-.111.275-.103a.293.293 0 0 1 .189.086c.06.059.08.135.08.215.001.356 0 .712 0 1.068v.013h-.17v-.03-1.047c0-.055-.014-.102-.063-.13-.096-.058-.201.004-.206.12V89.297zM304.756 87.94h.169l.001.028v1.046c0 .084-.018.161-.079.222a.297.297 0 0 1-.184.085.342.342 0 0 1-.195-.032.256.256 0 0 1-.144-.204.793.793 0 0 1-.006-.108V87.94h.168V89.014c0 .05.01.097.055.129a.135.135 0 0 0 .144.01.12.12 0 0 0 .07-.116V87.94zM305.175 87.94h.168V89.014c0 .05.01.097.054.129a.136.136 0 0 0 .145.01.121.121 0 0 0 .07-.117l.001-1.06v-.036h.169l.001.028v1.044c0 .084-.017.162-.08.224a.29.29 0 0 1-.183.085.34.34 0 0 1-.196-.033.254.254 0 0 1-.143-.203.897.897 0 0 1-.006-.108V87.94zM303.804 89.14h.351v.157h-.52v-1.793h.17zM307.764 87.724c0 .063-.051.114-.114.114a.114.114 0 1 1 .114-.114"/>
            <path stroke="#5D6E8A" stroke-width=".6" d="M355.01 92.266c0 1.016-.83 1.847-1.845 1.847H256.89a1.851 1.851 0 0 1-1.844-1.847V1.889c0-1.016.83-1.847 1.844-1.847h96.274c1.014 0 1.844.831 1.844 1.847v90.377z"/>
        </g>
        <g>
            <text fill="#5D6E8A" font-family="ProximaNova-Regular, Proxima Nova" font-size="12" transform="translate(59 236)">
                <tspan x="29.254" y="14">183 cm</tspan>
            </text>
            <path stroke="#9CBAEE" stroke-linecap="square" stroke-width=".634" d="M59 236.6v13.226h21.55M152.112 236.14v13.226h-20.589"/>
        </g>
        <circle cx="65.5" cy="42.5" r="10.5" stroke="#8BA7D4"/>
        <circle cx="133.5" cy="42.5" r="10.5" stroke="#8BA7D4"/>
        <circle cx="210.5" cy="42.5" r="10.5" stroke="#8BA7D4"/>
        <circle cx="104.5" cy="169.5" r="10.5" stroke="#8BA7D4"/>
        <circle cx="305.5" cy="42.5" r="10.5" stroke="#8BA7D4"/>
        <text fill="#404E61" font-family="ProximaNova-Bold, Proxima Nova" font-size="12" font-weight="bold">
            <tspan x="64.356" y="47">I</tspan>
        </text>
        <text fill="#404E61" font-family="ProximaNova-Bold, Proxima Nova" font-size="12" font-weight="bold">
            <tspan x="128.37" y="47">M</tspan>
        </text>
        <text fill="#404E61" font-family="ProximaNova-Bold, Proxima Nova" font-size="12" font-weight="bold">
            <tspan x="206.41" y="47">Q</tspan>
        </text>
        <text fill="#404E61" font-family="ProximaNova-Bold, Proxima Nova" font-size="12" font-weight="bold">
            <tspan x="96.062" y="174">CK</tspan>
        </text>
        <text fill="#404E61" font-family="ProximaNova-Bold, Proxima Nova" font-size="12" font-weight="bold">
            <tspan x="302.184" y="47">K</tspan>
        </text>
    </g>
</svg>
