<svg xmlns="http://www.w3.org/2000/svg" width="53" height="29" viewBox="0 0 53 29">
    <g fill="none" fill-rule="evenodd" stroke="#5D6E8A" stroke-width="2">
        <path fill="#FEFEFE" d="M22.917 4.68c-1.586 0-3.914-.788-5.171-1.754l-.07-.053c-1.257-.965-3.585-1.754-5.17-1.754H4.115A2.891 2.891 0 0 0 1.232 4v20.333a2.892 2.892 0 0 0 2.883 2.884h8.39c1.586 0 3.912-.79 5.171-1.756l.07-.053c1.257-.964 3.585-1.755 5.17-1.755h7.922a2.892 2.892 0 0 0 2.884-2.882V7.563a2.892 2.892 0 0 0-2.884-2.882h-7.921z"/>
        <path fill="#FFF" d="M44.407 17.954a3.787 3.787 0 1 1 .002-7.575 3.787 3.787 0 0 1-.002 7.575m-16.133-.517h-3.235a3.277 3.277 0 1 1 0-6.554h3.235a3.277 3.277 0 0 1 0 6.554M45.11 7.602H24.258a6.56 6.56 0 1 0 0 13.117H45.11a6.56 6.56 0 0 0 0-13.117"/>
        <path fill="#FEFEFE" d="M26.178 14.168a2.332 2.332 0 0 1-2.33 2.331H9.757a2.332 2.332 0 0 1 0-4.662h14.09a2.332 2.332 0 0 1 2.33 2.331"/>
    </g>
</svg>
